<?xml version="1.0" encoding="utf-8"?>
<!-- Generator: Adobe Illustrator 24.2.3, SVG Export Plug-In . SVG Version: 6.00 Build 0)  -->
<svg version="1.1" id="Capa_1" xmlns="http://www.w3.org/2000/svg" xmlns:xlink="http://www.w3.org/1999/xlink" x="0px" y="0px"
	 viewBox="0 0 756 756" style="enable-background:new 0 0 756 756;" xml:space="preserve">
<style type="text/css">
	.st0{fill:#D91A81;}
</style>
<g>
	<path class="st0" d="M378,756c-51,0-100.5-10-147.2-29.7c-45-19-85.4-46.3-120.1-81c-34.7-34.7-61.9-75.1-81-120.1
		C10,478.5,0,429,0,378s10-100.5,29.7-147.2c19-45,46.3-85.4,81-120.1c34.7-34.7,75.1-61.9,120.1-81C277.5,10,327,0,378,0
		s100.5,10,147.2,29.7c45,19,85.4,46.3,120.1,81c34.7,34.7,61.9,75.1,81,120.1C746,277.5,756,327,756,378s-10,100.5-29.7,147.2
		c-19,45-46.3,85.4-81,120.1s-75.1,61.9-120.1,81C478.5,746,429,756,378,756z M378,150c-125.7,0-228,102.3-228,228
		c0,125.7,102.3,228,228,228c125.7,0,228-102.3,228-228C606,252.3,503.7,150,378,150z"/>
</g>
</svg>
