<?xml version="1.0" encoding="utf-8"?>
<!-- Generator: Adobe Illustrator 24.2.3, SVG Export Plug-In . SVG Version: 6.00 Build 0)  -->
<svg version="1.1" id="Capa_1" xmlns="http://www.w3.org/2000/svg" xmlns:xlink="http://www.w3.org/1999/xlink" x="0px" y="0px"
	 viewBox="0 0 26.5 14" style="enable-background:new 0 0 26.5 14;" xml:space="preserve">
<style type="text/css">
	.st0{fill:#A0A0A0;}
</style>
<g id="INATEC">
	<path id="Trazado_835" class="st0" d="M2.8,0.9c0.1,0,0.3,0,0.4-0.1c0.1-0.1,0.1-0.2,0.1-0.3c0-0.1,0-0.2-0.1-0.3
		C3.1,0.1,3,0.1,2.8,0.1H0.5c-0.1,0-0.3,0-0.4,0.1C0,0.4,0,0.6,0.1,0.8c0,0,0,0,0,0c0.1,0.1,0.3,0.1,0.4,0.1h0.8v2.9H0.5
		c-0.1,0-0.3,0-0.4,0.1C0,4,0,4.1,0,4.2c0,0.1,0,0.2,0.1,0.3c0.1,0.1,0.3,0.1,0.4,0.1h2.3c0.1,0,0.3,0,0.4-0.1
		c0.1-0.1,0.1-0.2,0.1-0.3c0-0.1,0-0.2-0.1-0.3C3.1,3.9,3,3.8,2.8,3.8H2.1V0.9L2.8,0.9z"/>
	<path id="Trazado_836" class="st0" d="M8.5,0.5c0-0.1,0-0.2-0.1-0.3C8.2,0.1,8.1,0.1,7.9,0.1h-1c-0.1,0-0.3,0-0.4,0.1
		c-0.2,0.2-0.2,0.4,0,0.6c0,0,0,0,0,0c0.1,0.1,0.3,0.1,0.4,0.1h0.3v2.2l-1.9-3l0,0H4.4c-0.1,0-0.3,0-0.4,0.1
		C3.9,0.3,3.9,0.4,3.9,0.5c0,0.1,0,0.2,0.1,0.3c0.1,0.1,0.3,0.1,0.4,0.1h0.1v2.9c-0.1,0-0.3,0-0.4,0.1C4.1,4,4,4.1,4,4.2
		c0,0.1,0,0.2,0.1,0.3c0.1,0.1,0.3,0.1,0.4,0.1h1c0.1,0,0.3,0,0.4-0.1C6,4.4,6.1,4.3,6.1,4.2C6.1,4.1,6,4,5.9,4
		C5.8,3.9,5.7,3.8,5.5,3.8H5.3V1.6l1.9,3l0,0H8c0,0,0,0,0,0V0.9c0.1,0,0.3,0,0.3-0.1C8.4,0.7,8.5,0.6,8.5,0.5z"/>
	<path id="Trazado_837" class="st0" d="M13.1,3.9c-0.1-0.1-0.2-0.1-0.4-0.1l-1.5-3.7c0,0,0,0,0,0H9.5c-0.1,0-0.3,0-0.4,0.1
		C9,0.4,9,0.6,9.1,0.8c0,0,0,0,0,0c0.1,0.1,0.3,0.1,0.4,0.1H10L8.8,3.8c-0.1,0-0.3,0-0.4,0.1c-0.2,0.1-0.2,0.4,0,0.6c0,0,0,0,0,0
		c0.1,0.1,0.3,0.1,0.4,0.1h1c0.1,0,0.3,0,0.4-0.1c0.2-0.1,0.2-0.4,0-0.6c0,0,0,0,0,0C10.1,3.9,10,3.8,9.9,3.8H9.7l0.2-0.4h1.8
		l0.2,0.4h-0.2c-0.1,0-0.3,0-0.4,0.1c-0.1,0.1-0.1,0.2-0.1,0.3c0,0.1,0,0.2,0.1,0.3c0.1,0.1,0.3,0.1,0.4,0.1h1c0.1,0,0.3,0,0.4-0.1
		c0.1-0.1,0.1-0.2,0.1-0.3C13.2,4.1,13.2,4,13.1,3.9z M10.2,2.6l0.6-1.5l0.6,1.5H10.2z"/>
	<path id="Trazado_838" class="st0" d="M17.3,0.1h-3.9v1.5c0,0.1,0,0.3,0.1,0.4c0.1,0.1,0.2,0.1,0.3,0.1c0.1,0,0.2,0,0.3-0.1
		c0.1-0.1,0.1-0.3,0.1-0.4V0.9h0.8v2.9h-0.5c-0.1,0-0.3,0-0.4,0.1C14,4,13.9,4.1,13.9,4.2c0,0.1,0,0.2,0.1,0.3
		c0.1,0.1,0.3,0.1,0.4,0.1h1.8c0.1,0,0.3,0,0.4-0.1c0.1-0.1,0.1-0.2,0.1-0.3c0-0.1,0-0.2-0.1-0.3c-0.1-0.1-0.3-0.1-0.4-0.1h-0.5V0.9
		h0.8v0.7c0,0.1,0,0.3,0.1,0.4c0.1,0.2,0.4,0.2,0.6,0c0,0,0,0,0,0c0.1-0.1,0.1-0.3,0.1-0.4L17.3,0.1C17.3,0.1,17.3,0.1,17.3,0.1
		L17.3,0.1z"/>
	<path id="Trazado_839" class="st0" d="M21.4,2.9c-0.1,0-0.2,0-0.3,0.1C21,3.2,21,3.3,21,3.4v0.4h-1.9V2.7h0.6c0,0.1,0,0.3,0.1,0.4
		c0.1,0.2,0.4,0.2,0.5,0.1c0.1,0,0.1-0.1,0.1-0.1c0.1-0.1,0.1-0.2,0.1-0.3V1.9c0-0.1,0-0.3-0.1-0.4c-0.1-0.1-0.2-0.1-0.3-0.1
		c-0.1,0-0.3,0.1-0.3,0.2c0,0.1-0.1,0.2-0.1,0.4h-0.6V0.9h1.7v0.4c0,0.1,0,0.3,0.1,0.4c0.1,0.1,0.2,0.1,0.3,0.1c0.1,0,0.2,0,0.3-0.1
		c0.1-0.1,0.1-0.3,0.1-0.4V0.1c0,0,0,0,0,0h-3.4c-0.1,0-0.3,0-0.4,0.1c-0.2,0.2-0.2,0.4,0,0.6c0,0,0,0,0,0c0.1,0.1,0.3,0.1,0.4,0.1
		h0.1v2.9h-0.1c-0.1,0-0.3,0-0.4,0.1c-0.1,0.1-0.1,0.2-0.1,0.3c0,0.1,0,0.2,0.1,0.3c0.1,0.1,0.3,0.1,0.4,0.1h3.6c0,0,0,0,0,0V3.4
		c0-0.1,0-0.3-0.1-0.4C21.6,3,21.5,2.9,21.4,2.9z"/>
	<path id="Trazado_840" class="st0" d="M26.3,3.5c-0.1-0.1-0.2-0.1-0.3-0.1c-0.1,0-0.1,0-0.2,0c-0.1,0-0.1,0.1-0.2,0.2
		c-0.1,0.1-0.2,0.2-0.4,0.3c-0.2,0.1-0.5,0.1-0.7,0.1c-0.4,0-0.8-0.1-1.1-0.4c-0.3-0.2-0.4-0.6-0.4-0.9V2.2c0-0.3,0.1-0.6,0.2-0.8
		C23.6,1,24,0.8,24.5,0.8c0.2,0,0.4,0,0.5,0.1c0.2,0.1,0.3,0.1,0.4,0.3c0.1,0.1,0.1,0.1,0.1,0.2c0,0.1,0.1,0.2,0.1,0.3
		c0.1,0.1,0.2,0.1,0.3,0.1c0.1,0,0.2,0,0.3-0.1c0.1-0.1,0.1-0.3,0.1-0.4V0.6c0-0.1,0-0.3-0.1-0.4c-0.1-0.1-0.3-0.2-0.5-0.1
		c-0.1,0-0.1,0.1-0.2,0.1c-0.2-0.1-0.3-0.2-0.5-0.2C24.9,0,24.7,0,24.5,0c-0.4,0-0.7,0.1-1,0.3c-0.3,0.2-0.6,0.5-0.8,0.8
		c-0.2,0.3-0.3,0.7-0.3,1.1v0.5c0,0.4,0.1,0.7,0.3,1.1c0.2,0.3,0.4,0.5,0.8,0.7c0.4,0.2,0.8,0.3,1.2,0.3c0.4,0,0.7-0.1,1.1-0.2
		c0.2-0.1,0.4-0.2,0.6-0.4c0.1-0.1,0.2-0.2,0.2-0.3C26.5,3.7,26.4,3.6,26.3,3.5z"/>
	<path id="Trazado_841" class="st0" d="M7.4,10.9l0.2,0.8H7.2L7.4,10.9z M7.4,10.3c0.1,0,0.2,0.1,0.2,0.2c0,0.1-0.1,0.2-0.2,0.2l0,0
		c-0.1,0-0.2-0.1-0.2-0.2C7.3,10.4,7.4,10.3,7.4,10.3L7.4,10.3z M7.4,9.7c-0.1,0-0.2,0.1-0.2,0.2v0.2c-0.2,0.1-0.2,0.3-0.1,0.5
		c0,0,0.1,0.1,0.1,0.1l-0.2,0.1l-0.3,0.8H6.4c0,0-0.1,0-0.1,0.1v0c0,0,0,0.1,0.1,0.1h0.4L6.7,12l-0.1,0.3l0.3,0.5l0.3-1h0.6l0.3,1
		l0.3-0.5L8.2,12l-0.1-0.2h0.4c0,0,0.1,0,0.1-0.1v0c0,0,0-0.1-0.1-0.1H8.1l-0.3-0.8l-0.2-0.1c0.2-0.1,0.2-0.4,0.1-0.5
		c0,0-0.1-0.1-0.1-0.1V9.9C7.6,9.8,7.6,9.7,7.4,9.7L7.4,9.7L7.4,9.7z"/>
	<path id="Trazado_842" class="st0" d="M11.6,11.5v0.6c0,0.1,0.1,0.2,0.2,0.2c0,0,0,0,0,0h2.3c0.1,0,0.2-0.1,0.2-0.2l0,0v-0.6h-1.2
		c0,0.1-0.1,0.2-0.2,0.2c-0.1,0-0.2-0.1-0.2-0.2L11.6,11.5z M12.9,11.3c-0.1,0-0.1,0.1-0.1,0.1c0,0.1,0.1,0.1,0.1,0.1
		c0.1,0,0.1-0.1,0.1-0.1l0,0C13.1,11.4,13,11.3,12.9,11.3L12.9,11.3z M12.9,10.4c0.1,0,0.2,0,0.3,0.1c0,0,0,0,0,0v0.1h-0.6v-0.1
		c0,0,0,0,0,0C12.7,10.5,12.8,10.4,12.9,10.4L12.9,10.4z M12.9,10.3c-0.1,0-0.3,0-0.4,0.1c0,0,0,0.1,0,0.1c0,0,0,0.1,0,0.1v0.1h-0.8
		c-0.1,0-0.2,0.1-0.2,0.2l0,0v0.6h1.2c0-0.1,0.1-0.2,0.2-0.1c0.1,0,0.1,0.1,0.1,0.1h1.2v-0.6c0-0.1-0.1-0.2-0.2-0.2h-0.8v-0.1
		c0,0,0,0,0-0.1c0,0,0-0.1,0-0.1C13.2,10.3,13.1,10.3,12.9,10.3L12.9,10.3z"/>
	<path id="Trazado_843" class="st0" d="M20.5,11.7l-2.8,1.6c0.3,0.1,0.6,0.1,0.9,0.1l1.8-1.4C20.5,11.9,20.5,11.8,20.5,11.7z
		 M20.5,11.6L17,12.9c0.1,0.1,0.3,0.2,0.4,0.3l3.1-1.5C20.5,11.6,20.5,11.6,20.5,11.6L20.5,11.6z M16.2,11.5c0,0.1,0,0.2,0,0.3
		l0.4,0.3L17,12C16.8,11.8,16.5,11.6,16.2,11.5L16.2,11.5z M20.6,11.4l-3.9,1c0.1,0.1,0.1,0.2,0.2,0.3L20.6,11.4
		C20.5,11.5,20.6,11.5,20.6,11.4L20.6,11.4z M20.6,11.4l-4.1,0.8c0,0.1,0.1,0.1,0.1,0.2L20.6,11.4C20.6,11.4,20.6,11.4,20.6,11.4
		L20.6,11.4z M18.7,11.3v0.1h0.1v-0.1H18.7z M19.2,11.2v0.2h0.2v-0.2H19.2z M16.2,11.2C16.2,11.2,16.2,11.2,16.2,11.2L16.2,11.2
		l1.1,0.7l0.3-0.1L16.2,11.2z M16.2,11L16.2,11c0.6,0.3,1.2,0.5,1.8,0.7c0.1,0,0.2,0,0.3,0L16.2,11z M16.5,11l2.3,0.7
		c0.1,0,0.2,0,0.3,0L16.5,11z M17.4,10.7h-0.2c-0.3,0-0.6,0-0.9,0c0,0,0,0.1,0,0.1c0.6,0,1.5,0,2.2,0c0,0,0-0.1,0-0.1
		C18.1,10.7,17.8,10.7,17.4,10.7L17.4,10.7z M18.8,9.9C18.8,9.9,18.8,9.9,18.8,9.9L18.8,9.9C18.7,10,18.7,10,18.8,9.9
		c-0.2,0.2-0.2,0.4-0.3,0.7c0,0.1,0,0.2,0,0.3c0,0.1,0,0.2,0,0.2c0,0,0.1,0.1,0.1,0.1c0.1,0,0.1,0,0.2,0c0.1,0,0.1,0,0.2,0
		c0,0,0.1,0,0.1-0.1c-0.1-0.1-0.2-0.2-0.2-0.3c0-0.2,0-0.4,0.1-0.6C18.9,10.1,18.9,10,18.8,9.9C18.8,10,18.8,10,18.8,9.9L18.8,9.9
		C18.8,9.9,18.8,9.9,18.8,9.9L18.8,9.9z M19.3,9.4C19.3,9.4,19.3,9.4,19.3,9.4C19.3,9.5,19.3,9.5,19.3,9.4
		C19.3,9.5,19.2,9.5,19.3,9.4c-0.2,0.3-0.3,0.6-0.4,0.9c0,0.1,0,0.2,0,0.3c0,0.1,0,0.2,0.1,0.3c0,0.1,0.1,0.1,0.2,0.1
		c0.1,0,0.1,0.1,0.2,0.1c0.1,0,0.1,0,0.2-0.1c0.1,0,0.1-0.1,0.1-0.1c0.3,0.1,0.6,0.2,0.9,0.2v0c0,0,0-0.1,0-0.1
		C20.3,11,20,11,19.7,10.9c0-0.1,0-0.2,0-0.2c0-0.1,0-0.2,0-0.3C19.6,10,19.5,9.8,19.3,9.4C19.4,9.5,19.4,9.5,19.3,9.4
		C19.4,9.5,19.4,9.5,19.3,9.4C19.3,9.4,19.3,9.4,19.3,9.4L19.3,9.4z M18,9.1c-0.3,0.1-0.6,0.2-0.9,0.4c0,0.3,0.3,0.5,0.6,0.5
		c0.3,0,0.5-0.3,0.5-0.5l0,0C18.1,9.4,18.1,9.2,18,9.1L18,9.1z"/>
	<path id="Trazado_844" class="st0" d="M2.1,5.9H1.2c0,0-0.1,0-0.1,0.1c0,0,0,0,0,0l0,0v0.4c0,0,0,0.1,0,0.1c0,0,0,0,0.1,0
		c0,0,0.1,0,0.1,0c0,0,0-0.1,0-0.1V6.1h0.2V7H1.4c0,0-0.1,0-0.1,0c0,0,0,0.1,0,0.1c0,0,0,0,0,0c0,0,0.1,0,0.1,0h0.5c0,0,0.1,0,0.1,0
		c0,0,0,0,0-0.1C2,7.1,2,7,2,7c0,0-0.1,0-0.1,0H1.7V6.1H2v0.2c0,0,0,0.1,0,0.1c0,0,0,0,0.1,0c0,0,0.1,0,0.1,0c0,0,0-0.1,0-0.1
		L2.1,5.9C2.2,5.9,2.1,5.9,2.1,5.9z"/>
	<path id="Trazado_845" class="st0" d="M3.3,6.9c0,0-0.1,0-0.1,0C3.2,7,3.1,7,3,7C3,7,2.9,7,2.9,7C2.8,7,2.7,7,2.6,6.9
		c0,0-0.1-0.1-0.1-0.2h0.8c0,0,0.1,0,0.1-0.1c0,0,0,0,0,0l0,0c0-0.1,0-0.3-0.1-0.4C3,6.1,2.7,6.1,2.5,6.3C2.4,6.4,2.3,6.6,2.3,6.7
		c0,0.1,0.1,0.3,0.2,0.4c0.1,0.1,0.2,0.2,0.4,0.2c0.1,0,0.2,0,0.3,0c0.1,0,0.1-0.1,0.2-0.1C3.4,7,3.4,7,3.3,6.9
		C3.4,7,3.4,6.9,3.3,6.9L3.3,6.9z M2.6,6.5c0.1-0.1,0.3-0.1,0.4,0c0,0,0.1,0.1,0.1,0.1H2.5C2.6,6.5,2.6,6.5,2.6,6.5z"/>
	<path id="Trazado_846" class="st0" d="M4.4,6.9c0,0-0.1,0.1-0.2,0.1C4.2,7,4.1,7,4.1,7C4,7,3.9,7,3.8,6.9C3.8,6.9,3.8,6.8,3.8,6.7
		c0-0.1,0-0.2,0.1-0.2C3.9,6.4,4,6.4,4.1,6.4c0.1,0,0.1,0,0.2,0.1c0,0,0.1,0.1,0.1,0.1c0,0,0,0.1,0,0.1l0,0c0,0,0,0,0.1,0
		c0,0,0.1,0,0.1,0c0,0,0-0.1,0-0.1V6.3c0,0,0-0.1,0-0.1c0,0,0,0-0.1,0c0,0,0,0-0.1,0c0,0,0,0,0,0c-0.1,0-0.2-0.1-0.3-0.1
		c-0.3,0-0.5,0.2-0.5,0.5c0,0,0,0,0,0c0,0.1,0,0.3,0.1,0.4c0.1,0.1,0.2,0.1,0.4,0.1c0.1,0,0.3,0,0.4-0.1C4.5,7,4.6,7,4.6,6.9
		c0,0,0,0,0-0.1C4.5,6.8,4.5,6.9,4.4,6.9z"/>
	<path id="Trazado_847" class="st0" d="M5.7,7L5.7,7l0-0.5c0-0.1,0-0.1-0.1-0.2c0,0-0.1-0.1-0.1-0.1c-0.1,0-0.1,0-0.2,0
		c-0.1,0-0.1,0-0.2,0c0,0-0.1,0-0.1,0l0,0c0,0,0-0.1-0.1-0.1c0,0,0,0,0,0H4.8c0,0-0.1,0-0.1,0c0,0,0,0.1,0,0.1c0,0,0,0,0,0
		c0,0,0.1,0,0.1,0h0V7h0c0,0-0.1,0-0.1,0c0,0,0,0,0,0.1c0,0,0,0,0,0.1c0,0,0.1,0,0.1,0h0.3c0,0,0.1,0,0.1,0l0,0c0,0,0,0,0-0.1
		c0,0,0-0.1,0-0.1c0,0-0.1,0-0.1,0h0V6.5c0-0.1,0.1-0.1,0.1-0.1c0,0,0.1,0,0.1,0c0,0,0.1,0,0.1,0c0,0,0,0.1,0,0.1V7h0
		c0,0-0.1,0-0.1,0c0,0,0,0,0,0.1c0,0,0,0.1,0,0.1c0,0,0.1,0,0.1,0h0.2c0,0,0.1,0,0.1,0C5.8,7.1,5.8,7.1,5.7,7C5.8,7.1,5.8,7,5.7,7
		C5.7,7,5.7,7,5.7,7z"/>
	<path id="Trazado_848" class="st0" d="M6.5,6.2C6.2,6.2,6,6.4,6,6.7l0,0C6,6.8,6,7,6.1,7.1c0.1,0.1,0.2,0.2,0.4,0.1
		c0.1,0,0.3-0.1,0.4-0.1C7,6.9,7,6.5,6.8,6.3c0,0,0,0,0,0C6.7,6.2,6.6,6.2,6.5,6.2z M6.2,6.9c-0.1-0.1-0.1-0.3,0-0.4c0,0,0,0,0,0
		c0.1-0.1,0.3-0.1,0.5,0c0.1,0.1,0.1,0.1,0.1,0.2c0,0.1,0,0.2-0.1,0.2C6.6,7,6.4,7,6.2,6.9z"/>
	<path id="Trazado_849" class="st0" d="M8,7H7.8V5.9c0,0,0-0.1-0.1-0.1c0,0,0,0,0,0H7.4c0,0-0.1,0-0.1,0l0,0c0,0,0,0,0,0.1
		c0,0,0,0.1,0,0.1c0,0,0.1,0,0.1,0h0.2v1H7.3c0,0-0.1,0-0.1,0c0,0,0,0,0,0.1c0,0,0,0.1,0,0.1c0,0,0.1,0,0.1,0H8c0,0,0.1,0,0.1,0l0,0
		c0,0,0,0,0-0.1C8.2,7.1,8.1,7,8,7C8.1,7,8.1,7,8,7z"/>
	<path id="Trazado_850" class="st0" d="M8.9,6.2c-0.1,0-0.3,0.1-0.4,0.2C8.4,6.4,8.4,6.6,8.4,6.7c0,0.1,0.1,0.3,0.1,0.4
		c0.1,0.1,0.2,0.2,0.4,0.1c0.1,0,0.3-0.1,0.4-0.1c0.2-0.2,0.2-0.5,0-0.7c0,0,0,0,0,0C9.1,6.2,9,6.2,8.9,6.2z M9.2,6.7
		c0,0.1,0,0.2-0.1,0.2C9.1,7,9,7,8.9,7C8.8,7,8.7,7,8.7,6.9c-0.1-0.1-0.1-0.3,0-0.4c0,0,0,0,0,0c0.1-0.1,0.1-0.1,0.2-0.1
		c0.1,0,0.2,0,0.2,0.1C9.2,6.5,9.2,6.6,9.2,6.7L9.2,6.7z"/>
	<path id="Trazado_851" class="st0" d="M8.7,6.2C8.7,6.2,8.7,6.2,8.7,6.2c0.1,0,0.1,0,0.1,0l0.2-0.2c0,0,0,0,0,0c0,0,0,0,0,0
		c0,0,0,0,0-0.1c0,0-0.1,0-0.1,0c0,0,0,0,0,0l0,0L8.7,6c0,0,0,0,0,0C8.7,6.1,8.7,6.1,8.7,6.2L8.7,6.2z"/>
	<path id="Trazado_852" class="st0" d="M10.6,6.2C10.6,6.2,10.6,6.2,10.6,6.2l-0.3,0c0,0-0.1,0-0.1,0.1c0,0,0,0,0,0l0,0v0
		c-0.1-0.1-0.2-0.1-0.3-0.1c-0.1,0-0.2,0.1-0.3,0.1C9.6,6.4,9.5,6.5,9.5,6.7c0,0.1,0,0.3,0.1,0.3C9.8,7.1,9.9,7.2,10,7.2
		c0.1,0,0.2,0,0.3-0.1v0.1c0,0,0,0.1,0,0.1c0,0,0,0.1-0.1,0.1c0,0-0.1,0-0.1,0H9.9c0,0-0.1,0-0.1,0c0,0,0,0,0,0.1c0,0,0,0.1,0,0.1
		c0,0,0.1,0,0.1,0h0.2c0,0,0.1,0,0.1,0c0,0,0.1,0,0.1-0.1c0.1-0.1,0.1-0.2,0.1-0.3V6.4h0.1c0,0,0.1,0,0.1,0
		C10.6,6.4,10.7,6.3,10.6,6.2C10.7,6.3,10.7,6.3,10.6,6.2z M10,7c-0.1,0-0.1,0-0.2-0.1c-0.1-0.1-0.1-0.3,0-0.4
		C9.9,6.4,10,6.4,10,6.4c0.1,0,0.1,0,0.2,0.1c0.1,0.1,0.1,0.3,0,0.4C10.2,6.9,10.1,7,10,7L10,7z"/>
	<path id="Rectángulo_93" class="st0" d="M11.2,5.8L11.2,5.8c0.1,0,0.2,0,0.2,0.1V6c0,0,0,0.1-0.1,0.1h-0.1c0,0-0.1,0-0.1-0.1
		L11.2,5.8C11.2,5.8,11.2,5.8,11.2,5.8z"/>
	<path id="Trazado_853" class="st0" d="M11.7,7h-0.3V6.3c0,0,0-0.1-0.1-0.1c0,0,0,0,0,0H11c0,0-0.1,0-0.1,0c0,0,0,0,0,0.1
		c0,0,0,0.1,0,0.1c0,0,0,0,0.1,0h0.2V7h-0.3c0,0-0.1,0-0.1,0c0,0,0,0.1,0,0.1c0,0,0,0,0,0l0,0c0,0,0,0,0.1,0h0.7c0,0,0.1,0,0.1,0
		l0,0c0,0,0,0,0-0.1C11.8,7.1,11.8,7,11.7,7C11.7,7,11.7,7,11.7,7z"/>
	<path id="Trazado_854" class="st0" d="M12.9,6.9C12.9,6.9,12.9,6.9,12.9,6.9C12.8,6.9,12.8,7,12.7,7c-0.1,0-0.1,0-0.2,0
		c-0.1,0-0.2,0-0.2-0.1c-0.1-0.1-0.1-0.1-0.1-0.2c0-0.1,0-0.2,0.1-0.2c0.1-0.1,0.1-0.1,0.2-0.1c0.1,0,0.1,0,0.2,0.1
		c0,0,0.1,0.1,0.1,0.1c0,0,0,0.1,0,0.1l0,0c0,0,0,0,0.1,0c0,0,0.1,0,0.1,0c0,0,0,0,0-0.1V6.3c0,0,0-0.1,0-0.1c0,0,0,0-0.1,0
		c0,0,0,0-0.1,0l0,0c-0.1,0-0.2-0.1-0.3-0.1c-0.3,0-0.5,0.2-0.5,0.5c0,0,0,0,0,0c0,0.1,0,0.3,0.1,0.4c0.1,0.1,0.2,0.1,0.4,0.1
		c0.1,0,0.3,0,0.4-0.1C13,7,13,7,12.9,6.9C13,6.9,13,6.9,12.9,6.9C13,6.9,13,6.9,12.9,6.9z"/>
	<path id="Trazado_855" class="st0" d="M13.7,6.2c-0.1,0-0.3,0.1-0.4,0.2c-0.1,0.1-0.2,0.2-0.2,0.4c0,0.1,0.1,0.3,0.2,0.4
		c0.2,0.2,0.5,0.2,0.7,0c0.2-0.2,0.2-0.5,0-0.7c0,0,0,0,0,0C14,6.2,13.8,6.2,13.7,6.2z M13.7,7c-0.1,0-0.2,0-0.2-0.1
		c-0.1-0.1-0.1-0.3,0-0.4c0,0,0,0,0,0c0.1-0.1,0.3-0.1,0.5,0C14,6.5,14,6.6,14,6.7c0,0.1,0,0.2-0.1,0.2C13.9,7,13.8,7,13.7,7L13.7,7
		z"/>
	<path id="Trazado_856" class="st0" d="M16.7,5.9C16.6,5.9,16.6,5.9,16.7,5.9l-0.4,0c0,0-0.1,0-0.1,0l0,0c0,0,0,0,0,0.1
		c0,0,0,0.1,0,0.1c0,0,0,0,0.1,0h0.1v0.7l-0.5-0.9c0,0,0,0,0,0h-0.2c0,0-0.1,0-0.1,0c0,0,0,0,0,0.1c0,0,0,0.1,0,0.1c0,0,0,0,0.1,0
		h0.1V7h0c0,0-0.1,0-0.1,0c0,0,0,0.1,0,0.1c0,0,0,0,0,0l0,0c0,0,0.1,0,0.1,0h0.3c0,0,0.1,0,0.1,0c0,0,0,0,0-0.1c0,0,0-0.1,0-0.1
		c0,0-0.1,0-0.1,0h-0.1V6.3l0.5,0.9c0,0,0,0,0,0h0.1c0,0,0.1,0,0.1-0.1c0,0,0,0,0,0v-1h0c0,0,0.1,0,0.1,0C16.7,6.1,16.7,6,16.7,5.9
		C16.7,6,16.7,6,16.7,5.9L16.7,5.9z"/>
	<path id="Trazado_857" class="st0" d="M17.7,7L17.7,7l-0.1-0.5c0-0.1,0-0.2-0.1-0.2c-0.1-0.1-0.2-0.1-0.3-0.1c-0.1,0-0.2,0-0.2,0
		c-0.1,0-0.1,0-0.1,0.1c0,0,0,0,0,0.1c0,0,0,0.1,0,0.1c0,0,0,0,0.1,0c0,0,0,0,0.1,0c0.1,0,0.2,0,0.3-0.1c0.1,0,0.1,0,0.2,0
		c0,0,0,0,0,0.1v0.1c0,0-0.1,0-0.1,0c0,0-0.1,0-0.1,0c-0.1,0-0.3,0-0.4,0.1c-0.1,0.1-0.1,0.2-0.1,0.3c0,0.1,0,0.2,0.1,0.2
		c0.1,0.1,0.2,0.1,0.3,0.1c0.1,0,0.2,0,0.3-0.1v0c0,0,0,0.1,0.1,0.1h0.2c0,0,0.1,0,0.1,0c0,0,0,0,0-0.1C17.9,7.1,17.8,7,17.7,7
		C17.8,7,17.8,7,17.7,7z M17,6.9C17,6.9,17,6.8,17,6.9c0.1-0.1,0.2-0.2,0.3-0.2c0,0,0.1,0,0.1,0c0,0,0.1,0,0.1,0v0.1
		c0,0-0.1,0.1-0.2,0.1c-0.1,0-0.1,0-0.2,0C17.1,7,17.1,7,17,6.9C17,7,17,6.9,17,6.9L17,6.9z"/>
	<path id="Trazado_858" class="st0" d="M19,6.9c0,0-0.1,0-0.1,0c0,0,0,0,0,0l0,0c0,0-0.1,0.1-0.2,0.1c-0.1,0-0.1,0-0.2,0
		c-0.1,0-0.2,0-0.2-0.1c-0.1-0.1-0.1-0.1-0.1-0.2c0-0.1,0-0.2,0.1-0.2c0.1-0.1,0.1-0.1,0.2-0.1c0.1,0,0.1,0,0.2,0.1
		c0,0,0.1,0.1,0.1,0.1c0,0,0,0.1,0,0.1c0,0,0,0,0.1,0c0,0,0.1,0,0.1,0c0,0,0-0.1,0-0.1V6.3c0,0,0-0.1,0-0.1c0,0-0.1,0-0.1,0
		c0,0,0,0,0,0c-0.1,0-0.2-0.1-0.3-0.1c-0.3,0-0.5,0.2-0.5,0.5c0,0,0,0,0,0c0,0.1,0,0.3,0.1,0.4c0.1,0.1,0.2,0.1,0.4,0.1
		c0.1,0,0.3,0,0.4-0.1C19,7,19.1,7,19,6.9C19.1,6.9,19,6.9,19,6.9L19,6.9z"/>
	<path id="Rectángulo_94" class="st0" d="M19.7,5.8L19.7,5.8c0.1,0,0.2,0,0.2,0.1V6c0,0,0,0.1-0.1,0.1h-0.1c0,0-0.1,0-0.1-0.1
		L19.7,5.8C19.6,5.8,19.6,5.8,19.7,5.8z"/>
	<path id="Trazado_859" class="st0" d="M20.2,7C20.2,7,20.1,7,20.2,7l-0.4,0V6.3c0,0,0-0.1-0.1-0.1l0,0h-0.3c0,0-0.1,0-0.1,0
		c0,0,0,0,0,0.1c0,0,0,0.1,0,0.1c0,0,0,0,0.1,0h0.2V7h-0.3c0,0-0.1,0-0.1,0c0,0,0,0,0,0.1c0,0,0,0.1,0,0.1c0,0,0.1,0,0.1,0h0.7
		c0,0,0.1,0,0.1,0C20.2,7.1,20.2,7.1,20.2,7C20.2,7.1,20.2,7,20.2,7z"/>
	<path id="Trazado_860" class="st0" d="M20.9,6.2c-0.3,0-0.5,0.2-0.5,0.5c0,0.3,0.2,0.5,0.5,0.5c0.1,0,0.3-0.1,0.4-0.1
		c0.1-0.1,0.2-0.2,0.2-0.4c0-0.1-0.1-0.3-0.2-0.4C21.2,6.2,21.1,6.2,20.9,6.2z M21.3,6.7c0,0.1,0,0.2-0.1,0.2
		c-0.1,0.1-0.3,0.1-0.5,0c-0.1-0.1-0.1-0.1-0.1-0.2c0-0.1,0-0.2,0.1-0.2c0.1-0.1,0.1-0.1,0.2-0.1c0.1,0,0.2,0,0.2,0.1
		C21.2,6.5,21.3,6.6,21.3,6.7L21.3,6.7z"/>
	<path id="Trazado_861" class="st0" d="M22.7,7C22.6,7,22.6,7,22.7,7L22.7,7l-0.1-0.5c0-0.1,0-0.1-0.1-0.2c0,0-0.1-0.1-0.1-0.1
		c-0.1,0-0.1,0-0.2,0c-0.1,0-0.1,0-0.2,0c0,0-0.1,0-0.1,0l0,0c0,0,0-0.1-0.1-0.1l0,0h-0.2c0,0-0.1,0-0.1,0c0,0,0,0,0,0.1
		c0,0,0,0.1,0,0.1c0,0,0.1,0,0.1,0h0V7h0c0,0-0.1,0-0.1,0c0,0,0,0,0,0.1c0,0,0,0.1,0,0.1c0,0,0.1,0,0.1,0H22c0,0,0.1,0,0.1,0
		c0,0,0,0,0-0.1c0,0,0-0.1,0-0.1c0,0,0,0-0.1,0h0V6.5c0-0.1,0.1-0.1,0.1-0.1c0,0,0.1,0,0.1,0c0,0,0.1,0,0.1,0c0,0,0,0.1,0,0.1V7h0
		c0,0-0.1,0-0.1,0c0,0,0,0,0,0.1c0,0,0,0,0,0.1l0,0c0,0,0.1,0,0.1,0h0.2c0,0,0.1,0,0.1,0C22.7,7.1,22.7,7.1,22.7,7
		C22.7,7.1,22.7,7,22.7,7z"/>
	<path id="Trazado_862" class="st0" d="M23.8,7L23.8,7l-0.1-0.5c0-0.1,0-0.2-0.1-0.2c-0.1-0.1-0.2-0.1-0.3-0.1c-0.1,0-0.2,0-0.2,0
		c-0.1,0-0.1,0-0.1,0.1c0,0,0,0,0,0.1c0,0,0,0,0,0.1c0,0,0,0,0.1,0c0,0,0,0,0.1,0c0.1,0,0.2,0,0.3-0.1c0.1,0,0.1,0,0.2,0
		c0,0,0,0,0,0.1v0.1c0,0-0.1,0-0.1,0c0,0-0.1,0-0.1,0c-0.1,0-0.3,0-0.4,0.1c-0.1,0.1-0.1,0.2-0.1,0.3c0,0.1,0,0.2,0.1,0.2
		c0.1,0.1,0.2,0.1,0.3,0.1c0.1,0,0.2,0,0.3-0.1v0c0,0,0,0.1,0.1,0.1l0,0h0.2c0,0,0.1,0,0.1,0c0,0,0,0,0-0.1C23.9,7.1,23.9,7,23.8,7
		C23.8,7,23.8,7,23.8,7z M23.1,7C23,7,23,6.9,23.1,7c0-0.1,0-0.2,0-0.2c0.1,0,0.2-0.1,0.2-0.1c0,0,0.1,0,0.1,0c0,0,0.1,0,0.1,0v0.1
		c0,0-0.1,0.1-0.2,0.1c-0.1,0-0.1,0-0.2,0C23.1,7,23.1,7,23.1,7L23.1,7z"/>
	<path id="Trazado_863" class="st0" d="M25,7C25,7,24.9,7,25,7l-0.4,0V5.9c0,0,0-0.1-0.1-0.1l0,0h-0.3c0,0-0.1,0-0.1,0l0,0
		c0,0,0,0.1,0,0.1c0,0,0,0,0,0c0,0,0.1,0,0.1,0h0.2v1h-0.3c0,0-0.1,0-0.1,0c0,0,0,0,0,0.1c0,0,0,0.1,0,0.1l0,0c0,0,0,0,0.1,0h0.7
		c0,0,0.1,0,0.1,0l0,0C25,7.1,25,7.1,25,7C25,7.1,25,7,25,7z"/>
	<path id="Trazado_864" class="st0" d="M18.4,9.1c1.2,0,2.2,1,2.2,2.2s-1,2.2-2.2,2.2c-1.2,0-2.2-1-2.2-2.2
		C16.2,10.1,17.2,9.1,18.4,9.1z M18.4,8.5c-1.5,0-2.7,1.2-2.7,2.7s1.2,2.7,2.7,2.7c1.5,0,2.7-1.2,2.7-2.7l0,0
		C21.1,9.7,19.9,8.5,18.4,8.5z"/>
	<path id="Trazado_865" class="st0" d="M12.9,9.1c1.2,0,2.2,1,2.2,2.2s-1,2.2-2.2,2.2s-2.2-1-2.2-2.2c0,0,0,0,0,0
		C10.8,10.1,11.8,9.1,12.9,9.1z M12.9,8.5c-1.5,0-2.8,1.2-2.8,2.7c0,1.5,1.2,2.8,2.7,2.8c0,0,0.1,0,0.1,0l0,0c1.5,0,2.7-1.2,2.7-2.7
		v0l0,0C15.7,9.8,14.5,8.5,12.9,8.5L12.9,8.5L12.9,8.5z"/>
	<path id="Trazado_866" class="st0" d="M7.4,9.1c1.2,0,2.2,1,2.2,2.2s-1,2.2-2.2,2.2s-2.2-1-2.2-2.2c0,0,0,0,0,0
		C5.3,10.1,6.3,9.1,7.4,9.1z M7.4,8.5c-1.5,0-2.7,1.2-2.7,2.7v0l0,0c0,1.5,1.2,2.7,2.7,2.7c0,0,0,0,0,0l0,0c1.5,0,2.7-1.2,2.7-2.7
		l0,0l0,0C10.2,9.8,9,8.5,7.4,8.5z"/>
</g>
</svg>
