<?xml version="1.0" encoding="utf-8"?>
<!-- Generator: Adobe Illustrator 24.2.3, SVG Export Plug-In . SVG Version: 6.00 Build 0)  -->
<svg version="1.1" id="Capa_1" xmlns="http://www.w3.org/2000/svg" xmlns:xlink="http://www.w3.org/1999/xlink" x="0px" y="0px"
	 viewBox="0 0 72.7 17.2" style="enable-background:new 0 0 72.7 17.2;" xml:space="preserve">
<style type="text/css">
	.st0{fill:#A0A0A0;}
</style>
<g id="Contraedenic">
	<path id="Trazado_473" class="st0" d="M23.3,14.9c-0.8,0-1.5-0.2-2-0.7c-1.1-1-1.1-2.7-0.1-3.8c0,0,0,0,0,0c0.6-0.5,1.3-0.8,2-0.7
		c0.5,0,0.9,0.1,1.3,0.3v1.3c-0.4-0.2-0.8-0.4-1.3-0.4c-0.4,0-0.8,0.1-1.1,0.4c-0.3,0.3-0.4,0.6-0.4,1c0,0.4,0.1,0.8,0.4,1
		c0.3,0.3,0.7,0.4,1.1,0.4c0.5,0,1-0.1,1.3-0.4v1.3C24.2,14.8,23.8,14.9,23.3,14.9z"/>
	<path id="Trazado_474" class="st0" d="M29.9,14.1c-1.1,1-2.8,1-3.9,0c-1-1-1-2.7,0-3.8c1.1-1,2.8-0.9,3.8,0.2
		C30.8,11.5,30.8,13.1,29.9,14.1z M27,13.3c0.5,0.5,1.4,0.5,1.9,0c0,0,0,0,0,0c0.5-0.6,0.5-1.5,0-2.1c-0.5-0.5-1.4-0.5-1.9,0
		c0,0,0,0,0,0C26.5,11.8,26.5,12.7,27,13.3z"/>
	<path id="Trazado_475" class="st0" d="M32.8,14.8h-1.3V9.7h1.1l2.2,2.8V9.7h1.3v5.1H35L32.8,12L32.8,14.8z"/>
	<path id="Trazado_476" class="st0" d="M38.1,14.8h-1.4l2.1-5.1h1.3l2.1,5.1h-1.4l-0.4-1.1h-1.9L38.1,14.8z M39.5,11.3l-0.5,1.4H40
		L39.5,11.3z"/>
	<path id="Trazado_477" class="st0" d="M44.6,14.8h-1.3v-4h-1.5V9.7h4.4v1.2h-1.5L44.6,14.8z"/>
	<path id="Trazado_478" class="st0" d="M48.2,14.8h-1.3V9.7h2.4c0.5,0,1,0.1,1.3,0.4c0.3,0.3,0.5,0.7,0.5,1.1c0,0.3-0.1,0.6-0.3,0.9
		c-0.2,0.3-0.4,0.5-0.7,0.6l1.5,2.1h-1.5l-1.4-2h-0.5L48.2,14.8z M48.2,10.8v1h1c0.2,0,0.3,0,0.4-0.1c0.1-0.1,0.2-0.2,0.2-0.4
		c0-0.1-0.1-0.3-0.2-0.4c-0.1-0.1-0.3-0.1-0.4-0.1H48.2z"/>
	<path id="Trazado_479" class="st0" d="M53.2,14.8h-1.4l2.1-5.1h1.3l2.1,5.1h-1.4l-0.4-1.1h-1.9L53.2,14.8z M54.5,11.3L54,12.7h1.1
		L54.5,11.3z"/>
	<path id="Trazado_480" class="st0" d="M59.9,14.8h-2V9.7h2c0.7,0,1.5,0.2,2,0.7c1,1,1.1,2.6,0.1,3.6c0,0-0.1,0.1-0.1,0.1
		C61.4,14.6,60.7,14.8,59.9,14.8z M59.2,10.8v2.8h0.6c0.4,0,0.8-0.1,1.2-0.4c0.5-0.6,0.5-1.5,0-2.1c-0.3-0.3-0.7-0.4-1.2-0.4
		L59.2,10.8z"/>
	<path id="Trazado_481" class="st0" d="M67.5,14.8h-3.9V9.7h3.9v1.2h-2.6v0.7h2v1.1h-2v1h2.6L67.5,14.8z"/>
	<path id="Trazado_482" class="st0" d="M70.8,14.9c-0.8,0-1.5-0.2-2-0.7c-1.1-1-1.1-2.7-0.1-3.8c0,0,0,0,0,0c0.6-0.5,1.3-0.8,2-0.7
		c0.5,0,0.9,0.1,1.3,0.3v1.3c-0.4-0.2-0.8-0.4-1.3-0.4c-0.4,0-0.8,0.1-1.1,0.4c-0.3,0.3-0.4,0.6-0.4,1c0,0.4,0.1,0.8,0.4,1
		c0.3,0.3,0.7,0.4,1.1,0.4c0.5,0,1-0.1,1.3-0.4v1.3C71.8,14.8,71.3,14.9,70.8,14.9z"/>
	<path id="Trazado_483" class="st0" d="M20.6,16.2V16c0,0,0-0.1,0-0.1c0,0,0,0-0.1,0c-0.1,0-0.1,0-0.1,0.1c0,0.1,0,0.1,0,0.2v0.6
		c0,0,0,0,0,0.1c0,0,0.1,0.1,0.1,0.1c0,0,0.1,0,0.1,0c0,0,0-0.1,0-0.1c0,0,0-0.1,0-0.1v-0.1h0.2v0.2c0,0,0,0,0,0.1c0,0,0,0,0,0.1
		c0,0,0,0,0,0.1c0,0.1-0.1,0.1-0.1,0.1c-0.1,0-0.1,0-0.2,0c0,0-0.1,0-0.1,0c0,0-0.1,0-0.1-0.1c0,0,0,0,0-0.1c0,0,0,0,0-0.1
		c0,0,0-0.1,0-0.1v-0.8c0,0,0-0.1,0-0.1c0,0,0-0.1,0-0.1c0,0,0,0,0-0.1c0,0,0.1-0.1,0.1-0.1c0,0,0.1,0,0.1,0c0.1,0,0.1,0,0.2,0
		c0,0,0.1,0.1,0.1,0.1c0,0,0,0.1,0,0.1c0,0,0,0.1,0,0.1v0.1L20.6,16.2z"/>
	<path id="Trazado_484" class="st0" d="M21.7,16.7v0.1c0,0,0,0.1,0,0.1c0,0,0,0,0,0.1c0,0,0,0,0,0.1c0,0-0.1,0.1-0.1,0.1
		c0,0-0.1,0-0.1,0c0,0-0.1,0-0.1,0c0,0-0.1,0-0.1-0.1c0,0,0,0,0-0.1c0,0,0,0,0-0.1c0,0,0-0.1,0-0.1v-0.8c0,0,0-0.1,0-0.1
		c0,0,0-0.1,0-0.1c0,0,0,0,0-0.1c0,0,0.1-0.1,0.1-0.1c0,0,0.1,0,0.1,0c0,0,0.1,0,0.1,0c0,0,0.1,0,0.1,0.1c0,0,0,0,0,0.1
		c0,0,0,0,0,0.1c0,0,0,0.1,0,0.1V16.7z M21.2,16.7v0.2c0,0,0,0,0,0.1c0,0,0.1,0.1,0.1,0.1c0.1,0,0.1,0,0.1-0.1c0-0.1,0-0.1,0-0.2
		v-0.6c0,0,0,0,0-0.1c0,0-0.1-0.1-0.1-0.1c-0.1,0-0.1,0-0.1,0.1c0,0,0,0,0,0.1L21.2,16.7L21.2,16.7z"/>
	<path id="Trazado_485" class="st0" d="M22.6,17.2v-1l-0.2,1h-0.1l-0.2-1v1h-0.2v-1.4h0.3l0.2,0.9l0.2-0.9h0.3v1.4L22.6,17.2z"/>
	<path id="Trazado_486" class="st0" d="M23.2,17.2H23v-1.4h0.2V17.2z"/>
	<path id="Trazado_487" class="st0" d="M23.8,16.1c0,0,0-0.1,0-0.1c0,0-0.1,0-0.1,0c0,0-0.1,0-0.1,0c0,0,0,0.1,0,0.1c0,0,0,0,0,0.1
		c0,0,0,0,0,0.1c0,0,0,0.1,0.1,0.1c0,0,0.1,0.1,0.1,0.1c0.1,0.1,0.1,0.1,0.1,0.1c0,0,0.1,0.1,0.1,0.1c0,0,0,0.1,0,0.1
		c0,0,0,0.1,0,0.1c0,0,0,0.1,0,0.1c0,0,0,0.1-0.1,0.1c0,0-0.1,0.1-0.1,0.1c0,0-0.1,0-0.1,0c0,0-0.1,0-0.1,0c0,0-0.1,0-0.1-0.1
		c0,0-0.1-0.1-0.1-0.1c0-0.1,0-0.1,0-0.2l0.2,0c0,0.1,0.1,0.2,0.2,0.2c0,0,0.1,0,0.1,0c0,0,0-0.1,0-0.1c0-0.1,0-0.1-0.1-0.2l0,0l0,0
		l0,0l-0.1-0.1c0,0-0.1-0.1-0.1-0.1c0,0-0.1-0.1-0.1-0.1c0,0,0-0.1,0-0.1c0,0,0-0.1,0-0.1c0-0.1,0-0.2,0.1-0.3
		c0.1-0.1,0.2-0.1,0.2-0.1c0.2,0,0.3,0.1,0.3,0.3L23.8,16.1z"/>
	<path id="Trazado_488" class="st0" d="M24.4,17.2h-0.2v-1.4h0.2V17.2z"/>
	<path id="Trazado_489" class="st0" d="M25.2,16.7v0.1c0,0,0,0.1,0,0.1c0,0,0,0,0,0.1c0,0,0,0,0,0.1c0,0-0.1,0.1-0.1,0.1
		c0,0-0.1,0-0.1,0c0,0-0.1,0-0.1,0c0,0-0.1,0-0.1-0.1c0,0,0,0,0-0.1c0,0,0,0,0-0.1c0,0,0-0.1,0-0.1v-0.8c0,0,0-0.1,0-0.1
		c0,0,0-0.1,0-0.1c0,0,0,0,0-0.1c0,0,0.1-0.1,0.1-0.1c0,0,0.1,0,0.1,0c0,0,0.1,0,0.1,0c0,0,0.1,0,0.1,0.1c0,0,0,0,0,0.1
		c0,0,0,0,0,0.1c0,0,0,0.1,0,0.1V16.7z M24.7,16.7v0.2c0,0,0,0.1,0,0.1c0,0,0.1,0.1,0.1,0.1c0.1,0,0.1,0,0.1-0.1c0-0.1,0-0.1,0-0.2
		v-0.6c0,0,0,0,0-0.1c0,0-0.1-0.1-0.1-0.1c-0.1,0-0.1,0-0.1,0.1c0,0,0,0,0,0.1L24.7,16.7L24.7,16.7z M24.9,15.5h0.2l-0.2,0.2h-0.1
		L24.9,15.5z"/>
	<path id="Trazado_490" class="st0" d="M25.9,17.2l-0.3-0.9v0.9h-0.2v-1.4h0.2l0.3,0.8v-0.8h0.2v1.4L25.9,17.2z"/>
	<path id="Trazado_491" class="st0" d="M27.1,17.2l-0.3-0.9v0.9h-0.2v-1.4h0.2l0.3,0.8v-0.8h0.2v1.4L27.1,17.2z"/>
	<path id="Trazado_492" class="st0" d="M27.8,16.9l0,0.3h-0.2l0.2-1.4H28l0.2,1.4H28l0-0.3H27.8z M27.9,16.1l-0.1,0.6H28L27.9,16.1z
		"/>
	<path id="Trazado_493" class="st0" d="M28.8,16.2V16c0,0,0-0.1,0-0.1c0,0-0.1,0-0.2,0c0,0,0,0,0,0.1c0,0.1,0,0.1,0,0.2v0.6
		c0,0,0,0,0,0.1c0,0,0.1,0.1,0.1,0.1c0,0,0.1,0,0.1,0c0,0,0-0.1,0-0.1c0,0,0-0.1,0-0.1v-0.1H29v0.2c0,0,0,0,0,0.1c0,0,0,0,0,0.1
		c0,0,0,0,0,0.1c0,0.1-0.1,0.1-0.1,0.1c-0.1,0-0.1,0-0.2,0c0,0-0.1,0-0.1,0c0,0-0.1,0-0.1-0.1c0,0,0,0,0-0.1c0,0,0,0,0-0.1
		c0,0,0-0.1,0-0.1v-0.8c0,0,0-0.1,0-0.1c0,0,0,0,0-0.1c0,0,0,0,0-0.1c0,0,0.1-0.1,0.1-0.1c0,0,0.1,0,0.1,0c0.1,0,0.1,0,0.2,0
		c0,0,0.1,0.1,0.1,0.1c0,0,0,0.1,0,0.1c0,0,0,0.1,0,0.1v0.1L28.8,16.2z"/>
	<path id="Trazado_494" class="st0" d="M29.4,17.2h-0.2v-1.4h0.2V17.2z"/>
	<path id="Trazado_495" class="st0" d="M30.3,16.7v0.1c0,0,0,0.1,0,0.1c0,0,0,0,0,0.1c0,0,0,0,0,0.1c0,0-0.1,0.1-0.1,0.1
		c0,0-0.1,0-0.1,0c0,0-0.1,0-0.1,0c0,0-0.1,0-0.1-0.1c0,0,0,0,0-0.1c0,0,0,0,0-0.1c0,0,0-0.1,0-0.1v-0.8c0,0,0-0.1,0-0.1
		c0,0,0-0.1,0-0.1c0,0,0,0,0-0.1c0,0,0.1-0.1,0.1-0.1c0,0,0.1,0,0.1,0c0,0,0.1,0,0.1,0c0,0,0.1,0,0.1,0.1c0,0,0,0,0,0.1
		c0,0,0,0,0,0.1c0,0,0,0.1,0,0.1V16.7z M29.8,16.7v0.2c0,0,0,0.1,0,0.1c0,0,0.1,0.1,0.1,0.1c0.1,0,0.1,0,0.1-0.1c0-0.1,0-0.1,0-0.2
		v-0.6c0,0,0,0,0-0.1c0,0-0.1-0.1-0.1-0.1c-0.1,0-0.1,0-0.1,0.1c0,0,0,0,0,0.1L29.8,16.7L29.8,16.7z"/>
	<path id="Trazado_496" class="st0" d="M31,17.2l-0.3-0.9v0.9h-0.2v-1.4h0.2l0.3,0.8v-0.8h0.2v1.4L31,17.2z"/>
	<path id="Trazado_497" class="st0" d="M31.6,16.9l0,0.3h-0.2l0.2-1.4h0.3l0.2,1.4h-0.2l0-0.3H31.6z M31.7,16.1l-0.1,0.6h0.2
		L31.7,16.1z"/>
	<path id="Trazado_498" class="st0" d="M32.8,17.2h-0.6v-1.4h0.2V17h0.3V17.2z"/>
	<path id="Trazado_499" class="st0" d="M33.5,17.2h-0.2v-1.4h0.3c0.1,0,0.1,0,0.2,0c0,0,0.1,0,0.1,0.1c0,0,0.1,0.1,0.1,0.1
		c0,0.1,0,0.3,0,0.4c0,0,0,0.1-0.1,0.1c0,0-0.1,0.1-0.1,0.1c-0.1,0-0.1,0-0.2,0h-0.1L33.5,17.2z M33.5,16.4
		C33.6,16.4,33.6,16.4,33.5,16.4c0.1,0,0.1,0,0.1,0c0,0,0,0,0-0.1c0,0,0-0.1,0-0.1c0,0,0-0.1,0-0.1c0,0,0,0,0-0.1c0,0,0,0-0.1,0
		c0,0-0.1,0-0.1,0h-0.1L33.5,16.4L33.5,16.4z"/>
	<path id="Trazado_500" class="st0" d="M34.3,16.9l0,0.3H34l0.2-1.4h0.3l0.2,1.4h-0.2l0-0.3H34.3z M34.4,16.1l-0.1,0.6h0.2
		L34.4,16.1z"/>
	<path id="Trazado_501" class="st0" d="M35.1,17.2h-0.2v-1.4h0.3c0.1,0,0.2,0,0.3,0.1c0.1,0.1,0.1,0.2,0.1,0.3c0,0.1,0,0.1,0,0.2
		c0,0.1-0.1,0.1-0.1,0.1l0.2,0.6h-0.2l-0.1-0.6h-0.1L35.1,17.2z M35.2,16.4C35.2,16.4,35.2,16.4,35.2,16.4c0.1,0,0.1,0,0.1-0.1
		c0-0.1,0-0.2,0-0.3c0,0,0,0,0,0c0,0-0.1,0-0.1,0h-0.1L35.2,16.4L35.2,16.4z"/>
	<path id="Trazado_502" class="st0" d="M35.9,16.9l0,0.3h-0.2l0.2-1.4h0.3l0.2,1.4h-0.2l0-0.3H35.9z M36,16.1L36,16.7h0.2L36,16.1z"
		/>
	<path id="Trazado_503" class="st0" d="M37.5,17.2h-0.6v-1.4h0.2V17h0.3V17.2z"/>
	<path id="Trazado_504" class="st0" d="M37.9,16.9l0,0.3h-0.2l0.2-1.4h0.3l0.2,1.4h-0.2l0-0.3H37.9z M38,16.1l-0.1,0.6h0.2L38,16.1z
		"/>
	<path id="Trazado_505" class="st0" d="M39.3,17.2H39V16h-0.2v-0.2h0.7V16h-0.2V17.2z"/>
	<path id="Trazado_506" class="st0" d="M39.8,17.2h-0.2v-1.4h0.3c0.1,0,0.2,0,0.3,0.1c0.1,0.1,0.1,0.2,0.1,0.3c0,0.1,0,0.1,0,0.2
		c0,0.1-0.1,0.1-0.1,0.1l0.2,0.6H40l-0.1-0.6h-0.1L39.8,17.2z M39.9,16.4C39.9,16.4,39.9,16.4,39.9,16.4c0.1,0,0.1,0,0.1-0.1
		c0-0.1,0-0.2,0-0.3c0,0,0,0,0,0c0,0-0.1,0-0.1,0h-0.1L39.9,16.4L39.9,16.4z"/>
	<path id="Trazado_507" class="st0" d="M40.6,16.9l0,0.3h-0.2l0.2-1.4h0.3l0.2,1.4h-0.2l0-0.3H40.6z M40.7,16.1l-0.1,0.6h0.2
		L40.7,16.1z"/>
	<path id="Trazado_508" class="st0" d="M41.8,17.2l-0.3-0.9v0.9h-0.2v-1.4h0.2l0.3,0.8v-0.8H42v1.4L41.8,17.2z"/>
	<path id="Trazado_509" class="st0" d="M42.6,16.1c0,0,0-0.1,0-0.1c0,0-0.1,0-0.1,0c0,0-0.1,0-0.1,0c0,0,0,0.1,0,0.1c0,0,0,0,0,0.1
		c0,0,0,0,0,0.1c0,0,0,0.1,0.1,0.1c0,0,0.1,0.1,0.1,0.1c0.1,0.1,0.1,0.1,0.1,0.1c0,0,0.1,0.1,0.1,0.1c0,0,0,0.1,0,0.1
		c0,0,0,0.1,0,0.1c0,0,0,0.1,0,0.1c0,0,0,0.1-0.1,0.1c0,0-0.1,0.1-0.1,0.1c0,0-0.1,0-0.1,0c0,0-0.1,0-0.1,0c0,0-0.1,0-0.1-0.1
		c0,0-0.1-0.1-0.1-0.1c0-0.1,0-0.1,0-0.2l0.2,0c0,0.1,0.1,0.2,0.2,0.2c0,0,0.1,0,0.1,0c0,0,0-0.1,0-0.1c0-0.1,0-0.1-0.1-0.2l0,0l0,0
		l0,0l-0.1-0.1c0,0-0.1-0.1-0.1-0.1c0,0-0.1-0.1-0.1-0.1c0,0,0-0.1,0-0.1c0,0,0-0.1,0-0.1c0-0.1,0-0.2,0.1-0.3
		c0.1-0.1,0.2-0.1,0.2-0.1c0.2,0,0.3,0.1,0.3,0.3L42.6,16.1z"/>
	<path id="Trazado_510" class="st0" d="M43.5,16h-0.4v0.4h0.3v0.2h-0.3v0.6h-0.2v-1.4h0.6L43.5,16z"/>
	<path id="Trazado_511" class="st0" d="M44.3,16.7v0.1c0,0,0,0.1,0,0.1c0,0,0,0,0,0.1c0,0,0,0,0,0.1c0,0-0.1,0.1-0.1,0.1
		c0,0-0.1,0-0.1,0c0,0-0.1,0-0.1,0c0,0-0.1,0-0.1-0.1c0,0,0,0,0-0.1c0,0,0,0,0-0.1c0,0,0-0.1,0-0.1v-0.8c0,0,0-0.1,0-0.1
		c0,0,0-0.1,0-0.1c0,0,0,0,0-0.1c0,0,0.1-0.1,0.1-0.1c0,0,0.1,0,0.1,0c0,0,0.1,0,0.1,0c0,0,0.1,0,0.1,0.1c0,0,0,0,0,0.1
		c0,0,0,0,0,0.1c0,0,0,0.1,0,0.1V16.7z M43.9,16.7v0.2c0,0,0,0.1,0,0.1c0,0,0.1,0.1,0.1,0.1c0.1,0,0.1,0,0.1-0.1c0-0.1,0-0.1,0-0.2
		v-0.6c0,0,0,0,0-0.1c0,0-0.1-0.1-0.1-0.1c-0.1,0-0.1,0-0.1,0.1c0,0,0,0,0,0.1L43.9,16.7L43.9,16.7z"/>
	<path id="Trazado_512" class="st0" d="M44.7,17.2h-0.2v-1.4h0.3c0.1,0,0.2,0,0.3,0.1c0.1,0.1,0.1,0.2,0.1,0.3c0,0.1,0,0.1,0,0.2
		c0,0.1-0.1,0.1-0.1,0.1l0.2,0.6h-0.2l-0.1-0.6h-0.1L44.7,17.2z M44.8,16.4C44.8,16.4,44.8,16.4,44.8,16.4c0.1,0,0.1,0,0.1-0.1
		c0-0.1,0-0.2,0-0.3c0,0,0,0,0,0c0,0-0.1,0-0.1,0h-0.1L44.8,16.4L44.8,16.4z"/>
	<path id="Trazado_513" class="st0" d="M46,17.2v-1l-0.2,1h-0.1l-0.2-1v1h-0.2v-1.4h0.3l0.2,0.9l0.2-0.9h0.3v1.4L46,17.2z"/>
	<path id="Trazado_514" class="st0" d="M46.6,16.9l0,0.3h-0.2l0.2-1.4h0.3l0.2,1.4h-0.2l0-0.3H46.6z M46.7,16.1l-0.1,0.6h0.2
		L46.7,16.1z"/>
	<path id="Trazado_515" class="st0" d="M47.7,16.2V16c0,0,0-0.1,0-0.1c0,0,0,0-0.1,0c-0.1,0-0.1,0-0.1,0.1c0,0.1,0,0.1,0,0.2v0.6
		c0,0,0,0,0,0.1c0,0,0.1,0.1,0.1,0.1c0,0,0.1,0,0.1,0c0,0,0-0.1,0-0.1c0,0,0-0.1,0-0.1v-0.1h0.2v0.2c0,0,0,0,0,0.1c0,0,0,0,0,0.1
		c0,0,0,0,0,0.1c0,0.1-0.1,0.1-0.1,0.1c-0.1,0-0.1,0-0.2,0c0,0-0.1,0-0.1,0c0,0-0.1,0-0.1-0.1c0,0,0,0,0-0.1c0,0,0,0,0-0.1
		c0,0,0-0.1,0-0.1v-0.8c0,0,0-0.1,0-0.1c0,0,0-0.1,0-0.1c0,0,0,0,0-0.1c0,0,0.1-0.1,0.1-0.1c0,0,0.1,0,0.1,0c0.1,0,0.1,0,0.2,0
		c0,0,0.1,0.1,0.1,0.1c0,0,0,0.1,0,0.1c0,0,0,0.1,0,0.1v0.1L47.7,16.2z"/>
	<path id="Trazado_516" class="st0" d="M48.3,17.2h-0.2v-1.4h0.2V17.2z"/>
	<path id="Trazado_517" class="st0" d="M49.1,16.7v0.1c0,0,0,0.1,0,0.1c0,0,0,0,0,0.1c0,0,0,0,0,0.1c0,0-0.1,0.1-0.1,0.1
		c0,0-0.1,0-0.1,0c0,0-0.1,0-0.1,0c0,0-0.1,0-0.1-0.1c0,0,0,0,0-0.1c0,0,0,0,0-0.1c0,0,0-0.1,0-0.1v-0.8c0,0,0-0.1,0-0.1
		c0,0,0-0.1,0-0.1c0,0,0,0,0-0.1c0,0,0.1-0.1,0.1-0.1c0,0,0.1,0,0.1,0c0,0,0.1,0,0.1,0c0,0,0.1,0,0.1,0.1c0,0,0,0,0,0.1
		c0,0,0,0,0,0.1c0,0,0,0.1,0,0.1V16.7z M48.7,16.7v0.2c0,0,0,0,0,0.1c0,0,0.1,0.1,0.1,0.1c0.1,0,0.1,0,0.1-0.1c0-0.1,0-0.1,0-0.2
		v-0.6c0,0,0,0,0-0.1c0,0-0.1-0.1-0.1-0.1c-0.1,0-0.1,0-0.1,0.1c0,0,0,0,0,0.1L48.7,16.7L48.7,16.7z M48.8,15.5H49l-0.2,0.2h-0.1
		L48.8,15.5z"/>
	<path id="Trazado_518" class="st0" d="M49.8,17.2l-0.3-0.9v0.9h-0.2v-1.4h0.2l0.3,0.8v-0.8H50v1.4L49.8,17.2z"/>
	<path id="Trazado_519" class="st0" d="M51,17.2h-0.2v-0.6l-0.3-0.8h0.2l0.2,0.6l0.1-0.6h0.2L51,16.6L51,17.2z"/>
	<path id="Trazado_520" class="st0" d="M51.7,15.8H52c0.1,0,0.2,0,0.3,0.1c0.1,0.1,0.1,0.2,0.1,0.3v0.6c0,0.1,0,0.2-0.1,0.3
		c-0.1,0.1-0.2,0.1-0.3,0.1h-0.3V15.8z M52,17c0.1,0,0.1,0,0.1-0.1c0,0,0,0,0-0.1c0,0,0-0.1,0-0.1v-0.5c0,0,0-0.1,0-0.1
		c0,0,0,0,0-0.1c0,0-0.1-0.1-0.1-0.1h-0.1L52,17L52,17z"/>
	<path id="Trazado_521" class="st0" d="M53.1,16h-0.4v0.4H53v0.2h-0.3V17h0.4v0.2h-0.6v-1.4h0.6V16z"/>
	<path id="Trazado_522" class="st0" d="M53.7,16.1c0,0,0-0.1,0-0.1c0,0-0.1,0-0.1,0c0,0-0.1,0-0.1,0c0,0,0,0.1,0,0.1c0,0,0,0,0,0.1
		c0,0,0,0,0,0.1c0,0,0,0.1,0.1,0.1c0,0,0.1,0.1,0.1,0.1c0.1,0.1,0.1,0.1,0.1,0.1c0,0,0.1,0.1,0.1,0.1c0,0,0,0.1,0,0.1
		c0,0,0,0.1,0,0.1c0,0,0,0.1,0,0.1c0,0,0,0.1-0.1,0.1c0,0-0.1,0.1-0.1,0.1c0,0-0.1,0-0.1,0c0,0-0.1,0-0.1,0c0,0-0.1,0-0.1-0.1
		c0,0-0.1-0.1-0.1-0.1c0-0.1,0-0.1,0-0.2l0.2,0c0,0.1,0.1,0.2,0.2,0.2c0,0,0.1,0,0.1,0c0,0,0-0.1,0-0.1c0-0.1,0-0.1-0.1-0.2l0,0l0,0
		l0,0l-0.1-0.1c0,0-0.1-0.1-0.1-0.1c0,0-0.1-0.1-0.1-0.1c0,0,0-0.1,0-0.1c0,0,0-0.1,0-0.1c0-0.1,0-0.2,0.1-0.3
		c0.1-0.1,0.2-0.1,0.2-0.1c0.2,0,0.3,0.1,0.3,0.3L53.7,16.1z"/>
	<path id="Trazado_523" class="st0" d="M54.3,16.9l0,0.3h-0.2l0.2-1.4h0.3l0.2,1.4h-0.2l0-0.3H54.3z M54.4,16.1l-0.1,0.6h0.2
		L54.4,16.1z"/>
	<path id="Trazado_524" class="st0" d="M55.2,17.2H55v-1.4h0.3c0.1,0,0.2,0,0.3,0.1c0.1,0.1,0.1,0.2,0.1,0.3c0,0.1,0,0.1,0,0.2
		c0,0.1-0.1,0.1-0.1,0.1l0.2,0.6h-0.2l-0.1-0.6h-0.1L55.2,17.2z M55.2,16.4C55.3,16.4,55.3,16.4,55.2,16.4c0.1,0,0.1,0,0.1-0.1
		c0-0.1,0-0.2,0-0.3c0,0,0,0,0,0c0,0-0.1,0-0.1,0h-0.1L55.2,16.4L55.2,16.4z"/>
	<path id="Trazado_525" class="st0" d="M56,17.2h-0.2v-1.4h0.3c0.1,0,0.2,0,0.3,0.1c0.1,0.1,0.1,0.2,0.1,0.3c0,0.1,0,0.1,0,0.2
		c0,0.1-0.1,0.1-0.1,0.1l0.2,0.6h-0.2l-0.1-0.6H56L56,17.2z M56.1,16.4C56.1,16.4,56.1,16.4,56.1,16.4c0.1,0,0.1,0,0.1-0.1
		c0-0.1,0-0.2,0-0.3c0,0,0,0,0,0c0,0-0.1,0-0.1,0H56L56.1,16.4L56.1,16.4z"/>
	<path id="Trazado_526" class="st0" d="M57.3,16.7v0.1c0,0,0,0.1,0,0.1c0,0,0,0,0,0.1c0,0,0,0,0,0.1c0,0-0.1,0.1-0.1,0.1
		c-0.1,0-0.2,0-0.3,0c0,0-0.1,0-0.1-0.1c0,0,0,0,0-0.1c0,0,0,0,0-0.1c0,0,0-0.1,0-0.1v-0.8c0,0,0-0.1,0-0.1c0,0,0-0.1,0-0.1
		c0,0,0,0,0-0.1c0,0,0.1-0.1,0.1-0.1c0.1,0,0.2,0,0.3,0c0,0,0.1,0,0.1,0.1c0,0,0,0,0,0.1c0,0,0,0,0,0.1c0,0,0,0.1,0,0.1V16.7z
		 M56.8,16.7v0.2c0,0,0,0.1,0,0.1c0,0,0.1,0.1,0.1,0.1c0.1,0,0.1,0,0.1-0.1c0-0.1,0-0.1,0-0.2v-0.6c0,0,0,0,0-0.1
		c0,0-0.1-0.1-0.1-0.1c-0.1,0-0.1,0-0.1,0.1c0,0,0,0,0,0.1L56.8,16.7L56.8,16.7z"/>
	<path id="Trazado_527" class="st0" d="M58,17.2h-0.6v-1.4h0.2V17H58V17.2z"/>
	<path id="Trazado_528" class="st0" d="M58.7,17.2h-0.6v-1.4h0.2V17h0.4V17.2z"/>
	<path id="Trazado_529" class="st0" d="M59.5,16.7v0.1c0,0,0,0.1,0,0.1c0,0,0,0,0,0.1c0,0,0,0,0,0.1c0,0-0.1,0.1-0.1,0.1
		c0,0-0.1,0-0.1,0c0,0-0.1,0-0.1,0c0,0-0.1,0-0.1-0.1c0,0,0,0,0-0.1c0,0,0,0,0-0.1c0,0,0-0.1,0-0.1v-0.8c0,0,0-0.1,0-0.1
		c0,0,0-0.1,0-0.1c0,0,0,0,0-0.1c0,0,0.1-0.1,0.1-0.1c0,0,0.1,0,0.1,0c0,0,0.1,0,0.1,0c0,0,0.1,0,0.1,0.1c0,0,0,0,0,0.1
		c0,0,0,0,0,0.1c0,0,0,0.1,0,0.1V16.7z M59,16.7v0.2c0,0,0,0.1,0,0.1c0,0,0.1,0.1,0.1,0.1c0.1,0,0.1,0,0.1-0.1c0-0.1,0-0.1,0-0.2
		v-0.6c0,0,0,0,0-0.1c0,0-0.1-0.1-0.1-0.1c-0.1,0-0.1,0-0.1,0.1c0,0,0,0,0,0.1L59,16.7L59,16.7z"/>
	<path id="Trazado_530" class="st0" d="M60,15.8h0.3c0.1,0,0.2,0,0.3,0.1c0.1,0.1,0.1,0.2,0.1,0.3v0.6c0,0.1,0,0.2-0.1,0.3
		c-0.1,0.1-0.2,0.1-0.3,0.1H60V15.8z M60.3,17c0.1,0,0.1,0,0.1-0.1c0,0,0,0,0-0.1c0,0,0-0.1,0-0.1v-0.5c0,0,0-0.1,0-0.1
		c0,0,0,0,0-0.1c0,0-0.1-0.1-0.1-0.1h-0.1L60.3,17L60.3,17z"/>
	<path id="Trazado_531" class="st0" d="M61.5,16h-0.4v0.4h0.3v0.2h-0.3V17h0.4v0.2h-0.6v-1.4h0.6L61.5,16z"/>
	<path id="Trazado_532" class="st0" d="M62.6,17.2H62v-1.4h0.2V17h0.4V17.2z"/>
	<path id="Trazado_533" class="st0" d="M62.9,16.9l0,0.3h-0.2l0.2-1.4h0.3l0.2,1.4h-0.2l0-0.3H62.9z M63.1,16.1L63,16.7h0.2
		L63.1,16.1z"/>
	<path id="Trazado_534" class="st0" d="M64.4,16.2V16c0,0,0-0.1,0-0.1c0,0,0,0-0.1,0c-0.1,0-0.1,0-0.1,0.1c0,0.1,0,0.1,0,0.2v0.6
		c0,0,0,0,0,0.1c0,0,0.1,0.1,0.1,0.1c0,0,0.1,0,0.1,0c0,0,0-0.1,0-0.1c0,0,0-0.1,0-0.1v-0.1h0.2v0.2c0,0,0,0,0,0.1c0,0,0,0,0,0.1
		c0,0,0,0,0,0.1c0,0.1-0.1,0.1-0.1,0.1c-0.1,0-0.1,0-0.2,0c0,0-0.1,0-0.1,0c0,0-0.1,0-0.1-0.1c0,0,0,0,0-0.1c0,0,0,0,0-0.1
		c0,0,0-0.1,0-0.1v-0.8c0,0,0-0.1,0-0.1c0,0,0-0.1,0-0.1c0,0,0,0,0-0.1c0,0,0.1-0.1,0.1-0.1c0,0,0.1,0,0.1,0c0.1,0,0.1,0,0.2,0
		c0,0,0.1,0.1,0.1,0.1c0,0,0,0.1,0,0.1c0,0,0,0.1,0,0.1v0.1L64.4,16.2z"/>
	<path id="Trazado_535" class="st0" d="M65,16.9l0,0.3h-0.2l0.2-1.4h0.3l0.2,1.4h-0.2l0-0.3H65z M65.1,16.1L65,16.7h0.2L65.1,16.1z"
		/>
	<path id="Trazado_536" class="st0" d="M66.2,16h-0.4v0.4h0.3v0.2h-0.3v0.6h-0.2v-1.4h0.6L66.2,16z"/>
	<path id="Trazado_537" class="st0" d="M66.5,17.2h-0.2v-1.4h0.2V17.2z"/>
	<path id="Trazado_538" class="st0" d="M67.2,16.2V16c0,0,0-0.1,0-0.1c0,0-0.1,0-0.2,0c0,0,0,0,0,0.1c0,0.1,0,0.1,0,0.2v0.6
		c0,0,0,0,0,0.1C67,17,67,17,67.1,17c0,0,0,0,0,0c0,0,0-0.1,0-0.1c0,0,0-0.1,0-0.1v-0.1h0.2v0.2c0,0,0,0,0,0.1c0,0,0,0,0,0.1
		c0,0,0,0,0,0.1c0,0.1-0.1,0.1-0.1,0.1c-0.1,0-0.1,0-0.2,0c0,0-0.1,0-0.1,0c0,0-0.1,0-0.1-0.1c0,0,0,0,0-0.1c0,0,0,0,0-0.1
		c0,0,0-0.1,0-0.1v-0.8c0,0,0-0.1,0-0.1c0,0,0-0.1,0-0.1c0,0,0,0,0-0.1c0,0,0.1-0.1,0.1-0.1c0,0,0.1,0,0.1,0c0.1,0,0.1,0,0.2,0
		c0,0,0.1,0.1,0.1,0.1c0,0,0,0.1,0,0.1c0,0,0,0.1,0,0.1v0.1L67.2,16.2z"/>
	<path id="Trazado_539" class="st0" d="M68.2,15.8v1.1c0,0,0,0.1,0,0.1c0,0,0,0.1,0,0.1c0,0,0,0,0,0.1c0,0-0.1,0.1-0.1,0.1
		c0,0-0.1,0-0.1,0c0,0-0.1,0-0.1,0c0,0-0.1,0-0.1-0.1c0,0,0,0,0-0.1c0,0,0,0,0-0.1c0,0,0-0.1,0-0.1v-1.1h0.2v1.1c0,0,0,0.1,0,0.1
		c0,0,0.1,0.1,0.1,0.1c0.1,0,0.1,0,0.1-0.1c0-0.1,0-0.1,0-0.2v-0.9L68.2,15.8z"/>
	<path id="Trazado_540" class="st0" d="M69,17.2h-0.6v-1.4h0.2V17H69V17.2z"/>
	<path id="Trazado_541" class="st0" d="M69.4,17.2h-0.2V16H69v-0.2h0.7V16h-0.2V17.2z"/>
	<path id="Trazado_542" class="st0" d="M70.4,15.8v1.1c0,0,0,0.1,0,0.1c0,0,0,0.1,0,0.1c0,0,0,0,0,0.1c0,0-0.1,0.1-0.1,0.1
		c0,0-0.1,0-0.1,0c0,0-0.1,0-0.1,0c0,0-0.1,0-0.1-0.1c0,0,0,0,0-0.1c0,0,0,0,0-0.1c0,0,0-0.1,0-0.1v-1.1h0.2v1.1c0,0,0,0.1,0,0.1
		c0,0,0.1,0.1,0.1,0.1c0.1,0,0.1,0,0.1-0.1c0-0.1,0-0.1,0-0.2v-0.9L70.4,15.8z"/>
	<path id="Trazado_543" class="st0" d="M70.8,17.2h-0.2v-1.4h0.3c0.1,0,0.2,0,0.3,0.1c0.1,0.1,0.1,0.2,0.1,0.3c0,0.1,0,0.1,0,0.2
		c0,0.1-0.1,0.1-0.1,0.1l0.2,0.6H71l-0.1-0.6h-0.1L70.8,17.2z M70.9,16.4C70.9,16.4,70.9,16.4,70.9,16.4c0.1,0,0.1,0,0.1-0.1
		c0-0.1,0-0.2,0-0.3c0,0,0,0,0,0c0,0-0.1,0-0.1,0h-0.1L70.9,16.4L70.9,16.4z"/>
	<path id="Trazado_544" class="st0" d="M71.6,16.9l0,0.3h-0.2l0.2-1.4h0.3l0.2,1.4h-0.2l0-0.3H71.6z M71.7,16.1l-0.1,0.6h0.2
		L71.7,16.1z"/>
	<path id="Trazado_545" class="st0" d="M17.4,12.9c-1.4-1.5-3.6,0.6-3.6,0.6c-0.8,0.8-1.1,2-0.7,3c0.7,1.6,3.3-0.2,3.3-0.2
		S18.4,14.7,17.4,12.9z"/>
	<path id="Trazado_546" class="st0" d="M10.1,13.6l-2.3,1.7c-0.1,0-0.1,0.1-0.2,0.1c-0.2,0-0.4-0.2-0.4-0.4c0-0.1,0.1-0.2,0.1-0.3
		l0,0l1.9-1.4l-0.1,0l0,0c-0.1,0-0.2,0-0.2-0.1c-0.5-0.2-1.1-0.4-1.7-0.6l-2.6,1.3c0,0-0.1,0-0.2,0c-0.2,0-0.4-0.2-0.4-0.4
		c0-0.1,0.1-0.3,0.2-0.3l0,0l1.8-0.9c-1.3-0.3-2.6-0.5-3.9-0.5c-0.1,0-0.3-0.1-0.3-0.3c0,0,0,0,0,0l0,0c0-0.1,0.1-0.3,0.3-0.3
		c1.6,0.1,3.1,0.3,4.6,0.7h0c0,0,0.5,0.1,0.5,0.1c0.3,0.1,0.7,0.2,1,0.3c-0.3-0.4-0.6-0.8-0.9-1.1c-0.2-0.1-0.2-0.3-0.1-0.5
		c0,0,0,0,0,0l0,0c0.1-0.2,0.3-0.2,0.5-0.1c0.6,0.6,1.2,1.3,1.7,2c0,0,0,0.1,0.1,0.1l0.3,0.1l0.4,0.2c0.6,0.3,1.2,0.5,1.8,0.9
		c0,0,0-0.1,0-0.1c0.4-0.9,1.1-1.6,2-2c0,0,0.1,0,0.1-0.1c-0.2-0.4-0.6-1.1-1-1.9H13c-1.2,0-2.3-0.1-3.4-0.3c-0.2,0-0.3-0.2-0.3-0.4
		c0-0.2,0.2-0.3,0.4-0.3c0,0,0,0,0,0c1.1,0.2,2.1,0.2,3.2,0.3l-0.2-0.3l-0.2-0.3c-0.4-0.6-0.8-1.2-1.3-1.9c-1.1,0-2.2-0.3-3.3-0.7
		C7.8,5.8,7.7,5.6,7.8,5.5c0.1-0.2,0.3-0.2,0.5-0.2C9,5.6,9.8,5.8,10.7,5.9c-1-1.3-2.1-2.5-3.3-3.7c-0.1-0.1-0.1-0.4,0-0.5
		c0.1-0.1,0.3-0.1,0.5,0C9.3,3,10.5,4.5,11.7,6c0,0,0,0.1,0.1,0.1c0.3,0.5,0.7,0.9,1,1.4c0.1-0.7,0.1-1.4-0.2-2
		c-0.1-0.2,0-0.4,0.2-0.5c0.2-0.1,0.4,0,0.4,0.2l0,0c0.3,1,0.4,2.1,0.1,3.2c0.2,0.3,0.4,0.6,0.5,0.9c0,0,0,0.1,0.1,0.1
		c0.3,0.5,0.5,0.9,0.7,1.3c0.1-0.5,0.1-1,0-1.5c0-0.2,0.1-0.4,0.3-0.4l0,0c0.2,0,0.4,0.1,0.4,0.3c0,0,0,0,0,0l0,0
		c0.1,0.8,0.1,1.6-0.1,2.4c0.4-0.1,0.9-0.2,1.4-0.2l-0.1-2.6c0,0,0.2-0.8-1.2-1.6c-0.5-0.4-0.8-1.1-0.7-1.8c-0.1-1.1-0.8-2-1.8-2.4
		c-1-0.2-2-0.8-2.7-1.6C8.9,0.5,7.6,0.1,6.3,0C5.2-0.3,5.6,1.5,5.6,1.5c0.1,1,0.3,1.9,0.7,2.8c0,0.8-0.1,1.6-0.3,2.3
		c0.1,1.2,0.7,2.2,1.8,2.7C6.9,9.3,5.9,9.4,5.1,9.8c-0.6,0.1-1.3,0.1-1.9,0c-1,0-1.9,0.4-2.6,1.1c-0.2,0.4-0.1,0.9,0.3,1.1
		c0.6,0.5,2.3,1.8,2.3,1.8s0.7,2.3,2.5,2c0.7,0,1.3,0.3,1.7,0.8c1.1,0.6,2.4,0.6,3.4,0c0.3-0.1,0.8-0.4,0.8-0.4
		c0-0.6,0.1-1.2,0.2-1.8c0,0,0,0,0,0C11.3,14.1,10.7,13.8,10.1,13.6z"/>
</g>
</svg>
