<?xml version="1.0" encoding="utf-8"?>
<!-- Generator: Adobe Illustrator 24.2.3, SVG Export Plug-In . SVG Version: 6.00 Build 0)  -->
<svg version="1.1" id="Capa_1" xmlns="http://www.w3.org/2000/svg" xmlns:xlink="http://www.w3.org/1999/xlink" x="0px" y="0px"
	 viewBox="0 0 67.2 17.2" style="enable-background:new 0 0 67.2 17.2;" xml:space="preserve">
<style type="text/css">
	.st0{fill:#A0A0A0;}
</style>
<g id="Gobierno">
	<path id="Trazado_1138" class="st0" d="M2.2,16.2C2.2,16.2,2.2,16.1,2.2,16.2c0-0.1,0-0.1,0-0.1c0,0-0.1,0-0.1,0l-0.2,0
		c0,0-0.1,0-0.1,0c0,0,0,0,0,0.1c0,0,0,0,0,0.1c0,0,0.1,0,0.1,0l0.1,0L2,16.8l-0.5-0.6l-0.2,0c0,0-0.1,0-0.1,0c0,0,0,0,0,0.1
		c0,0,0,0,0,0.1c0,0,0.1,0,0.1,0h0L1.5,17c0,0-0.1,0-0.1,0c0,0,0,0,0,0.1c0,0,0,0,0,0.1c0,0,0.1,0,0.1,0l0.2,0c0,0,0.1,0,0.1,0
		c0,0,0,0,0-0.1c0,0,0,0,0-0.1c0,0-0.1,0-0.1,0l-0.1,0l-0.1-0.5l0.5,0.6l0.2,0L2.2,16.2C2.1,16.2,2.2,16.2,2.2,16.2z"/>
	<path id="Trazado_1139" class="st0" d="M4.5,6.2C4.5,6.2,4.5,6.2,4.5,6.2C4.6,6.2,4.6,6.1,4.5,6.2C4.6,6.1,4.6,6.1,4.5,6.2L4.2,5.7
		L4.2,5.9L4.5,6.2C4.5,6.2,4.5,6.2,4.5,6.2z"/>
	<path id="Trazado_1140" class="st0" d="M3.1,6.9C3.1,6.9,3.2,6.9,3.1,6.9c0.1,0,0.1,0,0.1-0.1l0-0.1L3.5,7l0.2,0.2c0,0,0,0.1,0,0.1
		c0,0,0,0,0,0c0,0,0,0,0.1,0c0,0,0,0,0-0.1L4,7.1C4,7,4,7,4,7c0,0,0,0,0,0c0,0,0,0-0.1,0c0,0,0,0,0,0.1l0,0L3.7,7l0.1-0.4H4l0,0
		c0,0,0,0.1,0,0.1c0,0,0,0,0,0c0,0,0,0,0.1,0c0,0,0,0,0-0.1l0.1-0.2c0,0,0-0.1,0-0.1c0,0,0,0,0,0c0,0-0.1,0-0.1,0c0,0,0,0,0,0.1
		l-0.5,0H3.2L3.1,6.8C3.1,6.8,3.1,6.8,3.1,6.9C3.1,6.9,3.1,6.9,3.1,6.9z M3.5,6.6h0.2L3.6,6.8L3.5,6.8L3.4,6.6L3.5,6.6z"/>
	<path id="Trazado_1141" class="st0" d="M2.7,7.9C2.8,7.9,2.8,7.9,2.7,7.9c0.1,0,0.1,0,0.1-0.1L3.2,8l0.2,0.1c0,0,0,0.1,0,0.1
		c0,0,0,0,0,0c0,0,0,0,0.1,0c0,0,0,0,0-0.1l0.1-0.3c0-0.1,0-0.1,0-0.2c0,0,0-0.1,0-0.1c0-0.1,0-0.1-0.1-0.1c0,0-0.1-0.1-0.2-0.1
		l-0.1,0c0,0-0.1,0-0.1,0h0c0,0-0.1,0-0.1,0c0,0-0.1,0-0.1,0c0,0-0.1,0.1-0.1,0.1c0,0-0.1,0.1-0.1,0.1L2.7,7.8
		C2.7,7.8,2.7,7.8,2.7,7.9C2.7,7.9,2.7,7.9,2.7,7.9z M3,7.5c0,0,0-0.1,0.1-0.1c0,0,0.1-0.1,0.1-0.1c0,0,0,0,0.1,0c0,0,0.1,0,0.1,0
		l0.1,0c0,0,0.1,0,0.1,0.1c0,0,0,0.1,0,0.1c0,0.1,0,0.1,0,0.1L3.5,7.9L3.2,7.8L2.9,7.7L3,7.5z"/>
	<path id="Trazado_1142" class="st0" d="M2.4,8.7C2.5,8.7,2.5,8.7,2.4,8.7c0.1,0,0.1,0,0.1-0.1l0.1-0.2l0.6,0.2L3.1,8.9
		c0,0,0,0.1,0,0.1c0,0,0,0,0,0c0,0,0,0,0.1,0c0,0,0,0,0-0.1l0.2-0.5c0,0,0-0.1,0-0.1c0,0,0,0,0,0c0,0,0,0-0.1,0c0,0,0,0,0,0.1
		L3.2,8.6L2.7,8.3l0.1-0.2c0,0,0-0.1,0-0.1c0,0,0,0,0,0c0,0,0,0-0.1,0c0,0,0,0,0,0.1L2.4,8.6C2.4,8.6,2.4,8.7,2.4,8.7
		C2.4,8.7,2.4,8.7,2.4,8.7z"/>
	<path id="Trazado_1143" class="st0" d="M2.1,9.8C2.1,9.8,2.1,9.8,2.1,9.8c0.1,0,0.1,0,0.1-0.1l0,0l0.6,0.2c0,0,0,0.1,0,0.1
		c0,0,0,0,0,0c0,0,0,0,0.1,0c0,0,0,0,0.1-0.1L3,9.8c0,0,0-0.1,0-0.1c0,0-0.1-0.1-0.1,0c0,0,0,0,0,0c0,0,0,0,0,0.1l0,0.1L2.4,9.6
		l0.7-0.2l0.1-0.2L2.4,9c0,0,0-0.1,0-0.1c0,0,0,0,0,0c0,0,0,0-0.1,0c0,0,0,0,0,0.1L2.2,9.1c0,0,0,0.1,0,0.1c0,0,0,0,0,0
		c0,0,0,0,0.1,0c0,0,0,0,0-0.1l0-0.1l0.4,0.2L2.1,9.5L2,9.7C2,9.7,2,9.7,2.1,9.8C2,9.8,2,9.8,2.1,9.8z"/>
	<path id="Trazado_1144" class="st0" d="M2.4,11c0,0,0.1,0,0.1,0c0,0,0.1,0,0.1-0.1c0,0,0.1-0.1,0.1-0.1c0-0.1,0-0.2,0-0.3
		c0-0.1-0.1-0.2-0.2-0.2l-0.4-0.2c0,0,0-0.1,0-0.1c0,0,0,0,0,0c0,0,0,0-0.1,0c0,0,0,0,0,0.1l-0.1,0.2c0,0,0,0.1,0,0.1c0,0,0,0,0,0
		c0,0,0,0,0.1,0c0,0,0,0,0-0.1l0-0.1l0.4,0.2c0,0,0,0,0.1,0c0,0,0,0.1,0,0.1c0,0.1,0,0.2-0.1,0.2c0,0-0.1,0-0.1,0l-0.4-0.2l0-0.1
		c0,0,0-0.1,0-0.1c0,0,0,0,0,0c0,0,0,0-0.1,0c0,0,0,0,0,0.1l-0.1,0.2c0,0,0,0.1,0,0.1c0,0,0,0,0,0c0,0,0,0,0.1,0c0,0,0,0,0-0.1
		L2.2,11C2.3,11,2.3,11,2.4,11z"/>
	<path id="Trazado_1145" class="st0" d="M3.1,16.7C3.1,16.7,3.1,16.7,3.1,16.7l-0.2,0l-0.1-0.7l0.2,0c0,0,0.1,0,0.1,0c0,0,0,0,0-0.1
		c0,0,0,0,0-0.1c0,0-0.1,0-0.1,0L2.4,16c0,0-0.1,0-0.1,0c0,0,0,0,0,0.1c0,0,0,0,0,0.1c0,0,0.1,0,0.1,0l0.2,0l0.1,0.7l-0.2,0
		c0,0-0.1,0-0.1,0c0,0,0,0,0,0.1c0,0,0,0,0,0.1c0,0,0.1,0,0.1,0l0.5-0.1c0,0,0.1,0,0.1,0C3.2,16.8,3.2,16.8,3.1,16.7
		C3.2,16.8,3.2,16.7,3.1,16.7z"/>
	<path id="Trazado_1146" class="st0" d="M4,16.5C4,16.4,4,16.4,4,16.5C3.9,16.4,3.9,16.4,4,16.5c-0.1,0-0.1,0-0.1,0
		c0,0,0,0.1-0.1,0.1c0,0-0.1,0-0.1,0.1c-0.1,0-0.2,0-0.2,0c-0.1,0-0.1-0.1-0.1-0.2l0-0.1c0-0.1,0-0.1,0-0.2c0,0,0-0.1,0.1-0.1
		c0,0,0.1-0.1,0.1-0.1c0,0,0.1,0,0.1,0c0,0,0.1,0,0.1,0c0,0,0,0,0,0c0,0,0,0,0,0.1c0,0,0,0,0.1,0c0,0,0,0,0.1,0c0,0,0-0.1,0-0.1
		l0-0.1c0,0,0-0.1,0-0.1c0,0,0,0-0.1,0c0,0,0,0,0,0c0,0,0,0,0,0c0,0-0.1,0-0.1,0c0,0-0.1,0-0.1,0c-0.1,0-0.1,0.1-0.2,0.1
		c-0.1,0.1-0.1,0.1-0.1,0.2c0,0.1,0,0.2,0,0.3l0,0.1c0,0.1,0.1,0.2,0.1,0.2c0,0.1,0.1,0.1,0.2,0.1c0.1,0,0.2,0,0.3,0
		c0.1,0,0.1,0,0.2-0.1c0,0,0.1-0.1,0.1-0.1C4,16.6,4,16.5,4,16.5C4,16.5,4,16.5,4,16.5z"/>
	<path id="Trazado_1147" class="st0" d="M5.2,16.3C5.1,16.3,5.1,16.3,5.2,16.3l-0.5-0.7l0-0.1l-0.3,0.1c0,0-0.1,0-0.1,0
		c0,0,0,0,0,0.1c0,0,0,0,0,0.1c0,0,0.1,0,0.1,0l0.1,0l-0.1,0.7c0,0-0.1,0-0.1,0c0,0,0,0,0,0.1c0,0,0,0,0,0.1c0,0,0.1,0,0.1,0l0.2,0
		c0,0,0.1,0,0.1,0c0,0,0-0.1,0-0.1c0,0-0.1,0-0.1,0l0,0l0-0.1l0.2,0l0.2,0l0.1,0.1l0,0c0,0-0.1,0-0.1,0c0,0,0,0.1,0,0.1
		c0,0,0.1,0,0.1,0l0.2,0c0,0,0.1,0,0.1,0C5.2,16.4,5.2,16.4,5.2,16.3C5.2,16.4,5.2,16.3,5.2,16.3z M4.6,16.1l-0.1,0l0.1-0.4l0.1,0.1
		l0.1,0.2L4.6,16.1z"/>
	<path id="Trazado_1148" class="st0" d="M6.2,16.1C6.2,16.1,6.1,16.1,6.2,16.1C6,16.1,6,16,6,16c0,0-0.1-0.1-0.1-0.1
		c0,0,0.1-0.1,0.1-0.1c0,0,0-0.1,0-0.2c0-0.1-0.1-0.2-0.1-0.2c-0.1,0-0.1-0.1-0.2,0l-0.1,0l-0.4,0.1c0,0-0.1,0-0.1,0c0,0,0,0,0,0.1
		c0,0,0,0,0,0.1c0,0,0.1,0,0.1,0h0l0.1,0.7l0,0c0,0-0.1,0-0.1,0c0,0,0,0.1,0,0.1c0,0,0.1,0,0.1,0l0.2,0l0,0c0,0,0.1,0,0.1,0
		c0,0,0,0,0-0.1c0,0,0,0,0-0.1c0,0-0.1,0-0.1,0l0,0l-0.1,0l0-0.2l0.1,0l0.1,0c0.2,0.1,0.3,0.2,0.4,0.3l0.1,0c0,0,0.1,0,0.1,0
		C6.2,16.2,6.2,16.2,6.2,16.1C6.2,16.1,6.2,16.1,6.2,16.1z M5.8,15.7C5.8,15.7,5.8,15.8,5.8,15.7c-0.1,0.1-0.2,0.1-0.2,0.1h0l-0.1,0
		l0-0.3l0.2,0h0c0,0,0.1,0,0.1,0C5.8,15.6,5.8,15.6,5.8,15.7C5.8,15.7,5.8,15.7,5.8,15.7L5.8,15.7z"/>
	<path id="Trazado_1149" class="st0" d="M7.3,15.9C7.2,15.9,7.2,15.9,7.3,15.9l-0.5-0.7l0-0.1l-0.3,0.1c0,0-0.1,0-0.1,0
		c0,0,0,0,0,0.1c0,0,0,0,0,0.1c0,0,0.1,0,0.1,0l0.1,0l-0.1,0.7c0,0-0.1,0-0.1,0c0,0,0,0,0,0.1c0,0,0,0,0,0.1c0,0,0.1,0,0.1,0l0.2,0
		c0,0,0.1,0,0.1,0c0,0,0,0,0-0.1c0,0,0,0,0-0.1c0,0-0.1,0-0.1,0l0,0l0-0.1l0.2,0l0.2,0L7,15.9l0,0c0,0-0.1,0-0.1,0c0,0,0,0,0,0.1
		c0,0,0,0,0,0.1c0,0,0.1,0,0.1,0l0.2,0c0,0,0.1,0,0.1,0C7.3,16,7.3,16,7.3,15.9C7.3,15.9,7.3,15.9,7.3,15.9z M6.7,15.7l-0.1,0
		l0.1-0.4l0.1,0.1l0.1,0.2L6.7,15.7z"/>
	<path id="Trazado_1150" class="st0" d="M8.1,15.4C8.1,15.4,8.1,15.4,8.1,15.4l-0.4,0.1c0,0-0.1,0-0.1,0c0,0,0,0,0,0.1
		c0,0,0,0,0,0.1c0,0,0.1,0,0.1,0l0.2,0l0,0.1c-0.1,0-0.1,0.1-0.2,0.1c-0.1,0-0.2,0-0.2,0c-0.1,0-0.1-0.1-0.1-0.2l0-0.1
		c0-0.1,0-0.1,0-0.2c0,0,0-0.1,0.1-0.1c0.1-0.1,0.2-0.1,0.3-0.1c0,0,0.1,0,0.1,0c0,0,0,0,0,0.1c0,0,0,0,0,0c0,0,0,0,0.1,0
		c0,0,0,0,0.1,0c0,0,0-0.1,0-0.1L8,15c0,0,0-0.1,0-0.1c0,0,0,0-0.1,0c0,0,0,0-0.1,0c0,0-0.1,0-0.1,0c0,0-0.1,0-0.1,0
		c-0.1,0-0.3,0.1-0.3,0.3c0,0.1-0.1,0.2,0,0.3l0,0.1c0,0.1,0,0.1,0.1,0.2c0,0,0.1,0.1,0.1,0.1c0,0,0.1,0,0.1,0c0.1,0,0.2,0,0.2,0
		c0.1,0,0.1,0,0.2-0.1c0.1,0,0.1-0.1,0.2-0.1l0-0.2c0,0,0,0,0,0C8.2,15.5,8.2,15.5,8.1,15.4C8.2,15.5,8.2,15.4,8.1,15.4z"/>
	<path id="Trazado_1151" class="st0" d="M9,14.8C9,14.7,9,14.7,9,14.8c-0.1-0.1-0.1-0.1-0.1-0.1l-0.2,0c0,0-0.1,0-0.1,0
		c0,0,0,0,0,0.1c0,0,0,0,0,0.1c0,0,0.1,0,0.1,0l0.1,0l0.1,0.5c0,0,0,0.1,0,0.1c0,0,0,0.1-0.1,0.1c0,0-0.1,0-0.1,0
		c-0.1,0-0.1,0-0.2,0c0,0-0.1-0.1-0.1-0.1L8.4,15l0.1,0c0,0,0.1,0,0.1,0c0,0,0,0,0-0.1c0,0,0,0,0-0.1c0,0-0.1,0-0.1,0l-0.2,0
		c0,0-0.1,0-0.1,0c0,0,0,0,0,0.1c0,0,0,0,0,0.1c0,0,0.1,0,0.1,0l0.1,0.5c0,0.1,0,0.1,0.1,0.2c0,0,0.1,0.1,0.1,0.1c0,0,0.1,0,0.1,0.1
		c0,0,0.1,0,0.1,0c0.1,0,0.2-0.1,0.2-0.2C9,15.6,9,15.5,9,15.4l-0.1-0.5C9,14.9,9,14.9,9,14.8C9,14.8,9,14.8,9,14.8z"/>
	<path id="Trazado_1152" class="st0" d="M10.1,15.3C10.1,15.3,10.1,15.3,10.1,15.3l-0.5-0.7l0-0.1l-0.3,0.1c0,0-0.1,0-0.1,0
		c0,0,0,0,0,0.1c0,0,0,0,0,0.1c0,0,0.1,0,0.1,0l0.1,0l-0.1,0.7c0,0-0.1,0-0.1,0c0,0,0,0.1,0,0.1c0,0,0.1,0,0.1,0l0.2,0
		c0,0,0.1,0,0.1,0c0,0,0,0,0-0.1c0,0,0,0,0-0.1c0,0-0.1,0-0.1,0l0,0l0-0.1l0.2,0l0.2,0l0.1,0.1l0,0c0,0-0.1,0-0.1,0c0,0,0,0,0,0.1
		c0,0,0,0,0,0.1c0,0,0.1,0,0.1,0l0.2,0c0,0,0.1,0,0.1,0C10.2,15.4,10.2,15.4,10.1,15.3C10.1,15.4,10.1,15.3,10.1,15.3z M9.6,15.1
		l-0.1,0l0.1-0.4l0.1,0.1l0.1,0.2L9.6,15.1z"/>
	<path id="Trazado_1153" class="st0" d="M11.4,14.2l-0.8,0.2l0.1,0.3c0,0,0,0.1,0,0.1c0,0,0,0,0.1,0c0,0,0,0,0,0c0,0,0-0.1,0-0.1
		l0-0.2l0.2,0l0.1,0.7l-0.1,0c0,0-0.1,0-0.1,0c0,0,0,0,0,0.1c0,0,0,0,0,0.1c0,0,0.1,0,0.1,0l0.4-0.1c0,0,0.1,0,0.1,0c0,0,0,0,0-0.1
		c0,0,0,0,0-0.1c0,0-0.1,0-0.1,0l-0.1,0l-0.1-0.7l0.2,0l0,0.2c0,0,0,0.1,0,0.1c0,0,0,0,0.1,0c0,0,0,0,0.1,0c0,0,0-0.1,0-0.1
		L11.4,14.2z"/>
	<path id="Trazado_1154" class="st0" d="M12.6,14.8C12.5,14.8,12.5,14.8,12.6,14.8c-0.1,0-0.2-0.1-0.2-0.1c0,0-0.1-0.1-0.1-0.1
		c0,0,0.1-0.1,0.1-0.1c0,0,0-0.1,0-0.2c0-0.1-0.1-0.2-0.1-0.2c-0.1,0-0.1-0.1-0.2,0c0,0,0,0-0.1,0l-0.4,0.1c0,0-0.1,0-0.1,0
		c0,0,0,0,0,0.1c0,0,0,0,0,0.1c0,0,0.1,0,0.1,0h0l0.1,0.7h0c0,0-0.1,0-0.1,0c0,0,0,0,0,0.1c0,0,0,0,0,0.1c0,0,0.1,0,0.1,0l0.2,0l0,0
		c0,0,0.1,0,0.1,0c0,0,0,0,0-0.1c0,0,0,0,0-0.1c0,0-0.1,0-0.1,0l0,0l-0.1,0l0-0.2l0.1,0l0.1,0c0.2,0.1,0.3,0.2,0.4,0.3l0.1,0
		c0,0,0.1,0,0.1,0C12.6,15,12.6,14.9,12.6,14.8C12.6,14.9,12.6,14.9,12.6,14.8z M12.2,14.4C12.2,14.5,12.1,14.5,12.2,14.4
		c-0.1,0.1-0.1,0.1-0.2,0.1h0l-0.1,0l0-0.3l0.2,0h0c0,0,0.1,0,0.1,0C12.2,14.3,12.2,14.3,12.2,14.4C12.2,14.4,12.2,14.4,12.2,14.4
		L12.2,14.4z"/>
	<path id="Trazado_1155" class="st0" d="M13.3,14.7C13.3,14.7,13.3,14.7,13.3,14.7l-0.2,0L13,14.1l0.2,0c0,0,0.1,0,0.1,0
		c0,0,0,0,0-0.1c0,0,0,0,0-0.1c0,0-0.1,0-0.1,0L12.6,14c0,0-0.1,0-0.1,0c0,0,0,0,0,0.1c0,0,0,0,0,0.1c0,0,0.1,0,0.1,0l0.2,0l0.1,0.7
		l-0.2,0c0,0-0.1,0-0.1,0c0,0,0,0,0,0.1c0,0,0,0,0,0.1c0,0,0.1,0,0.1,0l0.5-0.1c0,0,0.1,0,0.1,0C13.4,14.8,13.4,14.8,13.3,14.7
		C13.4,14.7,13.4,14.7,13.3,14.7z"/>
	<path id="Trazado_1156" class="st0" d="M14.2,13.7C14.2,13.7,14.2,13.7,14.2,13.7c-0.1-0.1-0.1-0.1-0.1-0.1l-0.2,0c0,0-0.1,0-0.1,0
		c0,0,0,0,0,0.1c0,0,0,0,0,0.1c0,0,0.1,0,0.1,0l0.1,0l0.1,0.5c0,0,0,0.1,0,0.1c0,0.1-0.1,0.1-0.2,0.2c-0.1,0-0.1,0-0.2,0
		c0,0-0.1-0.1-0.1-0.1l-0.1-0.5l0.1,0c0,0,0.1,0,0.1,0c0,0,0,0,0-0.1c0,0,0,0,0-0.1c0,0-0.1,0-0.1,0l-0.2,0c0,0-0.1,0-0.1,0
		c0,0,0,0,0,0.1c0,0,0,0,0,0.1c0,0,0.1,0,0.1,0l0.1,0.5c0,0.1,0,0.1,0.1,0.2c0,0,0.1,0.1,0.1,0.1c0,0,0.1,0,0.1,0.1
		c0.1,0,0.3,0,0.4-0.2c0.1-0.1,0.1-0.2,0.1-0.3l-0.1-0.5C14.2,13.8,14.2,13.8,14.2,13.7C14.2,13.8,14.3,13.8,14.2,13.7z"/>
	<path id="Trazado_1157" class="st0" d="M15.3,13.6c0,0,0-0.1,0-0.1c0,0-0.1,0-0.1,0l-0.2,0c0,0-0.1,0-0.1,0c0,0,0,0,0,0.1
		c0,0,0,0,0,0.1c0,0,0.1,0,0.1,0l0.1,0l0.1,0.5l-0.5-0.6l-0.2,0c0,0-0.1,0-0.1,0c0,0,0,0,0,0.1c0,0,0,0,0,0.1c0,0,0.1,0,0.1,0h0
		l0.1,0.7c0,0-0.1,0-0.1,0c0,0,0,0,0,0.1c0,0,0,0,0,0.1c0,0,0.1,0,0.1,0l0.2,0c0,0,0.1,0,0.1,0c0,0,0,0,0-0.1c0,0,0,0,0-0.1
		c0,0-0.1,0-0.1,0l-0.1,0l-0.1-0.5l0.5,0.6l0.2,0L15.3,13.6C15.2,13.6,15.3,13.6,15.3,13.6z"/>
	<path id="Trazado_1158" class="st0" d="M16.2,13.2l-0.7,0.2c0,0-0.1,0-0.1,0c0,0,0,0,0,0.1c0,0,0,0,0,0.1c0,0,0.1,0,0.1,0l0,0
		l0.1,0.7h0c0,0-0.1,0-0.1,0c0,0,0,0,0,0.1c0,0,0,0,0,0.1c0,0,0.1,0,0.1,0l0.3-0.1c0,0,0.1,0,0.1,0c0,0,0,0,0-0.1c0,0,0,0,0-0.1
		c0,0-0.1,0-0.1,0l-0.2,0l0-0.2l0.1,0c0,0,0,0.1,0,0.1c0,0,0,0,0.1,0c0,0,0,0,0.1,0c0,0,0-0.1,0-0.1l0-0.2c0,0,0-0.1,0-0.1
		c0,0,0,0-0.1,0c0,0,0,0-0.1,0c0,0,0,0.1,0,0.1l-0.1,0l0-0.2l0.4-0.1l0,0.1c0,0,0,0.1,0,0.1c0,0,0,0,0.1,0c0,0,0,0,0.1,0
		c0,0,0-0.1,0-0.1L16.2,13.2z"/>
	<path id="Trazado_1159" class="st0" d="M17.4,13.9C17.4,13.9,17.3,13.9,17.4,13.9l-0.5-0.7l0-0.1l-0.3,0.1c0,0-0.1,0-0.1,0
		c0,0,0,0,0,0.1c0,0,0,0,0,0.1c0,0,0.1,0,0.1,0l0.1,0l-0.1,0.7c0,0-0.1,0-0.1,0c0,0,0,0,0,0.1c0,0,0,0,0,0.1c0,0,0.1,0,0.1,0l0.2,0
		c0,0,0.1,0,0.1,0c0,0,0,0,0-0.1c0,0,0,0,0-0.1c0,0-0.1,0-0.1,0l0,0l0-0.1l0.2,0l0.2,0l0.1,0.1l0,0c0,0-0.1,0-0.1,0c0,0,0,0,0,0.1
		c0,0,0,0,0,0.1c0,0,0.1,0,0.1,0l0.2,0c0,0,0.1,0,0.1,0C17.4,14,17.4,14,17.4,13.9C17.4,13.9,17.4,13.9,17.4,13.9z M16.8,13.7
		l-0.1,0l0.1-0.4l0.1,0.1l0.1,0.2L16.8,13.7z"/>
	<path id="Trazado_1160" class="st0" d="M17.9,13.6C18,13.6,18,13.6,17.9,13.6C18,13.6,18,13.5,17.9,13.6l0-0.6c0,0,0,0,0-0.1
		c0,0,0-0.1-0.1-0.1c0,0-0.1,0-0.1,0c0,0-0.1,0-0.1,0.1c0,0,0,0.1,0,0.1c0,0,0,0,0,0.1L17.9,13.6C17.8,13.6,17.9,13.6,17.9,13.6
		C17.9,13.6,17.9,13.6,17.9,13.6z"/>
	<path id="Trazado_1161" class="st0" d="M18,13.8C18,13.8,18,13.8,18,13.8c-0.1,0-0.1,0-0.1,0c0,0,0,0.1,0,0.1c0,0,0,0,0,0
		c0,0,0,0,0.1,0c0,0,0.1,0,0.1,0C18.1,13.9,18.1,13.9,18,13.8C18.1,13.8,18.1,13.8,18,13.8z"/>
	<path id="Trazado_1162" class="st0" d="M8,6.4C8,6.5,8,6.7,8.2,6.7c0,0,0,0,0,0l0,0c0.1,0.1,0,0.2,0,0.2C8,7.1,7.9,7.3,8,7.4
		c0.1,0.2,0.2,0,0.4,0c0.1,0,0.2,0,0.3,0c0.1,0,0.3,0,0.4-0.1c0.2-0.2,0.1-0.5-0.1-0.7C8.8,6.3,8.6,6.2,8.4,6.2
		C8.2,6.1,8.1,6.2,8,6.4z"/>
	<path id="Trazado_1163" class="st0" d="M4.6,11.9c-0.1,0.4,0.5,0.5,0.8,0.3c0.5-0.5,0.9-1,1.3-1.6c0.4-0.4,0.7-0.3,0.9-0.1
		c0.1,0.1,0.4,0.3,0.6,0.4c0.2,0.1,0.4,0.1,0.5-0.1c0.2-0.2,0.5-0.6,0.6-0.7c0.4-0.3,0.8,0.2,1,0.3c0.2,0.1,0.4,0.1,0.6-0.1
		c0.1-0.1,0.3-0.3,0.5-0.2c0.1,0.1,0.2,0.2,0.4,0.3c0.2,0.1,0.4-0.1,0.4-0.2c0.1-0.1,0.2-0.1,0.3-0.1c0.1,0,0.3,0.2,0.5,0.2
		c0.2,0,0.3-0.2,0.3-0.3c0,0,0,0,0,0c0,0,0,0,0-0.1c0-0.2-0.4-0.3-0.6-0.3s-0.5,0.1-0.7,0c-0.2,0-0.4-0.1-0.5-0.2
		c-0.2-0.1-0.4-0.1-0.5,0c-0.1,0.1-0.3,0.2-0.5,0.2c-0.2-0.1-0.4-0.2-0.6-0.3C9.9,9,9.6,9,9.4,9.1C9.2,9.3,9,9.4,8.7,9.5
		c-0.3,0-0.5-0.1-0.7-0.3C7.8,8.9,7.3,8.9,7,9.1C6,9.8,5.2,10.8,4.6,11.9z"/>
	<path id="Trazado_1164" class="st0" d="M6.5,7.3c0,0,1.2-0.2,1.2-0.2c0.2,0,0-0.1,0-0.1s-1,0.1-1.2,0.1S6.4,7.3,6.5,7.3z"/>
	<path id="Trazado_1165" class="st0" d="M6.5,8.2c0,0,1.1-0.7,1.1-0.7c0.3-0.2,0-0.1,0-0.1c-0.1,0-1,0.5-1.1,0.6S6.4,8.3,6.5,8.2z"
		/>
	<path id="Trazado_1166" class="st0" d="M8.4,7.7c0,0.1,0,1,0,1.1s0.1,0.1,0.1,0C8.5,8.8,8.5,7.7,8.4,7.7C8.4,7.4,8.4,7.6,8.4,7.7z"
		/>
	<path id="Trazado_1167" class="st0" d="M7.4,8.6c0,0,0.5-0.9,0.5-0.9c0.2-0.3,0-0.1-0.1,0S7.4,8.4,7.4,8.6C7.3,8.7,7.4,8.7,7.4,8.6
		z"/>
	<path id="Trazado_1168" class="st0" d="M8.2,8.6c0,0,0-0.9,0-0.9c0-0.3,0-0.1-0.1,0c0,0-0.1,0.7-0.1,0.9S8.2,8.7,8.2,8.6z"/>
	<path id="Trazado_1169" class="st0" d="M7.2,8.2c0,0,0.6-0.6,0.6-0.6c0.2-0.2,0-0.1,0,0S7.2,8.1,7.2,8.2C7,8.2,7.2,8.3,7.2,8.2z"/>
	<path id="Trazado_1170" class="st0" d="M6.9,7.6l0.8-0.3c0.3-0.1,0-0.1,0-0.1c-0.1,0-0.7,0.2-0.8,0.2c0,0-0.1,0-0.1,0.1
		S6.8,7.6,6.9,7.6C6.8,7.6,6.8,7.6,6.9,7.6C6.8,7.6,6.9,7.6,6.9,7.6z"/>
	<path id="Trazado_1171" class="st0" d="M7.9,8.6c0,0,0.3-0.9,0.3-0.9c0.1-0.3-0.1,0-0.1,0c0,0.1-0.3,0.7-0.3,0.8S7.8,8.7,7.9,8.6z"
		/>
	<path id="Trazado_1172" class="st0" d="M8.6,7.7c0,0.1,0.1,0.8,0.1,0.9s0.2,0.1,0.2-0.1C8.8,8.5,8.7,7.7,8.6,7.7
		C8.6,7.4,8.6,7.7,8.6,7.7z"/>
	<path id="Trazado_1173" class="st0" d="M6.9,6.6c0.1,0,0.8,0.1,0.9,0.1s0.3,0,0-0.1c0,0-0.9-0.2-0.9-0.2C6.8,6.5,6.7,6.5,6.9,6.6z"
		/>
	<path id="Trazado_1174" class="st0" d="M8,5.1C8,5,7.9,5,7.9,5.1s0.2,0.8,0.2,0.8s0.1,0.3,0.1,0C8.2,5.9,8,5.1,8,5.1z"/>
	<path id="Trazado_1175" class="st0" d="M6.9,5.7C7,5.8,7.7,6.3,7.7,6.3s0.3,0.2,0,0c0,0-0.7-0.7-0.8-0.7C6.9,5.6,6.8,5.6,6.9,5.7z"
		/>
	<path id="Trazado_1176" class="st0" d="M7.6,5.4C7.7,5.5,8,6,8,6.1c0,0,0.1,0.2,0.1,0c0,0-0.3-0.7-0.3-0.7C7.7,5.2,7.6,5.3,7.6,5.4
		z"/>
	<path id="Trazado_1177" class="st0" d="M8.4,5.9c0,0,0-0.8,0-0.8c0-0.1-0.1-0.1-0.1,0S8.3,5.9,8.4,5.9C8.3,6,8.4,6.2,8.4,5.9z"/>
	<path id="Trazado_1178" class="st0" d="M6.9,6.2C7,6.3,7.7,6.5,7.8,6.6c0.1,0,0.3,0.1,0-0.1c0,0-0.8-0.4-0.8-0.4
		C6.9,6,6.8,6.1,6.9,6.2z"/>
	<path id="Trazado_1179" class="st0" d="M6.8,6.9c0.1,0,0.8,0,0.9,0c0,0,0.3,0,0-0.1l-1-0.1c-0.1,0-0.1,0-0.1,0.1S6.7,6.9,6.8,6.9
		C6.7,6.9,6.7,6.9,6.8,6.9L6.8,6.9z"/>
	<path id="Trazado_1180" class="st0" d="M7.3,5.5c0.1,0.1,0.5,0.6,0.5,0.7c0,0,0.2,0.2,0.1,0L7.4,5.5C7.3,5.4,7.2,5.4,7.3,5.5z"/>
	<path id="Trazado_1181" class="st0" d="M10.6,6.5c-0.2,0-1.1,0.2-1.2,0.2S9,6.9,9.4,6.8c0,0,1.1-0.2,1.2-0.2
		C10.7,6.6,10.7,6.5,10.6,6.5z"/>
	<path id="Trazado_1182" class="st0" d="M10.8,7.4c-0.2,0-1.3-0.2-1.3-0.2c-0.1,0-0.4-0.1,0,0.1c0,0,1.3,0.3,1.3,0.3
		C10.9,7.6,11,7.4,10.8,7.4z"/>
	<path id="Trazado_1183" class="st0" d="M9.2,8.7c0-0.1-0.3-1-0.3-1.1s-0.1-0.2-0.1,0c0,0,0.2,1.1,0.2,1.1C9.1,8.8,9.2,8.8,9.2,8.7z
		"/>
	<path id="Trazado_1184" class="st0" d="M10.1,8.1C10,8,9.4,7.5,9.4,7.5s-0.3-0.2,0,0c0,0,0.7,0.7,0.7,0.7
		C10.1,8.3,10.2,8.2,10.1,8.1z"/>
	<path id="Trazado_1185" class="st0" d="M9.4,8.4c0-0.1-0.3-0.7-0.3-0.8S8.9,7.3,9,7.6c0,0,0.3,0.8,0.3,0.8C9.3,8.5,9.4,8.5,9.4,8.4
		z"/>
	<path id="Trazado_1186" class="st0" d="M10.2,7.7c-0.1-0.1-0.8-0.3-0.8-0.4c-0.1,0-0.3-0.1,0,0.1c0.2,0.2,0.5,0.3,0.8,0.4
		C10.2,7.8,10.3,7.7,10.2,7.7z"/>
	<path id="Trazado_1187" class="st0" d="M10.3,7C10.3,7,10.4,7,10.3,7C10.4,7,10.4,7,10.3,7c0.1-0.1,0.1-0.2,0-0.2c0,0,0,0,0,0
		c-0.1,0-0.9,0-1,0.1c0,0-0.2,0.1,0,0.1L10.3,7z"/>
	<path id="Trazado_1188" class="st0" d="M9.7,8.2C9.7,8.1,9.3,7.6,9.2,7.5c0,0-0.2-0.1-0.1,0c0,0,0.5,0.7,0.5,0.8
		C9.7,8.4,9.8,8.3,9.7,8.2z"/>
	<path id="Trazado_1189" class="st0" d="M10,6c0,0-0.8,0.5-0.8,0.5c-0.3,0.2,0,0.1,0,0S9.9,6.1,10,6.1S10.1,5.9,10,6z"/>
	<path id="Trazado_1190" class="st0" d="M8.6,5.9c0,0,0-0.8,0-0.9S8.5,4.9,8.5,5C8.5,5.1,8.6,5.9,8.6,5.9C8.6,6.2,8.6,6,8.6,5.9z"/>
	<path id="Trazado_1191" class="st0" d="M9.6,5.2L9,6.1c-0.2,0.3,0,0.1,0.1,0S9.7,5.4,9.6,5.2C9.8,5.2,9.7,5.1,9.6,5.2z"/>
	<path id="Trazado_1192" class="st0" d="M8.8,5.2c0,0-0.1,0.8-0.1,0.8c0,0.3,0.1,0,0.1,0c0,0,0.2-0.7,0.2-0.8S8.8,5,8.8,5.2z"/>
	<path id="Trazado_1193" class="st0" d="M9.8,5.6L9.1,6.3c-0.2,0.2,0,0.1,0.1,0c0,0,0.6-0.5,0.7-0.6S9.8,5.6,9.8,5.6z"/>
	<path id="Trazado_1194" class="st0" d="M10.2,6.2c0,0-0.9,0.3-0.9,0.3c-0.3,0.1,0,0.1,0,0.1c0.1,0,0.8-0.2,0.9-0.3
		S10.3,6.2,10.2,6.2z"/>
	<path id="Trazado_1195" class="st0" d="M9.2,5.2c0,0-0.3,0.9-0.3,0.9c-0.1,0.3,0.1,0,0.1,0C9,6,9.3,5.3,9.3,5.2S9.2,5.1,9.2,5.2z"
		/>
	<path id="Trazado_1196" class="st0" d="M15.5,12.4c-0.3,0-3.9,0.2-5.8,0.4c-1.2,0.1-2.4,0.3-3.6,0.6c-0.9,0.2-1.8,0.5-2.6,0.9
		c-0.2,0.1-0.2,0.4-0.1,0.5c0.1,0.2,0.3,0.2,0.5,0.1c1.7-0.6,3.3-1.1,5-1.4c2.3-0.5,4.5-0.8,6.8-1.1C15.8,12.6,16.1,12.4,15.5,12.4z
		"/>
	<path id="Trazado_1197" class="st0" d="M3,14c0.1,0.2,0.6,0.3,0.6-0.2c0-0.7,1.3-4.4,1.6-5.4C5.5,7.6,5.8,6.8,6.1,6
		c1.1-1.4,3.2-1.7,4.6-0.6c0.1,0.1,0.2,0.1,0.3,0.2c0.1,0.1,0.2,0.2,0.2,0.3c0.8,1.2,1.5,2.1,2.8,4.4c0.3,0.7,0.7,1.3,1.1,1.8
		c0.2,0.1,0.8,0.1,0.5-0.5C15.3,11,14,9.1,13.4,8.3C12.6,7.1,11,5,10.8,4.7C10.2,4,8.7,2.3,8.5,2.1C8.5,2,8.1,2,8.4,2.3
		c0,0.1,0.1,0.2,0.3,0.4c-0.3,0-0.6,0-0.8,0c-0.1,0-0.2,0-0.2,0.1c0.5-0.9,0.9-1.7,1.2-2.2c0.3-0.4,0.5-0.9-0.1-0.3
		c-1,1.4-1.9,3-2.7,4.6c-1.3,2.6-2.3,5.3-3.1,8.1C2.8,13.7,2.9,13.9,3,14z M10.2,4.8C9.6,4.5,8.9,4.4,8.3,4.4h0c0,0,0,0-0.1,0
		l-0.1,0C7.5,4.6,6.9,4.9,6.4,5.3C6.5,5.2,6.5,5,6.6,4.8C7,4.5,7.5,4.3,8.1,4.2c0.7-0.1,1.4,0,2,0.3c0.1,0.2,0.3,0.3,0.4,0.5
		C10.4,4.9,10.3,4.9,10.2,4.8L10.2,4.8z M8,3.6c0.5-0.1,1-0.1,1.5,0.1c0.1,0.1,0.2,0.3,0.3,0.4C9.6,4,9.4,3.9,9.2,3.9h0
		C8.8,3.8,8.4,3.8,8,3.9C7.6,3.9,7.2,4.1,6.9,4.3C7.2,4.1,7.6,3.9,8,3.9c0.4-0.1,0.7-0.1,1.1,0c-0.8-0.1-1.5,0-2.2,0.4l-0.1,0L7,3.9
		C7.3,3.8,7.6,3.7,8,3.6L8,3.6z M7.2,3.5c0.1-0.1,0.1-0.3,0.2-0.4C7.6,3.1,7.7,3.1,7.9,3C8.2,3,8.6,3,8.9,3l0.3,0.3
		c-0.4-0.1-0.8-0.1-1.3,0C7.7,3.4,7.4,3.4,7.2,3.5L7.2,3.5z M7.9,3C8.2,3,8.6,3,8.9,3l0,0C8.6,3,8.2,3,7.9,3c-0.1,0-0.2,0-0.3,0.1
		C7.7,3.1,7.8,3,7.9,3L7.9,3z"/>
	<path id="Trazado_1198" class="st0" d="M39.6,7.3v0.4H40V7.3L39.6,7.3z"/>
	<path id="Trazado_1199" class="st0" d="M42.6,6.2c0.2,0.1,0.4,0.2,0.6,0.2c0.2,0,0.5,0,0.7-0.2C43.9,6.2,44,6.1,44,6
		c0,0,0-0.1,0-0.1c0,0-0.1-0.1-0.1-0.1c0,0-0.1,0-0.1,0.1c0,0-0.1,0.1-0.1,0.1C43.4,6,43.3,6,43.2,6c-0.2,0-0.3,0-0.5-0.1
		c-0.1-0.1-0.1-0.2-0.1-0.3c0-0.1,0-0.3,0.1-0.4C42.9,5.1,43,5,43.1,5c0.1,0,0.2,0,0.3,0.1c0.1,0,0.1,0.1,0.1,0.1c0,0,0,0.1,0.1,0.1
		c0,0,0.1,0,0.1,0c0,0,0.1,0,0.1-0.1c0-0.1,0.1-0.1,0-0.2V4.9c0-0.1,0-0.1,0-0.2c0,0-0.1-0.1-0.1-0.1c0,0-0.1,0-0.1,0.1
		c-0.1,0-0.1-0.1-0.2-0.1c-0.1,0-0.2,0-0.3,0c-0.2,0-0.5,0.1-0.6,0.3c-0.2,0.2-0.2,0.4-0.2,0.7C42.3,5.8,42.4,6.1,42.6,6.2z"/>
	<path id="Trazado_1200" class="st0" d="M64.1,5.8l0-0.7c0-0.2,0-0.3-0.1-0.4c-0.1-0.1-0.3-0.2-0.5-0.2c-0.1,0-0.2,0-0.2,0
		c-0.1,0-0.1,0.1-0.2,0.1V4.6h-0.3c-0.1,0-0.1,0-0.2,0.1c0,0-0.1,0.1-0.1,0.1c0,0.1,0,0.1,0.1,0.1c0,0,0.1,0.1,0.2,0.1l0,0.9
		c-0.1,0-0.1,0-0.2,0c0,0-0.1,0.1-0.1,0.2c0,0.1,0,0.1,0.1,0.1c0,0,0.1,0.1,0.2,0.1h0.3c0.1,0,0.1,0,0.2-0.1c0,0,0.1-0.1,0.1-0.1
		c0-0.1,0-0.1-0.1-0.2c0,0-0.1,0-0.2,0V5.1c0.1-0.1,0.1-0.2,0.2-0.2c0.1,0,0.1,0,0.2,0c0.1,0,0.2,0,0.2,0.1c0,0,0.1,0.1,0.1,0.2
		l0,0.7c-0.1,0-0.1,0-0.2,0.1c0,0-0.1,0.1,0,0.1c0,0.1,0,0.1,0.1,0.1c0,0,0.1,0.1,0.2,0h0.3c0.1,0,0.1,0,0.2-0.1c0,0,0.1-0.1,0-0.1
		c0-0.1,0-0.1-0.1-0.1C64.2,5.8,64.2,5.8,64.1,5.8z"/>
	<path id="Trazado_1201" class="st0" d="M39.3,9.3c-0.1,0-0.1,0-0.2,0.1c0,0,0,0,0,0c0,0,0,0.1,0,0.1c0,0,0,0.1,0,0.1c0,0,0,0,0,0.1
		c0.1,0,0.1,0.1,0.2,0l1.1,0c0.1,0,0.1,0,0.2-0.1l0,0c0,0,0-0.1,0-0.1c0,0,0-0.1,0-0.1c0,0,0,0,0,0c-0.1,0-0.1-0.1-0.2-0.1H40L40,8
		h-0.6c-0.1,0-0.1,0-0.2,0.1c0,0-0.1,0.1-0.1,0.1c0,0.1,0,0.1,0.1,0.1c0,0,0.1,0.1,0.2,0h0.3l0,0.9L39.3,9.3z"/>
	<path id="Trazado_1202" class="st0" d="M40.8,6.3c0.1,0.1,0.3,0.1,0.4,0.1h0.1c0.2,0,0.3,0,0.5-0.1c0.1,0,0.2-0.1,0.3-0.1
		c0,0,0-0.1,0-0.1c0,0,0-0.1,0-0.1c0,0-0.1-0.1-0.1-0.1c-0.1,0-0.1,0-0.2,0C41.6,6,41.5,6,41.3,6.1h-0.1c-0.1,0-0.2,0-0.3-0.1
		c-0.1,0-0.1-0.1-0.1-0.1c0,0,0-0.1-0.1-0.1h0.5l0.9,0V5.6c0-0.1,0-0.2-0.1-0.3c0-0.1-0.1-0.2-0.2-0.3c-0.1-0.1-0.2-0.1-0.3-0.2
		c-0.1,0-0.2-0.1-0.3-0.1h0c-0.1,0-0.3,0-0.4,0.1c-0.1,0-0.1,0.1-0.2,0.2c-0.2,0.2-0.3,0.4-0.3,0.6c0,0.2,0.1,0.5,0.2,0.6
		C40.7,6.2,40.7,6.3,40.8,6.3z M40.8,5.2c0,0,0.1-0.1,0.1-0.1C41,5.1,41.1,5,41.2,5h0c0.1,0,0.2,0,0.3,0.1c0.1,0.1,0.2,0.1,0.2,0.2
		h-1C40.8,5.3,40.8,5.3,40.8,5.2L40.8,5.2z"/>
	<path id="Trazado_1203" class="st0" d="M44.5,6.3c0.1,0.1,0.3,0.1,0.4,0.1c0,0,0,0,0,0c0.2,0,0.3,0,0.4-0.1
		c0.1-0.1,0.2-0.2,0.3-0.3c0.1-0.1,0.1-0.3,0.1-0.4c0-0.2,0-0.3-0.1-0.4c-0.1-0.3-0.4-0.4-0.7-0.5c0,0,0,0,0,0c-0.2,0-0.3,0-0.4,0.1
		c-0.1,0.1-0.2,0.2-0.3,0.3c-0.1,0.1-0.1,0.3-0.1,0.4c0,0.1,0,0.3,0.1,0.4C44.3,6.1,44.4,6.2,44.5,6.3z M44.6,5.2
		C44.7,5.1,44.8,5,45,5h0c0.2,0,0.3,0.1,0.4,0.2c0.1,0.1,0.1,0.2,0.1,0.3c0,0.1-0.1,0.2-0.1,0.3C45.3,6,45.1,6,45,6h0
		c-0.1,0-0.3-0.1-0.4-0.1c-0.1-0.1-0.2-0.2-0.2-0.3C44.4,5.4,44.5,5.3,44.6,5.2L44.6,5.2z"/>
	<path id="Trazado_1204" class="st0" d="M20.2,6.5c0.1,0.1,0.3,0.1,0.4,0.1h0c0.2,0,0.3,0,0.4-0.1c0.1-0.1,0.2-0.2,0.3-0.3
		c0,0,0-0.1,0.1-0.2c0-0.1,0-0.2,0-0.3c0-0.1,0-0.1,0-0.2c0-0.1-0.1-0.2-0.1-0.3C21.3,5.1,21.2,5,21,4.9c-0.1-0.1-0.3-0.1-0.4-0.1h0
		c-0.2,0-0.3,0-0.4,0.1C20,5,19.9,5.1,19.8,5.3c-0.1,0.1-0.1,0.3-0.1,0.4c0,0.1,0,0.3,0.1,0.4C19.9,6.3,20,6.4,20.2,6.5z M20.2,5.4
		c0.1-0.1,0.2-0.2,0.4-0.2h0c0.2,0,0.3,0.1,0.4,0.2c0.1,0.1,0.1,0.2,0.1,0.3C21.1,5.8,21.1,6,21,6c-0.1,0.1-0.2,0.2-0.4,0.2h0
		c-0.1,0-0.3-0.1-0.4-0.1c-0.1-0.1-0.2-0.2-0.2-0.3C20.1,5.6,20.1,5.5,20.2,5.4L20.2,5.4z"/>
	<path id="Trazado_1205" class="st0" d="M35.5,8.2c0,0,0,0.1,0,0.1c0,0,0.1,0.1,0.1,0.1c0,0,0.1,0,0.1,0c0.1,0,0.3-0.1,0.4-0.1
		c0.1,0,0.1,0,0.2,0c0,0,0.1,0,0.1,0c0,0,0.1,0.1,0.1,0.1v0.1c-0.1,0-0.1,0-0.2,0c-0.1,0-0.1,0-0.2,0c-0.2,0-0.4,0.1-0.6,0.2
		c-0.1,0.1-0.2,0.3-0.2,0.4c0,0.1,0.1,0.3,0.2,0.3c0.1,0.1,0.3,0.2,0.4,0.2c0.1,0,0.2,0,0.3,0c0,0,0,0,0.1,0c0.1,0,0.1-0.1,0.2-0.1
		v0.1h0.4c0.1,0,0.1,0,0.2-0.1c0,0,0.1-0.1,0-0.1c0,0,0-0.1-0.1-0.1c-0.1,0-0.1-0.1-0.2,0h-0.1l0-0.8c0-0.2-0.1-0.3-0.2-0.4
		C36.6,8,36.5,8,36.4,8c-0.1,0-0.1,0-0.2,0c-0.1,0-0.2,0-0.2,0c-0.1,0-0.2,0-0.3,0.1c0,0-0.1,0-0.1,0.1C35.6,8.1,35.6,8.1,35.5,8.2
		C35.6,8.2,35.5,8.2,35.5,8.2z M36.5,9.1c-0.1,0-0.1,0.1-0.2,0.1c0,0-0.1,0-0.1,0c-0.1,0-0.2,0.1-0.3,0.1c-0.1,0-0.2,0-0.2-0.1
		c0,0,0-0.1,0-0.1c0-0.1,0-0.1,0.1-0.1c0.1-0.1,0.2-0.1,0.3-0.1c0.1,0,0.1,0,0.2,0c0.1,0,0.1,0,0.2,0L36.5,9.1z"/>
	<path id="Trazado_1206" class="st0" d="M34.4,6.5L34.4,6.5c0.1,0,0.2,0,0.3,0c0.1,0,0.2-0.1,0.2-0.1v0.1h0.4c0.1,0,0.1,0,0.2-0.1
		c0,0,0.1-0.1,0-0.1c0-0.1,0-0.1-0.1-0.1C35.5,6,35.4,6,35.3,6h-0.1l0-2h-0.4c-0.1,0-0.1,0-0.2,0.1c0,0-0.1,0.1,0,0.1
		c0,0.1,0,0.1,0.1,0.1c0,0,0.1,0.1,0.2,0h0.1v0.5c-0.1-0.1-0.2-0.1-0.3-0.1c-0.1,0-0.1,0-0.2,0c0,0,0,0,0,0c-0.2,0-0.4,0.1-0.6,0.3
		c-0.2,0.2-0.2,0.4-0.2,0.6c0,0.2,0.1,0.4,0.2,0.6C34,6.4,34.2,6.5,34.4,6.5z M34.1,5.3c0.1-0.1,0.2-0.2,0.4-0.2c0,0,0,0,0,0
		c0.1,0,0.2,0.1,0.3,0.2c0.1,0.1,0.1,0.2,0.1,0.4c0,0.1,0,0.2-0.1,0.3c-0.1,0.1-0.2,0.1-0.4,0.1h0c-0.1,0-0.3,0-0.3-0.1
		c-0.1-0.1-0.1-0.2-0.1-0.3C33.9,5.5,34,5.4,34.1,5.3L34.1,5.3z"/>
	<path id="Trazado_1207" class="st0" d="M38.5,4.6L38.5,4.6L38.6,6h0c-0.1,0-0.1,0-0.2,0.1c0,0-0.1,0.1-0.1,0.1c0,0.1,0,0.1,0.1,0.1
		c0,0,0.1,0.1,0.2,0.1H39c0.1,0,0.1,0,0.2-0.1l0,0c0,0,0-0.1,0-0.1c0,0,0-0.1,0-0.1c0,0,0,0,0,0C39.2,6,39.1,6,39,6h-0.1V5.5h0.3
		l0,0c0.3,0.2,0.5,0.5,0.7,0.8h0.2c0.1,0,0.1,0,0.2-0.1c0,0,0.1-0.1,0-0.1c0-0.1,0-0.1-0.1-0.2c0,0-0.1,0-0.2,0
		c-0.1-0.1-0.2-0.3-0.2-0.3c-0.1-0.1-0.1-0.2-0.2-0.3c0.1-0.1,0.2-0.1,0.3-0.3C40,5.1,40,5,40,4.8c0-0.2-0.1-0.3-0.2-0.5
		c-0.1-0.1-0.3-0.2-0.5-0.2c0,0,0,0,0,0l-0.8,0c-0.1,0-0.1,0-0.2,0.1c0,0-0.1,0.1,0,0.1c0,0.1,0,0.1,0.1,0.1
		C38.4,4.5,38.5,4.6,38.5,4.6z M39.3,4.6L39.3,4.6c0.1,0,0.2,0,0.3,0.1c0.1,0,0.1,0.1,0.1,0.2c0,0.1,0,0.1-0.1,0.1
		c-0.1,0.1-0.1,0.1-0.2,0.1c0,0-0.1,0-0.2,0c0,0-0.1,0-0.1,0h-0.3l0-0.6L39.3,4.6z"/>
	<path id="Trazado_1208" class="st0" d="M58.8,5.9c0,0,0-0.1-0.1-0.1c0,0-0.1-0.1-0.1-0.1c0,0-0.1,0-0.1,0.1c0,0-0.1,0.1-0.1,0.1
		c-0.1,0-0.2,0-0.3,0c-0.2,0-0.3,0-0.5-0.1c-0.1-0.1-0.1-0.2-0.1-0.3c0-0.1,0-0.3,0.1-0.4c0.1-0.1,0.2-0.2,0.4-0.2
		c0.1,0,0.2,0,0.3,0.1c0.1,0,0.1,0.1,0.1,0.1c0,0,0,0.1,0.1,0.1c0,0,0.1,0,0.1,0c0,0,0.1,0,0.1-0.1c0-0.1,0.1-0.1,0-0.2V4.8
		c0-0.1,0-0.1,0-0.2c0,0-0.1-0.1-0.1-0.1c0,0-0.1,0-0.1,0.1c-0.1,0-0.1-0.1-0.2-0.1c-0.1,0-0.2,0-0.3,0c-0.2,0-0.5,0.1-0.6,0.3
		C57.1,5,57,5.2,57,5.5c0,0.3,0.1,0.5,0.3,0.7c0.2,0.1,0.4,0.2,0.6,0.2c0.2,0,0.5,0,0.7-0.2C58.7,6.1,58.7,6,58.8,5.9z"/>
	<path id="Trazado_1209" class="st0" d="M37.5,9.5c0.2,0.1,0.4,0.2,0.6,0.2c0.2,0,0.5,0,0.7-0.2c0.1,0,0.1-0.1,0.1-0.2
		c0,0,0-0.1-0.1-0.1c0,0-0.1-0.1-0.1-0.1c-0.1,0-0.1,0-0.1,0.1c0,0-0.1,0.1-0.1,0.1c-0.1,0-0.2,0-0.3,0c-0.2,0-0.3,0-0.5-0.1
		c-0.1-0.1-0.1-0.2-0.1-0.3c0-0.1,0-0.3,0.1-0.4c0.1-0.1,0.2-0.2,0.4-0.2c0.1,0,0.2,0,0.3,0.1c0.1,0,0.1,0.1,0.1,0.1
		c0,0,0,0.1,0.1,0.1c0,0,0.1,0,0.1,0c0,0,0.1,0,0.1-0.1c0-0.1,0.1-0.1,0-0.2V8.2c0-0.1,0-0.1,0-0.2c0,0-0.1-0.1-0.1-0.1
		c0,0-0.1,0-0.1,0.1C38.5,8,38.4,8,38.4,8c-0.1,0-0.2,0-0.3,0c-0.2,0-0.5,0.1-0.6,0.3c-0.2,0.2-0.2,0.4-0.2,0.7
		C37.2,9.1,37.3,9.4,37.5,9.5z"/>
	<path id="Trazado_1210" class="st0" d="M36.5,6.5L36.5,6.5c0.2,0,0.4,0,0.6-0.1c0.1,0,0.2-0.1,0.3-0.1c0,0,0.1-0.1,0-0.1
		c0,0,0-0.1,0-0.1c0,0-0.1-0.1-0.1-0.1c-0.1,0-0.1,0-0.2,0c-0.2,0.1-0.3,0.1-0.5,0.1h-0.1c-0.1,0-0.2,0-0.3-0.1
		c-0.1-0.1-0.2-0.1-0.2-0.2h0.5l0.9,0V5.6c0-0.1,0-0.2-0.1-0.3c0-0.1-0.1-0.2-0.2-0.3c-0.1-0.1-0.2-0.1-0.3-0.2
		c-0.1,0-0.2-0.1-0.3-0.1h0c-0.2,0-0.4,0.1-0.6,0.3c-0.2,0.2-0.3,0.4-0.3,0.6c0,0.2,0.1,0.5,0.2,0.6C36.1,6.4,36.3,6.5,36.5,6.5z
		 M36.2,5.2c0.1-0.1,0.2-0.1,0.3-0.1h0c0.1,0,0.2,0,0.3,0.1C36.9,5.2,37,5.3,37,5.4h-1C36.1,5.3,36.1,5.2,36.2,5.2L36.2,5.2z"/>
	<path id="Trazado_1211" class="st0" d="M59.2,6.2l1.1,0c0.1,0,0.1,0,0.2-0.1c0.1-0.1,0.1-0.2,0-0.3c-0.1,0-0.1-0.1-0.2,0h-0.4
		l0-1.3h-0.6c-0.1,0-0.1,0-0.2,0.1c0,0-0.1,0.1-0.1,0.1c0,0.1,0,0.1,0.1,0.1c0,0,0.1,0.1,0.2,0.1h0.3l0,0.9h-0.4
		c-0.1,0-0.1,0-0.2,0.1c-0.1,0.1-0.1,0.2,0,0.3C59.1,6.2,59.1,6.2,59.2,6.2z"/>
	
		<rect id="Rectángulo_95" x="59.4" y="3.9" transform="matrix(1 -7.976070e-03 7.976070e-03 1 -3.060622e-02 0.4759)" class="st0" width="0.4" height="0.4"/>
	<path id="Trazado_1212" class="st0" d="M33.6,7.8L33.6,7.8l0.1,1.5c-0.1,0-0.1,0-0.2,0.1c-0.1,0.1-0.1,0.2,0,0.3c0,0,0.1,0.1,0.2,0
		h0.5c0,0,0.1,0,0.1,0c0,0,0,0,0,0c0.1-0.1,0.1-0.2,0-0.3c0,0,0,0,0,0c0,0-0.1,0-0.1,0H34l0-1.1l0.3,0.5l0.6,1h0.3l0-1.8
		c0.1,0,0.1,0,0.2-0.1c0.1-0.1,0.1-0.2,0-0.3c-0.1,0-0.1-0.1-0.2,0h-0.5c-0.1,0-0.1,0-0.2,0.1c0,0-0.1,0.1,0,0.1
		c0,0.1,0,0.1,0.1,0.1c0.1,0,0.1,0.1,0.2,0h0.1l0,1.1l-0.5-0.9L34,7.5h-0.4c-0.1,0-0.1,0-0.2,0.1c0,0-0.1,0.1-0.1,0.1
		c0,0.1,0,0.1,0.1,0.1C33.5,7.8,33.5,7.9,33.6,7.8z"/>
	<path id="Trazado_1213" class="st0" d="M55.3,6.2c0.1,0.1,0.3,0.2,0.4,0.2c0,0,0.1,0,0.1,0c0.1,0,0.1,0,0.2,0
		c0.1,0,0.2-0.1,0.3-0.1v0.1h0.4c0.1,0,0.1,0,0.2-0.1c0,0,0.1-0.1,0-0.1c0-0.1,0-0.1-0.1-0.1c-0.1,0-0.1-0.1-0.2-0.1h-0.1l0-0.8
		c0-0.2-0.1-0.3-0.2-0.4c-0.1-0.1-0.3-0.2-0.5-0.1h0c-0.1,0-0.1,0-0.2,0c-0.1,0-0.2,0-0.3,0.1c0,0-0.1,0-0.1,0.1c0,0,0,0,0,0.1
		c0,0,0,0.1,0,0.1c0,0,0,0.1,0,0.1c0,0,0.1,0.1,0.1,0.1c0,0,0.1,0,0.1,0c0.1,0,0.2-0.1,0.3-0.1H56c0.1,0,0.2,0,0.2,0.1
		c0,0,0.1,0.1,0.1,0.1v0.1c-0.1,0-0.2,0-0.4,0h0c-0.2,0-0.4,0.1-0.6,0.2c-0.1,0.1-0.2,0.3-0.2,0.4C55.2,6,55.2,6.1,55.3,6.2z
		 M55.6,5.7c0.1-0.1,0.2-0.1,0.3-0.1h0c0.1,0,0.2,0,0.4,0v0.2c-0.1,0.1-0.2,0.1-0.3,0.1c0,0-0.1,0-0.1,0c0,0-0.1,0-0.1,0
		c-0.1,0-0.2,0-0.2-0.1c0,0,0-0.1,0-0.1C55.5,5.8,55.6,5.7,55.6,5.7L55.6,5.7z"/>
	<path id="Trazado_1214" class="st0" d="M61,6.2c0.1,0.1,0.3,0.1,0.4,0.1h0c0.2,0,0.3,0,0.4-0.1C62,6.1,62.2,6,62.2,5.8
		c0.1-0.1,0.1-0.3,0.1-0.4c0-0.2,0-0.3-0.1-0.4c-0.1-0.1-0.2-0.3-0.3-0.3c-0.1-0.1-0.3-0.1-0.4-0.1h0c-0.3,0-0.6,0.2-0.7,0.5
		c-0.1,0.1-0.1,0.3-0.1,0.4c0,0.1,0,0.3,0.1,0.4C60.8,6,60.9,6.1,61,6.2z M61.1,5.1c0.1-0.1,0.2-0.2,0.4-0.2h0
		c0.2,0,0.3,0.1,0.4,0.2C62,5.2,62,5.3,62,5.4c0,0.1-0.1,0.2-0.2,0.3c-0.1,0.1-0.2,0.2-0.4,0.2h0c-0.1,0-0.3-0.1-0.4-0.1
		c-0.1-0.1-0.1-0.2-0.2-0.3C60.9,5.3,61,5.2,61.1,5.1L61.1,5.1z"/>
	<path id="Trazado_1215" class="st0" d="M54.3,3.9h-0.4v0.4h0.4V3.9z"/>
	<path id="Trazado_1216" class="st0" d="M45.7,8c-0.1-0.1-0.3-0.2-0.5-0.1c-0.1,0-0.2,0-0.2,0l-0.1,0l-0.2,0c0,0-0.1,0-0.1,0
		c0,0,0,0,0,0.1c0,0,0,0.1,0,0.1c0,0,0,0.1,0,0.1c0,0,0.1,0.1,0.1,0.1c0,0,0.1,0,0.1,0l0,0c0.1,0,0.2-0.1,0.4-0.1
		c0.1,0,0.2,0,0.2,0.1c0,0,0.1,0.1,0.1,0.1v0.1c-0.1,0-0.2,0-0.4,0c-0.1,0-0.2,0-0.3,0c-0.1,0-0.2,0.1-0.3,0.2
		c-0.1,0.1-0.2,0.3-0.2,0.4c0,0.1,0.1,0.3,0.2,0.3c0.1,0.1,0.2,0.1,0.3,0.1c0.1,0,0.1,0,0.2,0c0.1,0,0.2,0,0.3,0
		c0.1,0,0.2-0.1,0.3-0.1v0.1h0.4c0.1,0,0.1,0,0.2-0.1c0,0,0.1-0.1,0.1-0.1c0-0.1,0-0.1-0.1-0.1c0,0-0.1-0.1-0.2,0h-0.1l0-0.8
		C45.9,8.3,45.8,8.1,45.7,8z M45.3,9.2c-0.1,0-0.2,0.1-0.3,0.1c-0.1,0-0.1,0-0.2,0c0,0,0,0-0.1,0c0,0,0-0.1,0-0.1
		c0-0.1,0-0.1,0.1-0.1c0,0,0,0,0,0c0.1-0.1,0.2-0.1,0.3-0.1c0.1,0,0.2,0,0.4,0v0.2C45.4,9.1,45.4,9.2,45.3,9.2L45.3,9.2z"/>
	<path id="Trazado_1217" class="st0" d="M61.2,4.4C61.3,4.4,61.3,4.3,61.2,4.4l0.3-0.2L61.7,4c0,0,0.1-0.1,0.1-0.1c0,0,0-0.1,0-0.1
		c0,0,0,0-0.1,0c0,0-0.1,0-0.1,0l0,0l-0.3,0.3c0,0-0.1,0.1-0.1,0.1C61.1,4.3,61.1,4.3,61.2,4.4C61.2,4.4,61.2,4.4,61.2,4.4z"/>
	<path id="Trazado_1218" class="st0" d="M46.2,5.1l0,0.9c-0.1,0-0.1,0-0.2,0C46,6,46,6.1,46,6.1c0,0.1,0,0.1,0.1,0.1
		c0,0,0.1,0.1,0.2,0h0.3c0.1,0,0.1,0,0.2-0.1c0,0,0.1-0.1,0.1-0.1c0-0.1,0-0.1-0.1-0.2c0,0-0.1,0-0.2,0V5.3c0.1-0.1,0.1-0.2,0.2-0.2
		c0.1,0,0.1-0.1,0.2,0c0.1,0,0.2,0,0.2,0.1c0,0,0.1,0.1,0.1,0.2l0,0.7c-0.1,0-0.1,0-0.2,0.1c0,0-0.1,0.1,0,0.1c0,0.1,0,0.1,0.1,0.1
		c0,0,0.1,0.1,0.2,0.1h0.3c0.1,0,0.1,0,0.2-0.1c0,0,0.1-0.1,0-0.1c0,0,0-0.1-0.1-0.1c-0.1,0-0.1-0.1-0.2,0l0-0.7
		c0-0.2,0-0.3-0.1-0.4c-0.1-0.1-0.3-0.2-0.5-0.2c-0.1,0-0.2,0-0.2,0c-0.1,0-0.1,0.1-0.2,0.1V4.7h-0.3c-0.1,0-0.1,0-0.2,0.1
		c0,0-0.1,0.1,0,0.1C45.9,4.9,46,5,46,5C46.1,5,46.1,5.1,46.2,5.1z"/>
	<path id="Trazado_1219" class="st0" d="M53.6,6.3l1.1,0c0.1,0,0.1,0,0.2-0.1c0,0,0.1-0.1,0-0.1c0-0.1,0-0.1-0.1-0.1
		c0,0-0.1-0.1-0.2-0.1h-0.4l0-1.3h-0.6c-0.1,0-0.1,0-0.2,0.1c0,0-0.1,0.1-0.1,0.1c0,0.1,0,0.1,0.1,0.1c0,0,0.1,0.1,0.2,0.1H54l0,0.9
		h-0.4c-0.1,0-0.1,0-0.2,0.1c0,0-0.1,0.1,0,0.1c0,0.1,0,0.1,0.1,0.1C53.5,6.3,53.5,6.3,53.6,6.3z"/>
	<path id="Trazado_1220" class="st0" d="M48.2,6.2c0.2,0.1,0.4,0.2,0.6,0.2c0.2,0,0.5,0,0.7-0.2c0.1-0.1,0.1-0.1,0.1-0.2
		c0,0,0-0.1,0-0.1c0,0-0.1-0.1-0.1-0.1c-0.1,0-0.1,0-0.1,0.1c0,0-0.1,0.1-0.1,0.1c-0.1,0-0.2,0.1-0.3,0c-0.2,0-0.3,0-0.5-0.1
		c-0.1-0.1-0.1-0.2-0.1-0.3c0-0.1,0-0.3,0.1-0.4C48.5,5,48.6,5,48.7,5c0.1,0,0.2,0,0.3,0.1c0.1,0,0.1,0.1,0.1,0.1c0,0,0,0.1,0.1,0.1
		c0,0,0.1,0,0.1,0c0,0,0.1,0,0.1-0.1c0-0.1,0.1-0.1,0-0.2V4.9c0-0.1,0-0.1,0-0.2c0,0-0.1-0.1-0.1-0.1c0,0-0.1,0-0.1,0.1
		c-0.1,0-0.1-0.1-0.2-0.1c-0.1,0-0.2,0-0.3,0c-0.2,0-0.5,0.1-0.6,0.3c-0.2,0.2-0.2,0.4-0.2,0.7C47.9,5.8,48,6,48.2,6.2z"/>
	
		<rect id="Rectángulo_96" x="50.3" y="3.9" transform="matrix(1 -8.674177e-03 8.674177e-03 1 -3.402041e-02 0.438)" class="st0" width="0.4" height="0.4"/>
	<path id="Trazado_1221" class="st0" d="M50,6.3l1.1,0c0.1,0,0.1,0,0.2-0.1c0,0,0.1-0.1,0-0.1c0-0.1,0-0.1-0.1-0.1
		c-0.1,0-0.1-0.1-0.2-0.1h-0.4l0-1.3h-0.6c-0.1,0-0.1,0-0.2,0.1c0,0-0.1,0.1-0.1,0.1c0,0,0,0.1,0.1,0.1C50,5,50.1,5,50.1,5h0.3
		l0,0.9H50c-0.1,0-0.1,0-0.2,0.1c0,0-0.1,0.1,0,0.1c0,0.1,0,0.1,0.1,0.1C49.9,6.3,49.9,6.3,50,6.3z"/>
	<path id="Trazado_1222" class="st0" d="M51.8,6.3l1.1,0c0.1,0,0.1,0,0.2-0.1c0,0,0.1-0.1,0.1-0.1c0,0,0-0.1-0.1-0.1
		c0,0-0.1-0.1-0.2-0.1h-0.4l0-2h-0.6c-0.1,0-0.1,0-0.2,0.1c0,0-0.1,0.1-0.1,0.1c0,0.1,0,0.1,0.1,0.1c0,0,0.1,0.1,0.2,0h0.3l0,1.6
		h-0.4c-0.1,0-0.1,0-0.2,0.1c0,0-0.1,0.1,0,0.1c0,0,0,0.1,0.1,0.1C51.7,6.3,51.7,6.3,51.8,6.3z"/>
	<path id="Trazado_1223" class="st0" d="M22.7,7.9c0.1-0.1,0.1-0.2,0-0.3c0,0-0.1-0.1-0.1-0.1H22c-0.1,0-0.1,0-0.2,0.1
		c0,0-0.1,0.1,0,0.1c0,0,0,0.1,0.1,0.1c0,0,0.1,0.1,0.2,0h0.1l0,1.1c0,0.1,0,0.1,0,0.2c0,0.1-0.1,0.1-0.2,0.2
		c-0.1,0-0.1,0.1-0.2,0.1c-0.1,0-0.2,0-0.3-0.1c-0.1-0.1-0.1-0.2-0.1-0.3V8.9l0-0.9h0.1c0.1,0,0.1,0,0.2-0.1c0.1-0.1,0.1-0.2,0-0.3
		c0,0-0.1-0.1-0.2,0H21c-0.1,0-0.1,0-0.2,0.1c0,0-0.1,0.1-0.1,0.1c0,0,0,0.1,0.1,0.1c0,0,0.1,0.1,0.2,0.1L21,9c0,0.1,0,0.2,0.1,0.3
		c0,0.1,0.1,0.2,0.2,0.2c0,0,0,0,0.1,0.1c0.1,0,0.1,0.1,0.2,0.1c0.3,0.1,0.6,0,0.8-0.2c0.1-0.1,0.1-0.2,0.2-0.3c0-0.1,0.1-0.2,0-0.3
		V7.9h0C22.6,7.9,22.6,7.9,22.7,7.9z"/>
	<path id="Trazado_1224" class="st0" d="M21.5,4.5c0.1,0,0.1,0.1,0.2,0h0.1l0,1.6h-0.1c-0.1,0-0.1,0-0.2,0.1c0,0-0.1,0.1,0,0.1
		c0,0.1,0,0.1,0.1,0.1c0.1,0,0.1,0.1,0.2,0.1h0.4V6.4c0.1,0,0.2,0.1,0.2,0.1c0.1,0,0.1,0,0.2,0h0c0.2,0,0.4-0.1,0.6-0.2
		c0.2-0.2,0.2-0.4,0.2-0.6c0-0.2-0.1-0.5-0.2-0.6c-0.1-0.2-0.3-0.3-0.5-0.3c0,0,0,0,0,0c-0.1,0-0.2,0-0.3,0c-0.1,0-0.2,0.1-0.2,0.1
		l0-0.8h-0.4c-0.1,0-0.1,0-0.2,0.1l0,0c0,0,0,0.1,0,0.1C21.5,4.4,21.5,4.4,21.5,4.5C21.5,4.5,21.5,4.5,21.5,4.5z M22.2,5.3
		c0.1-0.1,0.2-0.2,0.3-0.2h0c0.1,0,0.2,0.1,0.3,0.2c0.1,0.1,0.1,0.2,0.1,0.4c0,0.1,0,0.2-0.1,0.3c-0.1,0.1-0.2,0.1-0.4,0.1h0
		c-0.1,0-0.3,0-0.3-0.1c-0.1-0.1-0.1-0.2-0.1-0.3C22.1,5.6,22.1,5.4,22.2,5.3L22.2,5.3z"/>
	<path id="Trazado_1225" class="st0" d="M23.8,9.6c0,0.1,0,0.1,0.1,0.1c0,0,0.1,0.1,0.2,0h0.3c0.1,0,0.1,0,0.2,0
		c0,0,0.1-0.1,0.1-0.1c0,0,0-0.1-0.1-0.1c-0.1,0-0.1-0.1-0.2-0.1l0-0.7c0-0.2,0-0.3-0.1-0.4c-0.1-0.1-0.3-0.2-0.5-0.2
		c-0.1,0-0.2,0-0.2,0c-0.1,0-0.1,0.1-0.2,0.1V8.1H23c-0.1,0-0.1,0-0.2,0c0,0-0.1,0.1-0.1,0.1c0,0.1,0,0.1,0.1,0.1
		c0,0,0.1,0.1,0.2,0.1l0,0.9c-0.1,0-0.1,0-0.2,0c0,0-0.1,0.1-0.1,0.2c0,0.1,0,0.1,0.1,0.1c0,0,0.1,0.1,0.2,0.1h0.3
		c0.1,0,0.1,0,0.2-0.1c0,0,0.1-0.1,0.1-0.1c0-0.1,0-0.1-0.1-0.1c0,0-0.1,0-0.2,0l0-0.7c0.1-0.1,0.1-0.2,0.2-0.2
		c0.1,0,0.1-0.1,0.2-0.1c0.1,0,0.2,0,0.2,0.1c0,0,0.1,0.1,0.1,0.2l0,0.7c-0.1,0-0.1,0-0.2,0.1C23.8,9.5,23.8,9.5,23.8,9.6z"/>
	<path id="Trazado_1226" class="st0" d="M24.3,4.1h-0.4v0.4h0.4V4.1z"/>
	<path id="Trazado_1227" class="st0" d="M23.7,6.5l1.1,0c0.1,0,0.1,0,0.2-0.1c0,0,0.1-0.1,0-0.1c0-0.1,0-0.1-0.1-0.1
		c-0.1,0-0.1-0.1-0.2,0h-0.4l0-1.3h-0.6c-0.1,0-0.1,0-0.2,0.1c-0.1,0.1-0.1,0.2,0,0.3c0,0,0.1,0.1,0.2,0.1h0.3l0,0.9h-0.4
		c-0.1,0-0.1,0-0.2,0.1c0,0-0.1,0.1,0,0.1c0,0,0,0.1,0.1,0.1C23.5,6.5,23.6,6.5,23.7,6.5z"/>
	<path id="Trazado_1228" class="st0" d="M26.3,9.4c-0.1,0-0.1-0.1-0.2-0.1h-0.4l0-1.3h-0.6c-0.1,0-0.1,0-0.2,0.1
		c0,0-0.1,0.1-0.1,0.1c0,0.1,0,0.1,0.1,0.1c0.1,0,0.1,0.1,0.2,0h0.3l0,0.9H25c-0.1,0-0.1,0-0.2,0.1c0,0-0.1,0.1,0,0.1
		c0,0.1,0,0.1,0,0.1c0.1,0,0.1,0.1,0.2,0l0.8,0h0.3c0.1,0,0.1,0,0.2-0.1c0,0,0,0,0-0.1c0,0,0,0,0-0.1C26.4,9.5,26.4,9.5,26.3,9.4
		C26.3,9.5,26.3,9.4,26.3,9.4z"/>
	
		<rect id="Rectángulo_97" x="25.3" y="7.4" transform="matrix(1 -5.999892e-03 5.999892e-03 1 -4.498205e-02 0.1529)" class="st0" width="0.4" height="0.4"/>
	<path id="Trazado_1229" class="st0" d="M43.2,9.6c0,0,0.1-0.1,0.1-0.1c0-0.1,0-0.1-0.1-0.2c0,0-0.1,0-0.2,0l0-0.7
		c0.1-0.1,0.1-0.2,0.2-0.2c0.1,0,0.1-0.1,0.2-0.1c0.1,0,0.2,0,0.2,0.1c0,0,0.1,0.1,0.1,0.2l0,0.7c-0.1,0-0.1,0-0.2,0.1
		c0,0-0.1,0.1-0.1,0.1c0,0.1,0,0.1,0.1,0.1c0,0,0.1,0.1,0.2,0.1H44c0.1,0,0.1,0,0.2-0.1c0,0,0.1-0.1,0.1-0.1c0-0.1,0-0.1-0.1-0.1
		c-0.1,0-0.1-0.1-0.2,0l0-0.7c0-0.2,0-0.3-0.1-0.4c-0.1-0.1-0.3-0.2-0.5-0.2c-0.1,0-0.2,0-0.2,0C43.1,8,43,8,43,8.1V8h-0.3
		c-0.1,0-0.1,0-0.2,0.1c0,0-0.1,0.1-0.1,0.1c0,0.1,0,0.1,0.1,0.1c0,0,0.1,0.1,0.2,0.1l0,0.9c-0.1,0-0.1,0-0.2,0c0,0-0.1,0.1-0.1,0.2
		c0,0,0,0.1,0.1,0.1c0,0,0.1,0.1,0.2,0.1H43C43,9.6,43.1,9.6,43.2,9.6z"/>
	<path id="Trazado_1230" class="st0" d="M17.8,6c0,0.1,0.1,0.2,0.2,0.3c0.1,0.1,0.2,0.1,0.3,0.2c0.2,0.1,0.3,0.1,0.5,0.1
		c0.1,0,0.2,0,0.3-0.1c0.1,0,0.3-0.1,0.4-0.2V5.8c0,0,0.1,0,0.1-0.1c0,0,0.1-0.1,0.1-0.1c0-0.1,0-0.1-0.1-0.1c0,0-0.1,0-0.1-0.1
		l-0.7,0c-0.1,0-0.1,0-0.2,0.1c0,0-0.1,0.1,0,0.1c0,0.1,0,0.1,0.1,0.1c0,0,0.1,0.1,0.2,0h0.3v0.3c-0.1,0.1-0.3,0.1-0.4,0.1
		c-0.2,0-0.4,0-0.5-0.2C18,5.9,18,5.8,18,5.6V5.3c0-0.1,0-0.3,0.1-0.4c0-0.1,0.1-0.2,0.2-0.2c0.1-0.1,0.2-0.1,0.3-0.1
		c0.1,0,0.2,0,0.3,0c0.1,0,0.1,0.1,0.2,0.1c0,0,0,0.1,0,0.1c0,0,0,0.1,0.1,0.1c0,0,0.1,0,0.1,0c0,0,0.1,0,0.1-0.1
		c0-0.1,0.1-0.1,0-0.2V4.6c0-0.1,0-0.1,0-0.2c0,0-0.1-0.1-0.1-0.1c-0.1,0-0.1,0-0.1,0.1c-0.1,0-0.2-0.1-0.2-0.1c-0.1,0-0.2,0-0.3,0
		c-0.3,0-0.6,0.1-0.7,0.4c-0.1,0.2-0.2,0.4-0.2,0.7v0.3C17.7,5.8,17.7,5.9,17.8,6z"/>
	<path id="Trazado_1231" class="st0" d="M19.4,8.1h-0.4c-0.1,0-0.1,0-0.2,0.1c0,0-0.1,0.1,0,0.1c0,0,0,0.1,0.1,0.1
		c0.1,0,0.1,0.1,0.2,0.1l-0.4,0.9l-0.4-0.9c0.1,0,0.1,0,0.2-0.1c0,0,0.1-0.1,0.1-0.1c0-0.1,0-0.1-0.1-0.1c0,0-0.1-0.1-0.2,0h-0.4
		c-0.1,0-0.1,0-0.2,0.1c0,0-0.1,0.1,0,0.1c0,0.1,0,0.1,0.1,0.1c0,0,0.1,0.1,0.2,0l0.6,1.3l-0.2,0.4H18c-0.1,0-0.1,0-0.2,0.1
		c0,0-0.1,0.1-0.1,0.1c0,0.1,0,0.1,0.1,0.1c0.1,0,0.1,0.1,0.2,0.1l0.8,0c0.1,0,0.1,0,0.2-0.1c0,0,0.1-0.1,0.1-0.1
		c0-0.1,0-0.1-0.1-0.2h-0.3l0.8-1.7c0.1,0,0.1,0,0.2-0.1c0,0,0.1-0.1,0-0.1c0,0,0-0.1,0-0.1C19.6,8.1,19.5,8.1,19.4,8.1z"/>
	<path id="Trazado_1232" class="st0" d="M41.9,8c-0.1-0.1-0.3-0.1-0.4-0.1c-0.1,0-0.3,0-0.4,0.1l-0.1,0c-0.1,0.1-0.2,0.2-0.3,0.3
		c0,0.1,0,0.1-0.1,0.2c0,0.1,0,0.2,0,0.3c0,0.1,0,0.1,0,0.2c0,0.1,0.1,0.2,0.1,0.2c0.1,0.1,0.2,0.2,0.3,0.3h0
		c0.1,0.1,0.3,0.1,0.4,0.1c0.2,0,0.3,0,0.4-0.1c0.1-0.1,0.2-0.2,0.3-0.3c0.1-0.1,0.1-0.3,0.1-0.4c0-0.2,0-0.3-0.1-0.4
		C42.2,8.2,42.1,8.1,41.9,8z M41.9,9.2c-0.1,0.1-0.2,0.2-0.4,0.2c-0.2,0-0.3-0.1-0.4-0.2C41,9,41,8.9,41,8.8c0-0.1,0-0.3,0.1-0.4
		l0,0c0.1-0.1,0.2-0.2,0.4-0.2c0.2,0,0.3,0.1,0.4,0.2C42,8.6,42,8.7,42,8.8C42,8.9,42,9.1,41.9,9.2L41.9,9.2z"/>
	<path id="Trazado_1233" class="st0" d="M31.7,9.7h0.3c0.1,0,0.1,0,0.2-0.1c0,0,0.1-0.1,0.1-0.1c0-0.1,0-0.1-0.1-0.1
		c-0.1,0-0.1-0.1-0.2,0h-0.1l0-2h-0.4c-0.1,0-0.1,0-0.2,0.1c0,0-0.1,0.1,0,0.1c0,0.1,0,0.1,0.1,0.1c0,0,0.1,0.1,0.2,0h0.1v0.5
		c-0.1-0.1-0.2-0.1-0.2-0.1c-0.1,0-0.1,0-0.2,0h0c-0.2,0-0.4,0.1-0.6,0.3c-0.1,0.1-0.2,0.2-0.2,0.4c0,0.1,0,0.2,0,0.3
		c0,0.1,0,0.1,0,0.2c0,0.2,0.1,0.3,0.2,0.4c0.1,0.2,0.4,0.2,0.6,0.2h0c0.1,0,0.2,0,0.3,0c0.1,0,0.2-0.1,0.2-0.1v0.1L31.7,9.7z
		 M31.4,9.2c-0.1,0.1-0.2,0.1-0.4,0.1h0c-0.1,0-0.3,0-0.3-0.1c-0.1-0.1-0.1-0.2-0.1-0.3c0-0.1,0-0.3,0.1-0.4
		c0.1-0.1,0.2-0.2,0.4-0.2h0c0.1,0,0.2,0.1,0.3,0.2c0.1,0.1,0.1,0.2,0.1,0.4C31.5,9,31.5,9.2,31.4,9.2L31.4,9.2z"/>
	<path id="Trazado_1234" class="st0" d="M29.3,5.2l0,0.9c-0.1,0-0.1,0-0.2,0c0,0-0.1,0.1-0.1,0.2c0,0.1,0,0.1,0.1,0.1
		c0,0,0.1,0.1,0.2,0h0.3c0.1,0,0.1,0,0.2-0.1c0,0,0.1-0.1,0.1-0.1c0-0.1,0-0.1-0.1-0.2c0,0-0.1,0-0.2,0l0-0.7
		c0.1-0.1,0.1-0.2,0.2-0.2c0.1,0,0.1-0.1,0.2-0.1c0.1,0,0.2,0,0.2,0.1c0,0,0.1,0.1,0.1,0.2v0.7c-0.1,0-0.1,0-0.2,0.1
		c0,0-0.1,0.1,0,0.1c0,0.1,0,0.1,0.1,0.1c0,0,0.1,0.1,0.2,0h0.4c0.1,0,0.1,0,0.2-0.1c0,0,0.1-0.1,0-0.1c0-0.1,0-0.1-0.1-0.1
		c-0.1,0-0.1-0.1-0.2,0V5.4c0-0.2,0-0.3-0.1-0.4c0,0-0.1-0.1-0.1-0.1c-0.2-0.1-0.4-0.1-0.6,0c-0.1,0-0.1,0.1-0.2,0.1V4.8h-0.3
		c-0.1,0-0.1,0-0.2,0.1c-0.1,0.1-0.1,0.2,0,0.3C29.1,5.2,29.2,5.2,29.3,5.2z"/>
	<path id="Trazado_1235" class="st0" d="M28.6,8.1C28.6,8.2,28.6,8.2,28.6,8.1c-0.1,0.1-0.1,0.1-0.1,0.1c0,0.1,0,0.1,0,0.1
		c0,0,0.1,0.1,0.1,0.1c0,0,0.1,0,0.1,0c0.1,0,0.2-0.1,0.3-0.1h0.1c0.1,0,0.2,0,0.2,0c0,0,0.1,0.1,0.1,0.1v0.1c-0.1,0-0.2,0-0.4,0h0
		c-0.2,0-0.4,0.1-0.6,0.2c-0.1,0.1-0.2,0.3-0.2,0.4c0,0.1,0.1,0.3,0.2,0.3c0.1,0.1,0.3,0.2,0.4,0.2c0,0,0.1,0,0.1,0
		c0.1,0,0.1,0,0.2,0c0.1,0,0.2-0.1,0.3-0.1v0.1H30c0.1,0,0.1,0,0.2-0.1l0,0c0,0,0-0.1,0-0.1c0,0,0-0.1,0-0.1c0,0,0,0,0,0
		c0,0-0.1-0.1-0.2-0.1h-0.1l0-0.8c0-0.2-0.1-0.3-0.2-0.4C29.6,8,29.4,8,29.2,8h0c-0.1,0-0.1,0-0.2,0c-0.1,0-0.2,0-0.3,0.1
		C28.7,8.1,28.7,8.1,28.6,8.1z M29.3,9.3c0,0-0.1,0-0.1,0c0,0-0.1,0-0.1,0c-0.1,0-0.2,0-0.2-0.1c0,0,0-0.1,0-0.1
		c0-0.1,0-0.1,0.1-0.1C28.9,9,29.1,9,29.2,9h0c0.1,0,0.2,0,0.4,0v0.2C29.5,9.3,29.4,9.3,29.3,9.3L29.3,9.3z"/>
	<path id="Trazado_1236" class="st0" d="M27.2,9.8c0.2,0,0.4-0.1,0.5-0.2v0.1h0.4c0.1,0,0.1,0,0.2-0.1c0,0,0-0.1,0-0.1
		c0-0.1,0-0.1-0.1-0.1c-0.1,0-0.1-0.1-0.2,0H28l0-2h-0.4c-0.1,0-0.1,0-0.2,0.1c0,0-0.1,0.1,0,0.1c0,0.1,0,0.1,0.1,0.1
		c0.1,0,0.1,0.1,0.2,0.1h0.1v0.5c-0.1-0.1-0.2-0.1-0.2-0.1c-0.1,0-0.1,0-0.2,0h0c-0.2,0-0.4,0.1-0.6,0.3c-0.1,0.1-0.2,0.3-0.2,0.5
		c0,0.1,0,0.1,0,0.2c0,0,0,0,0,0.1c0,0.2,0.1,0.4,0.2,0.5C26.8,9.7,27,9.8,27.2,9.8L27.2,9.8z M26.8,9.3c-0.1-0.1-0.1-0.2-0.1-0.3
		c0-0.1,0-0.3,0.1-0.4c0.1-0.1,0.2-0.2,0.4-0.2h0c0.1,0,0.2,0.1,0.3,0.2c0.1,0.1,0.2,0.2,0.2,0.4c0,0.1,0,0.2-0.1,0.3
		c-0.1,0.1-0.2,0.1-0.4,0.1h0C27.1,9.4,26.9,9.4,26.8,9.3L26.8,9.3z"/>
	<path id="Trazado_1237" class="st0" d="M31.1,6.1c0.1,0.1,0.2,0.2,0.3,0.2c0.1,0.1,0.3,0.1,0.4,0.1c0,0,0,0,0,0
		c0.2,0,0.3,0,0.4-0.1c0.1-0.1,0.2-0.2,0.3-0.3c0.1-0.1,0.1-0.3,0.1-0.4c0-0.2,0-0.3-0.1-0.4c-0.1-0.1-0.2-0.3-0.3-0.3
		c-0.1-0.1-0.3-0.1-0.4-0.1h0c-0.2,0-0.3,0-0.4,0.1c-0.1,0-0.2,0.1-0.2,0.2c0,0-0.1,0.1-0.1,0.2C31,5.3,31,5.5,31,5.6
		C31,5.8,31,5.9,31.1,6.1C31.1,6.1,31.1,6.1,31.1,6.1z M31.5,5.3c0.1-0.1,0.2-0.2,0.4-0.2h0c0.2,0,0.3,0.1,0.4,0.2
		c0.1,0.1,0.1,0.2,0.1,0.3c0,0.1-0.1,0.2-0.1,0.3c-0.1,0.1-0.2,0.2-0.4,0.2h0c-0.1,0-0.3-0.1-0.4-0.1c-0.1-0.1-0.1-0.2-0.2-0.3
		C31.3,5.5,31.4,5.4,31.5,5.3z"/>
	<path id="Trazado_1238" class="st0" d="M47.7,9.2h-0.4l0-2h-0.6c-0.1,0-0.1,0-0.2,0.1c0,0-0.1,0.1,0,0.1c0,0.1,0,0.1,0,0.1
		c0.1,0,0.1,0.1,0.2,0H47l0,1.6h-0.4c-0.1,0-0.1,0-0.2,0.1c0,0-0.1,0.1,0,0.1c0,0.1,0,0.1,0.1,0.1c0.1,0,0.1,0.1,0.2,0.1l1.1,0
		c0.1,0,0.1,0,0.2-0.1c0,0,0.1-0.1,0.1-0.1c0-0.1,0-0.1-0.1-0.1C47.8,9.2,47.8,9.2,47.7,9.2z"/>
	<path id="Trazado_1239" class="st0" d="M27.3,6.5L27.3,6.5l1,0c0.1,0,0.1,0,0.2-0.1c0,0,0.1-0.1,0.1-0.1c0-0.1,0-0.1-0.1-0.1
		c-0.1,0-0.1-0.1-0.2,0h-0.5V5.5c0.1-0.1,0.2-0.2,0.3-0.3c0.1-0.1,0.1-0.1,0.2-0.1c0,0,0.1,0,0.1,0.1c0,0,0.1,0.1,0.1,0.1
		c0,0,0.1,0,0.1-0.1c0,0,0.1-0.1,0-0.1c0-0.1,0-0.1-0.1-0.2c-0.1-0.1-0.2-0.1-0.3-0.1c-0.1,0-0.2,0-0.2,0.1C28,4.9,27.9,5,27.8,5
		V4.8h-0.5c-0.1,0-0.1,0-0.2,0.1c0,0-0.1,0.1,0,0.1c0,0.1,0,0.1,0.1,0.1c0,0,0.1,0.1,0.2,0.1h0.1l0,0.9h-0.2c-0.1,0-0.1,0-0.2,0.1
		c0,0-0.1,0.1,0,0.1c0,0,0,0.1,0.1,0.1C27.2,6.5,27.2,6.5,27.3,6.5z"/>
	<path id="Trazado_1240" class="st0" d="M25.9,6.5L25.9,6.5c0.2,0,0.4,0,0.5-0.1h0c0.1,0,0.2-0.1,0.3-0.1c0,0,0-0.1,0-0.1
		c0,0,0-0.1,0-0.1c0,0-0.1-0.1-0.1-0.1c-0.1,0-0.1,0-0.2,0l0,0c-0.2,0-0.3,0.1-0.5,0.1H26c-0.1,0-0.2,0-0.3-0.1
		c-0.1-0.1-0.2-0.1-0.2-0.2h1.4V5.7c0-0.1,0-0.2-0.1-0.3c0-0.1-0.1-0.2-0.2-0.3c0,0,0,0-0.1-0.1c-0.1,0-0.1-0.1-0.2-0.1
		c-0.1,0-0.2-0.1-0.3-0.1h0c-0.5,0-0.9,0.4-0.9,0.9c0,0,0,0,0,0c0,0.2,0.1,0.5,0.2,0.6C25.5,6.5,25.7,6.5,25.9,6.5z M25.7,5.2
		c0.1-0.1,0.2-0.1,0.3-0.1h0c0.1,0,0.2,0,0.3,0.1c0.1,0.1,0.2,0.1,0.2,0.2h-1C25.5,5.4,25.6,5.3,25.7,5.2L25.7,5.2z"/>
	<path id="Trazado_1241" class="st0" d="M53.1,13.6c0,0-0.3,0-0.4,0s-0.4,0-0.5-0.2c0.2-0.3,0.4-0.7,0.5-1c0-0.2,0-0.2,0-0.2
		s0-0.3-0.2-0.2c-0.2,0.2-0.4,0.5-0.5,0.7c-0.1,0.1-0.1,0.3-0.1,0.5c-0.2,0.3-0.6,0.4-0.9,0.5c0.2-0.1,0.4-0.3,0.4-0.5
		c0-0.2,0-0.4,0-0.6c0-0.1-0.1-0.5-0.4-0.4c-0.1,0-0.2,0.1-0.3,0.2c-0.4,0.3-0.7,0.7-1,1c-0.5,0.5-0.8,0.5-0.9,0.5s-0.1,0-0.1-0.2
		s0-0.2,0.1-0.3s0.4-0.2,0.5-0.2c0.1-0.1,0.1-0.2,0.1-0.3c0-0.1-0.1-0.2-0.2-0.2S48.7,13,48.6,13s-0.2,0-0.2-0.1s0-0.2,0.4-0.4
		c0.1-0.1,0.3-0.1,0.4-0.1c0.1,0,0.1,0,0.1-0.1s0-0.3-0.3-0.3c-0.3,0.1-0.5,0.2-0.7,0.3c-0.2,0.2-0.4,0.5-0.3,0.8
		c0.1,0.3,0.2,0.3,0.3,0.4c-0.1,0.3,0,0.6,0.2,0.8c0.3,0.2,0.6,0.2,0.9,0c0.2-0.1,0.7-0.6,0.7-0.6s0,0.4,0.5,0.5l0.1,0
		c0.4,0.1,0.9,0,1.2-0.4c0,0.3,0.5,0.4,0.8,0.4s0.4,0,0.4-0.1c0-0.1,0-0.1,0-0.2C53.1,13.8,53.1,13.6,53.1,13.6z M50.7,13.3
		c-0.1,0.1-0.1,0.1-0.2,0.2c-0.1,0-0.2,0-0.2-0.2c0.1-0.1,0.2-0.3,0.4-0.4c0.1-0.1,0.1-0.1,0.2-0.2c0.2-0.1,0.2-0.1,0.1,0
		C51,13,50.8,13.1,50.7,13.3L50.7,13.3z"/>
	<path id="Trazado_1242" class="st0" d="M66.1,9.2c0-0.1-0.1-0.1-0.2-0.1s0,0.2-0.1,0.4c-0.4,0.8-0.7,1.6-1,2.5c0,0.1,0,0.2,0,0.3
		c0,0,0,0,0.1,0c0,0,0,0,0,0c0.1-0.2,0.1-0.3,0.2-0.5c0-0.1,0.6-1.4,0.7-1.5s0.3-0.5,0.3-0.6C66.2,9.6,66.2,9.4,66.1,9.2z"/>
	<path id="Trazado_1243" class="st0" d="M53.7,11.3c0.1-0.2,0.1-0.4,0.1-0.6c0-0.1,0-0.1,0-0.2c-0.1-0.1-0.2-0.2-0.3-0.3
		c-0.2-0.1-0.6,0.1-0.6,0.1s0.1,0,0.1,0.1s-0.4,0.2-0.4,0.2s0,0.1,0,0.1s0.2-0.1,0.2-0.1s-0.1,0.1-0.1,0.1s0,0,0,0.1s-0.1,0.1,0,0.1
		c0.2-0.1,0.4-0.2,0.6-0.3c0.2,0,0.3,0.1,0.2,0.3c-0.2,0.2-0.5,0.3-0.8,0.4c-0.2,0-0.2-0.2-0.3-0.3s-0.1-0.1-0.2,0
		c-0.1,0.3-0.1,0.6,0.1,0.8c0.3,0.1,0.7,0.1,1-0.1C53.4,11.6,53.6,11.4,53.7,11.3z"/>
	<path id="Trazado_1244" class="st0" d="M40.9,14.4c0,0-0.1-0.2-0.2-0.2s0-0.1-0.1,0c-0.1,0.1-0.2,0.2-0.2,0.3
		c-0.1,0.2-0.1,0.3-0.1,0.5c0,0.2,0,0.3,0.1,0.5c0.1,0.1,0.2,0.2,0.2,0c0.1-0.4,0.2-0.7,0.4-1C41.1,14.5,40.9,14.5,40.9,14.4z"/>
	<path id="Trazado_1245" class="st0" d="M45.4,12.6c0-0.1,0.1-0.2,0.1-0.2c0.2-0.3,0.2-0.7,0.1-1c0-0.1-0.1-0.3-0.2-0.4
		c-0.1-0.1-0.2-0.2-0.3-0.3c-0.2-0.1-0.3,0-0.6,0.3c-0.3,0.4-0.6,0.8-0.8,1.3c0,0,0,0.1,0,0.1s0,0,0.1,0s0.1,0,0.1,0c0,0,0,0,0,0
		c0,0,0,0.1-0.1,0.1c0,0.1-0.1,0-0.1,0s-0.9,1.8-0.9,1.9s0.1,0.1,0.1,0.2s0,0.2,0,0.2c0.1,0.1,0.2,0.1,0.3-0.1s0.7-1.6,0.8-1.6
		s0,0.3,0.5,0.3C45,13.3,45.2,12.9,45.4,12.6z M44.6,12.8c-0.2,0.1-0.3,0.1-0.5,0.1c0.1-0.1,0.1-0.2,0.1-0.3c0,0-0.1-0.1-0.1-0.1
		c0-0.1,0.1-0.3,0.3-0.6c0.2-0.4,0.6-0.8,0.8-0.8c0.1,0,0.2,0.2,0.2,0.6C45.2,12.1,45,12.5,44.6,12.8L44.6,12.8z"/>
	<path id="Trazado_1246" class="st0" d="M63.5,11c-0.1,0-0.9,0.1-0.9,0.1l-1.1,0c0.2-0.3,0.4-0.6,0.6-0.9c0,0,0-0.1,0-0.2
		c0-0.1,0-0.2,0-0.2c0,0-0.1-0.2-0.1-0.1S61,11.1,61,11.1s-0.7,0-0.8,0s-0.3-0.1-0.3,0s0,0.5,0.2,0.5c0.2,0,0.4,0,0.6,0
		c-0.1,0.2-0.2,0.4-0.3,0.6c-0.2,0.2-0.4,0.6-0.7,0.6c-0.1,0-0.1,0-0.1-0.1c0-0.3,0-0.6,0-0.9c-0.1-0.1-0.2-0.5-0.4-0.5
		c-0.2,0-0.4,0.1-0.6,0.3c0,0-0.1-0.3-0.4-0.3c-0.1,0-0.2,0-0.2,0.1c0,0,0,0,0.1,0.1s0,0.2,0,0.3s0.2,0,0.2,0.1c0,0.1,0,0.2,0,0.3
		c-0.1,0.3-0.3,0.6-0.3,0.9c0,0.2,0,0.3,0.1,0.3s0.2,0.1,0.3-0.1s0.4-1,0.4-1s0.2-0.3,0.3-0.3s0.2,0.1,0.2,0.3s0,0.9,0.2,1.1
		c0.3,0.2,0.5,0.1,0.9-0.4c0,0.2,0,0.5,0,0.5s0.2,0,0.2-0.1c0.1-0.6,0.3-1.3,0.6-1.8l0.8,0c0,0,0,0.2,0,0.3s0.2,0.3,0.2,0.3
		s0,0.1-0.1,0.2s-0.4,0.8-0.1,0.9c0.4,0.1,0.8,0.1,1.1,0c0.2-0.1,0.2-0.1,0.2-0.1s-0.1,0-0.1,0s0-0.1,0-0.1s-0.1,0-0.1,0
		s0.2-0.1,0.1-0.1c0,0-0.1,0-0.1,0c0,0-0.7,0.1-0.8,0.1s-0.1-0.1,0-0.2s0.5-0.3,0.5-0.4c0-0.1,0-0.2-0.1-0.2c0,0-0.2-0.2-0.2-0.3
		s0.1-0.1,0.2-0.1s0.6-0.1,0.6-0.1s0.2,0,0.1-0.1s-0.1-0.1,0-0.1s0.1-0.1,0.1-0.1C63.7,11,63.6,11,63.5,11z"/>
	<path id="Trazado_1247" class="st0" d="M25.1,15.9c0,0-0.1-0.1-0.1-0.1s0-0.2-0.2-0.1c-0.4,0.2-0.8,0.2-1.2,0.1
		c-0.1-0.1-0.2-0.2-0.3-0.3c0.1-0.1,0.2-0.2,0.3-0.3c0.4-0.4,0.7-0.9,0.9-1.5c0.1-0.4,0-0.7-0.2-1c-0.1-0.1-0.3-0.2-0.4-0.3
		c-0.1,0,0,0.1-0.1,0.1c0,0,0,0,0,0c-0.3,0.3-0.6,0.7-0.7,1.1c-0.2,0.5-0.3,1.1-0.2,1.7c-0.4,0.3-0.8,0.5-1.2,0.6
		c-0.1,0-0.3,0.1-0.2-0.1c0.1-0.2,0.2-0.4,0.3-0.6c0.1-0.1,0.2-0.1,0.4-0.2c0.1-0.1,0.2-0.2,0.2-0.3c0-0.1-0.1-0.2-0.2-0.2
		S22,14.3,22,14.3s-0.2-0.1-0.2,0s-0.2,0.1-0.4,0.3c-0.2,0.2-0.5,0.3-0.8,0.3c-0.2,0-0.4,0-0.4-0.1s0.1-0.4,0.6-0.9
		c0.3-0.4,0.8-0.6,1.3-0.7c0.2,0,0.2,0,0.2,0.1c-0.1,0.1-0.1,0.2-0.2,0.3c0,0,0,0-0.1,0s0.1,0.1,0.1,0.1s0,0.1,0,0.2
		s0.1,0.1,0.1,0.2c0.1,0.1,0.1,0,0.2-0.1c0.2-0.2,0.3-0.4,0.3-0.6c0-0.1,0-0.2-0.1-0.2c-0.1-0.1-0.3-0.3-0.4-0.4
		c-0.1-0.1-0.3,0-0.5,0.1C21,13,20.4,13.5,20,14.1c-0.2,0.3-0.2,0.6-0.1,0.9c0,0.2,0.1,0.3,0.3,0.4c0.3,0.1,0.5,0.1,0.8,0
		c0,0-0.1,0.3-0.1,0.3c0,0,0,0.1,0,0.1c0,0,0,0.2,0.1,0.3c0.1,0.2,0.1,0.4,0.6,0.2c0.5-0.2,0.9-0.4,1.4-0.7c0.2,0.2,0.3,0.4,0.6,0.5
		c0.1,0,0.2,0.1,0.2,0.1c0.5,0.1,0.9-0.1,1.3-0.4C25.2,15.9,25.1,15.9,25.1,15.9z M23.1,15.1L23.1,15.1c-0.1-0.4,0-0.8,0.2-1.1
		c0.1-0.3,0.3-0.5,0.4-0.7c0.1-0.1,0.2-0.2,0.3-0.3c0.1-0.1,0.2,0,0.3,0.1s0,0.2-0.1,0.5c-0.1,0.3-0.2,0.6-0.4,0.9
		c0,0-0.1,0.1-0.1,0.1C23.5,14.8,23.3,14.9,23.1,15.1L23.1,15.1z"/>
	<path id="Trazado_1248" class="st0" d="M29.9,13.8c0-0.1,0.1-0.1,0.1-0.2c0.1-0.3,0.2-0.7,0.1-1c0-0.1-0.1-0.1-0.1-0.2
		c-0.1-0.1-0.1-0.1-0.2-0.1c0,0-0.1-0.1-0.1-0.1C29.5,12,29,12,28.7,12.4c-0.4,0.4-0.7,0.9-0.9,1.4c-0.1,0.4-0.5,1.6-0.6,1.7
		s0,0.1,0,0.1c0,0,0,0.1,0,0.1c0,0.1,0,0.2,0.1,0.3c0.1,0.1,0.1,0,0.1,0c0.1,0,0.1-0.1,0.2-0.1c0-0.1,0-0.3,0.1-0.4
		c0.1-0.3,0.4-0.8,0.4-0.8c0.1,0.1,0.1,0.2,0.5,0.1c0.4-0.2,0.8-0.4,1-0.8C29.7,13.9,29.8,13.8,29.9,13.8z M29.3,13.7
		c-0.1,0.2-0.3,0.3-0.5,0.4c-0.1,0.1-0.3,0.1-0.4,0.1c0.1-0.2,0.2-0.4,0.3-0.6c-0.1-0.1-0.2-0.2-0.2-0.3c0.1-0.2,0.3-0.5,0.5-0.7
		c0.2-0.2,0.5-0.2,0.6-0.2c0.1,0,0.1,0.1,0.2,0.2c0,0.1,0,0.2,0,0.2c0,0,0,0.1,0,0.1C29.6,13.3,29.5,13.5,29.3,13.7L29.3,13.7z"/>
	<path id="Trazado_1249" class="st0" d="M57.5,13.2c0,0-0.2,0-0.3,0s-0.3,0-0.2-0.1s0.4-0.2,0.5-0.2c0,0,0.1,0,0.1-0.1
		c0-0.1,0-0.2-0.1-0.3c-0.1-0.1-0.2-0.2-0.3-0.2c-0.1,0.1-0.3,0.1-0.4,0.2c-0.1,0-0.3,0-0.4,0c-0.1,0-0.3-0.1-0.1-0.3
		c0.3-0.3,0.7-0.5,1.2-0.6c0.1,0,0-0.2,0-0.2c0-0.1-0.1-0.1-0.1-0.2c0,0,0,0-0.1,0c-0.4,0.1-0.7,0.3-1,0.5c-0.1,0.1-0.1,0.1-0.1,0.2
		c-0.2,0.2-0.3,0.5-0.2,0.8c0,0.1,0.1,0.1,0.1,0.2c0.2,0.1,0.4,0.2,0.6,0.2c-0.1,0.2,0,0.5,0.2,0.6c0.1,0,0.1,0,0.2,0
		c0.5,0.1,0.5-0.1,0.5-0.1c0,0,0-0.1,0-0.2C57.5,13.3,57.5,13.2,57.5,13.2z"/>
	<path id="Trazado_1250" class="st0" d="M56.1,13.6C56,13.6,56.1,13.5,56.1,13.6c0-0.1-0.1-0.1-0.1-0.1c0,0-0.1,0-0.1,0c0,0,0,0,0,0
		c0,0,0,0,0,0c0,0,0.1,0,0.1,0c0,0,0.1-0.1,0-0.1c0,0-0.1,0-0.1,0c-0.2,0-0.3,0-0.5-0.1c-0.2-0.2-0.2-0.6-0.1-0.7
		c0.1-0.4,0.3-0.9,0.5-1.2c0.3-0.3,0.1-0.4,0.1-0.5s-0.1-0.3-0.2-0.2c-0.4,0.5-0.6,1-0.8,1.6c0,0-0.2-0.3-0.4-0.3
		c-0.1,0-0.1,0-0.2,0.1c-0.3,0.2-0.5,0.4-0.7,0.7c0,0.1-0.1,0.2-0.1,0.3c-0.1,0.2-0.1,0.5,0,0.7c0,0.1,0,0.1,0.1,0.2
		c0.1,0.2,0.4,0.2,0.6,0.1l0.1,0c0.3-0.2,0.5-0.4,0.7-0.7c0,0,0.1,0.5,0.5,0.6c0.1,0,0.2,0,0.4,0C56,13.7,56,13.7,56.1,13.6
		C56.1,13.6,56.1,13.6,56.1,13.6z M54.8,12.7c-0.1,0.2-0.3,0.3-0.5,0.5c-0.1,0.1-0.1,0.1-0.2,0.1c-0.2,0.1-0.3,0.1-0.2-0.2
		c0.1-0.3,0.3-0.5,0.5-0.7c0.1-0.1,0.2-0.2,0.4-0.2c0,0,0,0.1,0,0.1c0,0,0.1,0.1,0.1,0.1S54.8,12.6,54.8,12.7L54.8,12.7z"/>
	<path id="Trazado_1251" class="st0" d="M39.4,12.9c-0.1,0,0,0-0.1,0S39.1,13,39,13.1s0.1-0.1,0.2,0s-0.1,0.1-0.2,0.1
		c-0.1,0-0.2,0.1-0.2,0.2c0,0,0.1,0.1,0.1,0.1s0.1,0,0.2,0s0,0-0.1,0.1s0.1,0,0.1,0c0.1,0,0.2,0,0.3,0c0.1,0,0.2,0.2,0.2,0.5
		c-0.1,0.4-0.5,0.7-0.9,0.7c-0.2,0-0.5-0.1-0.3-0.3c0.2-0.2,0.4-0.5,0.5-0.8c0-0.1-0.1-0.2-0.1-0.2s0-0.2-0.2-0.2
		c-0.2,0-0.6,0.6-0.6,0.8c-0.3,0.3-0.7,0.5-1.1,0.5c-0.1,0-0.1,0-0.2-0.1c0.1-0.1,0.1-0.2,0.2-0.2c0.2-0.2,0.3-0.5,0.4-0.7
		c0.2-0.4,0.4-0.9,0.4-1.4c0-0.2-0.1,0-0.1-0.1s0-0.3-0.2-0.3c-0.2,0.1-0.4,0.2-0.5,0.4c-0.3,0.3-0.5,0.7-0.7,1.1
		c-0.1,0.3-0.2,0.7-0.1,1c-0.2,0.2-0.4,0.3-0.6,0.4c0.1-0.3,0.1-0.6,0-1c-0.1-0.3-0.3-0.5-0.5-0.5c-0.1,0-0.2,0.1-0.3,0.2l0,0l0,0
		c0.1-0.2,0.6-0.9,0.7-0.9c0.1-0.1,0-0.2,0-0.2s-0.1-0.1,0-0.1s0-0.2-0.1-0.1c-0.2,0.2-0.3,0.4-0.5,0.6c-0.5,0.7-1,1.8-1.1,1.9
		c0,0.1-0.1,0.2,0,0.3c-0.2,0.1-0.4,0.1-0.6,0.2c-0.1,0-0.4,0-0.4-0.1c0,0,0.1-0.2,0.2-0.2s0.1-0.1,0.1-0.1c0.1,0,0.2,0,0.3-0.1
		c0.1-0.1,0.1-0.2,0-0.3s-0.2-0.3-0.3-0.2c-0.2,0.1-0.4,0.2-0.7,0.2c-0.2,0-0.1-0.1,0.1-0.2c0.2-0.2,0.5-0.3,0.8-0.4
		c0.1,0,0.2,0,0.3,0c0.1,0,0.1,0,0.1-0.1c-0.1-0.1-0.1-0.1-0.2-0.2c0,0,0.1,0,0-0.1c-0.1-0.1-0.2-0.2-0.3-0.2
		c-0.4,0.1-0.8,0.4-1.1,0.6c-0.1,0.1-0.2,0.1-0.2,0.1c-0.2,0.1,0,0.2-0.1,0.3s-0.1,0.4,0.2,0.5l0,0c0.1,0.1,0.3,0.1,0.4,0.1
		c-0.1,0.2,0,0.4,0.1,0.6c0.2,0.1,0.4,0.2,0.6,0.1c0.3,0,0.5-0.1,0.7-0.3c0,0,0,0,0-0.1c0,0,0.1,0,0.1,0c0.1,0,0.1,0,0.2-0.1
		c0,0.1,0,0.2,0.2,0.4c0.1,0.1,0.3,0.1,0.4,0c0.2,0,0.3-0.1,0.5-0.2c0.1,0.1,1-0.3,1.1-0.5c0.1,0.1,0.3,0.2,0.5,0.2
		c0.4,0,0.8-0.1,1.1-0.3c0,0.6,0.6,0.7,1.2,0.4c0.5-0.2,0.8-0.6,0.7-1.1c0-0.4-0.1-0.4-0.2-0.7S39.5,12.9,39.4,12.9z M35.4,13.9
		c0,0.2-0.3,0.8-0.4,0.8c0,0,0,0-0.1,0c-0.1,0-0.4,0-0.4,0c0,0,0.2-0.3,0.5-0.6c0.1-0.1,0.2-0.2,0.3-0.3
		C35.3,13.7,35.4,13.7,35.4,13.9L35.4,13.9z M36.6,13.9c0.1-0.4,0.2-0.7,0.4-1.1c0.1-0.1,0.1-0.2,0.2-0.4c0.2-0.2,0.2-0.2,0.1,0.1
		C37.2,13.1,36.9,13.5,36.6,13.9L36.6,13.9z"/>
	<path id="Trazado_1252" class="st0" d="M64.9,13.4c-0.1,0-0.2-0.1-0.3,0c0,0.1-0.1,0.3,0,0.4c0,0.1,0.1,0.2,0.3,0.2
		c0.1,0,0.2-0.1,0.2-0.2C65,13.6,65,13.5,64.9,13.4z"/>
	<path id="Trazado_1253" class="st0" d="M47.8,14.1c0-0.1-0.1,0-0.3,0c-0.3,0-0.6-0.1-0.8-0.2c0.5-0.1,0.8-0.6,0.7-1.1
		c-0.1-0.3-0.3-0.6-0.6-0.6c-0.1,0-0.1,0-0.1,0.1c0,0,0,0,0,0c-0.1,0-0.3,0.1-0.6,0.4c-0.3,0.3-0.5,0.7-0.7,1
		c-0.1,0.2-0.2,0.4-0.3,0.6c-0.1,0.1,0.1,0.1,0.1,0.2c0,0.1,0.1,0.1,0.1,0.2c0,0,0,0,0,0s0,0,0,0c0,0,0.1,0,0.1,0s0.2-0.6,0.4-1
		c0.2,0.2,0.4,0.4,0.6,0.5c0.2,0.2,0.4,0.3,0.7,0.3c0.2,0.1,0.4,0,0.5-0.1c0.1-0.1,0.1-0.1,0.1-0.1S47.8,14.2,47.8,14.1z M46.2,13.5
		c-0.1,0-0.2-0.1-0.1-0.1c0.2-0.2,0.3-0.4,0.5-0.5c0.1-0.1,0.2-0.1,0.3-0.2c0.2-0.1,0.2,0.1,0.2,0.2c-0.1,0.2-0.2,0.4-0.4,0.6
		c0,0-0.1,0-0.1,0.1C46.5,13.5,46.4,13.5,46.2,13.5L46.2,13.5z"/>
	<path id="Trazado_1254" class="st0" d="M32.2,15c0,0-0.1,0-0.1,0c0,0,0,0,0,0l0,0c0.1-0.1,0.2-0.1,0-0.1l0,0
		c-0.2,0.1-0.8,0.2-0.8,0.1c0.2-0.3,0.4-0.6,0.4-0.9c0-0.2-0.1-0.1-0.1-0.2s-0.1-0.2-0.2-0.2c-0.2,0.1-0.3,0.3-0.4,0.5
		c-0.1,0.2-0.2,0.4-0.2,0.6c-0.2,0.2-0.4,0.4-0.6,0.4c-0.1,0-0.2,0-0.1-0.3c0.1-0.3,0.3-0.6,0.6-0.8c0.1-0.1,0-0.1,0-0.1
		s-0.1-0.1-0.1-0.1s-0.2-0.1-0.2-0.1c-0.2,0.1-0.3,0.3-0.4,0.5c-0.1,0.2-0.2,0.3-0.2,0.5l0,0c0,0.2-0.1,0.4,0,0.5
		c0,0.1,0.1,0.2,0.2,0.3c0.1,0.1,0.1,0.1,0.2,0.1c0.3,0,0.6-0.2,0.9-0.4c0.1,0.2,0.7,0.1,0.9,0.1c0.1,0,0.2-0.1,0.2-0.1
		c0.1-0.1,0.2-0.1,0.3-0.2C32.3,14.9,32.2,15,32.2,15z"/>
</g>
</svg>
