<?xml version="1.0" encoding="utf-8"?>
<!-- Generator: Adobe Illustrator 24.2.3, SVG Export Plug-In . SVG Version: 6.00 Build 0)  -->
<svg version="1.1" id="Capa_1" xmlns="http://www.w3.org/2000/svg" xmlns:xlink="http://www.w3.org/1999/xlink" x="0px" y="0px"
	 viewBox="0 0 73.6 17.2" style="enable-background:new 0 0 73.6 17.2;" xml:space="preserve">
<style type="text/css">
	.st0{fill:#A0A0A0;}
</style>
<g id="INAFOR">
	<path id="Trazado_405" class="st0" d="M0,3.8h4.1V17H0V3.8z"/>
	<path id="Trazado_406" class="st0" d="M6,3.8h3.8l5,7.3V3.8h3.8V17h-3.8L9.9,9.7V17H6V3.8z"/>
	<path id="Trazado_407" class="st0" d="M29,14.8h-4.6L23.7,17h-4.2l5-13.2H29l5,13.2h-4.3L29,14.8z M28.2,11.9l-1.5-4.7l-1.4,4.7
		H28.2z"/>
	<path id="Trazado_408" class="st0" d="M35,3.8H45v2.8h-6v2.3h5.1v2.7H39V17H35V3.8z"/>
	<path id="Trazado_409" class="st0" d="M45.7,10.4c-0.3-3.4,2.2-6.5,5.6-6.8c0.4,0,0.8,0,1.2,0c1.9-0.1,3.7,0.5,5.1,1.8
		c1.2,1.3,1.9,3.1,1.8,5c0,1.3-0.2,2.6-0.8,3.8c-0.5,1-1.3,1.8-2.2,2.3c-1.1,0.6-2.4,0.9-3.7,0.8c-1.3,0-2.5-0.2-3.7-0.7
		c-1-0.5-1.8-1.3-2.4-2.2C46,13.1,45.7,11.7,45.7,10.4z M49.8,10.4c-0.1,1,0.2,2,0.7,2.9c1.1,1.1,2.8,1.2,4,0.1c0,0,0.1-0.1,0.1-0.1
		c0.6-0.9,0.8-2,0.7-3.1c0.1-1-0.2-1.9-0.8-2.7c-0.5-0.6-1.3-0.9-2-0.9c-0.8,0-1.5,0.3-2,0.9C50,8.4,49.7,9.4,49.8,10.4L49.8,10.4z"
		/>
	<path id="Trazado_410" class="st0" d="M60.6,17V3.8h6.8c1,0,1.9,0.1,2.9,0.3c0.7,0.2,1.2,0.6,1.6,1.2c1.2,1.7,0.8,4-0.9,5.2
		c-0.1,0-0.1,0.1-0.2,0.1c-0.4,0.2-0.9,0.4-1.4,0.5c0.4,0.1,0.7,0.3,1.1,0.5c0.2,0.2,0.5,0.4,0.7,0.7c0.2,0.3,0.4,0.5,0.6,0.8l2,3.8
		H69l-2.2-4c-0.2-0.4-0.4-0.7-0.7-1c-0.3-0.2-0.6-0.3-1-0.3h-0.4V17L60.6,17z M64.7,9.1h1.7c0.4,0,0.7-0.1,1.1-0.2
		c0.3-0.1,0.5-0.2,0.7-0.4C68.6,8,68.5,7.3,68,6.8c-0.5-0.3-1-0.4-1.5-0.3h-1.8V9.1z"/>
	<path id="Trazado_411" class="st0" d="M0,2.6V0h0.6v2.6H0z"/>
	<path id="Trazado_412" class="st0" d="M1.2,2.6V0h0.6l1.3,1.7V0h0.6v2.6H3.1L1.8,0.9v1.7H1.2z"/>
	<path id="Trazado_413" class="st0" d="M4.2,1.8l0.6,0C4.8,1.9,4.9,2,5,2.1c0.1,0.1,0.3,0.1,0.4,0.1c0.2,0,0.3,0,0.4-0.1
		C6,2.1,6,2,6,1.9C6,1.8,6,1.8,6,1.7C5.9,1.7,5.8,1.6,5.7,1.6c-0.1,0-0.2-0.1-0.5-0.1C5,1.5,4.8,1.4,4.6,1.2
		C4.4,1.1,4.3,0.9,4.3,0.7c0-0.1,0-0.3,0.1-0.4c0.1-0.1,0.2-0.2,0.4-0.3C5,0,5.2,0,5.4,0C5.7,0,6,0.1,6.3,0.2
		c0.2,0.1,0.3,0.3,0.3,0.6l-0.6,0c0-0.1-0.1-0.2-0.2-0.3C5.6,0.5,5.5,0.4,5.4,0.4c-0.1,0-0.3,0-0.4,0.1c-0.1,0-0.1,0.1-0.1,0.2
		c0,0.1,0,0.1,0.1,0.2C5.1,0.9,5.3,1,5.5,1c0.2,0,0.5,0.1,0.7,0.2c0.1,0.1,0.3,0.1,0.3,0.3c0.2,0.3,0.2,0.6,0,0.8
		C6.4,2.4,6.2,2.5,6.1,2.6C5.9,2.7,5.6,2.7,5.4,2.7c-0.3,0-0.6-0.1-0.9-0.2C4.3,2.3,4.2,2.1,4.2,1.8z"/>
	<path id="Trazado_414" class="st0" d="M7.9,2.6V0.5H7V0h2.4v0.4H8.5v2.2L7.9,2.6z"/>
	<path id="Trazado_415" class="st0" d="M9.8,2.6V0h0.6v2.6H9.8z"/>
	<path id="Trazado_416" class="st0" d="M11.6,2.6V0.5h-0.9V0h2.4v0.4h-0.9v2.2L11.6,2.6z"/>
	<path id="Trazado_417" class="st0" d="M13.6,0h0.6v1.4c0,0.1,0,0.3,0,0.4c0,0.1,0.1,0.2,0.2,0.3c0.1,0.1,0.3,0.1,0.4,0.1
		c0.1,0,0.3,0,0.4-0.1c0.1-0.1,0.1-0.1,0.2-0.2c0-0.1,0-0.3,0-0.4V0H16v1.4c0,0.2,0,0.4,0,0.7c0,0.1-0.1,0.2-0.2,0.3
		c-0.1,0.1-0.2,0.2-0.4,0.2c-0.2,0.1-0.4,0.1-0.6,0.1c-0.2,0-0.4,0-0.7-0.1c-0.1,0-0.3-0.1-0.4-0.2c-0.1-0.1-0.1-0.2-0.2-0.3
		c0-0.2-0.1-0.4-0.1-0.7L13.6,0z"/>
	<path id="Trazado_418" class="st0" d="M17.3,2.6V0.5h-0.9V0h2.4v0.4H18v2.2L17.3,2.6z"/>
	<path id="Trazado_419" class="st0" d="M19.1,1.4c0-0.2,0-0.5,0.1-0.7c0.1-0.3,0.4-0.5,0.7-0.6C20.1,0,20.3,0,20.5,0
		c0.4,0,0.8,0.1,1.1,0.4c0.5,0.5,0.5,1.4,0,2c-0.6,0.5-1.5,0.5-2.2,0C19.2,2.1,19,1.7,19.1,1.4z M19.7,1.3c0,0.2,0.1,0.5,0.2,0.7
		c0.2,0.2,0.4,0.2,0.6,0.2c0.2,0,0.4-0.1,0.6-0.2c0.2-0.2,0.3-0.4,0.2-0.7c0-0.2-0.1-0.5-0.2-0.7c-0.4-0.3-0.9-0.3-1.2,0
		C19.8,0.8,19.7,1.1,19.7,1.3L19.7,1.3z"/>
	<path id="Trazado_420" class="st0" d="M23.7,2.6V0h0.6l1.3,1.7V0h0.6v2.6h-0.6l-1.2-1.7v1.7H23.7z"/>
	<path id="Trazado_421" class="st0" d="M29.5,2.6h-0.7L28.6,2h-1.2l-0.3,0.6h-0.7L27.6,0h0.7L29.5,2.6z M28.4,1.6l-0.4-1l-0.4,1
		H28.4z"/>
	<path id="Trazado_422" class="st0" d="M31.8,1.7l0.6,0.2c-0.1,0.3-0.2,0.5-0.5,0.6c-0.2,0.1-0.5,0.2-0.8,0.2c-0.4,0-0.7-0.1-1-0.4
		c-0.3-0.2-0.4-0.6-0.4-1c0-0.4,0.1-0.7,0.4-1c0.3-0.2,0.7-0.4,1-0.4c0.3,0,0.6,0.1,0.9,0.3c0.1,0.1,0.3,0.3,0.3,0.5l-0.6,0.1
		c0-0.1-0.1-0.2-0.2-0.3c-0.1-0.1-0.3-0.1-0.4-0.1c-0.2,0-0.4,0.1-0.6,0.2c-0.2,0.2-0.2,0.4-0.2,0.7c0,0.3,0,0.5,0.2,0.7
		c0.1,0.1,0.3,0.2,0.5,0.2c0.2,0,0.3,0,0.4-0.1C31.7,2,31.8,1.8,31.8,1.7z"/>
	<path id="Trazado_423" class="st0" d="M32.9,2.6V0h0.6v2.6H32.9z"/>
	<path id="Trazado_424" class="st0" d="M34,1.4c0-0.2,0-0.5,0.1-0.7c0.1-0.3,0.4-0.5,0.7-0.6C35,0,35.2,0,35.5,0
		c0.4,0,0.8,0.1,1.1,0.4c0.5,0.5,0.5,1.4,0,2c-0.3,0.2-0.7,0.4-1.1,0.4c-0.4,0-0.8-0.1-1.1-0.4C34.1,2.1,34,1.7,34,1.4z M34.6,1.3
		c0,0.2,0.1,0.5,0.2,0.7c0.2,0.2,0.4,0.2,0.6,0.2c0.2,0,0.4-0.1,0.6-0.2c0.2-0.2,0.3-0.4,0.2-0.7c0-0.2-0.1-0.5-0.2-0.7
		c-0.4-0.3-0.9-0.3-1.2,0C34.7,0.8,34.6,1.1,34.6,1.3L34.6,1.3z"/>
	<path id="Trazado_425" class="st0" d="M37.4,2.6V0H38l1.3,1.7V0h0.6v2.6h-0.6L38,0.9v1.7H37.4z"/>
	<path id="Trazado_426" class="st0" d="M43.3,2.6h-0.7L42.3,2h-1.2l-0.3,0.6h-0.7L41.4,0H42L43.3,2.6z M42.1,1.6l-0.4-1l-0.4,1H42.1
		z"/>
	<path id="Trazado_427" class="st0" d="M43.6,2.6V0.1h0.6v2.1h1.5v0.4L43.6,2.6z"/>
	<path id="Trazado_428" class="st0" d="M47.3,2.6V0h2.1v0.4h-1.5v0.6h1.3v0.4h-1.3v1.1L47.3,2.6z"/>
	<path id="Trazado_429" class="st0" d="M49.8,1.4c0-0.2,0-0.5,0.1-0.7c0.1-0.1,0.2-0.3,0.3-0.4c0.1-0.1,0.2-0.2,0.4-0.2
		C50.8,0,51,0,51.3,0c0.4,0,0.8,0.1,1.1,0.4c0.5,0.5,0.5,1.4,0,2c-0.3,0.2-0.7,0.4-1.1,0.4c-0.4,0-0.8-0.1-1.1-0.4
		C49.9,2.1,49.8,1.7,49.8,1.4z M50.4,1.3c0,0.2,0.1,0.5,0.2,0.7c0.2,0.2,0.4,0.2,0.6,0.2c0.2,0,0.4-0.1,0.6-0.2
		c0.2-0.2,0.3-0.4,0.2-0.7c0-0.2-0.1-0.5-0.2-0.7c-0.4-0.3-0.9-0.3-1.2,0C50.5,0.8,50.4,1.1,50.4,1.3z"/>
	<path id="Trazado_430" class="st0" d="M53.2,2.6V0h1.3c0.2,0,0.5,0,0.7,0.1c0.1,0,0.3,0.1,0.4,0.2c0.1,0.1,0.1,0.3,0.1,0.4
		c0,0.2-0.1,0.4-0.2,0.5c-0.2,0.1-0.4,0.2-0.6,0.2c0.1,0.1,0.2,0.1,0.3,0.2c0.1,0.1,0.2,0.3,0.4,0.4L56,2.6h-0.7l-0.4-0.6
		c-0.1-0.1-0.2-0.3-0.3-0.4c-0.1,0-0.1-0.1-0.2-0.1c-0.1,0-0.2,0-0.3,0h-0.1v1.1L53.2,2.6z M53.9,1.1h0.5c0.2,0,0.4,0,0.6,0
		C54.9,1.1,55,1.1,55,1c0-0.1,0.1-0.1,0.1-0.2c0-0.1,0-0.2-0.1-0.2c-0.1-0.1-0.1-0.1-0.2-0.1c-0.1,0-0.2,0-0.5,0h-0.5V1.1z"/>
	<path id="Trazado_431" class="st0" d="M56.3,2.6V0h2.3v0.4h-1.6v0.6h1.5v0.4h-1.5v0.7h1.7v0.4L56.3,2.6z"/>
	<path id="Trazado_432" class="st0" d="M59,1.8l0.6,0c0,0.1,0.1,0.3,0.2,0.4c0.1,0.1,0.3,0.1,0.4,0.1c0.2,0,0.3,0,0.4-0.1
		c0.1-0.1,0.1-0.1,0.2-0.3c0-0.1,0-0.1-0.1-0.2c-0.1-0.1-0.1-0.1-0.2-0.1c-0.1,0-0.2-0.1-0.5-0.1c-0.2,0-0.5-0.1-0.7-0.3
		c-0.2-0.1-0.3-0.3-0.3-0.5c0-0.1,0-0.3,0.1-0.4c0.1-0.1,0.2-0.2,0.4-0.3C59.8,0,60,0,60.2,0c0.3,0,0.6,0.1,0.9,0.2
		c0.2,0.1,0.3,0.3,0.3,0.6l-0.6,0c0-0.1-0.1-0.2-0.2-0.3c-0.1-0.1-0.3-0.1-0.4-0.1c-0.1,0-0.3,0-0.4,0.1c-0.1,0-0.1,0.1-0.1,0.2
		c0,0.1,0,0.1,0.1,0.2C60,0.9,60.2,1,60.3,1c0.2,0,0.5,0.1,0.7,0.2c0.1,0.1,0.2,0.1,0.3,0.3c0.2,0.3,0.2,0.6,0,0.8
		c-0.1,0.1-0.2,0.2-0.4,0.3c-0.2,0.1-0.4,0.1-0.7,0.1c-0.3,0-0.6-0.1-0.9-0.2C59.2,2.3,59,2.1,59,1.8z"/>
	<path id="Trazado_433" class="st0" d="M62.7,2.6V0.5h-0.9V0h2.4v0.4h-0.9v2.2L62.7,2.6z"/>
	<path id="Trazado_434" class="st0" d="M67,2.6h-0.7L66.1,2h-1.2l-0.3,0.6H64L65.2,0h0.7L67,2.6z M65.9,1.6l-0.4-1l-0.4,1H65.9z"/>
	<path id="Trazado_435" class="st0" d="M67.4,2.6V0.1H68v2.1h1.5v0.4L67.4,2.6z"/>
</g>
</svg>
