<?xml version="1.0" encoding="utf-8"?>
<!-- Generator: Adobe Illustrator 24.2.3, SVG Export Plug-In . SVG Version: 6.00 Build 0)  -->
<svg version="1.1" id="Capa_1" xmlns="http://www.w3.org/2000/svg" xmlns:xlink="http://www.w3.org/1999/xlink" x="0px" y="0px"
	 viewBox="0 0 41.1 17.2" style="enable-background:new 0 0 41.1 17.2;" xml:space="preserve">
<style type="text/css">
	.st0{fill:#A0A0A0;}
</style>
<g id="Inta">
	<path id="Trazado_1009" class="st0" d="M4.7,1.8v6.9h1.8c0.3,0,0.6,0.1,0.9,0.2c0.2,0.2,0.3,0.4,0.3,0.6c0,0.2-0.1,0.5-0.3,0.6
		c-0.3,0.2-0.6,0.3-0.9,0.2H1.2c-0.3,0-0.6-0.1-0.9-0.2c-0.4-0.3-0.4-0.9,0-1.2c0,0,0,0,0,0c0.3-0.2,0.6-0.3,0.9-0.2H3V1.8H1.2
		c-0.3,0-0.6-0.1-0.9-0.2c-0.4-0.3-0.4-0.9,0-1.3c0,0,0,0,0,0C0.5,0.1,0.9,0,1.2,0l5.3,0c0.3,0,0.6,0.1,0.9,0.2
		c0.4,0.3,0.4,0.9,0,1.3c0,0,0,0,0,0C7.1,1.7,6.8,1.8,6.5,1.8H4.7z"/>
	<path id="Trazado_1010" class="st0" d="M12.2,3.3v5.3h0.6c0.3,0,0.6,0.1,0.9,0.2C13.9,9.1,14,9.3,14,9.5c0,0.2-0.1,0.5-0.3,0.6
		c-0.3,0.2-0.6,0.3-0.9,0.2h-2.3c-0.3,0-0.6-0.1-0.9-0.2c-0.3-0.3-0.4-0.9,0-1.2c0,0,0,0,0,0c0.2-0.2,0.5-0.3,0.8-0.2V1.8h-0.3
		c-0.3,0-0.6-0.1-0.9-0.2c-0.4-0.3-0.4-0.9,0-1.3c0,0,0,0,0,0C9.5,0.1,9.8,0,10.1,0l2,0l4.5,7.1V1.8H16c-0.3,0-0.6-0.1-0.9-0.2
		c-0.4-0.3-0.4-0.9,0-1.3c0,0,0,0,0,0C15.4,0.1,15.7,0,16,0l2.3,0c0.3,0,0.6,0.1,0.9,0.2c0.4,0.3,0.4,0.9,0,1.3c0,0,0,0,0,0
		c-0.2,0.2-0.5,0.3-0.8,0.2v8.6h-1.7L12.2,3.3L12.2,3.3z"/>
	<path id="Trazado_1011" class="st0" d="M25.8,1.8v6.9h1.2c0.3,0,0.6,0.1,0.9,0.2c0.2,0.2,0.3,0.4,0.3,0.6c0,0.2-0.1,0.5-0.3,0.6
		c-0.3,0.2-0.6,0.3-0.9,0.2h-4.1c-0.3,0-0.6-0.1-0.9-0.2c-0.2-0.2-0.3-0.4-0.3-0.6c0-0.2,0.1-0.5,0.3-0.6c0.3-0.2,0.6-0.3,0.9-0.2
		H24V1.8h-1.9v1.7c0,0.3-0.1,0.6-0.2,0.9c-0.3,0.4-0.9,0.4-1.2,0c0,0,0,0,0,0c-0.2-0.3-0.3-0.6-0.2-0.9V0l9.1,0v3.4
		c0,0.3-0.1,0.6-0.2,0.9c-0.3,0.4-0.9,0.4-1.3,0c0,0,0,0,0,0c-0.2-0.3-0.3-0.6-0.2-0.9V1.8L25.8,1.8z"/>
	<path id="Trazado_1012" class="st0" d="M36.9,5.8l-1.4-3.5L34,5.8H36.9z M37.6,7.6h-4.3l-0.4,1.1h0.4c0.3,0,0.6,0.1,0.9,0.2
		c0.2,0.2,0.3,0.4,0.3,0.6c0,0.2-0.1,0.5-0.3,0.6c-0.3,0.2-0.6,0.3-0.9,0.2H31c-0.3,0-0.6-0.1-0.9-0.2c-0.4-0.3-0.4-0.9,0-1.2
		c0,0,0,0,0,0c0.3-0.2,0.6-0.3,0.9-0.2l2.8-6.9h-1.1c-0.3,0-0.6-0.1-0.9-0.2c-0.4-0.3-0.4-0.9,0-1.3c0,0,0,0,0,0
		C32,0.1,32.3,0,32.6,0l3.8,0l3.5,8.6c0.3,0,0.6,0,0.8,0.1C41,9,41.1,9.2,41.1,9.5c0,0.2-0.1,0.5-0.3,0.6c-0.3,0.2-0.6,0.3-0.9,0.2
		h-2.4c-0.3,0-0.6-0.1-0.9-0.2c-0.4-0.3-0.4-0.9,0-1.2c0,0,0,0,0,0c0.3-0.2,0.6-0.3,0.9-0.2H38L37.6,7.6L37.6,7.6z"/>
	<path id="Trazado_1013" class="st0" d="M0.9,12v1.2h0.3c0.1,0,0.1,0,0.1,0c0,0,0,0.1,0,0.1c0,0,0,0.1,0,0.1c0,0-0.1,0-0.1,0H0.3
		c-0.1,0-0.1,0-0.1,0c-0.1-0.1-0.1-0.2,0-0.2c0,0,0.1,0,0.1,0h0.3V12H0.3c-0.1,0-0.1,0-0.1,0c-0.1-0.1-0.1-0.2,0-0.2
		c0,0,0.1,0,0.1,0h0.8c0.1,0,0.1,0,0.1,0c0,0,0,0.1,0,0.1c0,0,0,0.1,0,0.1c0,0-0.1,0-0.1,0L0.9,12z"/>
	<path id="Trazado_1014" class="st0" d="M2.1,12.1L2.1,12.1c0,0.1,0.1,0,0.2,0c0.1,0,0.1,0,0.2,0c0.2,0,0.3,0.1,0.4,0.2
		C2.9,12.4,3,12.5,3,12.6v0.6c0,0,0.1,0,0.1,0c0,0,0,0.1,0,0.1c0,0,0,0.1,0,0.1c0,0-0.1,0-0.1,0H2.7c-0.1,0-0.1,0-0.1,0
		c-0.1-0.1-0.1-0.2,0-0.2c0,0,0.1,0,0.1,0v-0.6c0-0.1,0-0.1-0.1-0.1c-0.1,0-0.1-0.1-0.2-0.1c-0.1,0-0.1,0-0.2,0
		c-0.1,0-0.1,0.1-0.2,0.2v0.6c0,0,0.1,0,0.1,0c0,0,0.1,0.1,0.1,0.1c0,0,0,0.1,0,0.1c0,0-0.1,0-0.1,0H1.8c-0.1,0-0.1,0-0.1,0
		c0,0,0-0.1,0-0.1c0-0.1,0-0.1,0.1-0.1c0,0,0.1,0,0.1,0v-0.7c0,0-0.1,0-0.1,0c0,0,0-0.1,0-0.1c0,0,0-0.1,0-0.1c0,0,0.1,0,0.1,0
		L2.1,12.1z"/>
	<path id="Trazado_1015" class="st0" d="M4.4,12.5c0,0-0.1-0.1-0.1-0.1c-0.1,0-0.1,0-0.2,0c-0.1,0-0.2,0-0.3,0.1l0,0.1
		c0,0,0,0,0.1,0.1c0.1,0,0.1,0,0.2,0c0.1,0,0.3,0,0.4,0.1c0.1,0,0.2,0.1,0.2,0.2c0.1,0.1,0.1,0.1,0.1,0.2c0,0.1,0,0.2-0.1,0.3
		c-0.1,0.1-0.3,0.2-0.5,0.2c-0.1,0-0.2,0-0.2,0c-0.1,0-0.1,0-0.2-0.1l0,0l0,0c0,0-0.1,0-0.1,0c0,0,0-0.1,0-0.2v-0.1
		c0-0.1,0-0.1,0-0.2c0,0,0.1,0,0.1,0c0,0,0.1,0,0.1,0c0,0,0,0.1,0.1,0.1c0,0,0.1,0.1,0.2,0.1c0.1,0,0.1,0,0.2,0c0.1,0,0.2,0,0.3-0.1
		c0,0,0.1,0,0.1-0.1c0,0,0-0.1-0.1-0.1c-0.1,0-0.2-0.1-0.3-0.1c-0.2,0-0.3-0.1-0.5-0.1c-0.1-0.1-0.1-0.2-0.1-0.3
		c0-0.1,0-0.2,0.1-0.3c0.1-0.1,0.3-0.2,0.5-0.2c0.1,0,0.1,0,0.2,0c0.1,0,0.1,0,0.2,0.1l0.1,0l0,0c0,0,0.1,0,0.1,0c0,0,0,0.1,0,0.2
		v0.1c0,0,0,0.1,0,0.1c0,0-0.1,0.1-0.1,0.1C4.5,12.6,4.5,12.6,4.4,12.5C4.4,12.6,4.4,12.5,4.4,12.5L4.4,12.5z"/>
	<path id="Trazado_1016" class="st0" d="M5.7,12.4v0.6c0,0,0,0.1,0,0.1c0.1,0,0.1,0.1,0.2,0.1c0.1,0,0.3,0,0.4-0.1c0,0,0.1,0,0.1,0
		c0,0,0.1,0,0.1,0c0,0,0,0.1,0,0.1c0,0,0,0.1,0,0.1c-0.1,0.1-0.2,0.1-0.3,0.1c-0.1,0-0.2,0.1-0.3,0.1c-0.1,0-0.3,0-0.4-0.1
		c-0.1-0.1-0.1-0.2-0.1-0.3v-0.7H5.3c-0.1,0-0.1,0-0.1,0c-0.1-0.1-0.1-0.2,0-0.2c0,0,0.1,0,0.1,0h0.1v-0.3c0-0.1,0-0.1,0-0.2
		c0,0,0.1,0,0.1,0c0,0,0.1,0,0.1,0c0,0,0,0.1,0,0.2v0.3h0.5c0.1,0,0.1,0,0.1,0c0,0,0,0.1,0,0.1c0,0,0,0.1,0,0.1c0,0-0.1,0-0.1,0
		L5.7,12.4z"/>
	<path id="Trazado_1017" class="st0" d="M7.5,11.5v0.3H7.2v-0.3H7.5z M7.6,12.1v1.1h0.3c0.1,0,0.1,0,0.1,0c0,0,0,0.1,0,0.1
		c0,0,0,0.1,0,0.1c0,0-0.1,0-0.1,0h-1c-0.1,0-0.1,0-0.1,0c-0.1-0.1-0.1-0.2,0-0.2c0,0,0.1,0,0.1,0h0.3v-0.7H7.1c-0.1,0-0.1,0-0.1,0
		c0,0,0-0.1,0-0.1c0,0,0-0.1,0-0.1c0,0,0.1,0,0.1,0H7.6z"/>
	<path id="Trazado_1018" class="st0" d="M9,12.4v0.6c0,0,0,0.1,0,0.1c0.1,0,0.1,0.1,0.2,0.1c0.1,0,0.3,0,0.4-0.1c0,0,0.1,0,0.1,0
		c0,0,0.1,0,0.1,0c0,0,0,0.1,0,0.1c0,0,0,0.1,0,0.1c-0.1,0.1-0.2,0.1-0.3,0.1c-0.1,0-0.2,0.1-0.3,0.1c-0.1,0-0.3,0-0.4-0.1
		c-0.1-0.1-0.1-0.2-0.1-0.3v-0.7H8.7c-0.1,0-0.1,0-0.1,0c-0.1-0.1-0.1-0.2,0-0.2c0,0,0.1,0,0.1,0h0.1v-0.3c0-0.1,0-0.1,0-0.2
		c0,0,0.1,0,0.1,0c0,0,0.1,0,0.1,0c0,0,0,0.1,0,0.2v0.3h0.5c0.1,0,0.1,0,0.1,0c0,0,0,0.1,0,0.1c0,0,0,0.1,0,0.1c0,0-0.1,0-0.1,0
		L9,12.4z"/>
	<path id="Trazado_1019" class="st0" d="M11.4,12.1v1.1c0,0,0.1,0,0.1,0c0,0,0,0.1,0,0.1c0,0,0,0.1,0,0.1c0,0-0.1,0-0.1,0h-0.3v-0.1
		c-0.1,0-0.1,0.1-0.2,0.1c-0.1,0-0.1,0-0.2,0c-0.2,0-0.3-0.1-0.4-0.2c0-0.1,0-0.1,0-0.2v-0.7h0c-0.1,0-0.1,0-0.1,0
		c-0.1-0.1-0.1-0.2,0-0.2c0,0,0.1,0,0.1,0h0.3V13c0,0.1,0,0.1,0,0.1c0,0,0.1,0.1,0.1,0c0.1,0,0.1,0,0.2,0c0.1,0,0.2-0.1,0.2-0.1
		v-0.6H11c-0.1,0-0.1,0-0.1,0c-0.1-0.1-0.1-0.2,0-0.2c0,0,0.1,0,0.1,0L11.4,12.1z"/>
	<path id="Trazado_1020" class="st0" d="M12.4,12.4v0.6c0,0,0,0.1,0,0.1c0.1,0,0.1,0.1,0.2,0.1c0.1,0,0.3,0,0.4-0.1c0,0,0.1,0,0.1,0
		c0,0,0.1,0,0.1,0c0,0,0,0.1,0,0.1c0,0,0,0.1,0,0.1c-0.1,0.1-0.2,0.1-0.3,0.1c-0.1,0-0.2,0.1-0.3,0.1c-0.1,0-0.3,0-0.4-0.1
		c-0.1-0.1-0.1-0.2-0.1-0.3v-0.7H12c-0.1,0-0.1,0-0.1,0c-0.1-0.1-0.1-0.2,0-0.2c0,0,0.1,0,0.1,0h0.1v-0.3c0-0.1,0-0.1,0-0.2
		c0-0.1,0.1-0.1,0.2,0c0,0,0,0,0,0c0,0,0,0.1,0,0.2v0.3h0.5c0.1,0,0.1,0,0.1,0c0,0,0,0.1,0,0.1c0,0,0,0.1,0,0.1c0,0-0.1,0-0.1,0
		L12.4,12.4z"/>
	<path id="Trazado_1021" class="st0" d="M14.6,12.8c0-0.1,0-0.2-0.1-0.3c-0.1-0.1-0.2-0.2-0.3-0.2c-0.1,0-0.2,0-0.3,0.1
		c-0.1,0.1-0.1,0.2-0.1,0.3c0,0.1,0,0.2,0.1,0.3c0.1,0.1,0.2,0.1,0.3,0.1c0.1,0,0.2,0,0.3-0.1C14.5,13,14.6,12.9,14.6,12.8
		L14.6,12.8z M14.9,12.8c0,0.1,0,0.2-0.1,0.3c-0.1,0.1-0.2,0.2-0.3,0.3c-0.2,0.1-0.5,0.1-0.7,0c-0.1-0.1-0.2-0.2-0.3-0.3
		c-0.1-0.1-0.1-0.2-0.1-0.3c0-0.1,0-0.3,0.1-0.4c0.1-0.1,0.2-0.2,0.3-0.3c0.1-0.1,0.2-0.1,0.4-0.1c0.1,0,0.3,0,0.4,0.1
		c0.1,0.1,0.2,0.2,0.3,0.3C14.8,12.6,14.9,12.7,14.9,12.8L14.9,12.8z"/>
	<path id="Trazado_1022" class="st0" d="M16.5,12.3v0.9h0.1c0.1,0,0.1,0,0.1,0c0,0,0,0.1,0,0.1c0,0,0,0.1,0,0.1c0,0-0.1,0-0.1,0
		h-0.4c-0.1,0-0.1,0-0.1,0c0,0,0-0.1,0-0.1c0,0,0-0.1,0-0.1c0,0,0.1,0,0.1,0V12h0c-0.1,0-0.1,0-0.1,0c0,0,0-0.1,0-0.1
		c0,0,0-0.1,0-0.1c0,0,0.1,0,0.1,0h0.3l0.7,1.2V12h-0.1c-0.1,0-0.1,0-0.1,0c-0.1-0.1-0.1-0.2,0-0.2c0,0,0.1,0,0.1,0h0.4
		c0.1,0,0.1,0,0.1,0c0,0,0,0.1,0,0.1c0,0,0,0.1,0,0.1c0,0-0.1,0-0.1,0v1.5h-0.3L16.5,12.3L16.5,12.3z"/>
	<path id="Trazado_1023" class="st0" d="M18.7,11.5v0.3h-0.3v-0.3H18.7z M18.7,12.1v1.1H19c0.1,0,0.1,0,0.1,0c0,0,0,0.1,0,0.1
		c0,0,0,0.1,0,0.1c0,0-0.1,0-0.1,0h-1c-0.1,0-0.1,0-0.1,0c-0.1-0.1-0.1-0.2,0-0.2c0,0,0.1,0,0.1,0h0.3v-0.7h-0.2c-0.1,0-0.1,0-0.1,0
		c0,0,0-0.1,0-0.1c0,0,0-0.1,0-0.1c0,0,0.1,0,0.1,0H18.7z"/>
	<path id="Trazado_1024" class="st0" d="M20.7,12.2C20.7,12.2,20.7,12.1,20.7,12.2c0.1-0.1,0.2,0,0.2,0c0,0,0,0.1,0,0.2v0.2
		c0,0.1,0,0.1,0,0.2c0,0-0.1,0-0.1,0c0,0-0.1,0-0.1,0c0,0,0-0.1,0-0.1c0-0.1,0-0.1-0.1-0.1c-0.1-0.1-0.2-0.1-0.3-0.1
		c-0.1,0-0.2,0-0.3,0.1c-0.1,0.1-0.1,0.2-0.1,0.3c0,0.1,0,0.2,0.1,0.3c0.1,0.1,0.2,0.1,0.4,0.1c0.1,0,0.2,0,0.3,0c0,0,0.1,0,0.1-0.1
		c0,0,0.1-0.1,0.1-0.1c0,0,0.1,0,0.1,0c0,0,0,0.1,0,0.1c0,0.1-0.1,0.2-0.1,0.2c-0.2,0.1-0.4,0.1-0.6,0.1c-0.2,0-0.4,0-0.5-0.2
		c-0.2-0.1-0.3-0.3-0.2-0.5c0-0.2,0.1-0.4,0.2-0.5c0.1-0.1,0.3-0.2,0.5-0.2c0.1,0,0.1,0,0.2,0C20.5,12.1,20.6,12.2,20.7,12.2
		L20.7,12.2z"/>
	<path id="Trazado_1025" class="st0" d="M22.2,12.9c-0.1,0-0.2,0-0.3,0c-0.1,0-0.2,0-0.3,0.1c0,0-0.1,0.1-0.1,0.1l0,0.1
		c0.1,0,0.1,0.1,0.2,0.1c0.1,0,0.2,0,0.2,0c0.1,0,0.2-0.1,0.2-0.1L22.2,12.9L22.2,12.9z M22.2,13.5L22.2,13.5c-0.1,0-0.2,0-0.2,0
		c-0.1,0-0.2,0-0.2,0c-0.1,0-0.3,0-0.4-0.1c-0.1-0.1-0.1-0.2-0.1-0.3c0-0.1,0.1-0.3,0.2-0.4c0.1-0.1,0.3-0.2,0.5-0.2
		c0.1,0,0.2,0,0.3,0v-0.1c0,0,0-0.1-0.1-0.1c-0.1,0-0.1-0.1-0.2,0c-0.1,0-0.2,0-0.3,0.1c0,0-0.1,0-0.1,0c0,0-0.1,0-0.1,0
		c0,0,0-0.1,0-0.1l0-0.1l0,0c0,0,0.1,0,0.1,0c0.1,0,0.1,0,0.2,0c0.1,0,0.1,0,0.2,0c0.1,0,0.3,0,0.4,0.1c0.1,0.1,0.1,0.2,0.1,0.3v0.6
		h0c0.1,0,0.1,0,0.1,0c0,0,0,0.1,0,0.1c0,0,0,0.1,0,0.1c0,0-0.1,0-0.1,0L22.2,13.5z"/>
	<path id="Trazado_1026" class="st0" d="M23.5,12.1v0.2c0.1-0.1,0.2-0.1,0.3-0.2c0.1,0,0.1,0,0.2,0c0.1,0,0.2,0,0.3,0.1
		c0.1,0,0.1,0.1,0.1,0.2c0,0,0,0.1,0,0.1c0,0-0.1,0-0.1,0c0,0-0.1,0-0.1-0.1c0,0-0.1-0.1-0.1-0.1c-0.1,0-0.1,0-0.2,0.1
		c-0.1,0.1-0.2,0.2-0.3,0.2v0.5h0.4c0.1,0,0.1,0,0.1,0c0,0,0,0.1,0,0.1c0,0,0,0.1,0,0.1c0,0-0.1,0-0.1,0h-0.8c-0.1,0-0.1,0-0.1,0
		c-0.1-0.1-0.1-0.2,0-0.2c0,0,0.1,0,0.1,0h0.2v-0.7h-0.1c-0.1,0-0.1,0-0.1,0c0,0,0-0.1,0-0.1c0,0,0-0.1,0-0.1c0,0,0.1,0,0.1,0
		L23.5,12.1z"/>
	<path id="Trazado_1027" class="st0" d="M25.5,12.9c-0.1,0-0.2,0-0.3,0c-0.1,0-0.2,0-0.3,0.1c0,0-0.1,0.1-0.1,0.1l0,0.1
		c0.1,0,0.1,0.1,0.2,0.1c0.1,0,0.2,0,0.2,0c0.1,0,0.2-0.1,0.2-0.1L25.5,12.9L25.5,12.9z M25.5,13.5L25.5,13.5c-0.1,0-0.1,0-0.2,0
		c-0.1,0-0.2,0-0.2,0c-0.1,0-0.3,0-0.4-0.1c-0.1-0.1-0.1-0.2-0.1-0.3c0-0.1,0.1-0.3,0.2-0.4c0.1-0.1,0.3-0.2,0.5-0.2
		c0.1,0,0.2,0,0.3,0v-0.1c0,0,0-0.1-0.1-0.1c-0.1,0-0.1,0-0.2,0c-0.1,0-0.2,0-0.3,0.1c0,0-0.1,0-0.1,0c0,0-0.1,0-0.1,0
		c0,0,0-0.1,0-0.1l0-0.1l0,0c0,0,0.1,0,0.1,0c0.1,0,0.1,0,0.2,0c0.1,0,0.1,0,0.2,0c0.1,0,0.3,0,0.4,0.1c0.1,0.1,0.1,0.2,0.1,0.3v0.6
		h0.1c0.1,0,0.1,0,0.1,0c0,0,0,0.1,0,0.1c0,0,0,0.1,0,0.1c0,0-0.1,0-0.1,0L25.5,13.5z"/>
	<path id="Trazado_1028" class="st0" d="M27.2,12.8c0-0.1,0-0.2-0.1-0.3c-0.1-0.2-0.4-0.2-0.5,0c0,0,0,0,0,0
		c-0.1,0.1-0.1,0.2-0.1,0.3c0,0.1,0,0.2,0.1,0.3c0.1,0.1,0.2,0.1,0.3,0.1c0.1,0,0.2,0,0.3-0.1C27.2,13,27.3,12.9,27.2,12.8z
		 M27.2,12.2L27.2,12.2l0.3-0.1c0.1,0,0.1,0,0.1,0c0,0,0,0.1,0,0.1c0,0,0,0.1,0,0.1c0,0-0.1,0-0.1,0h0v1.1c0,0.1,0,0.2-0.1,0.3
		c0,0.1-0.1,0.2-0.2,0.2c-0.1,0.1-0.2,0.1-0.3,0.1h-0.3c-0.1,0-0.1,0-0.1,0c0,0,0-0.1,0-0.1c0,0,0-0.1,0-0.1c0,0,0.1,0,0.1,0H27
		c0.1,0,0.1,0,0.2-0.1c0-0.1,0.1-0.1,0.1-0.2v-0.1c-0.1,0-0.1,0.1-0.2,0.1c-0.1,0-0.1,0-0.2,0c-0.2,0-0.4-0.1-0.5-0.2
		c-0.3-0.3-0.3-0.7,0-1c0.1-0.1,0.3-0.2,0.5-0.2c0.1,0,0.1,0,0.2,0C27.1,12.1,27.2,12.2,27.2,12.2L27.2,12.2z"/>
	<path id="Trazado_1029" class="st0" d="M29,11.7c0,0,0,0.1,0,0.1c0,0.1-0.1,0.1-0.2,0c0,0,0,0,0,0c0,0,0-0.1,0-0.1c0,0,0-0.1,0-0.1
		c0,0,0.1,0,0.1,0c0,0,0.1,0,0.1,0C29,11.6,29,11.7,29,11.7L29,11.7z M28.4,11.7c0,0,0,0.1,0,0.1c0,0-0.1,0-0.1,0c0,0-0.1,0-0.1,0
		c0,0,0-0.1,0-0.1c0,0,0-0.1,0-0.1c0,0,0.1,0,0.1,0c0,0,0.1,0,0.1,0C28.4,11.6,28.4,11.7,28.4,11.7L28.4,11.7z M29.2,12.1v1.1
		c0,0,0.1,0,0.1,0c0.1,0.1,0.1,0.2,0,0.2c0,0-0.1,0-0.1,0h-0.3v-0.1c-0.1,0-0.1,0.1-0.2,0.1c-0.1,0-0.1,0-0.2,0
		c-0.2,0-0.3-0.1-0.4-0.2c0-0.1,0-0.1,0-0.2v-0.7h0c-0.1,0-0.1,0-0.1,0c-0.1-0.1-0.1-0.2,0-0.2c0,0,0.1,0,0.1,0h0.3V13
		c0,0.1,0,0.1,0,0.1c0,0,0.1,0.1,0.1,0c0.1,0,0.1,0,0.2,0c0.1,0,0.2-0.1,0.2-0.1v-0.6h-0.1c-0.1,0-0.1,0-0.1,0c0,0,0-0.1,0-0.1
		c0,0,0-0.1,0-0.1c0,0,0.1,0,0.1,0L29.2,12.1z"/>
	<path id="Trazado_1030" class="st0" d="M30.7,12.7c0-0.1-0.1-0.2-0.2-0.2c-0.1,0-0.2-0.1-0.2-0.1c-0.1,0-0.2,0-0.2,0.1
		c-0.1,0-0.1,0.1-0.2,0.2H30.7z M31,13h-1.1c0,0.1,0.1,0.1,0.2,0.2c0.1,0.1,0.2,0.1,0.3,0.1c0.1,0,0.3,0,0.4-0.1c0,0,0.1,0,0.2,0
		c0,0,0.1,0,0.1,0c0,0,0,0.1,0,0.1c0,0,0,0.1,0,0.1c-0.1,0.1-0.2,0.1-0.3,0.1c-0.1,0-0.3,0-0.4,0c-0.4,0-0.7-0.3-0.7-0.7
		c0,0,0,0,0-0.1c0-0.2,0.1-0.4,0.2-0.5c0.1-0.1,0.3-0.2,0.5-0.2c0.1,0,0.2,0,0.3,0.1c0.1,0,0.2,0.1,0.2,0.1c0.1,0.1,0.1,0.2,0.2,0.3
		c0,0.1,0,0.2,0,0.3L31,13L31,13z"/>
	<path id="Trazado_1031" class="st0" d="M31.7,12.1L31.7,12.1c0,0.1,0.1,0,0.2,0c0.1,0,0.1,0,0.2,0c0.2,0,0.3,0.1,0.4,0.2
		c0.1,0.1,0.1,0.2,0.1,0.4v0.6c0,0,0.1,0,0.1,0c0,0,0,0.1,0,0.1c0,0,0,0.1,0,0.1c0,0-0.1,0-0.1,0h-0.2c-0.1,0-0.1,0-0.1,0
		c0,0,0-0.1,0-0.1c0,0,0-0.1,0-0.1c0,0,0.1,0,0.1,0v-0.6c0-0.1,0-0.1,0-0.1c-0.1,0-0.1-0.1-0.2-0.1c-0.1,0-0.1,0-0.2,0
		c-0.1,0-0.1,0.1-0.2,0.2v0.6c0,0,0.1,0,0.1,0c0,0,0.1,0.1,0.1,0.1c0,0,0,0.1,0,0.1c0,0-0.1,0-0.1,0h-0.3c-0.1,0-0.1,0-0.1,0
		c0,0,0-0.1,0-0.1c0-0.1,0-0.1,0.1-0.1c0,0,0.1,0,0.1,0v-0.7c0,0-0.1,0-0.1,0c-0.1-0.1-0.1-0.2,0-0.2c0,0,0.1,0,0.1,0L31.7,12.1z"/>
	<path id="Trazado_1032" class="st0" d="M34,12.5c0,0-0.1-0.1-0.1-0.1c-0.1,0-0.1,0-0.2,0c-0.1,0-0.2,0-0.3,0.1l0,0.1
		c0,0,0,0,0.1,0.1c0.1,0,0.1,0,0.2,0c0.1,0,0.3,0,0.4,0.1c0.1,0,0.2,0.1,0.2,0.2c0,0.1,0.1,0.1,0.1,0.2c0,0.1,0,0.2-0.1,0.3
		c-0.1,0.1-0.3,0.2-0.5,0.2c-0.1,0-0.2,0-0.2,0c-0.1,0-0.1,0-0.2-0.1l0,0l0,0c0,0-0.1,0-0.1,0c0,0,0-0.1,0-0.2v-0.1
		c0-0.1,0-0.1,0-0.2c0,0,0.1,0,0.1,0c0,0,0.1,0,0.1,0c0,0,0,0.1,0.1,0.1c0,0,0.1,0.1,0.2,0.1c0.1,0,0.1,0,0.2,0c0.1,0,0.2,0,0.3-0.1
		c0,0,0.1,0,0.1-0.1c0,0,0-0.1-0.1-0.1c-0.1,0-0.2-0.1-0.3-0.1c-0.2,0-0.3-0.1-0.5-0.1c-0.1-0.1-0.1-0.2-0.1-0.3
		c0-0.1,0-0.2,0.1-0.3c0.1-0.1,0.3-0.2,0.5-0.2c0.1,0,0.1,0,0.2,0c0.1,0,0.1,0,0.2,0.1l0,0l0,0c0,0,0.1,0,0.1,0c0,0,0,0.1,0,0.2v0.1
		c0,0,0,0.1,0,0.1c0,0-0.1,0.1-0.1,0.1C34.1,12.6,34,12.6,34,12.5C34,12.6,34,12.5,34,12.5L34,12.5z"/>
	<path id="Trazado_1033" class="st0" d="M35.7,12.7c-0.1-0.2-0.2-0.3-0.4-0.3c-0.1,0-0.2,0-0.2,0.1c-0.1,0-0.1,0.1-0.2,0.2H35.7z
		 M36,13h-1.1c0,0.1,0.1,0.1,0.2,0.2c0.1,0.1,0.2,0.1,0.3,0.1c0.1,0,0.3,0,0.4-0.1c0,0,0.1,0,0.2,0c0,0,0.1,0,0.1,0c0,0,0,0.1,0,0.1
		c0,0,0,0.1,0,0.1c-0.1,0.1-0.2,0.1-0.3,0.1c-0.1,0-0.3,0-0.4,0c-0.4,0-0.7-0.3-0.7-0.7c0,0,0,0,0-0.1c0-0.2,0.1-0.4,0.2-0.5
		c0.1-0.1,0.3-0.2,0.5-0.2c0.2,0,0.4,0.1,0.5,0.2c0.1,0.1,0.1,0.2,0.2,0.3c0,0.1,0,0.2,0,0.3L36,13L36,13z"/>
	<path id="Trazado_1034" class="st0" d="M38.3,12.9c0-0.1,0-0.2-0.1-0.3c-0.2-0.2-0.4-0.2-0.6,0c0,0,0,0,0,0
		c-0.1,0.1-0.1,0.2-0.1,0.3c0,0.1,0,0.2,0.1,0.3c0.1,0.1,0.2,0.1,0.3,0.1c0.1,0,0.2,0,0.3-0.1C38.3,13.1,38.3,13,38.3,12.9
		L38.3,12.9z M38.6,11.5v1.6h0c0.1,0,0.1,0,0.1,0c0,0,0,0.1,0,0.1c0,0,0,0.1,0,0.1c0,0-0.1,0-0.1,0h-0.3v-0.1
		c-0.1,0-0.1,0.1-0.2,0.1c-0.1,0-0.1,0-0.2,0c-0.2,0-0.4-0.1-0.5-0.2c-0.1-0.1-0.2-0.3-0.2-0.5c0-0.2,0.1-0.4,0.2-0.5
		c0.1-0.1,0.3-0.2,0.5-0.2c0.1,0,0.1,0,0.2,0c0.1,0,0.1,0.1,0.2,0.1v-0.4h0c-0.1,0-0.1,0-0.1,0c0,0,0-0.1,0-0.1c0,0,0-0.1,0-0.1
		c0,0,0.1,0,0.1,0L38.6,11.5z"/>
	<path id="Trazado_1035" class="st0" d="M40,12.7c0-0.1-0.1-0.2-0.2-0.2c-0.2-0.1-0.5-0.1-0.6,0.1c0,0,0,0,0,0.1H40z M40.3,13h-1.2
		c0,0.1,0.1,0.1,0.2,0.2c0.1,0.1,0.2,0.1,0.3,0.1c0.1,0,0.3,0,0.4-0.1c0,0,0.1,0,0.1,0c0,0,0.1,0,0.1,0c0,0,0,0.1,0,0.1
		c0,0,0,0.1,0,0.1c-0.1,0.1-0.2,0.1-0.3,0.1c-0.1,0-0.3,0-0.4,0c-0.2,0-0.4-0.1-0.5-0.2c-0.1-0.1-0.2-0.3-0.2-0.5
		c0-0.2,0.1-0.4,0.2-0.5c0.1-0.1,0.3-0.2,0.5-0.2c0.1,0,0.2,0,0.3,0.1c0.1,0,0.1,0.1,0.2,0.1c0.1,0.1,0.1,0.2,0.2,0.3
		c0,0.1,0,0.2,0,0.3L40.3,13L40.3,13z"/>
	<path id="Trazado_1036" class="st0" d="M2.2,15.1v1.2h0.2c0.1,0,0.1,0,0.1,0c0.1,0.1,0.1,0.2,0,0.2c0,0-0.1,0-0.1,0H1.7
		c-0.1,0-0.1,0-0.1,0c0,0,0-0.1,0-0.1c0,0,0-0.1,0-0.1c0,0,0.1,0,0.1,0h0.2v-1.2H1.6v0.3c0,0.1,0,0.1,0,0.2c0,0-0.1,0-0.1,0
		c0,0-0.1,0-0.1,0c0,0,0-0.1,0-0.2v-0.6h1.4v0.6c0,0.1,0,0.1,0,0.2c0,0.1-0.1,0.1-0.2,0c0,0,0,0,0,0c0,0,0-0.1,0-0.2v-0.3H2.2z"/>
	<path id="Trazado_1037" class="st0" d="M4.1,15.7c0-0.1-0.1-0.1-0.2-0.2c-0.1,0-0.2-0.1-0.3-0.1c-0.2,0-0.3,0.1-0.4,0.3H4.1z
		 M4.4,16H3.3c0,0.1,0.1,0.1,0.2,0.2c0.1,0.1,0.2,0.1,0.3,0.1c0.1,0,0.3,0,0.4-0.1c0,0,0.1,0,0.1,0c0,0,0.1,0,0.1,0c0,0,0,0.1,0,0.1
		c0,0,0,0.1,0,0.1c-0.1,0.1-0.2,0.1-0.3,0.1c-0.1,0-0.3,0-0.4,0c-0.4,0-0.7-0.3-0.7-0.7c0,0,0,0,0-0.1c0-0.2,0.1-0.4,0.2-0.5
		c0.1-0.1,0.3-0.2,0.5-0.2c0.1,0,0.2,0,0.3,0.1c0.1,0,0.2,0.1,0.2,0.1c0.1,0.1,0.1,0.2,0.2,0.3c0,0.1,0,0.2,0,0.3L4.4,16L4.4,16z"/>
	<path id="Trazado_1038" class="st0" d="M5.8,15.3C5.8,15.2,5.9,15.2,5.8,15.3c0.1-0.1,0.2,0,0.2,0c0,0,0,0.1,0,0.2v0.2
		c0,0.1,0,0.1,0,0.2c0,0-0.1,0-0.1,0c0,0-0.1,0-0.1,0c0,0,0-0.1,0-0.1c0-0.1,0-0.1-0.1-0.1c-0.1-0.1-0.2-0.1-0.3-0.1
		c-0.1,0-0.2,0-0.3,0.1C5,15.7,5,15.8,5,15.9c0,0.1,0,0.2,0.1,0.3c0.1,0.1,0.2,0.1,0.4,0.1c0.1,0,0.2,0,0.3,0c0,0,0.1,0,0.1-0.1
		c0,0,0.1-0.1,0.1-0.1c0,0,0.1,0,0.1,0c0,0,0,0.1,0,0.1c0,0.1-0.1,0.2-0.1,0.2c-0.2,0.1-0.4,0.1-0.5,0.1c-0.2,0-0.4,0-0.5-0.1
		c-0.2-0.1-0.3-0.3-0.2-0.5c0-0.2,0.1-0.4,0.2-0.5c0.1-0.1,0.3-0.2,0.5-0.2c0.1,0,0.1,0,0.2,0C5.7,15.2,5.8,15.2,5.8,15.3L5.8,15.3z
		"/>
	<path id="Trazado_1039" class="st0" d="M6.8,15.2v0.1c0,0,0.1-0.1,0.2-0.1c0.1,0,0.1,0,0.2,0c0.1,0,0.3,0.1,0.4,0.2
		c0.1,0.1,0.1,0.2,0.1,0.4v0.6c0,0,0.1,0,0.1,0c0,0,0,0.1,0,0.1c0,0,0,0.1,0,0.1c0,0-0.1,0-0.1,0H7.4c-0.1,0-0.1,0-0.1,0
		c0,0,0-0.1,0-0.1c0,0,0-0.1,0-0.1c0,0,0.1,0,0.1,0v-0.6c0-0.1,0-0.1-0.1-0.1c-0.1,0-0.1-0.1-0.2-0.1c-0.1,0-0.1,0-0.2,0
		c-0.1,0-0.1,0.1-0.2,0.2v0.6c0,0,0.1,0,0.1,0c0,0,0.1,0.1,0.1,0.1c0,0,0,0.1,0,0.1c0,0-0.1,0-0.1,0H6.5c-0.1,0-0.1,0-0.1,0
		c0,0,0-0.1,0-0.1c0-0.1,0-0.1,0.1-0.1c0,0,0.1,0,0.1,0v-0.7c0,0-0.1,0-0.1,0c0,0,0-0.1,0-0.1c0,0,0-0.1,0-0.1c0,0,0.1,0,0.1,0
		L6.8,15.2z"/>
	<path id="Trazado_1040" class="st0" d="M9.2,15.9c0-0.1,0-0.2-0.1-0.3c-0.1-0.1-0.2-0.2-0.3-0.2c-0.1,0-0.2,0-0.3,0.1
		c-0.1,0.1-0.1,0.2-0.1,0.3c0,0.1,0.1,0.2,0.1,0.3c0.1,0.1,0.2,0.1,0.3,0.1c0.1,0,0.2,0,0.3-0.1C9.1,16.1,9.2,16,9.2,15.9L9.2,15.9z
		 M9.5,15.9c0,0.1,0,0.2-0.1,0.3c-0.1,0.1-0.2,0.2-0.3,0.3c-0.1,0.1-0.2,0.1-0.4,0.1c-0.1,0-0.3,0-0.4-0.1c-0.1-0.1-0.2-0.2-0.3-0.3
		C8.1,16.2,8,16,8,15.9c0-0.1,0-0.3,0.1-0.4c0.1-0.1,0.2-0.2,0.3-0.3c0.1-0.1,0.2-0.1,0.4-0.1c0.1,0,0.3,0,0.4,0.1
		c0.1,0.1,0.2,0.2,0.3,0.3C9.4,15.7,9.5,15.8,9.5,15.9L9.5,15.9z"/>
	<path id="Trazado_1041" class="st0" d="M10.6,14.6v1.6h0.3c0.1,0,0.1,0,0.1,0c0,0,0,0.1,0,0.1c0,0,0,0.1,0,0.1c0,0-0.1,0-0.1,0h-1
		c-0.1,0-0.1,0-0.1,0c0,0,0-0.1,0-0.1c0,0,0-0.1,0-0.1c0,0,0.1,0,0.1,0h0.3v-1.3h-0.2c-0.1,0-0.1,0-0.1,0c0,0,0-0.1,0-0.1
		c0,0,0-0.1,0-0.1c0,0,0.1,0,0.1,0L10.6,14.6z"/>
	<path id="Trazado_1042" class="st0" d="M12.5,15.9c0-0.1,0-0.2-0.1-0.3c-0.1-0.1-0.2-0.2-0.3-0.2c-0.1,0-0.2,0-0.3,0.1
		c-0.1,0.1-0.1,0.2-0.1,0.3c0,0.1,0,0.2,0.1,0.3c0.2,0.2,0.5,0.2,0.6,0C12.5,16.1,12.5,16,12.5,15.9L12.5,15.9z M12.8,15.9
		c0,0.1,0,0.2-0.1,0.3c-0.1,0.1-0.2,0.2-0.3,0.3c-0.1,0.1-0.2,0.1-0.4,0.1c-0.1,0-0.3,0-0.4-0.1c-0.1-0.1-0.2-0.2-0.3-0.3
		c-0.1-0.1-0.1-0.2-0.1-0.3c0-0.1,0-0.3,0.1-0.4c0.1-0.1,0.2-0.2,0.3-0.3c0.1-0.1,0.2-0.1,0.4-0.1c0.1,0,0.3,0,0.4,0.1
		c0.1,0.1,0.2,0.2,0.3,0.3C12.8,15.7,12.8,15.8,12.8,15.9L12.8,15.9z"/>
	<path id="Trazado_1043" class="st0" d="M14.1,15.9c0-0.1,0-0.2-0.1-0.3c-0.1-0.1-0.2-0.1-0.3-0.1c-0.1,0-0.2,0-0.3,0.1
		c-0.1,0.2-0.1,0.4,0,0.6c0.1,0.2,0.4,0.2,0.5,0c0,0,0,0,0,0C14,16.1,14.1,16,14.1,15.9z M14.1,15.3L14.1,15.3l0.3-0.1
		c0.1,0,0.1,0,0.1,0c0,0,0,0.1,0,0.1c0,0,0,0.1,0,0.1c0,0-0.1,0-0.1,0h0v1.1c0,0.1,0,0.2-0.1,0.3c0,0.1-0.1,0.2-0.2,0.2
		c-0.1,0.1-0.2,0.1-0.3,0.1h-0.3c-0.1,0-0.1,0-0.1,0c0,0,0-0.1,0-0.1c0,0,0-0.1,0-0.1c0,0,0.1,0,0.1,0h0.3c0.1,0,0.1,0,0.2-0.1
		c0-0.1,0.1-0.1,0.1-0.2v-0.1c-0.1,0-0.1,0.1-0.2,0.1c-0.1,0-0.1,0-0.2,0c-0.2,0-0.4-0.1-0.5-0.2c-0.3-0.3-0.3-0.7,0-1
		c0.1-0.1,0.3-0.2,0.5-0.2c0.1,0,0.1,0,0.2,0C14,15.2,14,15.2,14.1,15.3L14.1,15.3z"/>
	<path id="Trazado_1044" class="st0" d="M15.5,14.7L15.2,15l-0.1,0l-0.1,0l0-0.1c0,0,0-0.1,0.1-0.1l0.3-0.3c0,0,0,0,0.1,0l0.1,0
		l0,0.1C15.6,14.6,15.6,14.7,15.5,14.7L15.5,14.7z M15.6,15.2v1.1h0.3c0.1,0,0.1,0,0.1,0c0,0,0,0.1,0,0.1c0,0,0,0.1,0,0.1
		c0,0-0.1,0-0.1,0h-1c-0.1,0-0.1,0-0.1,0c-0.1-0.1-0.1-0.2,0-0.2c0,0,0.1,0,0.1,0h0.3v-0.8h-0.2c-0.1,0-0.1,0-0.1,0c0,0,0-0.1,0-0.1
		c0,0,0-0.1,0-0.1c0,0,0.1,0,0.1,0L15.6,15.2z"/>
	<path id="Trazado_1045" class="st0" d="M17.4,16c-0.1,0-0.2,0-0.3,0c-0.1,0-0.2,0-0.3,0.1c0,0-0.1,0.1-0.1,0.1l0,0.1
		c0.1,0,0.1,0.1,0.2,0c0.1,0,0.2,0,0.2,0c0.1,0,0.2-0.1,0.2-0.1L17.4,16z M17.4,16.6L17.4,16.6c-0.1,0-0.2,0-0.2,0
		c-0.1,0-0.2,0-0.2,0c-0.1,0-0.3,0-0.4-0.1c-0.1-0.1-0.1-0.2-0.1-0.3c0-0.1,0.1-0.3,0.2-0.4c0.1-0.1,0.3-0.2,0.5-0.2
		c0.1,0,0.2,0,0.3,0v-0.1c0,0,0-0.1-0.1-0.1c-0.1,0-0.1-0.1-0.2,0c-0.1,0-0.2,0-0.3,0.1c0,0-0.1,0-0.1,0c0,0-0.1,0-0.1,0
		c0,0,0-0.1,0-0.1l0-0.1l0,0c0,0,0.1,0,0.1,0c0.1,0,0.1,0,0.2,0c0.1,0,0.1,0,0.2,0c0.1,0,0.3,0,0.4,0.1c0.1,0.1,0.2,0.2,0.1,0.3v0.6
		h0c0.1,0,0.1,0,0.1,0c0,0,0,0.1,0,0.1c0,0,0,0.1,0,0.1c0,0-0.1,0-0.1,0L17.4,16.6z"/>
	<path id="Trazado_1046" class="st0" d="M20.1,15.8l-0.2-0.6l-0.2,0.6H20.1z M20.2,16.1h-0.7l-0.1,0.2h0.1c0.1,0,0.1,0,0.1,0
		c0.1,0.1,0.1,0.2,0,0.2c0,0-0.1,0-0.1,0h-0.4c-0.1,0-0.1,0-0.1,0c0,0,0-0.1,0-0.1c0,0,0-0.1,0-0.1c0,0,0.1,0,0.2,0l0.4-1.2h-0.2
		c-0.1,0-0.1,0-0.1,0c-0.1-0.1-0.1-0.2,0-0.2c0,0,0.1,0,0.1,0H20l0.6,1.5c0,0,0.1,0,0.1,0c0,0,0.1,0.1,0.1,0.1c0,0,0,0.1,0,0.1
		c0,0-0.1,0-0.1,0h-0.4c-0.1,0-0.1,0-0.1,0c0,0,0-0.1,0-0.1c0,0,0-0.1,0-0.1c0,0,0.1,0,0.1,0h0.1L20.2,16.1L20.2,16.1z"/>
	<path id="Trazado_1047" class="st0" d="M21.9,15.9c0-0.1,0-0.2-0.1-0.3c-0.1-0.1-0.2-0.1-0.3-0.1c-0.1,0-0.2,0-0.3,0.1
		c-0.2,0.2-0.2,0.4,0,0.6c0.1,0.1,0.2,0.1,0.3,0.1c0.1,0,0.2,0,0.3-0.1C21.8,16.1,21.9,16,21.9,15.9z M21.9,15.3L21.9,15.3l0.3-0.1
		c0.1,0,0.1,0,0.1,0c0,0,0,0.1,0,0.1c0,0,0,0.1,0,0.1c0,0-0.1,0-0.1,0h0v1.1c0,0.1,0,0.2-0.1,0.3c0,0.1-0.1,0.2-0.2,0.2
		c-0.1,0.1-0.2,0.1-0.3,0.1h-0.3c-0.1,0-0.1,0-0.1,0c0,0,0-0.1,0-0.1c0,0,0-0.1,0-0.1c0,0,0.1,0,0.1,0h0.3c0.1,0,0.1,0,0.2-0.1
		c0-0.1,0.1-0.1,0.1-0.2v-0.1c-0.1,0-0.1,0.1-0.2,0.1c-0.1,0-0.1,0-0.2,0c-0.2,0-0.4-0.1-0.5-0.2c-0.3-0.3-0.3-0.7,0-1
		C21.2,15.1,21.6,15.1,21.9,15.3L21.9,15.3z"/>
	<path id="Trazado_1048" class="st0" d="M23.2,15.2v0.2c0.1-0.1,0.2-0.1,0.3-0.2c0.1,0,0.1,0,0.2,0c0.1,0,0.2,0,0.3,0.1
		c0,0,0.1,0.1,0.1,0.2c0,0,0,0.1,0,0.1c0,0-0.1,0-0.1,0c0,0-0.1,0-0.1-0.1c0,0-0.1-0.1-0.1-0.1c-0.1,0-0.1,0-0.2,0.1
		c-0.1,0.1-0.2,0.2-0.3,0.2v0.5h0.4c0.1,0,0.1,0,0.1,0c0.1,0.1,0.1,0.2,0,0.2c0,0-0.1,0-0.1,0h-0.8c-0.1,0-0.1,0-0.1,0
		c-0.1-0.1-0.1-0.2,0-0.2c0,0,0.1,0,0.1,0h0.2v-0.7h-0.1c-0.1,0-0.1,0-0.1,0c0,0,0-0.1,0-0.1c0,0,0-0.1,0-0.1c0,0,0.1,0,0.1,0
		L23.2,15.2z"/>
	<path id="Trazado_1049" class="st0" d="M25.4,15.9c0-0.2-0.2-0.4-0.5-0.4c-0.1,0-0.2,0-0.3,0.1c-0.1,0.1-0.1,0.2-0.1,0.3
		c0,0.1,0.1,0.2,0.1,0.3c0.1,0.1,0.2,0.1,0.3,0.1c0.1,0,0.2,0,0.3-0.1C25.3,16.1,25.3,16,25.4,15.9L25.4,15.9z M25.6,15.9
		c0,0.1,0,0.2-0.1,0.3c-0.1,0.1-0.2,0.2-0.3,0.3c-0.1,0.1-0.2,0.1-0.4,0.1c-0.1,0-0.3,0-0.4-0.1c-0.1-0.1-0.2-0.2-0.3-0.3
		c-0.1-0.1-0.1-0.2-0.1-0.3c0-0.1,0-0.3,0.1-0.4c0.1-0.1,0.2-0.2,0.3-0.3c0.1-0.1,0.2-0.1,0.4-0.1c0.1,0,0.3,0,0.4,0.1
		c0.1,0.1,0.2,0.2,0.3,0.3C25.6,15.7,25.6,15.8,25.6,15.9L25.6,15.9z"/>
	<path id="Trazado_1050" class="st0" d="M27.1,15.9c0-0.1,0-0.1,0-0.2c0-0.1-0.1-0.1-0.1-0.2c-0.1,0-0.1-0.1-0.2-0.1
		c-0.2,0-0.4,0.2-0.4,0.4c0,0.1,0,0.2,0.1,0.2c0.2,0.2,0.4,0.2,0.6,0C27,16,27.1,16,27.1,15.9L27.1,15.9z M26.2,16.4v0.5h0.2
		c0.1,0,0.1,0,0.1,0c0,0,0,0.1,0,0.1c0,0,0,0.1,0,0.1c0,0-0.1,0-0.1,0h-0.5c-0.1,0-0.1,0-0.1,0c0,0,0-0.1,0-0.1c0,0,0-0.1,0-0.1
		c0,0,0.1,0,0.1,0h0v-1.4h0c-0.1,0-0.1,0-0.1,0c0,0,0-0.1,0-0.1c0,0,0-0.1,0-0.1c0,0,0.1,0,0.1,0h0.3v0.1c0.1,0,0.1-0.1,0.2-0.1
		c0.1,0,0.1,0,0.2,0c0.2,0,0.4,0.1,0.5,0.2c0.1,0.1,0.2,0.3,0.2,0.5c0,0.2-0.1,0.4-0.2,0.5c-0.1,0.1-0.3,0.2-0.4,0.2
		c-0.1,0-0.1,0-0.2,0C26.4,16.5,26.3,16.4,26.2,16.4L26.2,16.4z"/>
	<path id="Trazado_1051" class="st0" d="M28.7,15.7c0-0.1-0.1-0.2-0.2-0.2c-0.1,0-0.2-0.1-0.3-0.1c-0.2,0-0.3,0.1-0.4,0.3H28.7z
		 M29,16h-1.2c0,0.1,0.1,0.1,0.2,0.2c0.1,0.1,0.2,0.1,0.3,0.1c0.1,0,0.3,0,0.4-0.1c0,0,0.1,0,0.1,0c0,0,0.1,0,0.1,0c0,0,0,0.1,0,0.1
		c0,0,0,0.1,0,0.1c-0.1,0.1-0.2,0.1-0.3,0.1c-0.1,0-0.3,0-0.4,0c-0.4,0-0.7-0.3-0.7-0.7c0-0.2,0.1-0.4,0.2-0.5
		c0.1-0.1,0.3-0.2,0.5-0.2c0.1,0,0.2,0,0.3,0.1c0.1,0,0.2,0.1,0.2,0.1c0.1,0.1,0.1,0.2,0.2,0.3c0,0.1,0,0.2,0,0.3L29,16L29,16z"/>
	<path id="Trazado_1052" class="st0" d="M30.4,15.3C30.4,15.2,30.4,15.2,30.4,15.3c0.1-0.1,0.2,0,0.2,0c0,0,0,0.1,0,0.2v0.2
		c0,0.1,0,0.1,0,0.2c0,0-0.1,0-0.1,0c0,0-0.1,0-0.1,0c0,0,0-0.1,0-0.1c0-0.1,0-0.1-0.1-0.1c-0.1-0.1-0.2-0.1-0.3-0.1
		c-0.1,0-0.2,0-0.3,0.1c-0.1,0.1-0.1,0.2-0.1,0.3c0,0.1,0,0.2,0.1,0.3c0.1,0.1,0.2,0.1,0.4,0.1c0.1,0,0.2,0,0.3,0c0,0,0.1,0,0.1-0.1
		c0,0,0.1-0.1,0.1-0.1c0,0,0.1,0,0.1,0c0,0,0,0.1,0,0.1c0,0.1-0.1,0.2-0.1,0.2c-0.2,0.1-0.4,0.1-0.6,0.1c-0.2,0-0.4,0-0.5-0.1
		c-0.2-0.1-0.3-0.3-0.2-0.5c0-0.2,0.1-0.4,0.2-0.5c0.1-0.1,0.3-0.2,0.5-0.2c0.1,0,0.1,0,0.2,0C30.3,15.2,30.3,15.2,30.4,15.3
		L30.4,15.3z"/>
	<path id="Trazado_1053" class="st0" d="M32.2,15.2v1.1c0,0,0.1,0,0.1,0c0,0,0,0.1,0,0.1c0,0,0,0.1,0,0.1c0,0-0.1,0-0.1,0h-0.3v-0.1
		c-0.1,0-0.2,0.1-0.2,0.1c-0.1,0-0.1,0-0.2,0c-0.1,0-0.2,0-0.2-0.1c-0.1,0-0.1-0.1-0.2-0.2c0-0.1,0-0.1,0-0.2v-0.7h0
		c-0.1,0-0.1,0-0.1,0c0,0,0-0.1,0-0.1c0,0,0-0.1,0-0.1c0,0,0.1,0,0.1,0h0.3v0.9c0,0.1,0,0.1,0,0.1c0,0,0.1,0.1,0.1,0
		c0.1,0,0.1,0,0.2,0c0.1,0,0.2-0.1,0.2-0.1v-0.6h-0.1c-0.1,0-0.1,0-0.1,0c0,0,0-0.1,0-0.1c0,0,0-0.1,0-0.1c0,0,0.1,0,0.1,0
		L32.2,15.2z"/>
	<path id="Trazado_1054" class="st0" d="M33.5,16c-0.1,0-0.2,0-0.3,0c-0.1,0-0.2,0-0.3,0.1c0,0-0.1,0.1-0.1,0.1l0,0.1
		c0.1,0,0.1,0.1,0.2,0c0.1,0,0.2,0,0.2,0c0.1,0,0.2-0.1,0.2-0.1L33.5,16L33.5,16z M33.5,16.6L33.5,16.6c-0.1,0-0.1,0-0.2,0
		c-0.1,0-0.2,0-0.2,0c-0.1,0-0.3,0-0.4-0.1c-0.1-0.1-0.1-0.2-0.1-0.3c0-0.1,0.1-0.3,0.2-0.4c0.1-0.1,0.3-0.2,0.5-0.2
		c0.1,0,0.2,0,0.3,0v-0.1c0,0,0-0.1-0.1-0.1c-0.1,0-0.1-0.1-0.2,0c-0.1,0-0.2,0-0.3,0.1c0,0-0.1,0-0.1,0c0,0-0.1,0-0.1,0
		c0,0,0-0.1,0-0.1l0-0.1l0,0c0,0,0.1,0,0.1,0c0.1,0,0.1,0,0.2,0c0.1,0,0.1,0,0.2,0c0.1,0,0.3,0,0.4,0.1c0.1,0.1,0.1,0.2,0.1,0.3v0.6
		h0c0.1,0,0.1,0,0.1,0c0,0,0,0.1,0,0.1c0,0,0,0.1,0,0.1c0,0-0.1,0-0.1,0L33.5,16.6z"/>
	<path id="Trazado_1055" class="st0" d="M34.9,15.2v0.2c0.1-0.1,0.2-0.1,0.3-0.2c0.1,0,0.1,0,0.2,0c0.1,0,0.2,0,0.3,0.1
		c0.1,0,0.1,0.1,0.1,0.2c0,0,0,0.1,0,0.1c0,0-0.1,0-0.1,0c0,0-0.1,0-0.1-0.1c0,0-0.1-0.1-0.1-0.1c-0.1,0-0.1,0-0.2,0.1
		c-0.1,0.1-0.2,0.2-0.3,0.2v0.5h0.4c0.1,0,0.1,0,0.1,0c0,0,0,0.1,0,0.1c0,0,0,0.1,0,0.1c0,0-0.1,0-0.1,0h-0.8c-0.1,0-0.1,0-0.1,0
		c-0.1-0.1-0.1-0.2,0-0.2c0,0,0.1,0,0.1,0h0.2v-0.7h-0.1c-0.1,0-0.1,0-0.1,0c0,0,0-0.1,0-0.1c0,0,0-0.1,0-0.1c0,0,0.1,0,0.1,0
		L34.9,15.2z"/>
	<path id="Trazado_1056" class="st0" d="M36.8,14.6v0.3h-0.3v-0.3H36.8z M36.8,15.2v1.1h0.3c0.1,0,0.1,0,0.1,0c0,0,0,0.1,0,0.1
		c0,0,0,0.1,0,0.1c0,0-0.1,0-0.1,0h-1c-0.1,0-0.1,0-0.1,0c-0.1-0.1-0.1-0.2,0-0.2c0,0,0,0,0,0c0,0,0.1,0,0.1,0h0.3v-0.7h-0.2
		c-0.1,0-0.1,0-0.1,0c0,0,0-0.1,0-0.1c0,0,0-0.1,0-0.1c0,0,0.1,0,0.1,0L36.8,15.2z"/>
	<path id="Trazado_1057" class="st0" d="M38.6,16c-0.1,0-0.2,0-0.3,0c-0.1,0-0.2,0-0.3,0.1c0,0-0.1,0.1-0.1,0.1l0,0.1
		c0.1,0,0.1,0.1,0.2,0c0.1,0,0.2,0,0.2,0c0.1,0,0.2-0.1,0.2-0.1L38.6,16L38.6,16z M38.6,16.6L38.6,16.6c-0.1,0-0.2,0-0.2,0
		c-0.1,0-0.2,0-0.2,0c-0.1,0-0.3,0-0.4-0.1c-0.1-0.1-0.1-0.2-0.1-0.3c0-0.1,0.1-0.3,0.2-0.4c0.1-0.1,0.3-0.2,0.5-0.2
		c0.1,0,0.2,0,0.3,0v-0.1c0,0,0-0.1-0.1-0.1c-0.1,0-0.1-0.1-0.2,0c-0.1,0-0.2,0-0.3,0.1c0,0-0.1,0-0.1,0c0,0-0.1,0-0.1,0
		c0,0,0-0.1,0-0.1l0-0.1l0,0c0,0,0.1,0,0.1,0c0.1,0,0.1,0,0.2,0c0.1,0,0.1,0,0.2,0c0.1,0,0.3,0,0.4,0.1c0.1,0.1,0.1,0.2,0.1,0.3v0.6
		h0c0.1,0,0.1,0,0.1,0c0,0,0,0.1,0,0.1c0,0,0,0.1,0,0.1c0,0-0.1,0-0.1,0L38.6,16.6z"/>
</g>
</svg>
