<?xml version="1.0" encoding="utf-8"?>
<!-- Generator: Adobe Illustrator 24.2.3, SVG Export Plug-In . SVG Version: 6.00 Build 0)  -->
<svg version="1.1" id="Capa_1" xmlns="http://www.w3.org/2000/svg" xmlns:xlink="http://www.w3.org/1999/xlink" x="0px" y="0px"
	 viewBox="0 0 75.8 17.2" style="enable-background:new 0 0 75.8 17.2;" xml:space="preserve">
<style type="text/css">
	.st0{fill:#A0A0A0;}
	.st1{fill-rule:evenodd;clip-rule:evenodd;fill:#A0A0A0;}
</style>
<g id="Mefcca">
	<path id="Trazado_867" class="st0" d="M4.9,11.1L4.9,11.1c-0.8,0-1.6-0.4-2.1-0.9C2.3,9.6,2.1,8.8,2.1,8c0-1.6,1.2-3,2.8-3
		c0,0,0,0,0,0H5C5.7,5,6.5,5.4,7,6c0.5,0.6,0.8,1.4,0.8,2.2C7.8,9.7,6.5,11.1,4.9,11.1z M4.9,5.3C3.4,5.3,2.3,6.6,2.3,8
		c0,0.7,0.2,1.4,0.7,2c0.5,0.5,1.1,0.8,1.8,0.9c1.5,0,2.7-1.2,2.7-2.7v0c0-0.7-0.2-1.4-0.7-2C6.3,5.6,5.7,5.3,4.9,5.3L4.9,5.3z"/>
	<path id="Trazado_868" class="st1" d="M11.5,5.3C10.3,6.5,10,8.4,10.9,10c-1.3-1.5-1.3-3.6,0-5.1C12,3.6,14,3.5,15.3,4.7
		c0.1,0.1,0.2,0.2,0.3,0.3C14.2,4.1,12.8,3.9,11.5,5.3z"/>
	<path id="Trazado_869" class="st1" d="M4.2,6.1C3,6.7,2.4,8,2.7,9.3C2.1,7.9,2.6,6.4,3.9,5.6C5,5.1,6.5,5.6,7.1,6.8c0,0,0,0,0,0
		c0,0.1,0.1,0.1,0.1,0.2C6.6,5.9,5.3,5.5,4.2,6.1C4.3,6.1,4.3,6.1,4.2,6.1L4.2,6.1z"/>
	<g id="Grupo_376">
		<path id="Trazado_870" class="st0" d="M13.7,10.4c0-0.1,0-0.1,0-0.2c-0.1-0.4-0.4-0.8-0.8-1c-0.3-0.1-0.6-0.2-0.8-0.4
			c-0.3-0.2-0.5-0.4-0.6-0.6c-0.2-0.4-0.2-0.8,0.1-1.1c0.1-0.2,0.3-0.3,0.6-0.3c0.2-0.1,0.5,0,0.7,0C13,6.8,13.1,6.9,13.3,7
			c0.1,0.1,0.2,0.3,0.3,0.4c0.1,0.2,0.2,0.4,0.3,0.6C14,8.4,14,8.7,14,9c0,0.4-0.1,0.9-0.3,1.2C13.7,10.3,13.7,10.3,13.7,10.4
			C13.7,10.4,13.7,10.4,13.7,10.4z"/>
	</g>
	<g id="Grupo_377">
		<path id="Trazado_871" class="st0" d="M14.1,10.4C14.1,10.4,14.1,10.4,14.1,10.4C14,10.1,14,9.8,14,9.6c0-0.2,0-0.4,0.1-0.6
			c0-0.1,0-0.1,0.1-0.2c0.1-0.3,0.3-0.6,0.6-0.8c0.2-0.2,0.4-0.3,0.6-0.3c0.3-0.1,0.5,0.1,0.6,0.3C16,8.3,16,8.5,15.9,8.7
			c-0.1,0.2-0.2,0.3-0.4,0.4c-0.2,0.1-0.5,0.3-0.7,0.4c-0.2,0.1-0.3,0.2-0.5,0.4C14.2,10,14.2,10.2,14.1,10.4
			C14.2,10.4,14.2,10.4,14.1,10.4z"/>
	</g>
	<g id="Grupo_378">
		<path id="Trazado_872" class="st0" d="M14.1,8.8c0-0.1,0-0.1,0-0.2c0-0.3-0.1-0.5-0.2-0.8c-0.1-0.4-0.3-0.7-0.6-0.9
			c-0.1-0.1-0.2-0.2-0.4-0.2c0,0,0,0-0.1,0c0.2,0,0.3,0,0.5,0c0.2,0,0.3,0.1,0.5,0.1c0,0-0.1-0.1-0.1-0.1c-0.2-0.2-0.2-0.4,0-0.6
			c0,0,0,0,0,0c0,0,0,0,0,0c0.1-0.1,0.4-0.1,0.5,0c0,0,0,0,0.1,0.1c0.1,0.2,0.1,0.5-0.1,0.6c-0.1,0.1-0.2,0.1-0.3,0.1c0,0,0,0,0,0
			c0,0,0,0,0,0c0.3,0.1,0.5,0.3,0.6,0.6c0.1,0.1,0.1,0.3,0.2,0.4c0,0,0,0,0,0.1C14.5,8.2,14.2,8.4,14.1,8.8
			C14.1,8.8,14.1,8.8,14.1,8.8z"/>
	</g>
	<g id="Grupo_379">
		<path id="Trazado_873" class="st0" d="M12.3,6.6c-0.4,0-0.6-0.4-0.6-0.7v0c0-0.4,0.3-0.6,0.7-0.7c0.2,0,0.4,0.1,0.5,0.2
			C12.9,5.5,13,5.7,13,5.8C13,6.2,12.7,6.6,12.3,6.6C12.4,6.6,12.4,6.6,12.3,6.6C12.3,6.6,12.3,6.6,12.3,6.6z"/>
	</g>
	<g id="Grupo_380">
		<path id="Trazado_874" class="st0" d="M15.1,7.7c-0.3,0-0.5-0.3-0.5-0.6c0,0,0,0,0,0v0c0-0.3,0.2-0.5,0.5-0.6
			c0.3,0,0.6,0.2,0.6,0.5c0,0,0,0,0,0c0,0,0,0,0,0C15.6,7.4,15.4,7.6,15.1,7.7C15.1,7.7,15.1,7.7,15.1,7.7L15.1,7.7z"/>
	</g>
	<g id="Grupo_382">
		<path id="Trazado_875" class="st0" d="M13.3,11.4h-0.1c-1,0-2-0.5-2.6-1.2c-0.7-0.8-1.1-1.8-1-2.9c0-2.1,1.7-3.9,3.8-3.9h0
			c2.1,0.1,3.8,2,3.7,4.1C17,9.6,15.4,11.4,13.3,11.4z M13.2,3.7c-2,0.1-3.5,1.7-3.5,3.7c0,1,0.3,1.9,1,2.7c0.6,0.7,1.5,1.1,2.5,1.2
			c2,0,3.6-1.6,3.6-3.6v0V7.5c0.1-2-1.4-3.7-3.4-3.8L13.2,3.7z"/>
	</g>
	<path id="Trazado_876" class="st0" d="M10.4,2.2c-0.2,0-0.3,0-0.4,0c-0.2,0-0.4,0-0.6,0c0,0,0,0-0.1,0s0,0,0,0c0,0.1,0,0.1-0.1,0.1
		c-0.1,0-0.3,0-0.4-0.1c0,0-0.1,0-0.1,0c0.1,0,0.1,0,0.2,0l0.3,0c0.1,0,0.1,0,0.1-0.1c0-0.1,0-0.1,0-0.2c0-0.1,0-0.1-0.1-0.1
		C9,1.9,8.8,1.9,8.7,2C8.6,2,8.5,2,8.5,2.1c0,0,0,0-0.1,0l0,0C8.5,2,8.6,1.9,8.6,1.9C8.8,1.8,8.9,1.7,9,1.6c0.1-0.1,0.1-0.1,0-0.2
		c0,0,0-0.1-0.1-0.1s-0.1,0-0.1,0C8.7,1.4,8.6,1.5,8.5,1.6C8.5,1.7,8.4,1.8,8.4,1.9c0,0,0,0-0.1,0c0,0,0,0,0,0
		c0-0.1,0.1-0.2,0.1-0.3c0.1-0.2,0.1-0.4,0.2-0.5C8.6,1,8.6,1,8.5,1c0,0-0.1,0-0.1,0C8.4,0.9,8.3,1,8.3,1c0,0.1,0,0.2-0.1,0.2
		c0,0.2-0.1,0.3-0.1,0.5c0,0,0,0,0,0.1c0,0,0,0,0-0.1c0-0.2,0-0.4,0-0.5c0-0.1,0-0.1,0-0.2C8,1,8,1,8,1C7.8,1.1,7.8,1.1,7.8,1.3
		c0,0.2,0.1,0.4,0.1,0.5c0,0,0,0,0,0.1l0,0c0,0,0-0.1,0-0.1C7.8,1.7,7.7,1.5,7.6,1.3c0-0.1-0.1-0.1-0.1,0S7.5,1.4,7.4,1.5
		c0,0,0,0,0,0.1c0.1,0.1,0.2,0.2,0.3,0.3c0,0,0.1,0.1,0.1,0.1c0,0,0,0,0,0.1c0,0,0,0-0.1,0C7.6,2,7.5,1.9,7.4,1.8
		c-0.1,0-0.1-0.1-0.2,0.1c0,0.1,0,0.1,0,0.2c0.1,0,0.2,0.1,0.2,0.1c0.1,0,0.2,0,0.3,0.1c0,0,0,0,0,0c0,0,0,0,0,0c0,0,0,0-0.1,0
		c-0.1,0-0.3,0-0.4,0.1c0,0-0.1,0-0.1,0.1c0,0.1,0,0.1,0,0.2s0,0.1,0.1,0c0.2-0.1,0.3-0.1,0.5-0.2c0,0,0,0,0,0c0,0,0,0-0.1,0.1
		C7.6,2.7,7.5,2.8,7.4,2.9C7.3,3,7.2,3.1,7.4,3.2c0,0,0.1,0,0.1,0l0.3-0.3c0-0.1,0.1-0.1,0.1-0.2c0,0,0,0,0,0c0,0,0,0,0,0
		c0,0.1,0,0.1-0.1,0.2L7.6,3.4c0,0.1,0,0.1,0,0.2c0,0,0,0,0,0.1C7.6,3.8,7.6,4,7.5,4.2c0,0,0,0,0,0l0,0c0,0,0.1,0.1,0.1,0.1
		c0,0,0,0,0-0.1c0,0,0-0.1,0-0.1c0.1,0,0.2,0.1,0.4,0.1c0,0.1,0,0.2,0,0.3l0,0c0,0,0.1,0,0.1,0c0,0,0-0.1,0-0.1c0-0.1,0-0.2,0-0.2
		h0.1c0,0.1,0,0.2,0,0.4h0c0,0,0.1,0,0.1,0c0,0,0-0.1-0.1-0.2V4.3c0-0.1,0-0.1,0.1-0.1c0.1,0,0.2,0,0.3-0.1l0.2,0.5c0,0,0.1,0,0.1,0
		c0,0-0.1-0.1-0.1-0.2C8.7,4.2,8.6,4,8.6,3.7C8.5,3.6,8.5,3.4,8.4,3.2c0-0.1,0-0.2-0.1-0.3l0.2,0.4c0.1,0.2,0.1,0.2,0.2,0
		c0.1-0.1,0.1-0.1,0-0.3S8.6,2.8,8.4,2.7c0,0,0,0,0,0c0,0,0,0,0-0.1c0,0,0,0,0.1,0c0.1,0.1,0.2,0.1,0.3,0.2c0.1,0,0.2,0.1,0.3,0.1
		c0.1,0,0.1,0,0.2-0.1c0-0.1,0-0.1,0.1-0.2c0-0.1,0-0.1-0.1-0.1C9,2.5,8.8,2.4,8.7,2.4c-0.1,0-0.1,0-0.2,0c0,0,0,0,0,0
		c0.2,0,0.5,0.1,0.7,0.1l0,0c0,0.1,0,0.1,0.1,0.1c0.2,0,0.4,0.1,0.5,0.1l0.4,0.1c0,0,0.1,0,0.1-0.1c0-0.1,0-0.2,0.1-0.3
		C10.4,2.4,10.4,2.1,10.4,2.2L10.4,2.2z M8,4.1C8,4.1,7.9,4.1,8,4.1c-0.2,0-0.3,0-0.4,0c0.1-0.2,0.1-0.3,0.2-0.5c0,0,0,0,0.1,0
		c0,0,0.1,0,0.1,0c0-0.1,0-0.2,0.1-0.2C8,3.1,8,3,8,2.8c0,0,0,0,0,0h0c0,0,0,0,0,0.1C8,3.2,8,3.7,8,4.1z M8,4.1c0-0.3,0-0.5,0-0.8
		c0,0,0,0,0,0c0,0.3,0,0.5,0,0.8L8,4.1z M8,2.1C8,2.2,8,2.3,8,2.3c0,0,0.1,0.1,0,0.2c0,0,0,0.1,0,0.1C7.9,2.6,7.8,2.5,7.8,2.4
		c0-0.2,0-0.3,0.1-0.4c0.1-0.1,0.3-0.1,0.4,0c0,0,0,0.1,0.1,0.1c0,0,0,0.1,0,0.1c-0.1,0-0.1,0-0.2,0c0,0,0,0-0.1,0
		C8.2,2.1,8.1,2.1,8,2.1L8,2.1z M8.3,2.3C8.3,2.3,8.3,2.3,8.3,2.3c0.1,0,0.1,0,0.1,0c0,0.1-0.1,0.2-0.2,0.3c0-0.1,0-0.1-0.1-0.2
		C8.2,2.4,8.2,2.3,8.3,2.3L8.3,2.3C8.3,2.3,8.3,2.3,8.3,2.3L8.3,2.3z M8.5,4.1c-0.1,0-0.2,0-0.3,0.1c0,0-0.1,0-0.1,0
		c0-0.1,0-0.2,0-0.4c0,0,0,0,0,0c0,0,0.1,0,0.1,0c0.1,0,0.1-0.1,0.1-0.1c0-0.2-0.1-0.4-0.1-0.5c0-0.1-0.1-0.2-0.1-0.3h0
		c0,0.2,0.1,0.4,0.2,0.5C8.4,3.5,8.5,3.7,8.6,4C8.6,4,8.6,4.1,8.5,4.1L8.5,4.1z"/>
	<path id="Trazado_877" class="st0" d="M8.6,4.8L8.6,4.8C7.9,4.8,7.4,4.5,7,4.1C6.6,3.6,6.4,3,6.4,2.4C6.3,1.1,7.3,0,8.6,0h0
		c0.6,0,1.1,0.3,1.5,0.7c0.4,0.5,0.6,1.1,0.6,1.7C10.8,3.7,9.8,4.7,8.6,4.8z M8.5,0.3c-1.1,0.1-2,1-1.9,2.1c0,0.6,0.2,1.1,0.5,1.5
		C7.5,4.3,8,4.5,8.5,4.5c1.1,0,2-0.9,2-2.1v0c0-0.6-0.2-1.1-0.5-1.5C9.6,0.5,9.1,0.3,8.5,0.3L8.5,0.3z"/>
	<path id="Trazado_878" class="st1" d="M8.2,13.6c-0.1,0-0.1,0-0.2-0.1c-0.7-0.2-1.2-0.8-1.2-1.5c-0.1-0.9,0.5-1.8,1.4-2
		c0.9-0.1,1.7,0.5,1.8,1.4c0,0,0,0,0,0v0c0.2,0.9-0.4,1.8-1.3,2c-0.1,0-0.1,0-0.2,0C8.4,13.7,8.3,13.7,8.2,13.6z M9.9,11.9
		c0-0.8-0.6-1.5-1.4-1.6C7.6,10.3,7,11,7,11.8v0c-0.1,0.8,0.5,1.5,1.3,1.6C9,13.5,9.8,13,9.8,12.2C9.9,12.1,9.9,12,9.9,11.9
		L9.9,11.9z"/>
	<g id="Grupo_387">
		<path id="Trazado_879" class="st1" d="M8.9,13.1l0.1,0l0-0.6l0.5,0.1L9,10.9l-0.6,1.4l0.5,0.2L8.9,13.1z"/>
	</g>
	<g id="Grupo_388">
		<path id="Trazado_880" class="st1" d="M7.8,13.2l0.1,0l0-0.6l0.5,0.1L7.9,11l-0.6,1.4l0.5,0.2L7.8,13.2z"/>
	</g>
	<g id="Grupo_390">
		<path id="Trazado_881" class="st1" d="M4.3,7.9C4.4,8,4.4,8,4.5,7.9l0,0C4.5,8,4.4,8,4.3,7.9C4.4,8,4.4,8,4.3,7.9
			c0,0.1,0,0.1,0,0.1c0,0,0,0.1,0.1,0.1c0,0,0.1,0,0.1,0c0,0.1,0.1,0,0.1,0c0,0-0.1,0.1-0.1,0c0,0,0,0,0,0c0,0,0,0.1,0,0.1
			c0,0,0.1,0,0.1,0.1c0,0,0,0,0-0.1c0,0.1,0.1,0.1,0.1,0l0,0c0,0,0-0.1,0-0.1c0,0,0,0,0,0C4.6,8.1,4.6,8,4.6,8c0,0,0-0.1-0.1,0
			c0,0,0-0.1,0-0.1C4.4,7.8,4.4,7.9,4.3,7.9C4.3,7.9,4.3,7.9,4.3,7.9c0,0,0-0.1-0.1-0.1c0,0,0,0,0,0s0,0.1,0,0.1
			C4.3,8,4.3,8,4.3,7.9L4.3,7.9z M4.6,7c-0.1,0.1,0,0.1,0.1,0.2c0,0,0-0.1,0.1-0.1c0,0,0-0.1,0-0.1C4.6,6.9,4.6,6.9,4.6,7
			C4.6,6.9,4.6,6.9,4.6,7C4.6,7,4.6,7,4.6,7C4.6,7,4.6,6.9,4.6,7c0-0.1,0-0.1,0-0.1c0,0,0,0-0.1,0c0,0,0,0-0.1,0c0,0,0,0,0,0
			c0,0,0-0.1,0-0.1c0,0,0,0-0.1,0c0,0,0,0.1,0,0.1c-0.1,0-0.1,0-0.1,0l0,0.1l0.1-0.1c0,0,0,0,0.1,0C4.4,6.9,4.5,7,4.6,7
			C4.5,7,4.5,7,4.6,7L4.6,7z M5.8,9.4C5.8,9.4,5.8,9.4,5.8,9.4c0-0.1,0-0.1,0-0.1c0,0,0,0,0,0c0,0,0,0,0,0c-0.1,0-0.1,0.1,0,0.1l0,0
			c0-0.1,0-0.1-0.1-0.1c0,0,0,0,0,0c0,0,0,0,0.1,0c0,0,0,0,0,0c0,0,0.1-0.1,0.1-0.1c0,0,0-0.1-0.1-0.1c0,0,0,0,0,0
			c0,0-0.1,0.1-0.1,0.1c-0.1-0.1-0.1-0.1-0.1,0c0,0,0,0,0,0c0,0,0,0.1,0,0.1s0.1,0,0.1,0s0,0,0.1-0.1c0,0-0.1,0.1-0.1,0.1l0.1,0.1
			c0,0,0,0.1,0.1,0.1c0,0,0.1,0,0.1,0c0,0,0-0.1,0-0.1C5.7,9.5,5.8,9.5,5.8,9.4C5.8,9.4,5.8,9.5,5.8,9.4C5.7,9.5,5.7,9.5,5.7,9.6
			c0,0,0.1,0,0.1,0C5.8,9.6,5.9,9.5,5.8,9.4C5.9,9.5,5.9,9.4,5.8,9.4C5.9,9.4,5.8,9.4,5.8,9.4L5.8,9.4z M4.8,7.2
			C4.8,7.2,4.8,7.3,4.8,7.2c-0.1,0-0.1,0.1-0.2,0.2c-0.1,0-0.1,0-0.1,0.1c0,0,0,0.1,0,0.1l0,0c0,0,0,0,0.1,0c0,0,0-0.1,0.1-0.1
			c0,0,0.1,0,0.1,0C4.8,7.4,4.8,7.3,4.8,7.2c0,0.2,0,0.2,0.1,0.1l0,0c0,0,0-0.1,0-0.1C4.9,7.1,4.8,7.2,4.8,7.2L4.8,7.2
			c0-0.1,0-0.1,0-0.2s-0.1,0-0.1,0.1C4.6,7.1,4.7,7.3,4.8,7.2C4.7,7.3,4.7,7.3,4.8,7.2C4.8,7.2,4.8,7.2,4.8,7.2L4.8,7.2z M5,7.5
			c0,0,0-0.1,0-0.1C5,7.3,5,7.3,4.9,7.3C4.9,7.3,4.9,7.4,5,7.5C4.9,7.4,4.9,7.5,5,7.5C4.9,7.5,4.9,7.5,5,7.5C5,7.5,5,7.5,5,7.5
			c0,0.1,0,0.1,0,0.2c0.1,0,0.1-0.1,0.1-0.1C5.1,7.5,5.1,7.4,5,7.5C5,7.4,5,7.4,5,7.5C5,7.5,5,7.5,5,7.5L5,7.5z M5.6,8.4
			c0,0,0,0.1,0,0.1c0,0,0.1,0.1,0.1,0c0,0,0-0.1,0-0.1C5.7,8.4,5.6,8.4,5.6,8.4C5.6,8.4,5.6,8.4,5.6,8.4L5.6,8.4c0,0,0-0.1,0-0.1
			c0-0.1-0.1-0.1-0.1-0.1c0,0,0-0.1,0-0.1c0,0,0-0.1,0-0.1c0,0,0,0,0,0c0,0-0.1,0.1-0.1,0.1c0,0-0.1,0-0.1,0c0,0-0.1,0.1-0.1,0.1
			c0,0,0,0.1,0,0.1s0,0,0,0.1c0,0.1,0,0.1,0.1,0.1c0,0,0,0,0-0.1c0,0.1,0,0.1,0,0.2c0,0,0,0,0.1,0c0,0.1,0,0.1,0.1,0.2
			c0,0,0.1-0.1,0.1-0.2c0,0,0,0.1,0.1,0.1c0,0,0-0.1,0-0.1c0,0,0-0.1-0.1-0.1c0,0,0,0.1-0.1,0.1c0,0-0.1-0.1-0.1-0.1
			C5.5,8.5,5.6,8.5,5.6,8.4c-0.1,0-0.1,0.1-0.1,0.1c0-0.1,0-0.1,0-0.2c0,0,0,0.1,0,0.1C5.5,8.4,5.5,8.4,5.6,8.4
			C5.5,8.4,5.6,8.4,5.6,8.4L5.6,8.4z M4.1,6.9C4.1,7,4.1,7,4.1,6.9C4,7,4,7,4.1,7.1c0,0,0,0,0,0l0,0c0,0,0,0,0,0
			C4.1,7.1,4.2,7,4.1,6.9C4.2,7,4.2,6.9,4.1,6.9C4.1,6.9,4.1,6.9,4.1,6.9C4.1,6.9,4.1,6.9,4.1,6.9C4.1,6.8,4,6.8,4,6.8c0,0,0,0,0,0
			c0,0-0.1,0-0.1,0.1c0,0,0,0,0,0C3.9,7,4,7,4,7C4,7,4.1,7,4.1,6.9L4.1,6.9z M5.3,8.5c0-0.1,0-0.1,0-0.2c0,0,0,0.1-0.1,0.1
			c0,0,0,0.1,0,0.1l0,0C5.2,8.6,5.2,8.6,5.3,8.5C5.3,8.5,5.3,8.5,5.3,8.5C5.3,8.5,5.3,8.5,5.3,8.5c-0.1,0.1-0.1,0.1,0,0.2
			c0,0.1,0.1,0,0.1,0l0,0L5.3,8.8c0,0,0,0.1,0.1,0.1c0,0.1,0,0.1,0.1,0.2L5.6,9l0,0c0,0,0-0.1,0-0.1c0,0,0,0-0.1,0c0,0,0-0.1,0-0.1
			c0,0-0.1,0-0.1,0l0-0.1C5.4,8.6,5.4,8.6,5.3,8.5C5.3,8.5,5.3,8.5,5.3,8.5C5.3,8.5,5.3,8.5,5.3,8.5L5.3,8.5z M4.4,7.5
			C4.4,7.5,4.3,7.5,4.4,7.5c-0.1,0-0.2,0.1-0.2,0.1s0,0.1,0,0.1c0,0,0,0,0.1,0c0,0,0,0,0,0c0,0,0,0.1,0.1,0c0,0,0.1-0.1,0.1-0.1
			c0,0,0-0.1,0-0.1C4.5,7.4,4.4,7.4,4.4,7.5C4.4,7.5,4.4,7.5,4.4,7.5C4.4,7.5,4.4,7.4,4.4,7.5c0-0.1,0-0.1,0-0.1c0,0-0.1,0-0.1,0
			c0,0-0.1,0.1-0.1,0.1C4.3,7.5,4.3,7.5,4.4,7.5C4.3,7.5,4.3,7.5,4.4,7.5L4.4,7.5z M4.1,7.2C4.2,7.2,4.2,7.2,4.1,7.2
			C4.3,7.1,4.2,7.1,4.2,7c0,0,0,0,0,0c0,0,0-0.1,0-0.1c0,0,0,0,0,0c0,0,0,0,0,0.1c0,0,0,0.1,0,0.1L4.1,7.2C4.1,7.1,4,7.1,4,7.1
			c0,0,0,0,0,0l0,0c0,0,0,0.1,0,0.1L4.1,7.2L4.1,7.2C4.1,7.2,4.1,7.3,4.1,7.2C4.1,7.3,4.1,7.4,4.1,7.4c0,0,0.1,0,0.1,0
			C4.2,7.3,4.2,7.3,4.1,7.2L4.1,7.2z M5.4,9.1c0,0-0.1,0.1-0.1,0.1c0,0,0,0-0.1,0c0,0,0,0-0.1,0c0,0,0,0.1,0.1,0.1c0,0,0,0,0.1,0
			c0,0.1,0.1,0.1,0.1,0c0,0,0,0,0,0C5.5,9.2,5.5,9.1,5.4,9.1C5.5,9.1,5.4,9,5.4,9.1c0-0.1,0-0.1-0.1-0.1c0-0.1,0-0.1-0.1-0.2
			c0,0,0,0,0,0c0,0,0-0.1,0-0.1c0,0-0.1,0-0.1,0c0,0-0.1,0-0.1,0.1c0,0,0,0,0-0.1c0,0,0-0.1,0.1-0.1c0,0,0-0.1,0-0.1
			c0,0-0.1,0-0.1,0c0,0,0,0,0,0c-0.1,0,0,0.1,0,0.1c0,0,0,0,0.1,0.1l-0.1,0c0,0-0.1,0-0.1,0.1c0,0,0,0.1,0.1,0.1c0,0,0.1,0,0.1-0.1
			c0,0,0,0,0,0l0.1,0c0,0,0,0.1,0,0.1c0,0,0,0,0.1,0c0,0,0,0,0,0l0.1-0.1C5.3,9,5.2,9,5.2,9c0,0,0,0-0.1,0c0,0,0,0-0.1,0
			c0,0,0,0,0,0c0,0,0-0.1,0-0.1c0,0,0,0-0.1,0s0,0,0,0c0,0,0,0,0,0.1C5,9.1,5,9.1,5.1,9c0,0,0,0,0,0c0,0,0,0,0,0.1
			c0.1,0.1,0.1,0.1,0.2,0C5.3,9.2,5.3,9.2,5.4,9.1C5.4,9.1,5.4,9.1,5.4,9.1L5.4,9.1z M4.9,7.9C4.9,7.9,4.9,7.9,4.9,7.9l0.1,0
			c0,0,0-0.1,0-0.1c0,0,0-0.1,0-0.1c0,0-0.1,0-0.1,0c0,0,0,0,0,0.1c0,0-0.1,0-0.1,0c0,0-0.1,0.1-0.1,0.1C4.8,7.9,4.8,7.9,4.9,7.9
			C4.8,8,4.8,8,4.9,7.9C4.9,8,4.9,7.9,4.9,7.9c0,0,0,0.1-0.1,0.1L4.8,8c0,0,0-0.1-0.1-0.1c0,0-0.1,0-0.1,0.1c0,0,0,0,0,0
			c0,0,0,0.1,0,0.1c0,0,0.1,0,0.1,0l0,0l0,0c0,0,0,0-0.1,0.1c0,0,0,0.1,0,0.1c0,0,0,0,0.1,0l0,0c0.1,0,0.1-0.1,0.1-0.1
			c0.1,0.1,0.1,0.1,0.1,0c0,0,0,0,0,0C5,8,5,7.9,4.9,7.9C4.9,7.9,4.9,7.9,4.9,7.9L4.9,7.9z M4.9,8.4c0,0,0,0.1,0,0.1c0,0,0,0,0.1,0
			C5,8.5,5,8.5,5,8.4c0,0,0-0.1,0-0.1c0,0,0,0-0.1,0C4.9,8.4,4.9,8.4,4.9,8.4c0,0,0.1-0.1,0.1-0.2c0,0,0,0,0.1,0c0,0,0,0,0.1,0
			c0,0,0,0,0,0c0,0,0,0.1,0,0.2c0,0,0,0,0,0c0,0,0.1,0,0.1-0.1c0,0,0-0.1,0-0.1c0,0-0.1,0-0.1,0c0-0.1,0-0.1,0-0.1S5,8,5,8.1
			S4.9,8.1,4.9,8.2c0,0,0,0-0.1-0.1c0,0,0,0-0.1,0C4.7,8.2,4.7,8.3,4.9,8.4L4.9,8.4c-0.1,0-0.1,0-0.1,0c0,0,0,0-0.1,0.1
			c0,0,0,0,0,0.1c0,0,0,0.1,0.1,0.1C4.8,8.6,4.8,8.5,4.9,8.4C4.8,8.5,4.8,8.4,4.9,8.4L4.9,8.4z M4.7,7.7C4.7,7.7,4.7,7.7,4.7,7.7
			c0,0.1,0,0.1,0,0.1c0,0,0,0,0.1,0c0,0,0,0,0.1-0.1c0,0,0,0,0.1,0c0,0,0.1-0.1,0.1-0.1c0,0,0-0.1,0-0.1c0,0,0,0-0.1,0
			c0,0,0,0.1-0.1,0.1C4.8,7.6,4.8,7.6,4.7,7.7C4.7,7.7,4.7,7.7,4.7,7.7c0,0,0-0.1,0.1-0.1C4.8,7.6,4.8,7.6,4.7,7.7
			c0.1-0.1,0.1-0.1,0.1-0.1c0,0,0,0,0,0c0-0.1,0-0.1,0-0.1c0,0-0.1,0-0.1,0.1c0,0,0,0,0,0c0,0-0.1,0-0.1,0c0,0-0.1,0.1-0.1,0.1
			c-0.1-0.1-0.1-0.1-0.1,0c0,0-0.1,0.1-0.1,0c0,0-0.1,0.1-0.1,0.1c0,0,0,0.1,0.1,0.1c0,0,0.1,0,0.1-0.1c0,0,0,0,0.1,0c0,0,0,0,0,0
			c0,0,0.1-0.1,0.1-0.1c0,0,0,0,0,0C4.6,7.7,4.7,7.7,4.7,7.7L4.7,7.7z M6.1,9.9C6.1,9.9,6.1,9.9,6.1,9.9C6.1,9.9,6.2,9.9,6.1,9.9
			c0.1-0.4,0.1-0.7,0.1-1.1c0-0.3,0-0.7-0.1-1C6,7.7,6,7.5,6,7.3c0-0.1,0-0.2,0.1-0.3c0,0-0.1,0.1-0.2,0.1c0,0-0.1,0.1-0.1,0.1
			c0,0.1,0,0.1,0,0.2h0c0-0.1,0-0.1,0-0.2c-0.1,0-0.2,0.1-0.2,0.2c0,0,0,0,0,0c0-0.1,0-0.1,0.1-0.2L5.6,7.2c-0.1-0.1-0.1,0-0.2,0.1
			c0,0.1-0.1,0.2-0.1,0.3c0,0.1,0,0.1,0,0.2c0,0,0,0,0,0c0,0.1,0.1,0.1,0.1,0.2C5.5,8,5.6,8.1,5.6,8.2c0,0,0,0.1,0.1,0.1
			c0,0,0,0,0,0c0,0.1,0,0.1,0.1,0.2c0,0,0,0,0,0c0,0,0,0,0,0c0,0,0.1,0.1,0.1,0.1c0,0,0,0,0,0c0-0.2,0-0.4-0.1-0.6c0,0,0,0,0.1,0.1
			c0,0.1,0.1,0.2,0.1,0.3C6,8.9,6,9.2,6,9.5C6.1,9.6,6.1,9.8,6.1,9.9L6.1,9.9z M3.9,8.4L3.9,8.4C3.9,8.4,3.9,8.4,3.9,8.4
			C4,8.6,4.2,8.7,4.3,8.9C4.4,9,4.6,9.2,4.7,9.3c0,0,0,0,0.1,0c0.2,0,0.4,0.1,0.5,0.2c0,0,0.1,0,0.1,0.1l0.3,0.2l0.1,0.1l0,0
			c0,0,0,0,0,0C5.6,9.7,5.5,9.6,5.3,9.4C5.2,9.3,5,9.1,4.8,9C4.5,8.8,4.3,8.6,4.1,8.4C4,8.2,3.8,8,3.5,7.9l0,0c0,0,0,0,0,0
			c0.1,0.1,0.2,0.3,0.3,0.4S4,8.6,4.1,8.8C4.2,9,4.4,9.1,4.6,9.3c0,0,0.1,0,0.1,0.1l0,0C4.4,9,4.1,8.7,3.9,8.4L3.9,8.4z M3.2,7.7
			C3.2,7.7,3.2,7.7,3.2,7.7c0.2,0,0.4,0.1,0.5,0.2C3.7,8,3.8,8,3.8,8.1C3.9,8.1,4,8.2,4,8.3c0.1,0.2,0.3,0.3,0.5,0.4l0,0
			c0,0,0-0.1-0.1-0.1C4.4,8.4,4.3,8.1,4.1,7.8c0,0,0-0.1-0.1-0.1C4,7.7,3.8,7.6,3.7,7.5c-0.1,0-0.1-0.1-0.2-0.1
			c-0.1,0-0.1,0-0.1,0.1v0c0.1,0,0.1,0,0.2,0.1c0.1,0,0.1,0.1,0.2,0.1c-0.1,0-0.1-0.1-0.2-0.1c-0.1,0-0.2-0.1-0.3-0.1
			C3.2,7.6,3.2,7.6,3.2,7.7L3.2,7.7z M6.7,8.2C6.7,8.2,6.7,8.2,6.7,8.2L6.7,8.2c0-0.2,0-0.3,0-0.4c0-0.1,0-0.2-0.1-0.3
			C6.5,7.5,6.5,7.4,6.5,7.3V7.2C6.5,7.1,6.4,7,6.3,7c0,0,0,0,0,0h0c0,0-0.1,0-0.1,0c0,0,0,0-0.1,0C6.1,7.1,6,7.3,6.1,7.5
			c0,0,0,0,0.1,0c0.1,0,0.1,0.1,0.2,0.1c0,0,0,0.1,0.1,0.1c0,0,0.1,0.1,0.1,0.1c0,0,0.1,0.1,0.1,0.1c0,0,0,0.1,0,0.1
			S6.7,8.2,6.7,8.2L6.7,8.2z M5.9,9.5c-0.1,0.1-0.1,0.1,0,0.3c0,0,0,0.1,0.1,0.1c0,0,0,0.1,0,0.1C6,10,6,10,6,10c0,0,0-0.1,0-0.1
			c0-0.1,0-0.1,0-0.2c0,0,0-0.1-0.1-0.1C6,9.6,6,9.5,5.9,9.5L5.9,9.5z M5.7,9C5.7,8.9,5.7,8.9,5.7,9c0.1-0.1,0.1-0.1,0-0.2
			c0,0,0-0.1-0.1-0.1c0,0-0.1,0.1-0.1,0.1C5.6,8.9,5.6,8.9,5.7,9C5.6,9,5.7,9,5.7,9c0,0.1,0,0.1,0.1,0.2c0,0,0,0,0-0.1c0,0,0,0,0,0
			c0,0,0,0,0.1,0.1h0c0,0,0-0.1,0-0.1c0,0,0-0.1,0-0.1c0,0,0,0.1-0.1,0.1C5.8,8.9,5.8,8.9,5.7,9z M5.3,8c0,0-0.1,0-0.1,0
			c0,0,0,0,0,0c0,0,0,0.1,0,0.1c0,0,0,0,0.1,0c0,0,0,0,0,0c0,0,0,0,0,0C5.3,8.1,5.3,8.1,5.3,8C5.3,8.1,5.3,8.1,5.3,8
			c0,0.1,0.1,0.1,0.1,0.1c0,0,0-0.1,0.1-0.1c0,0,0-0.1,0-0.1S5.3,7.9,5.3,8C5.3,7.9,5.3,8,5.3,8L5.3,8z M6.2,9.3
			C6.2,9.3,6.2,9.3,6.2,9.3c0,0.2,0,0.4,0,0.6c0.1,0,0.1-0.1,0.1-0.1C6.3,9.6,6.3,9.5,6.2,9.3C6.2,9.4,6.2,9.3,6.2,9.3L6.2,9.3z
			 M4.6,8.4L4.6,8.4c0.1,0.1,0.1,0.1,0.1,0c0,0,0-0.1,0-0.1C4.7,8.2,4.7,8.3,4.6,8.4C4.6,8.3,4.6,8.3,4.6,8.4c-0.1-0.1-0.1,0-0.1,0
			c0,0,0,0,0,0.1C4.5,8.4,4.5,8.4,4.6,8.4C4.6,8.4,4.6,8.4,4.6,8.4L4.6,8.4z M5.5,9.1C5.5,9.1,5.5,9.1,5.5,9.1c0,0.1,0,0.1,0.1,0.1
			s0.1,0,0.1-0.1l0,0c0,0,0-0.1,0-0.1C5.6,8.9,5.6,9,5.5,9.1C5.5,9,5.5,9.1,5.5,9.1L5.5,9.1z M5,7.9C5,8,5.1,8,5.1,8
			c0,0,0.1-0.1,0.1-0.1s0-0.1-0.1-0.1S5,7.9,5,7.9L5,7.9z M5.2,7.7C5.2,7.6,5.2,7.5,5.2,7.7c-0.1-0.1-0.2,0-0.2,0
			c0,0.1,0,0.1,0.1,0.1C5.2,7.7,5.2,7.7,5.2,7.7L5.2,7.7z M5.3,7.9C5.3,7.9,5.3,7.9,5.3,7.9c0.1-0.1,0.1-0.2,0-0.2c0,0,0,0,0,0l0,0
			c0,0,0,0,0,0c0,0,0,0.1,0,0.1C5.2,7.9,5.2,7.9,5.3,7.9L5.3,7.9z M5.9,9.4L5.9,9.4C5.9,9.4,5.9,9.4,5.9,9.4c0-0.1,0-0.1,0-0.2
			c0,0,0,0,0,0C5.9,9.3,5.8,9.3,5.9,9.4C5.9,9.4,5.9,9.4,5.9,9.4C6,9.5,6,9.5,5.9,9.4C6,9.4,6,9.4,5.9,9.4C6,9.4,6,9.4,5.9,9.4
			L5.9,9.4L5.9,9.4z M4.7,7.8C4.6,7.8,4.6,7.7,4.7,7.8c-0.1-0.1-0.1,0-0.1,0c0,0,0,0-0.1,0.1c0,0,0,0.1,0,0.1c0,0,0,0,0.1,0
			C4.6,7.9,4.7,7.8,4.7,7.8L4.7,7.8z M4.7,8.6C4.8,8.7,4.8,8.7,4.7,8.6c0.1,0.1,0.1,0.1,0.2,0c0,0,0-0.1,0-0.1
			C4.9,8.6,4.9,8.6,4.7,8.6C4.8,8.6,4.8,8.6,4.7,8.6L4.7,8.6z M4.2,7.3C4.2,7.3,4.2,7.3,4.2,7.3c0,0.1,0.1,0,0.1,0c0,0,0,0,0,0
			c0,0,0-0.1,0-0.1c0,0,0,0-0.1,0C4.2,7.2,4.2,7.2,4.2,7.3L4.2,7.3z M4.2,7.4c0,0-0.1,0.1-0.1,0.1c0,0,0,0.1,0.1,0.1
			c0,0,0,0,0.1-0.1C4.3,7.4,4.2,7.4,4.2,7.4L4.2,7.4z M5.8,9.1c-0.1,0.1-0.1,0.2,0,0.2C5.9,9.2,5.9,9.1,5.8,9.1L5.8,9.1z M4.5,7.2
			C4.5,7.2,4.4,7.1,4.5,7.2C4.4,7.1,4.3,7.2,4.3,7.2C4.3,7.2,4.4,7.3,4.5,7.2C4.4,7.3,4.5,7.3,4.5,7.2C4.5,7.3,4.5,7.2,4.5,7.2
			L4.5,7.2z M4.7,8.6C4.7,8.6,4.7,8.6,4.7,8.6c0-0.1,0-0.1,0-0.1c0,0,0,0-0.1,0c0,0,0,0,0,0.1C4.6,8.6,4.6,8.6,4.7,8.6L4.7,8.6z
			 M4.5,7.2C4.5,7.2,4.6,7.2,4.5,7.2c0.1-0.1,0.1-0.2,0-0.2c0,0,0,0-0.1,0C4.5,7.1,4.4,7.1,4.5,7.2C4.5,7.2,4.5,7.2,4.5,7.2L4.5,7.2
			z M4.5,7C4.5,7,4.4,7,4.5,7C4.4,6.9,4.4,7,4.4,7C4.4,7,4.4,7.1,4.5,7L4.5,7C4.4,7.1,4.5,7,4.5,7L4.5,7z M4.6,7.4
			C4.6,7.3,4.6,7.3,4.6,7.4c0.1-0.1,0.1-0.2,0-0.2c0,0,0,0-0.1,0C4.5,7.3,4.6,7.3,4.6,7.4L4.6,7.4z M5.8,8.9c0.1,0,0.1-0.1,0-0.2
			c0,0,0,0-0.1,0c0,0,0,0,0,0C5.7,8.8,5.8,8.9,5.8,8.9L5.8,8.9z M4.6,7.3C4.6,7.3,4.5,7.3,4.6,7.3c-0.1,0-0.1,0-0.2,0
			C4.5,7.4,4.5,7.4,4.6,7.3C4.5,7.4,4.6,7.4,4.6,7.3L4.6,7.3z M4.7,8.7C4.7,8.8,4.7,8.8,4.7,8.7c0,0.1,0.1,0.1,0.2,0.1
			C4.8,8.8,4.8,8.8,4.7,8.7C4.8,8.7,4.7,8.7,4.7,8.7L4.7,8.7z M5.8,9.6c-0.1,0.1-0.1,0.1,0,0.2c0,0,0,0,0,0c0,0,0,0,0-0.1
			C5.8,9.7,5.8,9.6,5.8,9.6L5.8,9.6z M4.4,7.1C4.3,7,4.3,7,4.4,7.1C4.3,7,4.2,7,4.3,7C4.3,7.1,4.3,7.1,4.4,7.1
			C4.3,7.1,4.4,7.1,4.4,7.1L4.4,7.1z M6,10C6,9.9,5.9,9.9,6,10c0-0.1-0.1-0.1-0.1-0.1C5.9,9.9,5.9,9.9,6,10C5.9,9.9,5.9,10,6,10
			C5.9,10,5.9,10,6,10C5.9,10,5.9,10,6,10L6,10z M4.3,7.8C4.3,7.8,4.3,7.8,4.3,7.8c0-0.1,0-0.1-0.1-0.1c0,0,0,0,0,0.1
			C4.2,7.8,4.2,7.8,4.3,7.8C4.2,7.8,4.3,7.8,4.3,7.8L4.3,7.8z M3.9,6.7C3.9,6.8,4,6.8,3.9,6.7C4,6.8,4,6.8,4,6.8
			C4,6.7,4,6.7,3.9,6.7L3.9,6.7L3.9,6.7z M3.9,7C4,7.1,4,7.1,3.9,7c0.1,0.1,0.1,0,0.1,0C4,7,4,7,3.9,7C4,7,4,7,3.9,7L3.9,7z
			 M4.6,8.6c0,0.1,0.1,0.1,0.1,0C4.7,8.6,4.7,8.6,4.6,8.6L4.6,8.6z M4,6.7C4.1,6.7,4.1,6.8,4,6.7C4.1,6.8,4.1,6.7,4,6.7
			C4.1,6.7,4.1,6.7,4,6.7C4.1,6.7,4.1,6.7,4,6.7L4,6.7z M4.2,7.7c0-0.1,0-0.1-0.1-0.2C4.1,7.5,4.1,7.6,4.2,7.7
			C4.1,7.6,4.2,7.7,4.2,7.7L4.2,7.7z M4.3,6.6C4.3,6.7,4.3,6.7,4.3,6.6c0,0.1,0,0.1,0,0.1C4.3,6.8,4.4,6.7,4.3,6.6
			C4.3,6.7,4.3,6.7,4.3,6.6L4.3,6.6z M4.2,6.8C4.3,6.8,4.3,6.8,4.2,6.8c0-0.1,0-0.1,0-0.1s0,0,0,0C4.2,6.8,4.2,6.8,4.2,6.8L4.2,6.8z
			 M4.2,6.9C4.2,6.9,4.2,6.8,4.2,6.9c0-0.1,0-0.1,0-0.1C4.1,6.8,4.1,6.9,4.2,6.9L4.2,6.9z M5.9,9.8C5.9,9.8,5.8,9.8,5.9,9.8
			C5.8,9.7,5.8,9.8,5.9,9.8C5.8,9.8,5.8,9.8,5.9,9.8C5.9,9.8,5.9,9.8,5.9,9.8L5.9,9.8z M3.9,6.8C3.9,6.7,3.9,6.7,3.9,6.8
			C3.9,6.7,3.9,6.7,3.9,6.8C3.9,6.8,3.9,6.8,3.9,6.8C3.9,6.8,3.9,6.8,3.9,6.8L3.9,6.8z M5.9,9c0,0,0,0.1,0,0.1c0,0,0,0,0,0
			C6,9.1,6,9.1,5.9,9L5.9,9z M4.2,6.7C4.2,6.7,4.3,6.7,4.2,6.7c0-0.1,0-0.1,0-0.1c0,0,0,0-0.1,0C4.2,6.6,4.2,6.6,4.2,6.7
			C4.2,6.7,4.2,6.7,4.2,6.7L4.2,6.7z M4.2,6.7c0,0,0-0.1,0-0.1c0,0,0,0,0,0C4.1,6.6,4.1,6.6,4.2,6.7C4.1,6.7,4.2,6.7,4.2,6.7
			L4.2,6.7z M4,6.6C4,6.6,4,6.6,4,6.6c0,0.1,0,0.1,0,0.1S4.1,6.6,4,6.6C4,6.6,4,6.6,4,6.6L4,6.6z M4.1,7.5L4.1,7.5
			C4.1,7.5,4.1,7.4,4.1,7.5c0-0.1,0-0.1,0-0.1C4.1,7.4,4,7.4,4.1,7.5C4.1,7.5,4.1,7.5,4.1,7.5L4.1,7.5z M4,6.5C4,6.5,4,6.5,4,6.5
			L4,6.5C4,6.5,4,6.5,4,6.5C4,6.6,4,6.6,4,6.5C4,6.6,4,6.6,4,6.5C4,6.5,4,6.5,4,6.5L4,6.5z M5.3,9.3L5.3,9.3c0,0,0.1,0.1,0.1,0.1
			C5.4,9.3,5.4,9.3,5.3,9.3L5.3,9.3z M4.1,6.6C4.1,6.6,4.1,6.6,4.1,6.6C4.1,6.6,4.1,6.6,4.1,6.6C4.1,6.5,4.1,6.6,4.1,6.6
			C4.1,6.6,4.1,6.6,4.1,6.6C4.1,6.6,4.1,6.6,4.1,6.6L4.1,6.6z M3.9,6.6C3.9,6.6,3.9,6.6,3.9,6.6c0,0.1,0,0.1,0,0.1
			C3.9,6.7,4,6.6,3.9,6.6C4,6.6,3.9,6.6,3.9,6.6L3.9,6.6z M6,9.5C6,9.5,6,9.6,6,9.5c0,0.1,0,0.1,0,0.1C6,9.6,6,9.5,6,9.5L6,9.5z
			 M3.9,7L3.9,7c0,0,0,0.1,0,0.1L3.9,7C3.9,7,3.9,7,3.9,7L3.9,7z"/>
	</g>
	<g id="Grupo_391">
		<path id="Trazado_882" class="st1" d="M6.1,9.9c0-0.2,0-0.3-0.1-0.5C6,9.2,6,8.9,5.9,8.6c0-0.1,0-0.2-0.1-0.3c0,0,0-0.1-0.1-0.1
			c0.1,0.2,0.1,0.4,0.1,0.6c0,0,0,0,0,0c0-0.1,0-0.1-0.1-0.1c0,0,0,0,0,0c0,0,0,0,0,0c0,0-0.1-0.1-0.1-0.2c0,0,0,0,0,0
			c-0.1,0-0.1-0.1-0.1-0.1C5.6,8.1,5.5,8,5.4,7.9c0-0.1-0.1-0.1-0.1-0.2c0,0,0,0,0,0c-0.1,0-0.1-0.1,0-0.2c0-0.1,0.1-0.2,0.1-0.3
			s0.1-0.1,0.2-0.1l0.1,0.1c0,0.1,0,0.1-0.1,0.2c0,0,0,0,0,0c0-0.1,0.1-0.2,0.2-0.2c0,0.1,0,0.2,0,0.2h0c0-0.1,0-0.1,0-0.2
			c0-0.1,0-0.1,0.1-0.1C6,7.1,6,7.1,6.1,7c0,0.1,0,0.2-0.1,0.3c0,0.2,0,0.4,0,0.6c0.1,0.3,0.1,0.7,0.1,1C6.2,9.2,6.2,9.5,6.1,9.9
			C6.2,9.9,6.1,9.9,6.1,9.9L6.1,9.9z"/>
	</g>
	<g id="Grupo_392">
		<path id="Trazado_883" class="st1" d="M3.9,8.4C4.1,8.7,4.4,9,4.7,9.3l0,0c0,0-0.1,0-0.1-0.1C4.4,9.1,4.2,8.9,4.1,8.7
			C4,8.6,3.9,8.5,3.8,8.3S3.6,8.1,3.6,7.9c0,0,0,0,0,0l0,0C3.8,8,4,8.2,4.1,8.4C4.3,8.6,4.5,8.8,4.8,9C5,9.1,5.2,9.3,5.3,9.4
			c0.2,0.1,0.3,0.3,0.4,0.4c0,0,0,0,0,0l0,0L5.7,9.8L5.4,9.6c0,0-0.1,0-0.1-0.1C5.2,9.4,5,9.4,4.8,9.3c0,0,0,0-0.1,0
			C4.6,9.2,4.4,9,4.3,8.9C4.2,8.7,4,8.6,3.9,8.4C3.9,8.4,3.9,8.4,3.9,8.4L3.9,8.4z"/>
	</g>
	<g id="Grupo_393">
		<path id="Trazado_884" class="st1" d="M3.2,7.7c0-0.1,0-0.1,0.1-0.2c0.1,0,0.2,0.1,0.3,0.1c0.1,0,0.1,0.1,0.2,0.1
			c-0.1,0-0.1-0.1-0.2-0.1c-0.1,0-0.1-0.1-0.2-0.1c0-0.1,0.1-0.1,0.1-0.1c0,0,0,0,0,0h0c0.1,0,0.1,0.1,0.2,0.1
			C3.8,7.6,4,7.7,4.1,7.8c0,0,0.1,0,0.1,0.1c0.1,0.3,0.3,0.5,0.4,0.8c0,0,0,0.1,0.1,0.1c0,0,0,0,0,0C4.4,8.6,4.2,8.4,4,8.3
			C4,8.2,3.9,8.1,3.8,8.1C3.8,8,3.7,8,3.7,7.9C3.5,7.8,3.4,7.7,3.2,7.7C3.2,7.7,3.2,7.7,3.2,7.7z"/>
	</g>
	<g id="Grupo_394">
		<path id="Trazado_885" class="st1" d="M6.7,8.2c0,0,0-0.1-0.1-0.1s0-0.1,0-0.1c0,0,0-0.1-0.1-0.1c0,0-0.1,0-0.1-0.1
			c0,0-0.1-0.1-0.1-0.1c0-0.1-0.1-0.1-0.2-0.1c0,0,0,0-0.1,0C6,7.3,6.1,7.1,6.2,7c0,0,0,0,0.1,0c0,0,0.1,0,0.1,0
			c0.1,0,0.2,0.1,0.2,0.2v0v0.1c0,0.1,0,0.2,0.1,0.2c0.1,0.1,0.1,0.2,0.1,0.3C6.7,7.9,6.7,8,6.7,8.2L6.7,8.2
			C6.7,8.2,6.7,8.2,6.7,8.2z"/>
	</g>
	<g id="Grupo_395">
		<path id="Trazado_886" class="st1" d="M5,8.7C5,8.7,5.1,8.7,5,8.7c0.1-0.1,0.1-0.1,0.2-0.1c0,0,0,0.1,0,0.1c0,0,0,0,0,0
			c0.1,0,0.1,0.1,0.1,0.2l0,0L5.2,9c0,0,0,0-0.1,0c0,0,0,0,0,0c0,0-0.1-0.1,0-0.1L5,8.8c0,0,0,0,0,0c0,0-0.1,0-0.1,0.1
			c0,0-0.1-0.1-0.1-0.1C4.9,8.7,4.9,8.7,5,8.7L5,8.7L5,8.7z"/>
	</g>
	<g id="Grupo_396">
		<path id="Trazado_887" class="st1" d="M4.7,7.7C4.7,7.7,4.6,7.7,4.7,7.7C4.6,7.7,4.6,7.7,4.7,7.7L4.5,7.8c0,0,0,0-0.1,0
			c0,0,0,0,0,0c0,0-0.1,0.1-0.1,0.1c0,0,0,0-0.1-0.1c0-0.1,0-0.1,0.1-0.1c0,0.1,0.1,0,0.1,0c0.1-0.1,0.1-0.1,0.1,0
			c0,0,0.1-0.1,0.1-0.1c0,0,0,0,0.1,0c0,0,0,0,0,0c0,0,0-0.1,0.1-0.1c0,0,0.1,0.1,0,0.1c0,0,0,0,0,0C4.8,7.6,4.8,7.6,4.7,7.7
			c0.1-0.1,0.1-0.1,0.1-0.1C4.7,7.6,4.7,7.6,4.7,7.7L4.7,7.7z"/>
	</g>
	<g id="Grupo_397">
		<path id="Trazado_888" class="st1" d="M4.9,8.4C4.8,8.4,4.8,8.5,4.9,8.4c0,0.1-0.1,0.2-0.1,0.2c0,0-0.1,0-0.1-0.1c0,0,0,0,0-0.1
			c0,0,0,0,0.1-0.1C4.8,8.4,4.8,8.4,4.9,8.4L4.9,8.4c-0.1-0.1-0.1-0.2,0-0.3c0,0,0,0,0.1,0c0,0,0,0,0.1,0.1c0-0.1,0-0.1,0.1-0.2
			s0.1,0,0.1,0s0,0.1,0,0.1l0,0c0,0,0,0-0.1,0c0,0,0,0-0.1,0C4.9,8.3,4.9,8.4,4.9,8.4L4.9,8.4z"/>
	</g>
	<g id="Grupo_398">
		<path id="Trazado_889" class="st1" d="M4.9,7.9C4.9,7.9,4.9,7.9,4.9,7.9C5,7.9,5,8,5,8c0,0,0,0,0,0c0,0.1-0.1,0.1-0.1,0
			c0,0.1,0,0.1-0.1,0.1c0,0-0.1,0-0.1,0l0,0c0,0,0-0.1,0-0.1s0,0,0.1-0.1l0,0l0,0c0,0,0,0.1-0.1,0c0,0-0.1-0.1,0-0.1c0,0,0,0,0,0
			c0,0,0-0.1,0.1-0.1c0,0,0.1,0.1,0.1,0.1l0.1,0C4.9,8,4.9,8,4.9,7.9L4.9,7.9z"/>
	</g>
	<g id="Grupo_399">
		<path id="Trazado_890" class="st1" d="M4.5,7.9C4.5,7.9,4.5,7.9,4.5,7.9C4.6,8,4.6,8.1,4.6,8.2c0,0,0,0.1,0,0.1l0,0
			c-0.1,0.1-0.1,0.1-0.1,0c0,0,0,0,0,0.1c0,0-0.1,0-0.1-0.1c0,0,0,0,0-0.1c0,0,0,0,0,0c0.1,0,0.1,0,0.1,0c0,0-0.1,0.1-0.1,0
			c0,0-0.1,0-0.1,0c0,0,0,0-0.1-0.1c0,0,0,0,0-0.1C4.4,8,4.4,8,4.5,7.9C4.4,8,4.5,8,4.5,7.9L4.5,7.9z"/>
	</g>
	<g id="Grupo_400">
		<path id="Trazado_891" class="st1" d="M5.9,9.5c0,0,0.1,0.1,0,0.2C6,9.7,6,9.7,6,9.7c0,0.1,0,0.1,0,0.2c0,0,0,0.1,0,0.1
			C6,10,6,10,6,9.9c0,0,0,0,0-0.1c0,0-0.1,0-0.1-0.1C5.8,9.6,5.8,9.6,5.9,9.5z"/>
	</g>
	<g id="Grupo_401">
		<path id="Trazado_892" class="st1" d="M5.4,8.7C5.4,8.7,5.4,8.6,5.4,8.7c0.1,0,0.1,0.1,0.1,0.1c0,0,0.1,0,0.1,0c0,0,0,0.1,0,0.1h0
			L5.5,9C5.4,9,5.4,8.9,5.4,8.9C5.3,8.9,5.3,8.8,5.4,8.7L5.4,8.7L5.4,8.7z"/>
	</g>
	<g id="Grupo_402">
		<path id="Trazado_893" class="st1" d="M5.6,9.3C5.6,9.4,5.5,9.4,5.6,9.3C5.5,9.4,5.5,9.4,5.4,9.4c0,0,0,0,0,0c0,0,0-0.1,0-0.1
			c0,0,0,0,0,0C5.5,9.2,5.5,9.2,5.6,9.3c0-0.1,0.1-0.2,0.1-0.2c0,0,0,0,0,0c0,0,0.1,0.1,0.1,0.1c0,0,0,0.1-0.1,0.1
			C5.7,9.3,5.7,9.3,5.6,9.3C5.6,9.3,5.6,9.3,5.6,9.3C5.6,9.3,5.6,9.3,5.6,9.3L5.6,9.3z"/>
	</g>
	<g id="Grupo_403">
		<path id="Trazado_894" class="st1" d="M5.7,9c0.1-0.1,0.1-0.1,0.1,0c0,0,0-0.1,0.1-0.1c0,0,0,0.1,0,0.1c0,0,0,0.1,0,0.1h0
			c0,0,0,0-0.1-0.1c0,0,0,0,0,0c0,0,0,0.1,0,0.1C5.7,9.1,5.7,9.1,5.7,9C5.7,9,5.6,9,5.7,9C5.6,8.9,5.6,8.9,5.6,8.8
			c0,0,0-0.1,0.1-0.1c0,0,0,0,0.1,0.1C5.7,8.8,5.7,8.9,5.7,9C5.7,8.9,5.7,8.9,5.7,9z"/>
	</g>
	<g id="Grupo_404">
		<path id="Trazado_895" class="st1" d="M5.4,8.5L5.4,8.5c-0.1,0-0.1,0-0.1-0.1c0,0,0,0,0-0.1s0-0.1,0-0.1c0,0,0-0.1,0.1-0.1
			c0,0,0,0,0.1,0l0,0c0,0.1,0,0.1,0,0.1c0,0,0.1,0,0.1,0l0,0C5.5,8.4,5.4,8.4,5.4,8.5L5.4,8.5z"/>
	</g>
	<g id="Grupo_405">
		<path id="Trazado_896" class="st1" d="M5.7,8.6c0,0.1,0,0.1-0.1,0.2c-0.1,0-0.1-0.1-0.1-0.2c0,0-0.1,0-0.1,0c0-0.1-0.1-0.1,0-0.2
			l0,0c0,0,0,0,0.1,0s0,0.1,0,0.1C5.6,8.6,5.6,8.6,5.7,8.6L5.7,8.6z"/>
	</g>
	<g id="Grupo_406">
		<path id="Trazado_897" class="st1" d="M5.3,8C5.3,8,5.3,7.9,5.3,8c0-0.1,0.1-0.1,0.1-0.1c0,0,0.1,0.1,0,0.1c0,0,0,0.1-0.1,0.1
			C5.3,8.1,5.3,8.1,5.3,8C5.3,8.1,5.3,8.1,5.3,8c0,0.1,0,0.1,0,0.2c0,0,0,0-0.1,0c0,0,0,0,0,0c0,0-0.1-0.1,0-0.1c0,0,0,0,0,0
			C5.2,8,5.2,7.9,5.3,8z"/>
	</g>
	<g id="Grupo_407">
		<path id="Trazado_898" class="st1" d="M4.9,7.9L4.9,7.9C4.9,7.9,4.9,7.9,4.9,7.9C4.8,8,4.8,8,4.9,7.9c-0.1,0-0.1,0-0.1-0.1
			c0,0,0.1-0.1,0.1-0.1c0,0,0,0,0.1,0c0,0,0,0,0-0.1c0,0,0-0.1,0.1,0c0,0,0,0.1,0,0.1c0,0,0,0.1,0,0.1L4.9,7.9
			C4.9,7.9,4.9,7.9,4.9,7.9z"/>
	</g>
	<g id="Grupo_408">
		<path id="Trazado_899" class="st1" d="M4.7,7.7C4.7,7.7,4.7,7.7,4.7,7.7c0.1-0.1,0.1-0.1,0.1,0c0,0,0-0.1,0.1-0.1c0,0,0,0,0.1,0
			c0,0,0,0.1,0,0.1c0,0,0,0.1-0.1,0.1c0,0,0,0-0.1,0c0,0,0,0.1-0.1,0.1c0,0-0.1,0-0.1,0C4.7,7.8,4.7,7.8,4.7,7.7
			C4.7,7.7,4.7,7.7,4.7,7.7L4.7,7.7z"/>
	</g>
	<g id="Grupo_409">
		<path id="Trazado_900" class="st1" d="M5.3,8.9L5.3,8.9C5.4,8.9,5.4,9,5.4,9l0,0c0,0,0,0-0.1,0.1c0,0-0.1,0-0.1,0
			C5.2,9.2,5.1,9.2,5,9.1c0,0,0,0,0-0.1h0.1c0,0,0,0,0.1,0C5.2,9,5.3,9,5.3,8.9z"/>
	</g>
	<g id="Grupo_410">
		<path id="Trazado_901" class="st1" d="M5.4,9.1L5.4,9.1C5.4,9,5.5,9.1,5.4,9.1c0.1,0.1,0.1,0.1,0.1,0.2c0,0,0,0,0,0
			c-0.1,0.1-0.1,0.1-0.1,0c0,0,0,0-0.1,0c0,0,0-0.1-0.1-0.1c0,0,0,0,0.1,0s0,0,0.1,0C5.3,9.1,5.4,9.1,5.4,9.1z"/>
	</g>
	<g id="Grupo_411">
		<path id="Trazado_902" class="st1" d="M6.2,9.3C6.2,9.3,6.2,9.4,6.2,9.3c0,0.2,0.1,0.3,0.1,0.4c0,0,0,0.1-0.1,0.1
			C6.2,9.7,6.2,9.5,6.2,9.3C6.2,9.3,6.2,9.3,6.2,9.3z"/>
	</g>
	<g id="Grupo_412">
		<path id="Trazado_903" class="st1" d="M5.7,9.5c0,0,0,0.1,0,0.1c0,0,0,0.1-0.1,0c0,0-0.1-0.1-0.1-0.1c0,0-0.1,0-0.1-0.1
			c0-0.1,0.1-0.1,0.1-0.1l0,0C5.6,9.3,5.7,9.4,5.7,9.5L5.7,9.5L5.7,9.5z"/>
	</g>
	<g id="Grupo_413">
		<path id="Trazado_904" class="st1" d="M4.1,7.2C4.1,7.2,4.1,7.2,4.1,7.2L4,7.2c0,0,0-0.1,0-0.1C4,7.1,4.1,7.1,4.1,7.2L4.1,7.2
			l0-0.1c0,0,0-0.1,0-0.1c0,0,0-0.1,0-0.1c0,0,0,0,0,0c0,0,0,0,0,0c0,0,0,0.1,0,0.1c0,0,0,0,0,0C4.2,7.1,4.3,7.1,4.1,7.2
			C4.2,7.2,4.2,7.2,4.1,7.2L4.1,7.2z"/>
	</g>
	<g id="Grupo_414">
		<path id="Trazado_905" class="st1" d="M4.6,8.4C4.6,8.4,4.6,8.4,4.6,8.4c0,0.1-0.1,0.1-0.1,0c0,0,0,0,0-0.1
			C4.5,8.3,4.5,8.3,4.6,8.4C4.6,8.3,4.6,8.3,4.6,8.4c0.1-0.1,0.1-0.1,0.1-0.1c0,0,0,0.1,0,0.1C4.7,8.5,4.6,8.5,4.6,8.4L4.6,8.4z"/>
	</g>
	<g id="Grupo_415">
		<path id="Trazado_906" class="st1" d="M4.4,7.5C4.4,7.5,4.4,7.5,4.4,7.5C4.4,7.4,4.5,7.4,4.4,7.5c0.1,0,0.1,0,0.1,0.1
			c0,0,0,0.1-0.1,0.1c0,0-0.1,0-0.1,0c0,0,0,0,0,0c0,0,0,0-0.1,0c0,0,0-0.1,0-0.1c0,0,0-0.1,0-0.1C4.3,7.5,4.3,7.5,4.4,7.5
			C4.3,7.6,4.4,7.5,4.4,7.5L4.4,7.5z"/>
	</g>
	<g id="Grupo_416">
		<path id="Trazado_907" class="st1" d="M4.8,7.3c0,0,0,0.1,0,0.1c0,0-0.1,0.1-0.1,0c0,0,0,0.1-0.1,0.1c0,0,0,0-0.1,0c0,0,0,0,0-0.1
			c0,0,0,0,0,0v0c0-0.1,0-0.1,0.1-0.1C4.6,7.3,4.7,7.3,4.8,7.3L4.8,7.3z"/>
	</g>
	<g id="Grupo_417">
		<path id="Trazado_908" class="st1" d="M5,8.7L5,8.7C5,8.7,5,8.7,5,8.7C4.9,8.6,4.9,8.6,5,8.5c0,0,0,0,0,0s0-0.1,0.1,0
			c0,0,0.1,0.1,0,0.1C5.1,8.6,5.1,8.6,5,8.7C5,8.7,5,8.7,5,8.7z"/>
	</g>
	<g id="Grupo_418">
		<path id="Trazado_909" class="st1" d="M5.5,9.1C5.5,9.1,5.5,9,5.5,9.1C5.6,9,5.6,8.9,5.6,9c0,0,0.1,0.1,0,0.1l0,0
			c0,0,0,0.1-0.1,0.1S5.5,9.2,5.5,9.1C5.5,9.1,5.5,9.1,5.5,9.1z"/>
	</g>
	<g id="Grupo_419">
		<path id="Trazado_910" class="st1" d="M4.9,8.4c0,0,0.1-0.1,0.1-0.1c0,0,0.1,0,0.1,0c0,0,0,0.1,0,0.1c0,0-0.1,0.1-0.1,0.1
			c0,0-0.1,0-0.1,0C4.9,8.5,4.9,8.5,4.9,8.4L4.9,8.4z"/>
	</g>
	<g id="Grupo_420">
		<path id="Trazado_911" class="st1" d="M5.4,8.7L5.4,8.7c0,0-0.1,0.1-0.1,0c0-0.1-0.1-0.1,0-0.2c0,0,0,0,0,0l0,0c0,0,0,0,0.1,0
			S5.4,8.6,5.4,8.7L5.4,8.7L5.4,8.7z"/>
	</g>
	<g id="Grupo_421">
		<path id="Trazado_912" class="st1" d="M5,7.9c0-0.1,0-0.1,0.1-0.1c0,0,0.1,0.1,0.1,0.1S5.1,8,5.1,8C5.1,8,5,8,5,7.9z"/>
	</g>
	<g id="Grupo_422">
		<path id="Trazado_913" class="st1" d="M5.2,7.7c0,0-0.1,0.1-0.1,0.1c0,0-0.1-0.1-0.1-0.1C5.1,7.6,5.1,7.6,5.2,7.7
			C5.2,7.5,5.2,7.6,5.2,7.7z"/>
	</g>
	<g id="Grupo_423">
		<path id="Trazado_914" class="st1" d="M5.3,8.5C5.3,8.5,5.3,8.5,5.3,8.5c-0.1,0-0.1,0.1-0.1,0c0,0,0-0.1,0-0.1c0,0,0,0,0,0l0,0
			c0,0,0-0.1,0.1-0.1C5.3,8.4,5.3,8.4,5.3,8.5L5.3,8.5z"/>
	</g>
	<g id="Grupo_424">
		<path id="Trazado_915" class="st1" d="M5.1,8.2L5.1,8.2C5.1,8.2,5.2,8.2,5.1,8.2c0.1,0,0.1,0.1,0.1,0.1c0,0-0.1,0.1-0.1,0.1
			c0,0,0,0,0,0C5,8.4,5,8.3,5.1,8.2C5.1,8.2,5.1,8.2,5.1,8.2z"/>
	</g>
	<g id="Grupo_425">
		<path id="Trazado_916" class="st1" d="M5.3,7.9c-0.1,0-0.1-0.1-0.1-0.1c0,0,0-0.1,0-0.1c0,0,0,0,0,0C5.3,7.7,5.4,7.8,5.3,7.9
			L5.3,7.9C5.3,7.9,5.3,7.9,5.3,7.9z"/>
	</g>
	<g id="Grupo_426">
		<path id="Trazado_917" class="st1" d="M4.5,6.9C4.4,6.9,4.4,6.9,4.5,6.9L4.3,7l0-0.1C4.3,6.8,4.3,6.8,4.5,6.9
			C4.4,6.8,4.4,6.8,4.4,6.7c0,0,0,0,0.1,0C4.5,6.8,4.5,6.8,4.5,6.9C4.5,6.8,4.5,6.8,4.5,6.9L4.5,6.9z"/>
	</g>
	<g id="Grupo_427">
		<path id="Trazado_918" class="st1" d="M4.1,6.9C4.1,7,4,7,4,7c0,0-0.1,0-0.1,0c0,0,0,0,0,0c0-0.1,0.1,0,0.1-0.1c0,0,0,0,0,0
			C4,6.8,4.1,6.8,4.1,6.9C4.1,6.9,4.1,6.9,4.1,6.9L4.1,6.9z"/>
	</g>
	<g id="Grupo_428">
		<path id="Trazado_919" class="st1" d="M5.9,9.4C5.9,9.4,6,9.4,5.9,9.4C6,9.3,6,9.3,5.9,9.4C6,9.4,6,9.4,5.9,9.4
			C6,9.5,6,9.5,5.9,9.4C5.9,9.4,5.9,9.4,5.9,9.4c-0.1-0.1-0.1-0.2,0-0.2c0,0,0,0,0,0C6,9.3,6,9.3,5.9,9.4C5.9,9.4,5.9,9.4,5.9,9.4
			L5.9,9.4z"/>
	</g>
	<g id="Grupo_429">
		<path id="Trazado_920" class="st1" d="M5.5,8.3L5.5,8.3C5.5,8.3,5.5,8.2,5.5,8.3L5.5,8.3c0.1-0.1,0.1-0.1,0.1,0c0,0,0,0.1,0,0.1
			l0,0c0,0,0,0-0.1,0C5.5,8.4,5.5,8.4,5.5,8.3C5.5,8.4,5.5,8.3,5.5,8.3z"/>
	</g>
	<g id="Grupo_430">
		<path id="Trazado_921" class="st1" d="M4.7,7.8c0,0.1-0.1,0.1-0.1,0.1c0,0,0,0-0.1,0c0,0,0-0.1,0-0.1c0,0,0,0,0.1-0.1
			C4.6,7.7,4.6,7.7,4.7,7.8C4.6,7.7,4.6,7.8,4.7,7.8z"/>
	</g>
	<g id="Grupo_431">
		<path id="Trazado_922" class="st1" d="M5,7.5C5,7.5,4.9,7.5,5,7.5C4.9,7.5,4.9,7.5,5,7.5C4.9,7.4,4.9,7.4,5,7.5
			C4.9,7.4,4.9,7.3,4.9,7.3c0,0,0.1,0,0.1,0.1C5,7.4,5,7.4,5,7.5L5,7.5z"/>
	</g>
	<g id="Grupo_432">
		<path id="Trazado_923" class="st1" d="M4.4,7.5L4.4,7.5C4.3,7.5,4.3,7.5,4.4,7.5c-0.1,0-0.1,0-0.1-0.1c0,0,0-0.1,0.1-0.1
			c0,0,0.1,0,0.1,0C4.4,7.4,4.4,7.4,4.4,7.5C4.4,7.4,4.4,7.5,4.4,7.5z"/>
	</g>
	<g id="Grupo_433">
		<path id="Trazado_924" class="st1" d="M4.8,7.2L4.8,7.2C4.7,7.2,4.7,7.3,4.8,7.2c-0.1,0-0.1-0.1-0.1-0.1C4.7,7,4.7,7,4.8,7
			S4.8,7.1,4.8,7.2L4.8,7.2L4.8,7.2z"/>
	</g>
	<g id="Grupo_434">
		<path id="Trazado_925" class="st1" d="M5,7.5L5,7.5C5,7.5,5,7.5,5,7.5C5,7.4,5,7.4,5,7.5c0.1,0,0.1,0,0.1,0c0,0.1,0,0.1-0.1,0.1
			C5,7.6,5,7.5,5,7.5z"/>
	</g>
	<g id="Grupo_435">
		<path id="Trazado_926" class="st1" d="M5.6,8.4c0,0,0.1,0,0.1,0c0,0,0,0,0,0v0c0,0,0,0.1,0,0.1c0,0-0.1,0-0.1,0
			C5.5,8.5,5.5,8.4,5.6,8.4L5.6,8.4z"/>
	</g>
	<g id="Grupo_436">
		<path id="Trazado_927" class="st1" d="M5.8,9.4C5.8,9.4,5.8,9.4,5.8,9.4C5.9,9.4,5.9,9.5,5.8,9.4c0.1,0.1,0,0.2,0,0.2
			c0,0,0,0-0.1,0C5.7,9.5,5.7,9.5,5.8,9.4C5.8,9.5,5.8,9.5,5.8,9.4C5.8,9.4,5.8,9.4,5.8,9.4z"/>
	</g>
	<g id="Grupo_437">
		<path id="Trazado_928" class="st1" d="M5.1,9C5.1,9,5.1,9,5.1,9C5,9.1,5,9.1,5,9c0,0,0,0,0-0.1c0,0,0,0,0,0s0-0.1,0.1,0
			C5.1,8.9,5.1,8.9,5.1,9C5.1,9,5.1,9,5.1,9L5.1,9z"/>
	</g>
	<g id="Grupo_438">
		<path id="Trazado_929" class="st1" d="M5.5,8.2L5.5,8.2C5.4,8.2,5.4,8.2,5.5,8.2C5.4,8.2,5.4,8.2,5.5,8.2c-0.1,0-0.1,0-0.1,0l0,0
			c0-0.1,0-0.1,0.1-0.1c0,0,0,0,0,0C5.5,8.1,5.5,8.1,5.5,8.2C5.5,8.1,5.5,8.2,5.5,8.2z"/>
	</g>
	<g id="Grupo_439">
		<path id="Trazado_930" class="st1" d="M4.7,8.6C4.8,8.6,4.8,8.6,4.7,8.6c0.1-0.1,0.1-0.1,0.2,0c0,0,0,0.1,0,0.1c0,0-0.1,0-0.1,0
			C4.8,8.7,4.8,8.7,4.7,8.6z"/>
	</g>
	<g id="Grupo_440">
		<path id="Trazado_931" class="st1" d="M4.5,6.9L4.5,6.9C4.5,6.8,4.5,6.8,4.5,6.9c0.1-0.1,0.1,0,0.1,0c0,0,0,0,0,0.1c0,0,0,0,0,0.1
			l0,0c0,0,0,0-0.1,0.1C4.5,7,4.4,6.9,4.5,6.9z"/>
	</g>
	<g id="Grupo_441">
		<path id="Trazado_932" class="st1" d="M4.6,7L4.6,7C4.6,6.9,4.6,6.9,4.6,7C4.6,6.9,4.6,6.9,4.6,7c0.1,0,0.1,0,0.1,0
			c0,0,0,0.1,0,0.1c0,0,0,0.1-0.1,0.1C4.6,7.1,4.5,7.1,4.6,7z"/>
	</g>
	<g id="Grupo_442">
		<path id="Trazado_933" class="st1" d="M5.8,9.4C5.8,9.4,5.8,9.4,5.8,9.4c0,0.1-0.1,0.1-0.1,0.1l0,0c0-0.1,0-0.1,0-0.1c0,0,0,0,0,0
			c0,0,0,0,0,0C5.8,9.3,5.8,9.3,5.8,9.4C5.8,9.4,5.8,9.4,5.8,9.4z"/>
	</g>
	<g id="Grupo_443">
		<path id="Trazado_934" class="st1" d="M4.8,7.3C4.8,7.3,4.8,7.2,4.8,7.3L4.8,7.3c0.1-0.2,0.1-0.2,0.1-0.1c0,0,0,0.1,0,0.1l0,0
			C4.8,7.4,4.8,7.4,4.8,7.3L4.8,7.3z"/>
	</g>
	<g id="Grupo_444">
		<path id="Trazado_935" class="st1" d="M4.2,7.3c0-0.1,0-0.1,0.1-0.1c0,0,0,0,0.1,0c0,0,0,0.1,0,0.1c0,0,0,0,0,0
			C4.3,7.3,4.2,7.4,4.2,7.3C4.2,7.3,4.2,7.3,4.2,7.3z"/>
	</g>
	<g id="Grupo_445">
		<path id="Trazado_936" class="st1" d="M4.2,7.4c0.1,0,0.1,0.1,0.1,0.1c0,0,0,0.1-0.1,0.1c0,0-0.1,0-0.1-0.1
			C4.1,7.4,4.1,7.4,4.2,7.4z"/>
	</g>
	<g id="Grupo_446">
		<path id="Trazado_937" class="st1" d="M4.3,7.9C4.3,7.9,4.3,7.9,4.3,7.9c0-0.1,0.1-0.2,0.1-0.1c0,0,0,0.1,0,0.1l0,0
			C4.4,8,4.4,8,4.3,7.9L4.3,7.9z"/>
	</g>
	<g id="Grupo_447">
		<path id="Trazado_938" class="st1" d="M5.8,9.1c0.1,0.1,0.1,0.1,0,0.2C5.7,9.2,5.7,9.2,5.8,9.1z"/>
	</g>
	<g id="Grupo_448">
		<path id="Trazado_939" class="st1" d="M5.7,8.7L5.7,8.7C5.7,8.6,5.7,8.6,5.7,8.7c0.1-0.1,0.1-0.1,0.1,0c0,0,0,0.1,0,0.1
			C5.7,8.8,5.7,8.7,5.7,8.7z"/>
	</g>
	<g id="Grupo_449">
		<path id="Trazado_940" class="st1" d="M4.5,7.2C4.5,7.3,4.5,7.3,4.5,7.2C4.4,7.3,4.4,7.3,4.5,7.2C4.4,7.3,4.4,7.3,4.5,7.2
			c-0.1,0.1-0.1,0-0.1-0.1c0,0,0,0,0.1,0C4.4,7.1,4.5,7.2,4.5,7.2z"/>
	</g>
	<g id="Grupo_450">
		<path id="Trazado_941" class="st1" d="M4.6,8.6c-0.1,0-0.1,0-0.1-0.1c0,0,0,0,0-0.1c0,0,0,0,0.1,0C4.6,8.5,4.7,8.5,4.6,8.6
			C4.7,8.6,4.7,8.6,4.6,8.6z"/>
	</g>
	<g id="Grupo_451">
		<path id="Trazado_942" class="st1" d="M4.5,7.3C4.5,7.2,4.5,7.2,4.5,7.3c-0.1-0.1,0-0.2,0-0.2c0,0,0,0,0.1,0c0,0,0,0,0,0
			C4.6,7.1,4.6,7.1,4.5,7.3C4.6,7.2,4.5,7.2,4.5,7.3z"/>
	</g>
	<g id="Grupo_452">
		<path id="Trazado_943" class="st1" d="M4.5,7C4.5,7,4.4,7.1,4.5,7C4.4,7.1,4.4,7.1,4.5,7c-0.1,0-0.1,0-0.1,0C4.4,7,4.4,6.9,4.5,7
			C4.4,7,4.5,7,4.5,7z"/>
	</g>
	<g id="Grupo_453">
		<path id="Trazado_944" class="st1" d="M4.6,7.4c0-0.1-0.1-0.1,0-0.2c0,0,0,0,0.1,0C4.7,7.2,4.7,7.2,4.6,7.4
			C4.6,7.3,4.6,7.3,4.6,7.4z"/>
	</g>
	<g id="Grupo_454">
		<path id="Trazado_945" class="st1" d="M5.8,8.9c0,0-0.1-0.1-0.1-0.1c0,0,0,0,0,0c0,0,0,0,0.1,0C5.9,8.8,5.9,8.9,5.8,8.9z"/>
	</g>
	<g id="Grupo_455">
		<path id="Trazado_946" class="st1" d="M4.6,7.3C4.6,7.4,4.5,7.4,4.6,7.3c-0.1,0.1-0.1,0-0.2,0C4.5,7.3,4.5,7.3,4.6,7.3
			C4.5,7.3,4.6,7.3,4.6,7.3z"/>
	</g>
	<g id="Grupo_456">
		<path id="Trazado_947" class="st1" d="M4.1,6.9L4.1,6.9C4.1,6.9,4.2,6.9,4.1,6.9C4.2,7,4.2,7,4.1,6.9c0.1,0.1,0,0.1,0,0.1
			c0,0,0,0,0,0C4.1,7,4.1,7,4.1,6.9L4.1,6.9C4.1,7,4.1,7,4.1,6.9z"/>
	</g>
	<g id="Grupo_457">
		<path id="Trazado_948" class="st1" d="M4.1,7.2L4.1,7.2c0,0,0,0.1,0,0.1c0,0,0,0.1-0.1,0C4.1,7.3,4.1,7.3,4.1,7.2
			C4.1,7.2,4.1,7.2,4.1,7.2z"/>
	</g>
	<g id="Grupo_458">
		<path id="Trazado_949" class="st1" d="M4.7,8.8C4.7,8.7,4.8,8.7,4.7,8.8c0.1,0,0.1,0.1,0.1,0.1C4.8,8.9,4.8,8.8,4.7,8.8L4.7,8.8z"
			/>
	</g>
	<g id="Grupo_459">
		<path id="Trazado_950" class="st1" d="M5.8,9.6c0,0,0,0.1,0,0.1c0,0,0,0,0,0c0,0,0,0,0,0C5.7,9.7,5.7,9.6,5.8,9.6z"/>
	</g>
	<g id="Grupo_460">
		<path id="Trazado_951" class="st1" d="M4.4,7.1C4.3,7.1,4.3,7.1,4.4,7.1c-0.1,0.1-0.1,0-0.1,0C4.3,7,4.3,7,4.4,7.1
			C4.3,7,4.3,7,4.4,7.1z"/>
	</g>
	<g id="Grupo_461">
		<path id="Trazado_952" class="st1" d="M4.3,7.9C4.3,7.9,4.3,8,4.3,7.9c-0.1,0-0.1,0-0.1,0c0,0,0,0,0-0.1s0,0,0,0
			C4.3,7.9,4.3,7.9,4.3,7.9L4.3,7.9z"/>
	</g>
	<g id="Grupo_462">
		<path id="Trazado_953" class="st1" d="M6,10C5.9,10,5.9,10,6,10C5.9,10,5.9,10,6,10C5.9,10,5.9,9.9,6,10C5.9,9.9,5.9,9.9,5.9,9.9
			C5.9,9.9,5.9,9.9,6,10C5.9,9.9,5.9,9.9,6,10z"/>
	</g>
	<g id="Grupo_463">
		<path id="Trazado_954" class="st1" d="M4.3,7.8C4.2,7.8,4.2,7.8,4.3,7.8C4.2,7.8,4.2,7.8,4.2,7.7c0,0,0,0,0-0.1
			C4.2,7.7,4.2,7.7,4.3,7.8C4.3,7.8,4.3,7.8,4.3,7.8z"/>
	</g>
	<g id="Grupo_464">
		<path id="Trazado_955" class="st1" d="M3.9,6.7C3.9,6.7,4,6.7,3.9,6.7c0.1,0,0.1,0,0.1,0C4,6.8,4,6.8,3.9,6.7
			C4,6.8,3.9,6.8,3.9,6.7z"/>
	</g>
	<g id="Grupo_465">
		<path id="Trazado_956" class="st1" d="M3.9,7.1C4,7,4,7,3.9,7.1C4,7,4,7.1,4,7.1C4,7.1,4,7.1,3.9,7.1C4,7.1,4,7.1,3.9,7.1z"/>
	</g>
	<g id="Grupo_466">
		<path id="Trazado_957" class="st1" d="M4.6,8.7c0.1-0.1,0.1-0.1,0.1,0C4.7,8.7,4.7,8.7,4.6,8.7z"/>
	</g>
	<g id="Grupo_467">
		<path id="Trazado_958" class="st1" d="M4,6.7C4.1,6.7,4.1,6.7,4,6.7C4.1,6.7,4.1,6.7,4,6.7C4.1,6.8,4.1,6.8,4,6.7
			C4.1,6.8,4.1,6.8,4,6.7z"/>
	</g>
	<g id="Grupo_468">
		<path id="Trazado_959" class="st1" d="M4.2,7.7C4.2,7.7,4.1,7.6,4.2,7.7C4.1,7.6,4.1,7.6,4.1,7.5C4.2,7.6,4.2,7.6,4.2,7.7z"/>
	</g>
	<g id="Grupo_469">
		<path id="Trazado_960" class="st1" d="M4.3,6.6C4.3,6.7,4.3,6.7,4.3,6.6c0.1,0.1,0,0.1,0,0.1C4.3,6.8,4.3,6.7,4.3,6.6
			C4.3,6.7,4.3,6.7,4.3,6.6z"/>
	</g>
	<g id="Grupo_470">
		<path id="Trazado_961" class="st1" d="M4.2,6.9c0,0,0-0.1-0.1-0.1c0,0,0,0,0,0S4.3,6.8,4.2,6.9C4.3,6.8,4.3,6.8,4.2,6.9z"/>
	</g>
	<g id="Grupo_471">
		<path id="Trazado_962" class="st1" d="M4.2,6.9c0,0-0.1-0.1,0-0.1c0,0,0,0,0.1,0C4.2,6.9,4.2,6.9,4.2,6.9z"/>
	</g>
	<g id="Grupo_472">
		<path id="Trazado_963" class="st1" d="M5.9,9.8C5.9,9.8,5.8,9.9,5.9,9.8C5.8,9.8,5.8,9.8,5.9,9.8C5.8,9.8,5.8,9.8,5.9,9.8
			C5.8,9.8,5.9,9.8,5.9,9.8z"/>
	</g>
	<g id="Grupo_473">
		<path id="Trazado_964" class="st1" d="M3.9,6.8L3.9,6.8C3.9,6.8,3.9,6.8,3.9,6.8C3.9,6.7,3.9,6.7,3.9,6.8C3.9,6.7,3.9,6.7,3.9,6.8
			z"/>
	</g>
	<g id="Grupo_474">
		<path id="Trazado_965" class="st1" d="M5.9,9c0,0,0,0.1,0,0.1c0,0,0,0,0,0C5.9,9.1,5.9,9.1,5.9,9z"/>
	</g>
	<g id="Grupo_475">
		<path id="Trazado_966" class="st1" d="M4.2,6.7C4.2,6.7,4.2,6.7,4.2,6.7c0-0.1,0-0.1-0.1-0.1c0,0,0,0,0.1,0
			C4.3,6.6,4.3,6.6,4.2,6.7C4.3,6.7,4.2,6.7,4.2,6.7z"/>
	</g>
	<g id="Grupo_476">
		<path id="Trazado_967" class="st1" d="M4.2,6.8C4.1,6.7,4.1,6.7,4.2,6.8l0-0.1c0,0,0,0,0,0C4.2,6.7,4.2,6.7,4.2,6.8z"/>
	</g>
	<g id="Grupo_477">
		<path id="Trazado_968" class="st1" d="M4,6.6C4,6.6,4,6.6,4,6.6c0,0.1,0,0.1,0,0.1S4,6.7,4,6.6C4,6.6,4,6.6,4,6.6z"/>
	</g>
	<g id="Grupo_478">
		<path id="Trazado_969" class="st1" d="M4.1,7.5C4.1,7.5,4.1,7.5,4.1,7.5c0-0.1,0-0.1,0-0.1C4.1,7.4,4.1,7.4,4.1,7.5
			C4.1,7.4,4.1,7.5,4.1,7.5L4.1,7.5z"/>
	</g>
	<g id="Grupo_479">
		<path id="Trazado_970" class="st1" d="M4,6.5C4,6.5,4,6.5,4,6.5C4,6.6,4,6.6,4,6.5L4,6.5L4,6.5C4,6.5,4,6.5,4,6.5L4,6.5z"/>
	</g>
	<g id="Grupo_480">
		<path id="Trazado_971" class="st1" d="M5.3,9.3c0.1,0,0.1,0.1,0.1,0.1C5.3,9.4,5.3,9.3,5.3,9.3L5.3,9.3z"/>
	</g>
	<g id="Grupo_481">
		<path id="Trazado_972" class="st1" d="M4.1,6.7C4.1,6.6,4.1,6.6,4.1,6.7C4.1,6.6,4.1,6.6,4.1,6.7C4.1,6.6,4.1,6.6,4.1,6.7
			C4.1,6.6,4.1,6.6,4.1,6.7C4.1,6.6,4.1,6.6,4.1,6.7z"/>
	</g>
	<g id="Grupo_482">
		<path id="Trazado_973" class="st1" d="M3.9,6.6C3.9,6.6,4,6.6,3.9,6.6C3.9,6.7,3.9,6.7,3.9,6.6C3.9,6.7,3.9,6.7,3.9,6.6
			C3.9,6.6,3.9,6.6,3.9,6.6z"/>
	</g>
	<g id="Grupo_483">
		<path id="Trazado_974" class="st1" d="M6,9.5c0,0,0,0.1,0,0.1C6,9.6,6,9.6,6,9.5C6,9.5,6,9.5,6,9.5C6,9.5,6,9.5,6,9.5z"/>
	</g>
	<g id="Grupo_484">
		<path id="Trazado_975" class="st1" d="M3.9,7C3.9,7,3.9,7,3.9,7l0,0.1C3.9,7,3.9,7,3.9,7L3.9,7z"/>
	</g>
	<path id="Trazado_976" class="st1" d="M8.1,0.9C7.2,1.3,6.7,2.3,6.9,3.3c-0.4-1-0.1-2.2,0.9-2.7c0.9-0.4,2-0.1,2.4,0.8c0,0,0,0,0,0
		c0,0.1,0.1,0.1,0.1,0.2C9.8,0.8,8.9,0.5,8.1,0.9L8.1,0.9z"/>
	<path id="Trazado_977" class="st1" d="M8,10.8c-0.7,0.3-1,1-0.9,1.7c-0.3-0.7,0-1.6,0.7-2c0.6-0.3,1.4-0.1,1.8,0.6
		c0,0,0,0.1,0.1,0.1C9.3,10.7,8.6,10.4,8,10.8C8,10.8,8,10.8,8,10.8L8,10.8z"/>
	<g id="Grupo_488">
		<path id="Trazado_978" class="st0" d="M20.3,5.5l0,5.3l0,0c0.3,0,0.6,0.1,0.8,0.2c0.3,0.4,0.3,0.9,0,1.3c-0.2,0.2-0.5,0.3-0.8,0.3
			l-1.5,0c-0.3,0-0.6-0.1-0.8-0.2c-0.3-0.4-0.3-0.9,0-1.3c0.2-0.2,0.5-0.3,0.8-0.3l0-6.9c-0.2,0-0.5-0.1-0.6-0.3
			c-0.1-0.2-0.2-0.4-0.2-0.6c0-0.2,0.1-0.5,0.2-0.6c0.2-0.2,0.5-0.3,0.8-0.3l1.8,0l2.3,5.3L25,2l2,0l0.1,8.7c0.3,0,0.6,0.1,0.8,0.2
			c0.2,0.2,0.3,0.4,0.2,0.6c0,0.2-0.1,0.5-0.2,0.6c-0.2,0.2-0.5,0.3-0.8,0.3l-1.5,0c-0.3,0-0.6-0.1-0.8-0.2
			c-0.2-0.2-0.3-0.4-0.3-0.6c0-0.2,0.1-0.5,0.2-0.6c0.2-0.2,0.5-0.3,0.8-0.3l0,0l0-5.3L23.6,10l-1.4,0L20.3,5.5z"/>
	</g>
	<g id="Grupo_489">
		<path id="Trazado_979" class="st0" d="M30.5,8.1l0,2.6l3.8,0l0,0c0-0.3,0-0.6,0.2-0.9c0.3-0.3,0.8-0.4,1.1-0.1
			c0,0,0.1,0.1,0.1,0.1c0.2,0.3,0.3,0.6,0.2,0.9l0,1.8l-7,0.1l0-8.7l0,0c-0.3,0-0.6-0.1-0.8-0.2c-0.3-0.4-0.3-0.9,0-1.3
			C28.2,2.1,28.5,2,28.8,2l7.1,0l0,1.8c0,0.3,0,0.6-0.2,0.9c-0.1,0.2-0.4,0.3-0.6,0.3c-0.2,0-0.4-0.1-0.6-0.3
			c-0.2-0.3-0.3-0.6-0.2-0.9l0,0l-3.8,0l0,2.6l1.4,0c0-0.3,0-0.6,0.1-0.9C32.2,5.1,32.4,5,32.7,5c0.2,0,0.4,0.1,0.6,0.3
			c0.2,0.3,0.3,0.6,0.2,0.9l0,2c0,0.3,0,0.5-0.1,0.8c-0.2,0.4-0.7,0.5-1.1,0.3c-0.1-0.1-0.3-0.2-0.3-0.3c-0.1-0.3-0.1-0.6-0.1-0.9
			L30.5,8.1z"/>
	</g>
	<g id="Grupo_490">
		<path id="Trazado_980" class="st0" d="M39.6,8l0,2.6l0,0c0.3,0,0.6,0.1,0.8,0.2c0.3,0.4,0.3,0.9,0,1.3c-0.2,0.2-0.5,0.3-0.8,0.3
			l-1.6,0c-0.3,0-0.6-0.1-0.8-0.2c-0.2-0.2-0.3-0.4-0.3-0.6c0-0.2,0.1-0.5,0.3-0.6c0.2-0.2,0.5-0.3,0.8-0.3l0,0l0-6.9h-0.3
			c-0.3,0-0.6-0.1-0.8-0.2c-0.3-0.4-0.3-0.9,0-1.3C37,2,37.3,1.9,37.6,1.9l7.7-0.1l0,1.8c0,0.3,0,0.6-0.2,0.9
			c-0.1,0.2-0.4,0.3-0.6,0.3c-0.2,0-0.4-0.1-0.6-0.3c-0.2-0.3-0.3-0.6-0.2-0.9l0,0l-4.1,0l0,2.6l1.4,0c0-0.3,0-0.6,0.1-0.9
			c0.1-0.3,0.4-0.4,0.7-0.4c0.2,0,0.4,0.1,0.6,0.3c0.2,0.3,0.3,0.6,0.2,0.9l0,2c0,0.3,0,0.6-0.2,0.9c-0.1,0.2-0.4,0.3-0.6,0.3
			c-0.3,0-0.6-0.2-0.7-0.4C41,8.6,41,8.3,41,8L39.6,8z"/>
	</g>
	<g id="Grupo_491">
		<path id="Trazado_981" class="st0" d="M52.9,2c0.1-0.1,0.2-0.2,0.3-0.3c0.3-0.2,0.7-0.1,1,0.1c0.2,0.3,0.3,0.6,0.2,0.9l0,1.5
			c0,0.3,0,0.6-0.2,0.9c-0.1,0.2-0.4,0.3-0.6,0.3c-0.2,0-0.4-0.1-0.5-0.2c-0.2-0.2-0.3-0.5-0.3-0.7c0-0.2-0.1-0.4-0.2-0.6
			c-0.2-0.3-0.6-0.5-0.9-0.6C51.3,3.1,50.9,3,50.5,3c-0.5,0-0.9,0.1-1.3,0.4c-0.4,0.3-0.8,0.7-1.1,1.1c-0.3,0.6-0.5,1.2-0.5,1.9
			l0,1.2c0,0.8,0.3,1.6,0.9,2.1c0.6,0.6,1.5,0.9,2.4,0.8c0.5,0,1-0.1,1.5-0.3c0.3-0.1,0.6-0.4,0.8-0.6c0.1-0.1,0.2-0.3,0.4-0.4
			c0.1-0.1,0.2-0.1,0.3-0.1c0.2,0,0.4,0.1,0.6,0.3c0.2,0.2,0.3,0.4,0.3,0.6c0,0.3-0.1,0.6-0.3,0.8c-0.3,0.4-0.8,0.7-1.2,1
			c-0.7,0.3-1.5,0.5-2.3,0.5c-0.9,0-1.8-0.2-2.6-0.6c-0.7-0.4-1.2-0.9-1.6-1.6C46.2,9.3,46,8.5,46,7.6l0-1.2c0-0.9,0.2-1.8,0.6-2.6
			c0.4-0.8,0.9-1.4,1.6-1.9c0.7-0.4,1.4-0.7,2.2-0.7c0.4,0,0.9,0,1.3,0.2C52.1,1.6,52.5,1.7,52.9,2z"/>
	</g>
	<g id="Grupo_492">
		<path id="Trazado_982" class="st0" d="M62,1.9c0.1-0.1,0.2-0.3,0.3-0.3c0.1-0.1,0.2-0.1,0.4-0.1c0.2,0,0.4,0.1,0.6,0.3
			c0.2,0.3,0.3,0.6,0.2,0.9l0,1.5c0,0.3,0,0.6-0.2,0.9c-0.1,0.2-0.4,0.3-0.6,0.3c-0.2,0-0.4-0.1-0.5-0.2c-0.2-0.2-0.3-0.5-0.3-0.7
			c0-0.2-0.1-0.4-0.2-0.6c-0.2-0.3-0.6-0.5-0.9-0.6C60.4,3.1,60,3,59.6,3c-0.5,0-0.9,0.1-1.3,0.4c-0.4,0.3-0.8,0.7-1.1,1.1
			c-0.3,0.6-0.5,1.2-0.5,1.9l0,1.2c0,0.8,0.3,1.6,0.9,2.1c0.6,0.6,1.5,0.9,2.4,0.8c0.5,0,1-0.1,1.5-0.3c0.3-0.1,0.6-0.4,0.8-0.6
			c0.1-0.1,0.3-0.3,0.4-0.4c0.1-0.1,0.2-0.1,0.3-0.1c0.2,0,0.4,0.1,0.6,0.3c0.2,0.2,0.3,0.4,0.3,0.6c0,0.3-0.1,0.6-0.3,0.8
			c-0.3,0.4-0.8,0.7-1.2,1c-0.7,0.3-1.5,0.5-2.3,0.5c-0.9,0-1.8-0.2-2.6-0.6c-0.7-0.4-1.2-1-1.6-1.6c-0.4-0.7-0.7-1.6-0.7-2.4l0-1.2
			c0-0.9,0.2-1.8,0.6-2.6c0.4-0.8,0.9-1.4,1.6-1.9c0.7-0.4,1.4-0.7,2.2-0.7c0.4,0,0.9,0,1.3,0.2C61.3,1.5,61.7,1.7,62,1.9z"/>
	</g>
	<g id="Grupo_493">
		<path id="Trazado_983" class="st0" d="M71.7,9.2l-3.9,0l-0.4,1.1l0,0c0.3,0,0.6,0.1,0.8,0.2c0.3,0.4,0.3,0.9,0,1.3
			c-0.2,0.2-0.5,0.3-0.8,0.3l-1.8,0c-0.3,0-0.6-0.1-0.8-0.2c-0.2-0.2-0.3-0.4-0.3-0.6c0-0.2,0.1-0.5,0.3-0.7
			c0.2-0.2,0.6-0.3,0.9-0.2l2.5-7l0,0c-0.3,0-0.6-0.1-0.8-0.2c-0.3-0.4-0.3-0.9,0-1.3c0.2-0.2,0.5-0.3,0.8-0.3l2.5,0l3.3,8.7
			c0.3,0,0.5,0,0.8,0.1c0.2,0.2,0.4,0.5,0.4,0.8c0,0.2-0.1,0.5-0.2,0.6c-0.2,0.2-0.5,0.3-0.8,0.3l-1.8,0c-0.3,0-0.6-0.1-0.8-0.2
			c-0.2-0.2-0.3-0.4-0.2-0.6c0-0.2,0.1-0.5,0.2-0.6c0.2-0.2,0.5-0.3,0.8-0.3l0,0L71.7,9.2z M71,7.5L69.7,4l-1.3,3.5L71,7.5z"/>
	</g>
	<path id="Trazado_984" class="st0" d="M50.8,14.1c0,0.1,0,0.2,0,0.3s0,0.2-0.1,0.4l0,0.2H51l-0.1-0.3
		C50.9,14.5,50.9,14.3,50.8,14.1z"/>
	<path id="Trazado_985" class="st0" d="M63.5,14c0,0.1,0,0.2,0,0.3s0,0.2-0.1,0.4l0,0.2h0.3l-0.1-0.3C63.5,14.4,63.5,14.2,63.5,14z"
		/>
	<path id="Trazado_986" class="st0" d="M42,14.2c0,0.1,0,0.2,0,0.3s0,0.2-0.1,0.4l0,0.2h0.3L42,14.8C42,14.6,42,14.4,42,14.2z"/>
	<path id="Trazado_987" class="st0" d="M66.2,14c0,0.1,0,0.2,0,0.3s0,0.2-0.1,0.4l0,0.2h0.3l-0.1-0.3C66.2,14.4,66.2,14.2,66.2,14z"
		/>
	<path id="Trazado_988" class="st0" d="M43.1,14.2C43.1,14.2,43,14.1,43.1,14.2C43,14.1,43,14,43,14c0,0-0.1,0-0.1,0h0v0.6
		c0.1,0,0.1,0,0.2-0.1c0-0.1,0.1-0.1,0.1-0.2C43.1,14.3,43.1,14.2,43.1,14.2z"/>
	<path id="Trazado_989" class="st0" d="M45.4,14c-0.1,0-0.2,0.1-0.2,0.1c0,0.2,0,0.4,0,0.6c0,0.2,0,0.4,0,0.6c0,0.1,0.1,0.1,0.2,0.1
		s0.1,0,0.2-0.1c0-0.2,0-0.3,0-0.5c0-0.2,0-0.4,0-0.6C45.5,14,45.4,14,45.4,14z"/>
	<path id="Trazado_990" class="st0" d="M60.6,14c0,0.1,0,0.2,0,0.3s0,0.2-0.1,0.4l0,0.2h0.3l0-0.3C60.7,14.5,60.7,14.2,60.6,14z"/>
	<path id="Trazado_991" class="st0" d="M57.9,13.9L57.9,13.9l0,0.6c0.1,0,0.1,0,0.2-0.1c0-0.1,0.1-0.1,0.1-0.2c0-0.1,0-0.2-0.1-0.2
		C58.1,13.9,58,13.9,57.9,13.9z"/>
	<path id="Trazado_992" class="st0" d="M57,13.9c-0.1,0-0.1,0-0.2,0.1c0,0.2,0,0.4,0,0.6c0,0.2,0,0.4,0,0.6c0,0.1,0.1,0.1,0.2,0.1
		s0.1,0,0.2-0.1c0-0.2,0-0.3,0-0.5c0-0.2,0-0.4,0-0.6C57.2,13.9,57.1,13.9,57,13.9z"/>
	<path id="Trazado_993" class="st0" d="M56,13.9c-0.1,0-0.1,0-0.2,0.1c0,0.2,0,0.4,0,0.6c0,0.2,0,0.4,0,0.6c0,0.1,0.1,0.1,0.2,0.1
		s0.1,0,0.2-0.1c0-0.2,0-0.3,0-0.5c0-0.2,0-0.4,0-0.6C56.1,14,56,13.9,56,13.9z"/>
	<path id="Trazado_994" class="st0" d="M59.8,14C59.8,14,59.8,14,59.8,14c-0.1-0.1-0.1-0.1-0.1-0.2c0,0-0.1,0-0.1,0h0v0.6
		c0.1,0,0.1,0,0.2-0.1c0-0.1,0.1-0.1,0.1-0.2C59.8,14.1,59.8,14.1,59.8,14z"/>
	<path id="Trazado_995" class="st0" d="M51.9,14.1C51.9,14.1,51.9,14,51.9,14.1C51.8,14,51.8,14,51.8,14c0,0-0.1,0-0.1,0h0v0.6
		c0.1,0,0.1,0,0.2-0.1c0-0.1,0.1-0.1,0.1-0.2C51.9,14.2,51.9,14.2,51.9,14.1z"/>
	<path id="Trazado_996" class="st0" d="M53.2,14.1c0,0.1,0,0.2,0,0.3s0,0.2-0.1,0.4l0,0.2h0.3l-0.1-0.3
		C53.2,14.5,53.2,14.3,53.2,14.1z"/>
	<path id="Trazado_997" class="st0" d="M24.5,14.2c-0.1,0-0.1,0-0.2,0.1c0,0.2,0,0.4,0,0.6c0,0.2,0,0.4,0,0.6c0,0.1,0.1,0.1,0.2,0.1
		s0.1,0,0.2-0.1c0-0.2,0-0.3,0-0.5c0-0.2,0-0.4,0-0.6C24.7,14.2,24.6,14.2,24.5,14.2z"/>
	<path id="Trazado_998" class="st0" d="M73.2,13.9c0,0.1,0,0.2,0,0.3s0,0.2-0.1,0.4l0,0.2h0.3l-0.1-0.3
		C73.2,14.3,73.2,14.1,73.2,13.9z"/>
	<path id="Trazado_999" class="st0" d="M14,13.5c-0.7-0.3-1.5-0.4-2.2-0.3c-0.6,0.2-1.2,0.5-1.8,0.8c-0.6,0.1-1.2,0.2-1.8,0.3
		c-0.3,0-0.6,0.3-0.6,0.6c0,0,0,0,0,0c0,0.1,0,0.2,0.1,0.3c0.3,0.4,0.9,0.6,1.4,0.5c0.8-0.1,1.6-0.3,1.9-0.3c0.2,0,0.8,0.1,0.6,0.3
		c-0.9,0.3-1.9,0.5-2.8,0.5c-0.6,0-1.2-0.3-1.6-0.8l-1.7-1.1c0,0-0.7-0.4-0.9-0.3c-0.2,0.1-0.2,0.3-0.2,0.5c0.3,0.4,0.7,0.7,1.1,1
		c0.8,0.7,1.7,1.3,2.8,1.6c0.9,0.1,1.8,0,2.6-0.1c0.5-0.1,1-0.2,1.5-0.4c0.4-0.2,0.9-0.3,1.4-0.3L75,15.9l0-2.9L14,13.5z M17.4,15.9
		l0-0.6v-0.1l0-0.2l0-0.2v0c0,0,0,0,0,0v0c0,0,0,0.1,0,0.1s0,0.1,0,0.1l0,0.2l0,0.1l-0.1,0.8H17l-0.1-0.7c0-0.1,0-0.2-0.1-0.3
		s0-0.2,0-0.3l-0.1,1.3h-0.2l0.1-1.8h0.2l0.2,0.7c0,0.1,0,0.2,0,0.3s0,0.2,0,0.3c0,0,0,0,0,0v0l0-0.2l0-0.2l0-0.1l0.1-0.7h0.2
		l0.2,1.8L17.4,15.9z M18.1,15.9h-0.2l0-1.8h0.2L18.1,15.9z M19.2,15.8H19L18.7,15c0-0.1,0-0.2-0.1-0.2s0-0.2-0.1-0.3c0,0,0,0,0,0
		c0,0,0,0,0-0.1c0,0,0,0,0,0.1v0l0,0.2l0,0.2v0.1l0,0.8h-0.2l0-1.8h0.2l0.2,0.7c0.1,0.2,0.1,0.4,0.2,0.7c0-0.1,0-0.3,0-0.4
		s0-0.2,0-0.3V14h0.2L19.2,15.8z M19.8,15.8h-0.2l0-1.8h0.2L19.8,15.8z M20.6,15.7c-0.1,0.1-0.2,0.1-0.3,0.1c-0.1,0-0.2,0-0.2-0.1
		v-0.2c0.1,0.1,0.1,0.1,0.2,0.1c0.1,0,0.1,0,0.1-0.1c0-0.1,0.1-0.1,0.1-0.2c0-0.1,0-0.1,0-0.2c0,0,0-0.1-0.1-0.1
		c0,0-0.1-0.1-0.1-0.1c-0.1-0.1-0.1-0.1-0.1-0.2c0,0-0.1-0.1-0.1-0.1c0-0.1-0.1-0.2-0.1-0.3c0-0.1,0-0.2,0.1-0.3
		c0.1-0.1,0.2-0.1,0.3-0.1c0.1,0,0.2,0,0.2,0.1v0.2c-0.1,0-0.1-0.1-0.2-0.1c-0.1,0-0.1,0-0.1,0.1c0,0-0.1,0.1-0.1,0.2
		c0,0.1,0,0.1,0,0.2c0,0,0,0.1,0.1,0.1s0.1,0.1,0.1,0.1c0.1,0.1,0.1,0.2,0.2,0.3c0,0.1,0.1,0.2,0.1,0.3
		C20.7,15.5,20.7,15.6,20.6,15.7L20.6,15.7z M21.6,14.2h-0.3l0,1.6h-0.2l0-1.6h-0.3V14l0.7,0L21.6,14.2z M22.4,14.2H22v0.6h0.3V15
		H22v0.6h0.4v0.2l-0.6,0l0-1.8h0.6L22.4,14.2z M23.2,15.8l-0.3-0.9v0.9h-0.2l0-1.8h0.3c0.1,0,0.2,0,0.3,0.1c0.1,0.1,0.1,0.2,0.1,0.4
		c0,0.1,0,0.2-0.1,0.3c0,0.1-0.1,0.1-0.2,0.2l0.3,0.9H23.2z M23.8,15.8h-0.2l0-1.8h0.2L23.8,15.8z M24.9,15.6
		c-0.1,0.1-0.2,0.2-0.3,0.2c-0.1,0-0.3-0.1-0.3-0.2c-0.1-0.2-0.1-0.5-0.1-0.8c0-0.2,0-0.5,0.1-0.7c0.1-0.2,0.3-0.3,0.5-0.2
		c0.1,0,0.1,0.1,0.1,0.1c0.1,0.1,0.1,0.2,0.1,0.3c0,0.2,0,0.3,0,0.5C25,15.2,25,15.4,24.9,15.6L24.9,15.6z M26.5,15.4
		c0,0.1-0.1,0.2-0.1,0.3c-0.1,0.1-0.3,0.1-0.4,0.1h-0.2l0-1.8h0.3c0.1,0,0.1,0,0.2,0c0.1,0,0.1,0.1,0.1,0.1c0.1,0.1,0.1,0.2,0.1,0.3
		C26.6,14.7,26.6,15.1,26.5,15.4L26.5,15.4z M27.5,14.2h-0.4v0.6h0.3v0.2h-0.3v0.6h0.4v0.2h-0.6l0-1.8h0.6L27.5,14.2z M28.8,14.1
		h-0.4v0.6h0.3v0.2h-0.3v0.6h0.4v0.2h-0.6l0-1.8l0.6,0L28.8,14.1z M29.8,14.2c0,0-0.1,0-0.1,0c0,0-0.1,0-0.1,0c0,0-0.1,0.1-0.1,0.1
		c0,0.1,0,0.2-0.1,0.2c0,0.1,0,0.2,0,0.3c0,0.5,0.1,0.7,0.3,0.7c0,0,0.1,0,0.1,0v0.2c-0.1,0-0.1,0.1-0.2,0.1c-0.3,0-0.5-0.3-0.5-0.9
		c0-0.2,0-0.5,0.1-0.7c0.1-0.1,0.2-0.2,0.4-0.2c0.1,0,0.1,0,0.2,0.1L29.8,14.2z M30.7,15.6c-0.1,0.1-0.2,0.2-0.3,0.2
		c-0.2,0-0.3-0.1-0.3-0.2C30,15.3,30,15.1,30,14.8c0-0.2,0-0.5,0.1-0.7c0.1-0.2,0.3-0.3,0.5-0.2c0.1,0,0.1,0.1,0.1,0.1
		c0.1,0.1,0.1,0.2,0.1,0.3c0,0.2,0,0.4,0,0.5C30.9,15.1,30.8,15.3,30.7,15.6L30.7,15.6z M31.9,15.7h-0.2l-0.3-0.8
		c0-0.1,0-0.2-0.1-0.2s0-0.2-0.1-0.3c0,0,0,0,0,0c0,0,0,0,0-0.1c0,0,0,0,0,0.1c0,0,0,0,0,0l0,0.2l0,0.2c0,0,0,0,0,0v0.1l0,0.8h-0.2
		l0-1.8h0.2l0.2,0.7c0.1,0.2,0.1,0.4,0.2,0.7c0-0.1,0-0.3,0-0.4s0-0.2,0-0.3v-0.7h0.2L31.9,15.7z M33,15.5c-0.1,0.1-0.2,0.2-0.3,0.2
		c-0.1,0-0.3-0.1-0.3-0.2c-0.1-0.2-0.1-0.5-0.1-0.8c0-0.2,0-0.5,0.1-0.7c0.1-0.1,0.2-0.2,0.3-0.2c0.1,0,0.2,0.1,0.3,0.2
		c0.1,0.1,0.1,0.2,0.1,0.3c0,0.2,0,0.3,0,0.5C33.1,15.1,33.1,15.3,33,15.5L33,15.5z M34.2,15.7l0-0.6c0,0,0-0.1,0-0.1c0,0,0,0,0-0.1
		l0-0.2l0-0.2v0c0,0,0,0,0,0v0c0,0,0,0.1,0,0.1s0,0.1,0,0.1l0,0.2l0,0.1l-0.1,0.8h-0.2L33.7,15c0-0.1,0-0.2-0.1-0.3s0-0.2,0-0.3
		l-0.1,1.3h-0.2l0.1-1.8h0.2l0.2,0.7c0,0.1,0,0.2,0,0.3s0,0.2,0,0.3v0l0-0.2l0-0.2l0-0.1l0.1-0.7h0.2l0.2,1.8L34.2,15.7z M34.9,15.7
		h-0.2l0-1.8h0.2L34.9,15.7z M34.7,13.7L34.7,13.7l0.2-0.4l0.1,0.1L34.7,13.7z M35.8,15.7l-0.1-0.4h-0.3l-0.1,0.4h-0.2l0.4-1.8h0.2
		l0.4,1.8L35.8,15.7z M37.3,14.1h-0.4v0.6h0.3v0.2h-0.3l0,0.8h-0.2l0-1.8l0.6,0L37.3,14.1z M38,15.7L38,15.3h-0.3l-0.1,0.4h-0.2
		l0.4-1.8h0.2l0.4,1.8L38,15.7z M39.3,15.7l0-0.6v-0.1l0-0.2l0-0.2v0c0,0,0,0,0,0v0c0,0,0,0.1,0,0.1s0,0.1,0,0.1l0,0.2l0,0.1
		l-0.1,0.8h-0.1L38.8,15c0-0.1,0-0.2,0-0.3s0-0.2,0-0.3l-0.1,1.3h-0.2l0.1-1.8h0.2l0.2,0.7c0,0.1,0,0.2,0.1,0.3s0,0.2,0,0.3
		c0,0,0,0,0,0v0l0-0.2l0-0.2l0-0.1l0.1-0.7h0.2l0.2,1.8L39.3,15.7z M40,15.7h-0.2l0-1.8H40L40,15.7z M40.9,15.7l-0.6,0l0-1.8h0.2
		l0,1.6h0.4L40.9,15.7z M41.3,15.7h-0.2l0-1.8h0.2L41.3,15.7z M42.2,15.7l-0.1-0.4h-0.3l-0.1,0.4h-0.2l0.4-1.8h0.2l0.4,1.8
		L42.2,15.7z M43.1,15.6l-0.3-0.9v0.9h-0.2l0-1.8h0.3c0.1,0,0.2,0,0.3,0.1c0.1,0.1,0.1,0.2,0.1,0.4c0,0.1,0,0.2-0.1,0.3
		c0,0.1-0.1,0.1-0.2,0.2l0.3,0.9L43.1,15.6z M44.8,14.1c0,0-0.1,0-0.1,0c0,0-0.1,0-0.1,0c0,0-0.1,0.1-0.1,0.1c0,0.1,0,0.1-0.1,0.2
		c0,0.1,0,0.2,0,0.3c0,0.5,0.1,0.7,0.3,0.7c0,0,0.1,0,0.1,0v0.2c-0.1,0-0.1,0.1-0.2,0c-0.3,0-0.5-0.3-0.5-0.9c0-0.2,0-0.5,0.1-0.7
		c0.1-0.2,0.2-0.2,0.4-0.2c0.1,0,0.1,0,0.2,0.1L44.8,14.1z M45.7,15.4c-0.1,0.2-0.3,0.3-0.5,0.2c-0.1,0-0.1-0.1-0.2-0.2
		c-0.1-0.2-0.1-0.5-0.1-0.8c0-0.2,0-0.5,0.1-0.7c0.1-0.1,0.2-0.2,0.3-0.2c0.1,0,0.2,0.1,0.3,0.2c0.1,0.1,0.1,0.2,0.1,0.3
		c0,0.2,0,0.3,0,0.5C45.8,15,45.8,15.2,45.7,15.4L45.7,15.4z M46.9,15.6l0-0.6v-0.1l0-0.2l0-0.2v0l0,0c0,0,0,0.1,0,0.1
		c0,0,0,0.1,0,0.1l0,0.2l0,0.1l-0.1,0.8h-0.2l-0.1-0.7c0-0.1,0-0.2-0.1-0.3s0-0.2,0-0.3l-0.1,1.3H46l0.1-1.8h0.2l0.2,0.7
		c0,0.1,0,0.2,0.1,0.3s0,0.2,0,0.3c0,0,0,0,0,0v0l0-0.2l0-0.2l0-0.1l0.1-0.7h0.2l0.2,1.8L46.9,15.6z M48.1,15.1c0,0.1,0,0.3-0.1,0.4
		c-0.1,0.1-0.2,0.1-0.3,0.1c-0.1,0-0.2,0-0.3-0.2c-0.1-0.1-0.1-0.3-0.1-0.4l0-1.3h0.2l0,1.3c0,0.1,0,0.2,0,0.3c0,0,0.1,0.1,0.1,0.1
		c0.1,0,0.1,0,0.1-0.1c0-0.1,0-0.2,0-0.2l0-1.3H48L48.1,15.1z M49.1,15.6h-0.2l-0.3-0.8c0-0.1,0-0.2-0.1-0.2s0-0.2-0.1-0.3
		c0,0,0,0,0,0l0-0.1c0,0,0,0,0,0.1c0,0,0,0,0,0l0,0.2l0,0.2c0,0,0,0,0,0v0.1l0,0.8h-0.2l0-1.8h0.2l0.2,0.7c0.1,0.2,0.1,0.4,0.2,0.7
		c0-0.1,0-0.3,0-0.4s0-0.2,0-0.3v-0.7h0.2L49.1,15.6z M49.6,15.6h-0.2l0-1.8h0.2L49.6,15.6z M50.2,15.6H50l0-1.6h-0.3v-0.2l0.7,0V14
		h-0.3L50.2,15.6z M51.1,15.6L51,15.2h-0.3l-0.1,0.4h-0.2l0.4-1.8h0.2l0.4,1.8L51.1,15.6z M52,15.6l-0.3-0.9l0,0.9h-0.2l0-1.8h0.3
		c0.1,0,0.2,0,0.3,0.1c0.1,0.1,0.1,0.2,0.1,0.4c0,0.1,0,0.2-0.1,0.3c0,0.1-0.1,0.1-0.2,0.2l0.3,0.9L52,15.6z M52.6,15.6h-0.2l0-1.8
		h0.2L52.6,15.6z M53.4,15.6l-0.1-0.4H53L53,15.6h-0.2l0.4-1.8h0.2l0.4,1.8L53.4,15.6z M53.8,16l-0.1,0l0.1-0.7l0.2,0.1L53.8,16z
		 M55.4,14c0,0-0.1,0-0.1,0c0,0-0.1,0-0.1,0c0,0-0.1,0.1-0.1,0.1c0,0.1,0,0.2-0.1,0.2c0,0.1,0,0.2,0,0.3c0,0.5,0.1,0.7,0.3,0.7
		c0,0,0.1,0,0.1,0v0.2c-0.1,0-0.1,0.1-0.2,0.1c-0.3,0-0.5-0.3-0.5-0.9c0-0.2,0-0.5,0.1-0.7c0.1-0.2,0.2-0.2,0.4-0.2
		c0.1,0,0.1,0,0.2,0.1L55.4,14z M56.3,15.4c-0.1,0.1-0.2,0.2-0.3,0.2c-0.1,0-0.3-0.1-0.3-0.2c-0.1-0.2-0.1-0.5-0.1-0.8
		c0-0.2,0-0.5,0.1-0.7c0.1-0.2,0.3-0.3,0.5-0.2c0.1,0,0.1,0.1,0.1,0.1c0.1,0.1,0.1,0.2,0.1,0.3c0,0.2,0,0.4,0,0.5
		C56.4,14.9,56.4,15.1,56.3,15.4L56.3,15.4z M57.4,15.3c-0.1,0.1-0.2,0.2-0.3,0.2c-0.1,0-0.3-0.1-0.3-0.2c-0.1-0.2-0.1-0.5-0.1-0.8
		c0-0.2,0-0.5,0.1-0.7c0.1-0.2,0.3-0.3,0.5-0.2c0.1,0,0.1,0.1,0.1,0.1c0.1,0.1,0.1,0.2,0.1,0.3c0,0.2,0,0.4,0,0.5
		C57.5,14.9,57.4,15.1,57.4,15.3L57.4,15.3z M58.2,14.7c-0.1,0-0.2,0.1-0.3,0v0.8h-0.2l0-1.8H58c0.1,0,0.2,0,0.3,0.1
		c0.1,0.1,0.1,0.2,0.1,0.4C58.4,14.4,58.3,14.5,58.2,14.7L58.2,14.7z M59.2,13.9h-0.4v0.6h0.3v0.2h-0.3v0.6h0.4v0.2l-0.6,0l0-1.8
		h0.6L59.2,13.9z M59.9,15.5l-0.3-0.9l0,0.9h-0.2l0-1.8h0.3c0.1,0,0.2,0,0.3,0.1c0.1,0.1,0.1,0.2,0.1,0.4c0,0.1,0,0.2-0.1,0.3
		c0,0.1-0.1,0.1-0.2,0.2l0.3,0.9L59.9,15.5z M60.9,15.5l-0.1-0.4h-0.3l-0.1,0.4h-0.2l0.4-1.8h0.2l0.4,1.8L60.9,15.5z M61.8,13.9
		h-0.3l0,1.6h-0.2l0-1.6H61v-0.2l0.7,0L61.8,13.9z M62.1,15.5h-0.2l0-1.8h0.2L62.1,15.5z M62.6,15.5l-0.3-1.8h0.2l0.1,0.7l0,0.1
		l0,0.3c0,0,0,0.1,0,0.1s0,0.1,0,0.1l0,0.1c0,0,0,0,0-0.1c0,0,0,0,0,0l0-0.2l0-0.3c0,0,0,0,0-0.1c0,0,0,0,0-0.1l0.1-0.7h0.2
		l-0.3,1.8L62.6,15.5z M63.7,15.5l-0.1-0.4h-0.3l-0.1,0.4h-0.2l0.4-1.8h0.2l0.4,1.8L63.7,15.5z M65,14.7v0.8h-0.2v-0.8l-0.4-1h0.2
		l0.1,0.4c0,0,0,0,0,0l0,0c0,0.1,0.1,0.2,0.1,0.4c0-0.1,0-0.2,0-0.2l0-0.2l0-0.1l0.1-0.4h0.2L65,14.7z M66.4,15.5l-0.1-0.4H66
		L66,15.5h-0.2l0.4-1.8h0.2l0.4,1.8L66.4,15.5z M67.3,15.3c-0.1,0.1-0.2,0.1-0.3,0.1c-0.1,0-0.2,0-0.2-0.1v-0.2
		c0.1,0.1,0.1,0.1,0.2,0.1c0.1,0,0.1,0,0.1-0.1c0-0.1,0.1-0.1,0-0.2c0-0.1,0-0.1,0-0.2c0,0,0-0.1-0.1-0.1c0,0-0.1-0.1-0.1-0.1
		c-0.1-0.1-0.1-0.1-0.1-0.2c0,0-0.1-0.1-0.1-0.1c0-0.1-0.1-0.2-0.1-0.3c0-0.1,0-0.2,0.1-0.3c0.1-0.1,0.2-0.1,0.3-0.1
		c0.1,0,0.2,0,0.2,0.1v0.2c-0.1,0-0.1-0.1-0.2-0.1c-0.1,0-0.1,0-0.1,0.1c0,0-0.1,0.1-0.1,0.2c0,0.1,0,0.1,0,0.2c0,0,0,0.1,0.1,0.1
		s0.1,0.1,0.1,0.1c0.1,0.1,0.1,0.2,0.2,0.3c0,0.1,0.1,0.2,0.1,0.3C67.4,15.1,67.4,15.2,67.3,15.3L67.3,15.3z M68.3,15.3
		c-0.1,0.1-0.2,0.2-0.3,0.2c-0.2,0-0.3-0.1-0.3-0.2c-0.1-0.2-0.1-0.5-0.1-0.8c0-0.2,0-0.5,0.1-0.7c0.1-0.1,0.2-0.2,0.3-0.2
		c0.1,0,0.2,0.1,0.3,0.2c0.1,0.1,0.1,0.2,0.1,0.3c0,0.2,0,0.4,0,0.5C68.5,14.8,68.4,15,68.3,15.3L68.3,15.3z M69.3,13.9
		c0,0-0.1,0-0.1,0c0,0-0.1,0-0.1,0c0,0-0.1,0.1-0.1,0.1c0,0.1,0,0.1-0.1,0.2c0,0.1,0,0.2,0,0.3c0,0.5,0.1,0.7,0.3,0.7
		c0,0,0.1,0,0.1,0v0.2c-0.1,0-0.1,0.1-0.2,0.1c-0.3,0-0.5-0.3-0.5-0.9c0-0.2,0-0.5,0.1-0.7c0.1-0.2,0.2-0.2,0.4-0.2
		c0.1,0,0.1,0,0.2,0.1L69.3,13.9z M69.7,15.4h-0.2l0-1.8h0.2L69.7,15.4z M70.6,15.4l-0.1-0.4h-0.3l-0.1,0.4h-0.2l0.4-1.8h0.2
		l0.4,1.8L70.6,15.4z M71.5,13.8h-0.2l0,1.6H71l0-1.6h-0.3v-0.2l0.7,0L71.5,13.8z M71.8,15.4h-0.2l0-1.8h0.2L71.8,15.4z M72.3,15.4
		l-0.3-1.8h0.2l0.1,0.7l0,0.1l0,0.3c0,0,0,0.1,0,0.1c0,0,0,0.1,0,0.1l0,0.1v-0.1l0-0.2l0-0.3c0,0,0,0,0-0.1c0,0,0,0,0-0.1l0.1-0.7
		h0.2l-0.3,1.8L72.3,15.4z M73.4,15.4L73.3,15H73l-0.1,0.4h-0.2l0.4-1.8h0.2l0.4,1.8L73.4,15.4z"/>
	<path id="Trazado_1000" class="st0" d="M23.1,14.4C23.1,14.3,23,14.3,23.1,14.4C23,14.2,23,14.2,23,14.2c0,0-0.1,0-0.1,0h0v0.6
		c0.1,0,0.1,0,0.2-0.1c0-0.1,0.1-0.1,0.1-0.2C23.1,14.5,23.1,14.4,23.1,14.4z"/>
	<path id="Trazado_1001" class="st0" d="M26,14.2L26,14.2l0,1.4c0.1,0,0.2,0,0.3-0.1c0.1-0.2,0.1-0.4,0.1-0.5c0-0.2,0-0.4-0.1-0.6
		C26.2,14.2,26.1,14.2,26,14.2z"/>
	<path id="Trazado_1002" class="st0" d="M68,13.8c-0.1,0-0.1,0-0.2,0.1c0,0.2,0,0.4,0,0.6c0,0.2,0,0.4,0,0.6c0,0.1,0.1,0.1,0.2,0.1
		s0.1,0,0.2-0.1c0-0.2,0-0.3,0-0.5c0-0.2,0-0.4,0-0.6C68.1,13.8,68.1,13.8,68,13.8z"/>
	<path id="Trazado_1003" class="st0" d="M35.5,14.2c0,0.1,0,0.2,0,0.3s0,0.2-0.1,0.4l0,0.2h0.3l0-0.3C35.6,14.7,35.5,14.5,35.5,14.2
		z"/>
	<path id="Trazado_1004" class="st0" d="M37.8,14.2c0,0.1,0,0.2,0,0.3s0,0.2-0.1,0.4l0,0.2h0.3l-0.1-0.3
		C37.9,14.6,37.8,14.4,37.8,14.2z"/>
	<path id="Trazado_1005" class="st0" d="M70.3,13.9c0,0.1,0,0.2,0,0.3s0,0.2-0.1,0.4l0,0.2h0.3l-0.1-0.3
		C70.4,14.4,70.3,14.2,70.3,13.9z"/>
	<path id="Trazado_1006" class="st0" d="M32.6,14.1c-0.1,0-0.1,0-0.2,0.1c0,0.2,0,0.4,0,0.6c0,0.2,0,0.4,0,0.6
		c0,0.1,0.1,0.1,0.2,0.1s0.1,0,0.2-0.1c0-0.2,0-0.3,0-0.5c0-0.2,0-0.4,0-0.6C32.8,14.2,32.7,14.1,32.6,14.1z"/>
	<path id="Trazado_1007" class="st0" d="M30.4,14.1c-0.1,0-0.1,0-0.2,0.1c0,0.2,0,0.4,0,0.6c0,0.2,0,0.4,0,0.6
		c0,0.1,0.1,0.1,0.2,0.1s0.1,0,0.2-0.1c0-0.2,0-0.3,0-0.5c0-0.2,0-0.4,0-0.6C30.5,14.2,30.5,14.1,30.4,14.1z"/>
	<path id="Trazado_1008" class="st0" d="M7.2,14.7c0,0-1.5-1-1.9-0.8C5.6,14.1,7.1,15,7.1,15C7.1,14.8,7.1,14.7,7.2,14.7z"/>
</g>
</svg>
