<?xml version="1.0" encoding="utf-8"?>
<!-- Generator: Adobe Illustrator 22.0.1, SVG Export Plug-In . SVG Version: 6.00 Build 0)  -->
<svg version="1.1" id="Capa_1" xmlns="http://www.w3.org/2000/svg" xmlns:xlink="http://www.w3.org/1999/xlink" x="0px" y="0px"
	 viewBox="0 0 50 19.8" style="enable-background:new 0 0 50 19.8;" xml:space="preserve">
<style type="text/css">
	.st0{fill:#A0A0A0;}
</style>
<g>
	<path class="st0" d="M15.9,13.4c0.1,0.3,0.4,0.3,0.7,0.3c0.5,0.1,0.9,0.4,1,1c0.1,0.6,0,1.1-0.6,1.3c-1.6,0.3-3.3,0.2-4.9,0.1
		c-0.2,0-0.4-0.1-0.6,0c-0.6-0.2-0.9-0.6-0.9-1.2c0-0.6,0.4-1,1-1.2c0.1,0,0.2,0,0.3-0.1c0.5-0.2,1.2,0.3,1.4-0.3c0.2-0.4,0-1,0-1.6
		c0-2,0-3.9-0.2-6c-1,2.1-1.9,4.3-2.9,6.4c-0.8,0.3-1.5,0-2.3,0.1c-1-1.8-1.7-3.8-2.6-5.7C5.1,6.5,5,6.2,4.7,6c0,2.4,0,4.8,0,7.3
		c0,0.3,0.2,0.4,0.4,0.4c0.3,0,0.7,0,1,0c0.7,0.1,1.2,0.4,1.2,1.1c0,0.7-0.2,1.2-0.9,1.4c-1.8,0-3.5,0-5.3,0
		c-0.6-0.2-0.9-0.6-0.8-1.2c0-0.6,0.4-1,1-1.1C2,13.7,2,13.4,2,12.9c0-3,0-6.1,0-9.1c0-0.5,0-0.8-0.6-0.9C0.8,2.8,0.6,2.3,0.6,1.7
		C0.7,1,1.1,0.5,1.8,0.5c1.1-0.1,2.2,0,3.3-0.1c0.4,0,0.4,0.4,0.5,0.6c1.1,2.3,2.1,4.6,3.1,6.9C8.8,8,8.9,8.2,9.1,8.5
		c0.7-1.6,1.4-3.2,2.1-4.7c0.1-0.2,0.1-0.3,0.2-0.5c0.5-0.9,0.6-2.3,1.4-2.7c0.9-0.4,2.1-0.2,3.2-0.1c1.2,0,1.6,0.5,1.3,1.7
		c-0.2,0.1-0.3,0.5-0.6,0.5c-0.9,0.2-0.8,0.8-0.8,1.5c0,2.8,0,5.5,0,8.3C15.9,12.8,15.8,13.1,15.9,13.4z"/>
	<path class="st0" d="M46.3,5.2c-0.3-1.1-0.9-2-2.2-2.3c-1.1-0.2-2.2-0.2-3.3,0c-0.6-0.1-1,0.3-1.4,0.5c-0.5,0.2-0.8,0.6-1,1.1
		c-0.4,0.7-0.8,1.5-1,2.3c-0.2,1.3-0.2,2.6,0,3.8c1,2.6,2.1,3.5,5,3.5c1,0,2-0.1,3-0.4c0.4-0.1,0.6-0.3,0.6-0.8c0-1.5,0-1.5-1.5-1.5
		c-0.5,0-1,0.1-1.6-0.1c0.2-0.2,0.4-0.1,0.6-0.1c0.7,0,1.4,0,2,0c-1.1,0-2.2,0-3.3,0c-0.6-0.2-0.9-0.7-0.8-1.4
		c0.2-0.7,0.7-1,1.4-1.1c1.5,0,3,0,4.4,0c0.3,0,0.6,0,0.9,0c0.7-0.1,1.4,0,1.6,0.9c0.2,0.9-0.3,1.3-1.1,1.6
		c-0.3,0.9-0.2,1.8-0.2,2.8c0,0.6-0.2,1-0.8,1.3c-3,1.6-6.1,1.6-9.3,0.5c-2-0.6-3-2.2-3.5-4c-0.5-2.1-0.6-4.3,0.1-6.4
		c1.4-4.5,6.1-6.5,10.6-4.8c0.4,0.2,0.8,0.2,1.2,0c0.8-0.5,1.6-0.1,1.7,0.9c0.1,1,0.1,2,0,3c0,0.3-0.1,0.6-0.5,0.8
		C47.4,5.6,46.8,5.7,46.3,5.2z"/>
	<path class="st0" d="M38.4,15.8c1,0.1,2,0.4,3.1,0.6c2.3,0.3,4.4-0.3,6.4-1.3c0.4-0.2,0.5-0.4,0.5-0.8c0-0.7,0-1.3,0-2
		c0-0.4,0-0.8,0.3-1c0,1-0.1,2.1-0.1,3.1c0,0.4-0.1,0.6-0.4,0.8c-3.1,1.7-6.3,1.9-9.5,0.8C38.5,16,38.5,15.9,38.4,15.8z"/>
	<path class="st0" d="M1.4,19.6c0.2-0.4,0.2-0.4,0.2-1c-0.3,0.6-0.6,1.1-1,0.1c-0.3,0.4,0.1,0.6,0.2,0.9c-0.3,0.2-0.5,0.1-0.9,0.1
		c0.2-0.5,0.2-1,0.1-1.5c0-0.2-0.3-0.4,0.1-0.5c0.2-0.1,0.5,0,0.6,0.3c0.1,0.2,0.2,0.4,0.3,0.6c0.1,0,0.2-0.1,0.2-0.1
		c0.2-0.3,0.2-0.9,0.7-0.7c0.5,0.2-0.1,0.5,0,0.8c0.1,0.2,0,0.4,0,0.6C2.1,19.8,2.1,19.8,1.4,19.6z"/>
	<path class="st0" d="M4.3,17.8c1.1-0.3,1,0.7,1.6,1c0.2-0.4,0-0.8-0.4-1c0.4-0.2,0.7-0.1,1-0.1c-0.3,0.5-0.2,1.1-0.2,1.6
		c0,0.1,0,0.3-0.2,0.4c-0.2,0.1-0.3-0.1-0.4-0.2c-0.2-0.3-0.4-0.6-0.6-0.9c-0.3,0.5,0,0.8,0.2,1.1c-0.6,0.2-0.9,0.2-0.7-0.6
		C4.7,18.7,4.7,18.2,4.3,17.8z"/>
	<path class="st0" d="M24,19.7c0.2-0.7,0.9-1.2,0.3-1.9c0.7-0.3,1.2-0.1,1.4,0.7c0.1,0.4,0.3,0.7,0.5,1.1c-0.5,0.1-0.5,0.1-0.7-0.3
		c-0.1-0.3-0.3-0.1-0.5-0.1c-0.3,0-0.2,0.1-0.2,0.3C24.7,20,24.2,19.6,24,19.7z"/>
	<path class="st0" d="M13.2,19.7c0.3-0.6,0.3-1.2,0-1.8c1.5-0.3,1.7-0.2,1.7,0.6c-0.3,0.1-0.3-0.5-0.7-0.3c-0.1,0.1-0.4-0.1-0.4,0.2
		c0,0.3,0.2,0.2,0.4,0.1c0.4-0.1,0.3,0.2,0.3,0.4c0,0.1,0.1,0.4-0.2,0.3c-0.2,0-0.4-0.4-0.4,0c-0.1,0.3,0.3,0.3,0.5,0.3
		c0.3,0.1,0.4-0.3,0.7-0.4C15.1,19.8,15,19.9,13.2,19.7z"/>
	<path class="st0" d="M15.9,13.4c-0.2-0.3-0.1-0.6-0.1-0.9c0-2.8,0-5.5,0-8.3c0-0.7-0.1-1.4,0.9-1.6c0.2-0.1,0.4-0.4,0.6-0.4
		c-0.1,0.3-0.3,0.6-0.6,0.7C15.9,3,15.9,3.5,15.9,4C16,7.2,15.9,10.3,15.9,13.4z"/>
	<path class="st0" d="M36.7,19c0.1,0.8,0,0.9-1.7,0.7c0.3-0.6,0.3-1.2,0-1.8c1.4-0.3,1.8-0.2,1.7,0.6c-0.3,0.1-0.4-0.5-0.8-0.3
		c-0.1,0.1-0.4,0-0.4,0.2c0,0.3,0.2,0.2,0.4,0.1c0.1-0.1,0.3-0.1,0.3,0.1c0,0.2,0,0.4,0,0.5c0,0.1-0.2,0.1-0.3,0
		c-0.1-0.1-0.3-0.3-0.4,0c-0.1,0.3,0.1,0.4,0.3,0.4C36.2,19.4,36.5,19.4,36.7,19z"/>
	<path class="st0" d="M27.8,19.3c-0.2-0.3-0.5-0.1-0.6-0.4c0.2-0.2,0.5-0.1,0.7-0.1c0.3,0,0.3,0,0.3,0.3c-0.1,0.5-0.4,0.7-0.8,0.7
		c-0.5,0-1-0.1-1.1-0.7c-0.1-0.6,0-1.1,0.6-1.3c0.2-0.1,0.4-0.1,0.6-0.1c0.2,0.1,0.8-0.2,0.7,0.4c-0.1,0.6-0.4,0-0.6,0
		c-0.3,0-0.6-0.1-0.8,0.2c-0.2,0.3-0.2,0.6,0,0.9C27,19.5,27.4,19.5,27.8,19.3z"/>
	<path class="st0" d="M19.3,17.8c-0.8,0.6-0.8,1.3,0,1.8c-0.5,0.3-1,0.2-1.7,0c0.5-0.3,0.8-0.4,0.7-0.9c0-0.4,0-0.8-0.7-0.7
		C18.3,17.7,18.3,17.7,19.3,17.8z"/>
	<path class="st0" d="M46,19.6c0.8-0.5,0.8-1.2,0.1-1.8c0.6-0.2,0.6-0.2,1.5-0.1c-0.2,0.3-0.6,0.4-0.6,0.9c0,0.5,0.2,0.7,0.8,0.9
		C47.1,19.9,46.6,19.8,46,19.6z"/>
	<path class="st0" d="M10.5,18.4c-0.4-0.2-0.7-0.6-1.1-0.2c0.1,0.4,0.4,0.4,0.7,0.4c0.3,0.1,0.6,0.2,0.6,0.6c0,0.4-0.4,0.6-0.8,0.6
		c-0.2,0-0.5-0.1-0.8-0.1c-0.3,0-0.2-0.3-0.2-0.4c0.1-0.2,0.2-0.2,0.4,0c0.1,0.2,0.3,0.2,0.6,0.2c0.2,0,0.3-0.1,0.3-0.2
		c0-0.2-0.1-0.2-0.2-0.3c-0.1,0-0.1,0-0.2,0c-0.4-0.1-1-0.2-0.8-0.8c0.2-0.6,0.7-0.5,1.2-0.4C10.7,17.8,10.6,18.1,10.5,18.4z"/>
	<path class="st0" d="M4,19.6c-0.6,0.2-1,0.2-1.6,0.1c0.8-0.6,0.8-1.3,0.1-1.7c0.6-0.2,0.6-0.2,1.5-0.1c-0.1,0.4-0.6,0.4-0.6,0.9
		C3.5,19.1,3.6,19.4,4,19.6z"/>
	<path class="st0" d="M12.8,18.6c-0.3-0.1-0.1-0.5-0.4-0.5c-0.3,0.8-0.3,1.1,0.3,1.5c-0.5,0.2-0.5,0.2-1.3,0.1
		c0.7-0.4,0.5-1,0.4-1.5c-0.4-0.1-0.2,0.5-0.6,0.4c0-0.3-0.2-0.7,0.1-0.8c0.5-0.1,1.1-0.1,1.5,0C13.1,17.9,12.9,18.3,12.8,18.6z"/>
	<path class="st0" d="M19.3,16.1c0.9-0.3,1.9-0.1,2.8-0.1c1,0,2,0,3-0.1c-0.3,0.2-0.6,0.3-0.9,0.3C22.5,16.2,20.9,16.4,19.3,16.1z"
		/>
	<path class="st0" d="M39,19.4c-0.3,0.4-0.7,0.6-1.2,0.4c-0.5-0.2-0.8-0.5-0.7-1.1c0-0.5,0.3-0.9,0.8-1c0.3,0,0.6,0,0.9,0
		c0.3,0,0.2,0.3,0.2,0.5c0,0.1-0.2,0.2-0.3,0.1c-0.4-0.3-0.7-0.4-1.1,0c-0.2,0.3-0.2,0.6,0,0.9c0.3,0.4,0.8,0.4,1.2,0.1
		C38.9,19.3,38.9,19.2,39,19.4z"/>
	<path class="st0" d="M11.4,16.1c0.9-0.3,1.8-0.1,2.7-0.1c1,0,1.9,0,2.9,0c-0.3,0.3-0.6,0.3-1,0.3C14.4,16.2,12.9,16.4,11.4,16.1z"
		/>
	<path class="st0" d="M1.2,16.1c1.8-0.2,3.5-0.2,5.3,0C4.8,16.3,3,16.4,1.2,16.1z"/>
	<path class="st0" d="M29.4,16.1c1.8-0.2,3.6-0.2,5.4,0C33,16.4,31.2,16.3,29.4,16.1z"/>
	<path class="st0" d="M40.4,17.7c0.3,0.4,0.4,0.8,0.3,1.3c0,0.2-0.2,0.4-0.4,0.4c-0.3,0-0.5-0.1-0.5-0.4c-0.1-0.5,0-1,0.3-1.3
		c0,0,0,0,0,0c-0.3,0-0.8-0.4-0.8,0.3c0,0.3,0,0.7,0.1,1c0.1,0.5,0.4,0.8,0.8,0.8c0.5,0,0.8-0.3,0.9-0.8c0-0.4,0-0.9,0.2-1.3
		C41,17.7,40.7,17.7,40.4,17.7z"/>
	<path class="st0" d="M7.3,19.5c0.1-0.6,0.4-1.2-0.6-1.6c0.7-0.2,1.2-0.1,1.7-0.1c0,0.4-0.4,0.3-0.6,0.4c-0.2,0.3-0.1,0.7-0.1,1.1
		C7.6,19.4,7.6,19.6,7.3,19.5z"/>
	<path class="st0" d="M37.3,10.6C37,9.3,37,8,37.3,6.7C37.3,8,37.3,9.3,37.3,10.6z"/>
	<path class="st0" d="M42.2,11.2c1.1-0.2,2.3,0,3.4,0.1c-0.9,0-1.8,0-2.7,0C42.7,11.3,42.4,11.2,42.2,11.2z"/>
	<path class="st0" d="M7.3,19.5c0.5-0.4,0.1-0.9,0.3-1.4c0,0,0,0,0.1,0c0,0,0,0,0.1,0c0.1,0.5-0.3,1.2,0.7,1.5
		c-0.6,0.2-1.1,0.1-1.6,0.1C7,19.4,7.2,19.5,7.3,19.5z"/>
	<path class="st0" d="M21.5,2.8c0.9,0.1,1.9-0.1,2.8,0.2C23.4,3,22.5,3.3,21.5,2.8z"/>
	<path class="st0" d="M46.3,5.2c0.6,0.3,1.2,0.3,1.8,0.2C47.4,5.9,46.8,5.8,46.3,5.2z"/>
	<path class="st0" d="M7.9,12.4c0.8-0.2,1.5-0.1,2.3-0.1C9.5,12.7,8.7,12.4,7.9,12.4z"/>
	<path class="st0" d="M38.3,4.4c0.1-0.6,0.5-1,1-1.2c0.1,0,0.1,0.1,0.1,0.1c0,0,0,0.1-0.1,0.1C39,3.7,38.7,4,38.3,4.4z"/>
	<path class="st0" d="M39.4,3.4c0,0,0-0.1,0-0.1c0.4-0.3,0.8-0.7,1.4-0.4C40.3,3,39.9,3.2,39.4,3.4z"/>
	<path class="st0" d="M34.6,13.7c-0.5,0-0.7-0.3-0.9-0.7C32.1,9,30.5,5.1,28.9,1.2c-0.2-0.6-0.5-0.8-1.2-0.8c-1.6,0.1-3.1,0-4.7,0
		c-0.3,0-0.7,0-1,0.1c-0.6,0.1-0.9,0.5-1,1.1c-0.1,0.5,0.1,1,0.6,1.2c0.9,0.3,1.9,0,2.8,0.2c0.1,0.4-0.1,0.7-0.2,1
		c-1.2,2.9-2.3,5.8-3.5,8.7c-0.2,0.5-0.4,0.9-1.1,1c-0.6,0-1.1,0.5-1.1,1.1c0,0.6,0.2,1.1,0.9,1.2c0.3-0.1,0.5,0,0.8,0
		c1.7,0,3.4,0.2,5-0.2c0.5-0.4,0.7-1,0.5-1.5c-0.2-0.6-0.8-0.7-1.4-0.8c-0.2,0-0.4,0-0.6,0c-0.1,0-0.3,0-0.3-0.2
		C23.1,13,23.9,12,24.4,12c1.6,0,3.2,0.1,4.8,0c0.9-0.1,1.4,0.3,1.7,1.2c0.1,0.4,0.2,0.6-0.3,0.6c-0.3,0-0.6,0-0.9,0.1
		c-0.6,0.1-0.9,0.5-1,1.1c-0.1,0.6,0.2,1.1,0.8,1.2c1.8,0.1,3.6,0.1,5.4,0c0.7-0.2,0.9-0.8,0.9-1.4C35.7,14.1,35.2,13.7,34.6,13.7z
		 M28.7,9.3c-1.1,0-2.2,0-3.2,0c-0.3,0-0.6,0-0.4-0.5c0.6-1.6,1.3-3.2,2-4.9c0.7,1.8,1.4,3.3,2,4.9C29.3,9.3,29.1,9.3,28.7,9.3z"/>
	<path class="st0" d="M45.4,18.4c0.2-0.3-0.2-0.6-0.5-0.6c-0.4,0-0.8-0.1-1.3,0.1c0.4,0.4,0.3,0.8,0.3,1.2c0,0.1,0,0.3-0.2,0.4
		c-0.2,0.1-0.3-0.1-0.4-0.2c-0.1-0.2-0.2-0.5-0.3-0.7c-0.2-0.8-0.7-0.9-1.4-0.7c0.7,0.8-0.1,1.2-0.3,1.9c0.3-0.1,0.9,0.4,0.7-0.5
		c0-0.2,0.3-0.1,0.4-0.1c0.1,0,0.4-0.1,0.3,0.2c-0.1,0.3,0,0.4,0.2,0.4c0.5-0.1,1,0.1,1.5-0.1c0.1-0.3-0.5-0.3-0.2-0.6
		c0.3-0.2,0.5,0.1,0.6,0.3c0.2,0.2,0.3,0.6,0.8,0.3C45.4,19.2,45,19,45.4,18.4z M44.6,18.6c-0.2,0-0.3-0.1-0.3-0.3
		c0-0.3,0.3-0.2,0.5-0.2c0.2,0,0.3,0.1,0.4,0.3C45,18.6,44.8,18.6,44.6,18.6z"/>
	<path class="st0" d="M30.2,18.4c0.2-0.3-0.2-0.6-0.5-0.6c-0.4,0-0.8-0.1-1.3,0.1c0.4,0.7,0.4,1.2,0,1.8c0.3,0.1,0.6,0.2,0.9,0
		c0.1-0.1,0-0.2-0.1-0.2c-0.1-0.1-0.2-0.2-0.1-0.3c0.2-0.2,0.3,0,0.5,0.1c0.3,0.1,0.4,0.8,1,0.5C30.2,19.2,29.8,18.9,30.2,18.4z
		 M29.3,18.6c-0.2,0-0.3-0.1-0.3-0.3c0-0.3,0.3-0.2,0.5-0.2c0.2,0,0.4,0.1,0.3,0.3C29.8,18.6,29.5,18.6,29.3,18.6z"/>
	<path class="st0" d="M17.1,18.4c0.2-0.3-0.2-0.6-0.5-0.6c-0.4,0-0.9-0.1-1.3,0.1c0.4,0.6,0.4,1.2,0,1.9c0.3,0.1,0.6,0.2,0.9-0.1
		c0-0.2-0.5-0.3-0.2-0.5c0.2-0.2,0.4,0,0.6,0.2c0.2,0.2,0.3,0.7,0.8,0.4C17.2,19.2,16.7,19,17.1,18.4z M16.3,18.6
		c-0.2,0-0.3-0.1-0.3-0.3c0-0.3,0.2-0.3,0.4-0.3c0.2,0,0.4,0.1,0.4,0.3C16.7,18.6,16.5,18.6,16.3,18.6z"/>
	<path class="st0" d="M31.6,17.7c-0.7,0-1,0.4-1,1c0,0.7,0.4,1,1,1.1c0.6,0.1,1.1-0.5,1-1.2C32.6,18,32.2,17.7,31.6,17.7z
		 M31.6,19.4c-0.4,0-0.7-0.3-0.6-0.8c0-0.4,0.2-0.7,0.7-0.6c0.4,0,0.6,0.3,0.6,0.7C32.2,19.2,32,19.5,31.6,19.4z"/>
	<path class="st0" d="M34.7,18.2c-0.3-0.8-1.1-0.4-1.9-0.4c0.6,0.7,0.4,1.3,0.2,1.9c0.4,0.1,0.8,0.1,1.1,0c0.1-0.4-0.5-0.1-0.4-0.5
		C34.1,18.9,35,19,34.7,18.2z M33.6,18.4c0-0.2,0.1-0.3,0.3-0.3c0.2,0,0.4,0,0.5,0.3c0,0.2-0.2,0.3-0.4,0.3
		C33.7,18.7,33.6,18.6,33.6,18.4z"/>
	<path class="st0" d="M49,17.7c-0.7,0-1,0.4-1.1,1.1c0,0.6,0.4,1.1,1,1.1c0.6,0,1-0.4,1-1.1C50,18.1,49.7,17.7,49,17.7z M49,19.5
		c-0.4,0-0.7-0.3-0.7-0.7c0-0.4,0.2-0.7,0.6-0.7c0.5,0,0.6,0.3,0.7,0.7C49.6,19.2,49.4,19.5,49,19.5z"/>
	<path class="st0" d="M20.6,17.7c-0.6,0-0.9,0.5-1,1.1c0.1,0.6,0.4,1,1.1,1c0.6,0,1-0.5,1-1.1C21.7,18.1,21.3,17.7,20.6,17.7z
		 M20.7,19.5c-0.4,0-0.7-0.3-0.7-0.7c0-0.4,0.2-0.7,0.6-0.7c0.5,0,0.6,0.3,0.7,0.7C21.3,19.1,21.1,19.4,20.7,19.5z"/>
</g>
</svg>
