<?xml version="1.0" encoding="utf-8"?>
<!-- Generator: Adobe Illustrator 24.2.3, SVG Export Plug-In . SVG Version: 6.00 Build 0)  -->
<svg version="1.1" id="Capa_1" xmlns="http://www.w3.org/2000/svg" xmlns:xlink="http://www.w3.org/1999/xlink" x="0px" y="0px"
	 viewBox="0 0 96.6 17.2" style="enable-background:new 0 0 96.6 17.2;" xml:space="preserve">
<style type="text/css">
	.st0{fill:#A0A0A0;}
</style>
<g id="IPSA">
	<path id="Trazado_360" class="st0" d="M33.9,9.7c0.3,0,0.6,0,0.9,0.1c0.1,0.1,0.2,0.3,0.2,0.5c0,0.2,0,0.4-0.2,0.5
		C34.5,11,34.2,11,33.9,11H28c-0.2,0-0.4,0-0.5-0.2c-0.1-0.1-0.2-0.3-0.2-0.5c0-0.2,0.1-0.4,0.2-0.5c0.3-0.1,0.6-0.2,0.9-0.1h2V1.6
		h-2c-0.3,0-0.6,0-0.9-0.1c-0.2-0.1-0.2-0.3-0.2-0.5c0-0.2,0-0.4,0.2-0.5c0.1-0.1,0.3-0.2,0.5-0.2h6.3c0.2,0,0.4,0,0.5,0.2
		C34.9,0.6,35,0.8,35,1c0,0.2-0.1,0.4-0.2,0.5c-0.3,0.1-0.6,0.2-0.9,0.1h-2v8.1H33.9z"/>
	<path id="Trazado_361" class="st0" d="M42.5,9.7c0.2,0,0.4,0,0.6,0.1c0.1,0.1,0.2,0.3,0.2,0.5c0,0.2,0,0.4-0.2,0.5
		C42.9,11,42.6,11,42.4,11H38c-0.2,0-0.3,0-0.5-0.2c-0.1-0.1-0.2-0.3-0.2-0.5c0-0.2,0-0.3,0.2-0.5c0.1-0.1,0.3-0.2,0.5-0.2h1.2V1.6
		h-0.6c-0.3,0-0.7,0-1-0.1c-0.1-0.1-0.2-0.3-0.2-0.5c0-0.2,0-0.3,0.2-0.5c0.1-0.1,0.3-0.2,0.5-0.2h4.2c1.2-0.1,2.3,0.2,3.3,0.8
		c1.4,1.2,1.5,3.3,0.3,4.7c-0.1,0.1-0.2,0.2-0.3,0.3c-1,0.6-2.2,0.9-3.3,0.8h-1.6v2.7L42.5,9.7z M40.6,1.6v4.2h1.7
		c0.7,0.1,1.5-0.1,2.1-0.5c0.5-0.4,0.7-1,0.7-1.6c0-0.6-0.2-1.2-0.7-1.6c-0.6-0.4-1.4-0.6-2.1-0.5L40.6,1.6z"/>
	<path id="Trazado_362" class="st0" d="M50.4,10.7c0,0.2-0.1,0.4-0.2,0.6c-0.1,0.1-0.3,0.2-0.5,0.2c-0.2,0-0.4-0.1-0.6-0.2
		c-0.1-0.2-0.2-0.5-0.2-0.7l-0.1-2.1V8.2c0-0.2,0-0.4,0.2-0.6c0.2-0.1,0.4-0.2,0.6-0.2c0.4,0,0.6,0.3,0.8,0.8
		c0.1,0.2,0.1,0.4,0.2,0.6c0.2,0.4,0.6,0.8,1,1c0.5,0.2,1.1,0.4,1.6,0.3c0.7,0,1.3-0.2,1.9-0.5c0.5-0.3,0.7-0.8,0.7-1.4
		c0-0.4-0.1-0.8-0.4-1.1c-0.4-0.3-0.8-0.5-1.3-0.6l-1.3-0.2c-1-0.1-1.9-0.4-2.7-1c-0.6-0.5-0.9-1.3-0.9-2c0-0.9,0.4-1.8,1.1-2.3
		C51,0.3,52,0,53,0c0.4,0,0.7,0,1,0.1c0.4,0.1,0.8,0.2,1.2,0.4c0-0.1,0-0.3,0.1-0.4c0.1-0.1,0.3-0.1,0.4-0.1c0.2,0,0.4,0,0.5,0.1
		c0.1,0.2,0.2,0.4,0.2,0.6l0.1,1.9v0.1c0,0.2-0.1,0.4-0.2,0.5c-0.1,0.1-0.3,0.2-0.5,0.2c-0.3,0-0.6-0.2-0.7-0.7
		c-0.1-0.2-0.1-0.4-0.3-0.6c-0.2-0.3-0.5-0.6-0.9-0.7c-0.4-0.2-0.8-0.3-1.3-0.2c-0.6,0-1.3,0.2-1.8,0.5c-0.4,0.3-0.7,0.9-0.7,1.4
		c0,0.4,0.2,0.8,0.5,1.1c0.5,0.3,1,0.5,1.5,0.5L54,5c0.9,0.1,1.7,0.4,2.4,1c0.5,0.5,0.8,1.3,0.8,2c0,0.9-0.4,1.8-1.1,2.4
		c-0.9,0.6-1.9,1-3,0.9c-0.4,0-0.9-0.1-1.3-0.2C51.3,11,50.8,10.9,50.4,10.7z"/>
	<path id="Trazado_363" class="st0" d="M62.5,1.6h-1.3c-0.3,0-0.5,0-0.8-0.1c-0.2-0.1-0.2-0.3-0.2-0.5c0-0.2,0-0.4,0.2-0.5
		c0.3-0.1,0.7-0.2,1.1-0.1H64c0.2,0,0.5,0,0.7,0.1C64.9,0.6,65,0.8,65,0.9l3.5,8.8h0.2c0.2,0,0.5,0,0.7,0.1c0.1,0.1,0.2,0.3,0.2,0.5
		c0,0.2,0,0.4-0.2,0.5C69.2,10.9,69,11,68.7,11h-2.4c-0.3,0-0.6,0-0.9-0.1c-0.1-0.1-0.2-0.3-0.2-0.5c0-0.2,0.1-0.4,0.2-0.5
		c0.2-0.1,0.5-0.2,0.8-0.1h0.8l-0.9-2.1h-4.6l-0.8,2.1h0.9c0.3,0,0.6,0,0.8,0.1c0.2,0.1,0.2,0.3,0.2,0.5c0,0.2,0,0.4-0.2,0.5
		C62.3,11,62,11,61.7,11h-2.4c-0.3,0-0.5,0-0.8-0.1c-0.1-0.1-0.2-0.3-0.2-0.5c0-0.2,0-0.4,0.2-0.5c0.2-0.1,0.5-0.2,0.7-0.1h0.2
		L62.5,1.6z M62.1,6.4h3.7l-1.9-4.8L62.1,6.4z"/>
	<path id="Trazado_364" class="st0" d="M1.7,16.2c0.1,0,0.1,0,0.2,0c0,0,0,0.1,0,0.1c0,0,0,0.1,0,0.1c-0.1,0-0.1,0-0.2,0H0.5
		c0,0-0.1,0-0.1,0c0,0,0-0.1,0-0.1c0,0,0-0.1,0-0.1c0.1,0,0.1,0,0.2,0H1v-1.7H0.6c-0.1,0-0.1,0-0.2,0c0,0,0-0.1,0-0.1
		c0,0,0-0.1,0-0.1c0,0,0.1,0,0.1,0h1.3c0,0,0.1,0,0.1,0c0,0,0,0.1,0,0.1c0,0,0,0.1,0,0.1c-0.1,0-0.1,0-0.2,0H1.3v1.7L1.7,16.2z"/>
	<path id="Trazado_365" class="st0" d="M2.5,16.2V15h0c-0.1,0-0.1,0-0.2,0c0,0,0-0.1,0-0.1c0,0,0-0.1,0-0.1c0,0,0.1,0,0.1,0h0.3
		c0,0,0.1,0,0.1,0c0,0,0,0,0,0.1V15c0.1-0.1,0.2-0.1,0.3-0.2c0.1,0,0.2-0.1,0.3-0.1c0.2,0,0.3,0.1,0.4,0.2C3.9,15,4,15.2,4,15.4v0.8
		H4c0,0,0.1,0,0.1,0c0,0,0,0.1,0,0.1c0,0,0,0.1,0,0.1c0,0-0.1,0-0.2,0H3.6c-0.1,0-0.1,0-0.2,0c0,0,0-0.1,0-0.1c0,0,0-0.1,0-0.1
		c0,0,0.1,0,0.1,0h0.1v-0.8c0-0.1,0-0.2-0.1-0.3C3.5,15,3.4,15,3.3,15c-0.1,0-0.2,0-0.3,0.1c-0.1,0.1-0.1,0.2-0.1,0.3v0.8h0.1
		c0.1,0,0.1,0,0.2,0c0,0,0,0.1,0,0.1c0,0,0,0.1,0,0.1c-0.1,0-0.1,0-0.2,0H2.4c0,0-0.1,0-0.1,0c0,0,0-0.1,0-0.1c0,0,0-0.1,0-0.1
		C2.4,16.2,2.4,16.2,2.5,16.2L2.5,16.2z"/>
	<path id="Trazado_366" class="st0" d="M4.5,16.3V16c0,0,0-0.1,0-0.1c0,0,0.1,0,0.1,0c0.1,0,0.1,0,0.1,0.1c0,0,0,0.1,0.1,0.1
		c0.1,0.1,0.1,0.1,0.2,0.2c0.1,0,0.2,0.1,0.3,0.1c0.1,0,0.2,0,0.3-0.1c0.1,0,0.1-0.1,0.1-0.2c0-0.1,0-0.2-0.1-0.2
		c-0.1,0-0.2-0.1-0.3-0.1H5.3c-0.2,0-0.4,0-0.6-0.1c-0.1-0.1-0.2-0.2-0.2-0.4c0-0.2,0.1-0.3,0.2-0.4c0.2-0.1,0.4-0.1,0.5-0.1
		c0.1,0,0.2,0,0.3,0c0.1,0,0.2,0,0.2,0c0,0,0.1,0,0.1,0c0,0,0.1,0,0.1,0c0,0,0.1,0,0.1,0c0,0,0,0.1,0,0.1v0.2c0,0,0,0.1,0,0.1
		c0,0-0.1,0-0.1,0c0,0-0.1,0-0.1-0.1c0,0-0.1-0.1-0.1-0.1C5.6,15,5.5,15,5.4,15c-0.1,0-0.2,0-0.3,0c-0.1,0-0.2,0-0.3,0.1
		c-0.1,0-0.1,0.1-0.1,0.2c0,0.1,0,0.1,0.1,0.2c0.2,0,0.3,0.1,0.5,0.1c0.2,0,0.4,0,0.6,0.1c0.1,0.1,0.2,0.2,0.2,0.4
		c0,0.2-0.1,0.3-0.2,0.4c-0.2,0.1-0.3,0.2-0.5,0.2c-0.1,0-0.2,0-0.2,0c-0.1,0-0.2,0-0.3-0.1c0,0-0.1,0-0.1,0.1c0,0-0.1,0-0.1,0
		c0,0-0.1,0-0.1,0C4.5,16.4,4.5,16.4,4.5,16.3z"/>
	<path id="Trazado_367" class="st0" d="M7.9,14.9c0,0,0.1,0,0.1,0c0,0,0,0.1,0,0.1c0,0,0,0.1,0,0.1c0,0-0.1,0-0.1,0H7.2v0.6
		c0,0.1,0,0.3,0.1,0.4c0.1,0.1,0.2,0.1,0.3,0.1c0.1,0,0.3,0,0.4-0.1c0.1,0,0.2-0.1,0.3-0.1c0,0,0.1,0,0.1,0c0,0,0,0.1,0,0.1
		c0,0,0,0.1,0,0.1c0,0-0.1,0.1-0.2,0.1c-0.1,0-0.2,0.1-0.3,0.1c-0.1,0-0.2,0-0.3,0c-0.1,0-0.3,0-0.4-0.1c-0.1,0-0.2-0.1-0.2-0.2
		c0,0,0-0.1-0.1-0.2c0-0.1,0-0.2,0-0.3v-0.7H6.6c0,0-0.1,0-0.1,0c0,0,0-0.1,0-0.1c0,0,0-0.1,0-0.1c0.1,0,0.1,0,0.2,0h0.2v-0.5
		c0,0,0-0.1,0-0.1c0,0,0.1,0,0.1,0c0,0,0.1,0,0.1,0c0,0.1,0,0.1,0,0.2v0.4L7.9,14.9z"/>
	<path id="Trazado_368" class="st0" d="M9.7,16.2h0.6c0,0,0.1,0,0.1,0c0,0,0,0.1,0,0.1c0,0,0,0.1,0,0.1c0,0-0.1,0-0.1,0H8.8
		c0,0-0.1,0-0.1,0c0,0,0-0.1,0-0.1c0,0,0-0.1,0-0.1c0,0,0.1,0,0.1,0h0.6V15H9c0,0-0.1,0-0.1,0c0,0,0-0.1,0-0.1c0,0,0-0.1,0-0.1
		c0,0,0.1,0,0.1,0h0.5c0,0,0.1,0,0.1,0c0,0,0,0,0,0.1L9.7,16.2z M9.3,14.2c0-0.1,0-0.2,0-0.3c0,0,0.1-0.1,0.2-0.1c0.1,0,0.1,0,0.2,0
		c0,0.1,0,0.1,0,0.2c0,0.1,0,0.1,0,0.2c0,0-0.1,0-0.2,0c-0.1,0-0.1,0-0.2,0C9.3,14.3,9.3,14.3,9.3,14.2L9.3,14.2z"/>
	<path id="Trazado_369" class="st0" d="M12.1,14.9c0,0,0.1,0,0.1,0c0,0,0,0.1,0,0.1c0,0,0,0.1,0,0.1c0,0-0.1,0-0.1,0h-0.8v0.6
		c0,0.1,0,0.3,0.1,0.4c0.1,0.1,0.2,0.1,0.3,0.1c0.1,0,0.3,0,0.4-0.1c0.1,0,0.2-0.1,0.3-0.1c0,0,0.1,0,0.1,0c0,0,0,0.1,0,0.1
		c0,0,0,0.1,0,0.1c0,0-0.1,0.1-0.2,0.1c-0.1,0-0.2,0.1-0.3,0.1c-0.1,0-0.2,0-0.3,0c-0.1,0-0.3,0-0.4-0.1c-0.1,0-0.2-0.1-0.2-0.2
		c0,0,0-0.1-0.1-0.2c0-0.1,0-0.2,0-0.3v-0.7h-0.3c0,0-0.1,0-0.1,0c0,0,0-0.1,0-0.1c0,0,0-0.1,0-0.1c0.1,0,0.1,0,0.2,0h0.2v-0.5
		c0,0,0-0.1,0-0.1c0,0,0.1,0,0.1,0c0,0,0.1,0,0.1,0c0,0.1,0,0.1,0,0.2v0.4L12.1,14.9z"/>
	<path id="Trazado_370" class="st0" d="M13.2,15.8c0,0.1,0,0.2,0.1,0.3c0.1,0.1,0.2,0.1,0.3,0.1c0.1,0,0.3,0,0.3-0.1
		c0.1-0.1,0.1-0.2,0.1-0.3V15h-0.3c0,0-0.1,0-0.1,0c0,0,0-0.1,0-0.1c0,0,0-0.1,0-0.1c0,0,0.1,0,0.1,0h0.4c0,0,0.1,0,0.1,0
		c0,0,0,0.1,0,0.2v1.3h0.1c0,0,0.1,0,0.1,0c0,0,0,0.1,0,0.1c0,0,0,0.1,0,0.1c0,0-0.1,0-0.1,0h-0.3c0,0-0.1,0-0.1,0c0,0,0,0,0-0.1
		v-0.1c-0.1,0.1-0.2,0.1-0.3,0.2c-0.1,0-0.2,0.1-0.3,0.1c-0.2,0-0.3,0-0.5-0.2c-0.1-0.1-0.2-0.3-0.2-0.5V15h0c-0.1,0-0.1,0-0.2,0
		c0,0,0-0.1,0-0.1c0,0,0-0.1,0-0.1c0,0,0.1,0,0.1,0h0.3c0,0,0.1,0,0.1,0c0,0,0,0.1,0,0.1L13.2,15.8z"/>
	<path id="Trazado_371" class="st0" d="M16.3,14.9c0,0,0.1,0,0.1,0c0,0,0,0.1,0,0.1c0,0,0,0.1,0,0.1c0,0-0.1,0-0.1,0h-0.8v0.6
		c0,0.1,0,0.3,0.1,0.4c0.1,0.1,0.2,0.1,0.3,0.1c0.1,0,0.3,0,0.4-0.1c0.1,0,0.2-0.1,0.3-0.1c0,0,0.1,0,0.1,0c0,0,0,0.1,0,0.1
		c0,0,0,0.1,0,0.1c0,0-0.1,0.1-0.2,0.1c-0.1,0-0.2,0.1-0.3,0.1c-0.1,0-0.2,0-0.3,0c-0.1,0-0.3,0-0.4-0.1c-0.1,0-0.2-0.1-0.2-0.2
		c0,0,0-0.1-0.1-0.2c0-0.1,0-0.2,0-0.3v-0.7h-0.3c0,0-0.1,0-0.1,0c0,0,0-0.1,0-0.1c0,0,0-0.1,0-0.1c0.1,0,0.1,0,0.2,0h0.2v-0.5
		c0,0,0-0.1,0-0.1c0,0,0.1,0,0.1,0c0,0,0.1,0,0.1,0c0,0.1,0,0.1,0,0.2v0.4L16.3,14.9z"/>
	<path id="Trazado_372" class="st0" d="M18.8,15.6c0,0.2-0.1,0.5-0.3,0.7c-0.4,0.3-1,0.3-1.4,0c-0.4-0.4-0.4-0.9,0-1.3c0,0,0,0,0,0
		c0.4-0.3,1-0.3,1.4,0C18.7,15.1,18.8,15.4,18.8,15.6z M17.9,16.3c0.2,0,0.3-0.1,0.5-0.2c0.2-0.3,0.2-0.7,0-0.9
		c-0.3-0.3-0.7-0.3-0.9,0c-0.1,0.1-0.2,0.3-0.2,0.5c0,0.2,0.1,0.3,0.2,0.5C17.5,16.2,17.7,16.3,17.9,16.3z"/>
	<path id="Trazado_373" class="st0" d="M22.6,16.5C22.6,16.5,22.6,16.5,22.6,16.5C22.5,16.4,22.5,16.4,22.6,16.5l-0.1-0.2
		c-0.1,0.1-0.2,0.2-0.3,0.2c-0.1,0.1-0.2,0.1-0.4,0.1c-0.2,0-0.4-0.1-0.6-0.3c-0.3-0.4-0.3-0.9,0-1.3c0.2-0.2,0.4-0.3,0.6-0.3
		c0.1,0,0.2,0,0.3,0.1c0.1,0,0.2,0.1,0.3,0.2v-0.7h-0.1c-0.1,0-0.1,0-0.2,0c0,0-0.1-0.1,0-0.1c0,0,0-0.1,0-0.1c0,0,0.1,0,0.1,0h0.4
		c0,0,0.1,0,0.1,0c0,0,0,0,0,0.1v2.1h0.1c0,0,0.1,0,0.1,0c0,0,0,0.1,0,0.1c0,0,0,0.1,0,0.1c0,0-0.1,0-0.1,0L22.6,16.5z M21.4,15.6
		c0,0.2,0.1,0.3,0.2,0.4c0.1,0.1,0.3,0.2,0.4,0.2c0.2,0,0.3-0.1,0.4-0.2c0.1-0.1,0.2-0.3,0.2-0.4c0-0.2-0.1-0.3-0.2-0.4
		C22.3,15.1,22.1,15,22,15c-0.2,0-0.3,0.1-0.4,0.2C21.4,15.3,21.4,15.5,21.4,15.6L21.4,15.6z"/>
	<path id="Trazado_374" class="st0" d="M23.5,15.7c0,0.2,0.1,0.3,0.2,0.4c0.1,0.1,0.3,0.2,0.5,0.1c0.2,0,0.3,0,0.5-0.1
		c0.1-0.1,0.2-0.1,0.3-0.1c0,0,0.1,0,0.1,0c0,0,0,0.1,0,0.1c0,0,0,0.1,0,0.1c0,0-0.1,0.1-0.1,0.1c-0.1,0.1-0.3,0.1-0.4,0.1
		c-0.1,0-0.3,0-0.4,0c-0.3,0-0.5-0.1-0.7-0.2c-0.2-0.2-0.3-0.4-0.3-0.7c0-0.3,0.1-0.5,0.3-0.7c0.2-0.2,0.4-0.3,0.7-0.3
		c0.2,0,0.5,0.1,0.7,0.2c0.2,0.1,0.3,0.4,0.3,0.6c0,0.1,0,0.1,0,0.1c-0.1,0-0.2,0-0.2,0H23.5z M23.5,15.4h1.2c0-0.1-0.1-0.3-0.2-0.4
		C24.4,15,24.3,15,24.1,15c-0.2,0-0.3,0-0.4,0.1C23.6,15.2,23.5,15.3,23.5,15.4L23.5,15.4z"/>
	<path id="Trazado_375" class="st0" d="M28.4,16.2c0,0,0.1,0,0.1,0c0,0,0,0.1,0,0.1c0,0,0,0.1,0,0.1c0,0-0.1,0-0.2,0h-0.9
		c0,0-0.1,0-0.1,0c0,0,0-0.1,0-0.1c0,0,0-0.1,0-0.1c0,0,0.1,0,0.1,0h0.2v-1.7h-0.1c-0.1,0-0.1,0-0.2,0c0,0,0-0.1,0-0.1
		c0,0,0-0.1,0-0.1c0,0,0.1,0,0.1,0h0.9c0.2,0,0.5,0,0.7,0.2c0.2,0.1,0.2,0.3,0.2,0.5c0,0.2-0.1,0.4-0.2,0.5
		c-0.2,0.1-0.4,0.2-0.7,0.2H28v0.6L28.4,16.2z M28,14.5v0.9h0.3c0.2,0,0.3,0,0.4-0.1c0.1-0.1,0.2-0.2,0.1-0.3c0-0.1,0-0.2-0.1-0.3
		c-0.1-0.1-0.3-0.1-0.4-0.1L28,14.5z"/>
	<path id="Trazado_376" class="st0" d="M30.2,16.2h0.6c0,0,0.1,0,0.1,0c0,0,0,0.1,0,0.1c0,0,0,0.1,0,0.1c0,0-0.1,0-0.1,0h-1.2
		c0,0-0.1,0-0.1,0c0,0,0-0.1,0-0.1c0,0,0-0.1,0-0.1c0,0,0.1,0,0.1,0h0.3V15h-0.1c-0.1,0-0.2,0-0.2,0c0,0,0-0.1,0-0.1
		c0,0,0-0.1,0-0.1c0,0,0.1,0,0.1,0h0.4c0,0,0.1,0,0.1,0c0,0,0,0,0,0.1v0.3c0.1-0.1,0.2-0.2,0.4-0.3c0.1-0.1,0.3-0.1,0.4-0.1
		c0.1,0,0.2,0,0.3,0.1c0.1,0,0.1,0.1,0.1,0.2c0,0,0,0.1-0.1,0.1c0,0-0.1,0.1-0.1,0.1c-0.1,0-0.1,0-0.1-0.1C31,15,30.9,15,30.9,15
		c-0.1,0-0.2,0-0.3,0.1c-0.1,0.1-0.3,0.2-0.4,0.3L30.2,16.2z"/>
	<path id="Trazado_377" class="st0" d="M33.5,15.6c0,0.2-0.1,0.5-0.3,0.7c-0.4,0.3-1,0.3-1.4,0c-0.4-0.4-0.4-0.9,0-1.3c0,0,0,0,0,0
		c0.4-0.3,1-0.3,1.4,0C33.4,15.1,33.5,15.4,33.5,15.6z M32.5,16.3c0.2,0,0.3-0.1,0.5-0.2c0.2-0.3,0.2-0.7,0-0.9
		c-0.3-0.3-0.7-0.3-0.9,0c-0.1,0.1-0.2,0.3-0.2,0.5c0,0.2,0.1,0.3,0.2,0.5C32.1,16.2,32.3,16.3,32.5,16.3L32.5,16.3z"/>
	<path id="Trazado_378" class="st0" d="M35.1,14.9c0,0,0.1,0,0.1,0c0,0,0,0.1,0,0.1c0,0,0,0.1,0,0.1c0,0-0.1,0-0.1,0h-0.8v0.6
		c0,0.1,0,0.3,0.1,0.4c0.1,0.1,0.2,0.1,0.3,0.1c0.1,0,0.3,0,0.4-0.1c0.1,0,0.2-0.1,0.3-0.1c0,0,0.1,0,0.1,0c0,0,0,0.1,0,0.1
		c0,0,0,0.1,0,0.1c0,0-0.1,0.1-0.2,0.1c-0.1,0-0.2,0.1-0.3,0.1c-0.1,0-0.2,0-0.3,0c-0.1,0-0.3,0-0.4-0.1c-0.1,0-0.2-0.1-0.2-0.2
		c0,0,0-0.1-0.1-0.2c0-0.1,0-0.2,0-0.3v-0.7h-0.3c0,0-0.1,0-0.1,0c0,0,0-0.1,0-0.1c0,0,0-0.1,0-0.1c0.1,0,0.1,0,0.2,0h0.2v-0.5
		c0,0,0-0.1,0-0.1c0,0,0.1,0,0.1,0c0,0,0.1,0,0.1,0c0,0.1,0,0.1,0,0.2v0.4L35.1,14.9z"/>
	<path id="Trazado_379" class="st0" d="M36,15.7c0,0.2,0.1,0.3,0.2,0.4c0.1,0.1,0.3,0.2,0.5,0.1c0.2,0,0.3,0,0.5-0.1
		c0.1-0.1,0.2-0.1,0.3-0.1c0,0,0.1,0,0.1,0c0,0,0,0.1,0,0.1c0,0,0,0.1,0,0.1c0,0-0.1,0.1-0.1,0.1c-0.1,0.1-0.3,0.1-0.4,0.1
		c-0.1,0-0.3,0-0.4,0c-0.3,0-0.5-0.1-0.7-0.2c-0.3-0.4-0.3-1,0-1.3c0.2-0.2,0.4-0.3,0.7-0.3c0.2,0,0.5,0.1,0.7,0.2
		c0.2,0.1,0.3,0.4,0.3,0.6c0,0.1,0,0.1,0,0.1c-0.1,0-0.2,0-0.2,0L36,15.7L36,15.7z M36,15.4h1.2c0-0.1-0.1-0.3-0.2-0.4
		C37,15,36.8,15,36.7,15c-0.2,0-0.3,0-0.4,0.1C36.2,15.2,36.1,15.3,36,15.4L36,15.4z"/>
	<path id="Trazado_380" class="st0" d="M39.3,14.9L39.3,14.9C39.3,14.8,39.3,14.8,39.3,14.9c0.1-0.1,0.1-0.1,0.1-0.1
		c0,0,0.1,0,0.1,0c0,0.1,0,0.1,0,0.2v0.3c0,0,0,0.1,0,0.1c0,0-0.1,0-0.1,0c0,0-0.1,0-0.1,0c0,0-0.1-0.1-0.1-0.1
		c-0.1-0.1-0.1-0.2-0.2-0.2C39,15,38.9,15,38.8,15c-0.2,0-0.3,0.1-0.5,0.2c-0.1,0.1-0.2,0.3-0.2,0.4c0,0.2,0.1,0.3,0.2,0.5
		c0.1,0.1,0.3,0.2,0.5,0.2c0.2,0,0.3,0,0.5-0.1c0,0,0.1,0,0.1-0.1c0.1-0.1,0.1-0.1,0.2-0.1c0.1,0,0.1,0,0.1,0.1c0,0,0,0,0,0
		c0,0.1-0.1,0.2-0.3,0.3c-0.2,0.1-0.4,0.2-0.6,0.2c-0.3,0-0.5-0.1-0.7-0.3c-0.4-0.4-0.4-0.9,0-1.3c0,0,0,0,0,0
		c0.2-0.2,0.4-0.3,0.7-0.3c0.1,0,0.2,0,0.3,0C39.1,14.8,39.2,14.8,39.3,14.9z"/>
	<path id="Trazado_381" class="st0" d="M41.4,14.9L41.4,14.9C41.4,14.8,41.4,14.8,41.4,14.9c0.1-0.1,0.1-0.1,0.1-0.1
		c0,0,0.1,0,0.1,0c0,0.1,0,0.1,0,0.2v0.3c0,0,0,0.1,0,0.1c0,0-0.1,0-0.1,0c0,0-0.1,0-0.1,0c0,0-0.1-0.1-0.1-0.1
		c-0.1-0.1-0.1-0.2-0.2-0.2C41.1,15,41,15,40.9,15c-0.2,0-0.3,0.1-0.5,0.2c-0.1,0.1-0.2,0.3-0.2,0.4c0,0.2,0.1,0.3,0.2,0.5
		c0.1,0.1,0.3,0.2,0.5,0.2c0.2,0,0.3,0,0.5-0.1c0,0,0.1,0,0.1-0.1c0.1-0.1,0.1-0.1,0.2-0.1c0.1,0,0.1,0,0.1,0.1c0,0,0,0,0,0
		c0,0.1-0.1,0.2-0.3,0.3c-0.2,0.1-0.4,0.2-0.6,0.2c-0.3,0-0.5-0.1-0.7-0.3c-0.4-0.4-0.4-0.9,0-1.3c0,0,0,0,0,0
		c0.2-0.2,0.4-0.3,0.7-0.3c0.1,0,0.2,0,0.3,0C41.2,14.8,41.3,14.8,41.4,14.9z"/>
	<path id="Trazado_382" class="st0" d="M43.1,16.2h0.6c0,0,0.1,0,0.1,0c0,0,0,0.1,0,0.1c0,0,0,0.1,0,0.1c0,0-0.1,0-0.1,0h-1.4
		c0,0-0.1,0-0.1,0c0,0,0-0.1,0-0.1c0,0,0-0.1,0-0.1c0,0,0.1,0,0.1,0h0.6V15h-0.4c0,0-0.1,0-0.1,0c-0.1-0.1-0.1-0.1,0-0.2
		c0,0,0.1,0,0.1,0H43c0,0,0.1,0,0.1,0c0,0,0,0,0,0.1L43.1,16.2z M42.8,14.2c0-0.1,0-0.2,0-0.3c0,0,0.1-0.1,0.2-0.1
		c0.1,0,0.1,0,0.2,0c0,0.1,0,0.1,0,0.2c0,0.1,0,0.1,0,0.2c0,0-0.1,0-0.2,0c-0.1,0-0.1,0-0.2,0C42.8,14.3,42.8,14.3,42.8,14.2
		L42.8,14.2z"/>
	<path id="Trazado_383" class="st0" d="M46,15.6c0,0.2-0.1,0.5-0.3,0.7c-0.4,0.3-1,0.3-1.4,0c-0.4-0.4-0.4-0.9,0-1.3c0,0,0,0,0,0
		c0.4-0.3,1-0.3,1.4,0C45.9,15.1,46,15.4,46,15.6z M45,16.3c0.2,0,0.3-0.1,0.5-0.2c0.2-0.3,0.2-0.7,0-0.9c-0.3-0.2-0.7-0.2-0.9,0
		c-0.1,0.1-0.2,0.3-0.2,0.5c0,0.2,0.1,0.3,0.2,0.5C44.7,16.2,44.9,16.3,45,16.3L45,16.3z M44.6,14.4l0.9-0.5l0,0h0c0,0,0,0,0,0
		c0,0,0,0,0,0l0.1,0.1c0,0,0,0,0,0c0,0,0,0,0,0c0,0,0,0,0,0c0,0,0,0,0,0l-1,0.3L44.6,14.4z"/>
	<path id="Trazado_384" class="st0" d="M46.4,16.2V15h0c-0.1,0-0.1,0-0.2,0c0,0,0-0.1,0-0.1c0,0,0-0.1,0-0.1c0,0,0.1,0,0.1,0h0.3
		c0,0,0.1,0,0.1,0c0,0,0,0,0,0.1V15c0.1-0.1,0.2-0.1,0.3-0.2c0.1,0,0.2-0.1,0.3-0.1c0.2,0,0.3,0.1,0.4,0.2c0.1,0.1,0.2,0.3,0.2,0.5
		v0.8H48c0,0,0.1,0,0.1,0c0,0,0,0.1,0,0.1c0,0,0,0.1,0,0.1c0,0-0.1,0-0.2,0h-0.4c-0.1,0-0.1,0-0.2,0c0,0,0-0.1,0-0.1
		c0,0,0-0.1,0-0.1c0,0,0.1,0,0.1,0h0.1v-0.8c0-0.1,0-0.2-0.1-0.3C47.4,15,47.3,15,47.2,15c-0.1,0-0.2,0-0.3,0.1
		c-0.1,0.1-0.1,0.2-0.1,0.3v0.8h0.1c0.1,0,0.1,0,0.2,0c0,0,0,0.1,0,0.1c0,0,0,0.1,0,0.1c-0.1,0-0.1,0-0.2,0h-0.4c0,0-0.1,0-0.1,0
		c0,0,0-0.1,0-0.1c0,0,0-0.1,0-0.1C46.3,16.2,46.3,16.2,46.4,16.2L46.4,16.2z"/>
	<path id="Trazado_385" class="st0" d="M51.2,17L51.2,17c0.1,0,0.2,0,0.3,0c0,0,0.1,0.1,0,0.1c0,0,0,0.1,0,0.1c0,0-0.1,0-0.1,0h-0.9
		c0,0-0.1,0-0.1,0c0-0.1,0-0.1,0-0.2c0,0,0.1,0,0.1,0h0.4l0.3-0.6L50.5,15c-0.1,0-0.1,0-0.2,0c0,0,0-0.1,0-0.1c0,0,0-0.1,0-0.1
		c0,0,0.1,0,0.1,0h0.5c0,0,0.1,0,0.1,0c0,0,0,0.1,0,0.1c0,0,0,0.1,0,0.1c-0.1,0-0.1,0-0.2,0h-0.1l0.5,1l0.5-1h-0.1
		c-0.1,0-0.1,0-0.2,0c0,0,0-0.1,0-0.1c0,0,0-0.1,0-0.1c0,0,0.1,0,0.1,0h0.5c0,0,0.1,0,0.1,0c0,0,0,0.1,0,0.1c0,0,0,0.1,0,0.1
		c0,0-0.1,0-0.1,0L51.2,17z"/>
	<path id="Trazado_386" class="st0" d="M54.9,16.4c0,0,0,0.1,0,0.1c0,0-0.1,0-0.1,0c0,0-0.1,0-0.1,0c0,0,0-0.1,0-0.1l0-0.4v0
		c0,0,0-0.1,0-0.1c0,0,0.1,0,0.1,0c0.1,0,0.1,0.1,0.2,0.2c0,0,0,0.1,0,0.1c0,0.1,0.1,0.2,0.2,0.2c0.1,0,0.2,0.1,0.3,0.1
		c0.1,0,0.3,0,0.4-0.1C56,16.1,56,16,56,15.9c0-0.1,0-0.2-0.1-0.2c-0.1-0.1-0.2-0.1-0.3-0.1l-0.3,0c-0.2,0-0.4-0.1-0.6-0.2
		c-0.1-0.1-0.2-0.3-0.2-0.4c0-0.2,0.1-0.4,0.2-0.5c0.2-0.1,0.4-0.2,0.6-0.2c0.1,0,0.1,0,0.2,0c0.1,0,0.2,0.1,0.3,0.1
		c0,0,0-0.1,0-0.1c0,0,0.1,0,0.1,0c0,0,0.1,0,0.1,0c0,0,0,0.1,0,0.1l0,0.4v0c0,0,0,0.1,0,0.1c0,0-0.1,0-0.1,0c-0.1,0-0.1,0-0.2-0.1
		c0,0,0-0.1-0.1-0.1c0-0.1-0.1-0.1-0.2-0.1c-0.1,0-0.2-0.1-0.3-0.1c-0.1,0-0.3,0-0.4,0.1C55,14.6,55,14.7,55,14.8
		c0,0.1,0,0.2,0.1,0.2c0.1,0.1,0.2,0.1,0.3,0.1l0.3,0c0.2,0,0.4,0.1,0.5,0.2c0.1,0.1,0.2,0.3,0.2,0.4c0,0.2-0.1,0.4-0.2,0.5
		c-0.2,0.1-0.4,0.2-0.6,0.2c-0.1,0-0.2,0-0.3,0C55.1,16.5,55,16.4,54.9,16.4z"/>
	<path id="Trazado_387" class="st0" d="M58,16.2c-0.1,0.1-0.2,0.2-0.3,0.2c-0.1,0-0.2,0.1-0.4,0.1c-0.2,0-0.3,0-0.5-0.2
		c-0.1-0.1-0.2-0.2-0.2-0.4c0-0.2,0.1-0.4,0.2-0.5c0.2-0.1,0.4-0.2,0.6-0.2c0.1,0,0.1,0,0.2,0c0.1,0,0.2,0,0.2,0v0
		c0-0.2-0.1-0.4-0.3-0.4c0,0-0.1,0-0.1,0c-0.1,0-0.2,0-0.3,0.1c-0.1,0-0.2,0.1-0.2,0.1c0,0-0.1,0-0.1,0c0,0,0-0.1,0-0.1
		c0-0.1,0.1-0.1,0.2-0.2c0.2-0.1,0.3-0.1,0.5-0.1c0.3,0,0.6,0.2,0.7,0.5c0,0.1,0,0.1,0,0.2v0.8h0.1c0.1,0,0.1,0,0.2,0
		c0,0,0,0.1,0,0.1c0,0,0,0.1,0,0.1c0,0-0.1,0-0.1,0h-0.3c0,0-0.1,0-0.1,0c0,0,0-0.1,0-0.1L58,16.2z M58,15.6c-0.1,0-0.1,0-0.2,0
		c-0.1,0-0.1,0-0.2,0c-0.2,0-0.3,0-0.5,0.1c-0.1,0-0.2,0.1-0.2,0.3c0,0.1,0,0.2,0.1,0.2c0.1,0.1,0.2,0.1,0.3,0.1
		c0.2,0,0.3,0,0.4-0.1c0.1-0.1,0.2-0.2,0.2-0.3L58,15.6z"/>
	<path id="Trazado_388" class="st0" d="M59,16.2V15h0c-0.1,0-0.1,0-0.2,0c0,0,0-0.1,0-0.1c0,0,0-0.1,0-0.1c0,0,0.1,0,0.1,0h0.3
		c0,0,0.1,0,0.1,0c0,0,0,0,0,0.1V15c0.1-0.1,0.2-0.1,0.3-0.2c0.1,0,0.2-0.1,0.3-0.1c0.2,0,0.3,0.1,0.4,0.2c0.1,0.1,0.2,0.3,0.2,0.5
		v0.8h0.1c0,0,0.1,0,0.1,0c0,0,0,0.1,0,0.1c0,0,0,0.1,0,0.1c0,0-0.1,0-0.2,0h-0.4c-0.1,0-0.1,0-0.2,0c0,0,0-0.1,0-0.1
		c0,0,0-0.1,0-0.1c0,0,0.1,0,0.1,0h0.1v-0.8c0-0.1,0-0.2-0.1-0.3C60,15,59.8,15,59.7,15c-0.1,0-0.2,0-0.3,0.1
		c-0.1,0.1-0.1,0.2-0.1,0.3v0.8h0.1c0.1,0,0.1,0,0.2,0c0,0,0,0.1,0,0.1c0,0,0,0.1,0,0.1c-0.1,0-0.1,0-0.2,0h-0.4c0,0-0.1,0-0.1,0
		c0,0,0-0.1,0-0.1c0,0,0-0.1,0-0.1C58.8,16.2,58.9,16.2,59,16.2L59,16.2z"/>
	<path id="Trazado_389" class="st0" d="M61.9,16.2h0.6c0,0,0.1,0,0.1,0c0,0,0,0.1,0,0.1c0,0,0,0.1,0,0.1c0,0-0.1,0-0.1,0h-1.4
		c0,0-0.1,0-0.1,0c0,0,0-0.1,0-0.1c0,0,0-0.1,0-0.1c0,0,0.1,0,0.1,0h0.6V15h-0.4c0,0-0.1,0-0.1,0c0,0,0-0.1,0-0.1c0,0,0-0.1,0-0.1
		c0,0,0.1,0,0.1,0h0.5c0,0,0.1,0,0.1,0c0,0,0,0,0,0.1L61.9,16.2z M61.6,14.2c0-0.1,0-0.2,0-0.3c0,0,0.1-0.1,0.2-0.1
		c0.1,0,0.1,0,0.2,0c0,0.1,0,0.1,0,0.2c0,0.1,0,0.1,0,0.2c0,0-0.1,0-0.2,0c-0.1,0-0.1,0-0.2,0C61.6,14.3,61.6,14.3,61.6,14.2
		L61.6,14.2z"/>
	<path id="Trazado_390" class="st0" d="M64.4,16.5C64.4,16.5,64.4,16.5,64.4,16.5C64.3,16.4,64.3,16.4,64.4,16.5l-0.1-0.2
		c-0.1,0.1-0.2,0.2-0.3,0.2c-0.1,0.1-0.2,0.1-0.4,0.1c-0.2,0-0.4-0.1-0.6-0.3c-0.3-0.4-0.3-0.9,0-1.3c0.2-0.2,0.4-0.3,0.6-0.3
		c0.1,0,0.2,0,0.3,0.1c0.1,0,0.2,0.1,0.3,0.2v-0.7h-0.1c-0.1,0-0.1,0-0.2,0c0,0-0.1-0.1,0-0.1c0,0,0-0.1,0-0.1c0,0,0.1,0,0.1,0h0.4
		c0,0,0.1,0,0.1,0c0,0,0,0,0,0.1v2.1h0.1c0,0,0.1,0,0.1,0c0,0,0,0.1,0,0.1c0,0,0,0.1,0,0.1c0,0-0.1,0-0.1,0L64.4,16.5z M63.2,15.6
		c0,0.2,0.1,0.3,0.2,0.4c0.1,0.1,0.3,0.2,0.4,0.2c0.2,0,0.3-0.1,0.4-0.2c0.1-0.1,0.2-0.3,0.2-0.4c0-0.2-0.1-0.3-0.2-0.4
		c-0.1-0.1-0.3-0.2-0.4-0.2c-0.2,0-0.3,0.1-0.4,0.2C63.2,15.3,63.2,15.5,63.2,15.6L63.2,15.6z"/>
	<path id="Trazado_391" class="st0" d="M66.4,16.2c-0.1,0.1-0.2,0.2-0.3,0.2c-0.1,0-0.2,0.1-0.4,0.1c-0.2,0-0.3,0-0.5-0.2
		C65.1,16.3,65,16.1,65,16c0-0.2,0.1-0.4,0.2-0.5c0.2-0.1,0.4-0.2,0.6-0.2c0.1,0,0.1,0,0.2,0c0.1,0,0.2,0,0.2,0v0
		c0-0.1,0-0.2-0.1-0.3C66.2,15,66.1,15,65.9,15c-0.1,0-0.2,0-0.3,0.1c-0.1,0-0.2,0.1-0.2,0.1c0,0-0.1,0-0.1,0c0,0,0-0.1,0-0.1
		c0-0.1,0.1-0.1,0.2-0.2c0.2-0.1,0.3-0.1,0.5-0.1c0.2,0,0.4,0,0.5,0.2c0.1,0.1,0.2,0.3,0.2,0.5v0.8h0.1c0.1,0,0.1,0,0.2,0
		c0,0,0,0.1,0,0.1c0,0,0,0.1,0,0.1c0,0-0.1,0-0.1,0h-0.3c0,0-0.1,0-0.1,0c0,0,0-0.1,0-0.1L66.4,16.2z M66.4,15.6c-0.1,0-0.1,0-0.2,0
		c-0.1,0-0.1,0-0.2,0c-0.2,0-0.3,0-0.5,0.1c-0.1,0-0.2,0.1-0.2,0.3c0,0.1,0,0.2,0.1,0.2c0.1,0.1,0.2,0.1,0.3,0.1
		c0.2,0,0.3,0,0.4-0.1c0.1-0.1,0.2-0.2,0.2-0.3L66.4,15.6z"/>
	<path id="Trazado_392" class="st0" d="M68.6,16.5C68.6,16.5,68.6,16.5,68.6,16.5C68.5,16.4,68.5,16.4,68.6,16.5l-0.1-0.2
		c-0.1,0.1-0.2,0.2-0.3,0.2c-0.1,0.1-0.2,0.1-0.4,0.1c-0.2,0-0.4-0.1-0.6-0.3c-0.3-0.4-0.3-0.9,0-1.3c0.2-0.2,0.4-0.3,0.6-0.3
		c0.1,0,0.2,0,0.3,0.1c0.1,0,0.2,0.1,0.3,0.2v-0.7h-0.1c-0.1,0-0.1,0-0.2,0c0,0-0.1-0.1,0-0.1c0,0,0-0.1,0-0.1c0,0,0.1,0,0.1,0h0.4
		c0,0,0.1,0,0.1,0c0,0,0,0,0,0.1v2.1h0.1c0,0,0.1,0,0.1,0c0,0,0,0.1,0,0.1c0,0,0,0.1,0,0.1c0,0-0.1,0-0.1,0L68.6,16.5z M67.4,15.6
		c0,0.2,0.1,0.3,0.2,0.4c0.1,0.1,0.3,0.2,0.4,0.2c0.2,0,0.3-0.1,0.4-0.2c0.1-0.1,0.2-0.3,0.2-0.4c0-0.2-0.1-0.3-0.2-0.4
		C68.3,15.1,68.1,15,68,15c-0.2,0-0.3,0.1-0.4,0.2C67.4,15.3,67.4,15.5,67.4,15.6L67.4,15.6z"/>
	<path id="Trazado_393" class="st0" d="M71.9,14.5h-0.3c-0.1,0-0.1,0-0.2,0c0,0,0-0.1,0-0.1c0,0,0-0.1,0-0.1c0.1,0,0.1,0,0.2,0h0.5
		c0,0,0.1,0,0.1,0c0,0,0.1,0.1,0.1,0.1l0.7,1.8h0c0,0,0.1,0,0.1,0c0,0,0,0.1,0,0.1c0,0,0,0.1,0,0.1c0,0-0.1,0-0.1,0h-0.5
		c-0.1,0-0.1,0-0.2,0c0,0,0-0.1,0-0.1c0,0,0-0.1,0-0.1c0.1,0,0.1,0,0.2,0h0.2l-0.2-0.4h-0.9l-0.2,0.4h0.2c0.1,0,0.1,0,0.2,0
		c0,0,0,0.1,0,0.1c0,0,0,0.1,0,0.1c-0.1,0-0.1,0-0.2,0h-0.5c-0.1,0-0.1,0-0.2,0c0,0,0-0.1,0-0.1c0,0,0-0.1,0-0.1c0,0,0.1,0,0.2,0h0
		L71.9,14.5z M71.8,15.5h0.8l-0.4-1L71.8,15.5z"/>
	<path id="Trazado_394" class="st0" d="M75.1,16.4c0,0.1,0,0.2,0,0.4c0,0.1,0,0.1-0.1,0.2c-0.1,0.1-0.2,0.2-0.3,0.2
		c-0.1,0.1-0.3,0.1-0.4,0.1c-0.1,0-0.2,0-0.3,0c-0.1,0-0.1-0.1-0.1-0.1c0,0,0-0.1,0-0.1c0,0,0.1,0,0.1,0c0.1,0,0.1,0,0.2,0
		c0.1,0,0.1,0,0.2,0c0.1,0,0.3,0,0.4-0.1c0.1-0.1,0.1-0.3,0.1-0.4v-0.2c-0.1,0.1-0.2,0.2-0.3,0.2c-0.3,0.1-0.7,0.1-0.9-0.2
		c-0.3-0.3-0.3-0.9,0-1.2c0.2-0.2,0.4-0.2,0.6-0.2c0.1,0,0.2,0,0.3,0.1c0.1,0,0.2,0.1,0.3,0.2v-0.1c0,0,0,0,0-0.1c0,0,0.1,0,0.1,0
		h0.3c0,0,0.1,0,0.1,0c0,0,0,0.1,0,0.1c0,0,0,0.1,0,0.1c-0.1,0-0.1,0-0.2,0h0L75.1,16.4z M74.3,15c-0.1,0-0.3,0-0.4,0.2
		c-0.2,0.2-0.2,0.6,0,0.8c0.2,0.2,0.6,0.2,0.8,0c0.2-0.2,0.2-0.6,0-0.8C74.5,15.1,74.4,15,74.3,15L74.3,15z"/>
	<path id="Trazado_395" class="st0" d="M76.2,16.2h0.6c0,0,0.1,0,0.1,0c0,0,0,0.1,0,0.1c0,0,0,0.1,0,0.1c0,0-0.1,0-0.1,0h-1.2
		c0,0-0.1,0-0.1,0c0,0,0-0.1,0-0.1c0,0,0-0.1,0-0.1c0,0,0.1,0,0.1,0h0.3V15h-0.1c-0.1,0-0.2,0-0.2,0c0,0,0-0.1,0-0.1
		c0,0,0-0.1,0-0.1c0,0,0.1,0,0.1,0h0.4c0,0,0.1,0,0.1,0c0,0,0,0,0,0.1v0.3c0.1-0.1,0.2-0.2,0.4-0.3c0.1-0.1,0.3-0.1,0.4-0.1
		c0.1,0,0.2,0,0.3,0.1c0.1,0,0.1,0.1,0.1,0.2c0,0,0,0.1-0.1,0.1c0,0-0.1,0.1-0.1,0.1c-0.1,0-0.1,0-0.1-0.1C77,15,76.9,15,76.9,15
		c-0.1,0-0.2,0-0.3,0.1c-0.1,0.1-0.3,0.2-0.4,0.3L76.2,16.2z"/>
	<path id="Trazado_396" class="st0" d="M79.5,15.6c0,0.2-0.1,0.5-0.3,0.7c-0.4,0.3-1,0.3-1.4,0c-0.4-0.4-0.4-0.9,0-1.3c0,0,0,0,0,0
		c0.4-0.3,1-0.3,1.4,0C79.4,15.1,79.5,15.4,79.5,15.6z M78.5,16.3c0.2,0,0.3-0.1,0.5-0.2c0.2-0.3,0.2-0.7,0-0.9
		c-0.3-0.3-0.7-0.3-0.9,0c-0.1,0.1-0.2,0.3-0.2,0.5c0,0.2,0.1,0.3,0.2,0.5C78.1,16.2,78.3,16.3,78.5,16.3L78.5,16.3z"/>
	<path id="Trazado_397" class="st0" d="M80.1,17h0.4c0,0,0.1,0,0.1,0c0,0.1,0,0.1,0,0.2c0,0-0.1,0-0.1,0h-0.8c0,0-0.1,0-0.1,0
		c0,0,0-0.1,0-0.1c0,0,0-0.1,0-0.1c0.1,0,0.1,0,0.2,0h0V15h0c-0.1,0-0.1,0-0.2,0c0,0,0-0.1,0-0.1c0,0,0-0.1,0-0.1c0,0,0.1,0,0.1,0
		H80c0,0,0.1,0,0.1,0c0,0,0,0,0,0.1V15c0.1-0.1,0.2-0.2,0.3-0.2c0.1,0,0.2-0.1,0.3-0.1c0.2,0,0.5,0.1,0.6,0.3
		c0.2,0.2,0.3,0.4,0.3,0.6c0,0.2-0.1,0.4-0.2,0.6c-0.2,0.2-0.4,0.2-0.6,0.2c-0.1,0-0.2,0-0.4-0.1c-0.1,0-0.2-0.1-0.3-0.2L80.1,17z
		 M80.7,16.2c0.2,0,0.3-0.1,0.4-0.2c0.2-0.2,0.2-0.6,0-0.8c-0.2-0.2-0.6-0.3-0.8,0s-0.3,0.6,0,0.8C80.3,16.1,80.5,16.2,80.7,16.2
		L80.7,16.2z"/>
	<path id="Trazado_398" class="st0" d="M82,15.7c0,0.2,0.1,0.3,0.2,0.4c0.1,0.1,0.3,0.2,0.5,0.1c0.2,0,0.3,0,0.5-0.1
		c0.1-0.1,0.2-0.1,0.3-0.1c0,0,0.1,0,0.1,0c0,0,0,0.1,0,0.1c0,0,0,0.1,0,0.1c0,0-0.1,0.1-0.1,0.1c-0.1,0.1-0.3,0.1-0.4,0.1
		c-0.1,0-0.3,0-0.4,0c-0.3,0-0.5-0.1-0.7-0.2c-0.3-0.4-0.3-1,0-1.3c0.2-0.2,0.4-0.3,0.7-0.3c0.2,0,0.5,0.1,0.7,0.2
		c0.2,0.1,0.3,0.4,0.3,0.6c0,0.1,0,0.1,0,0.1c-0.1,0-0.2,0-0.2,0H82z M82,15.4h1.2c0-0.1-0.1-0.3-0.2-0.4C83,15,82.8,15,82.7,15
		c-0.2,0-0.3,0-0.4,0.1C82.2,15.2,82.1,15.3,82,15.4z"/>
	<path id="Trazado_399" class="st0" d="M85.3,14.9L85.3,14.9C85.3,14.8,85.3,14.8,85.3,14.9c0.1-0.1,0.1-0.1,0.1-0.1
		c0,0,0.1,0,0.1,0c0,0.1,0,0.1,0,0.2v0.3c0,0,0,0.1,0,0.1c0,0-0.1,0-0.1,0c0,0-0.1,0-0.1,0c0,0-0.1-0.1-0.1-0.1
		c-0.1-0.1-0.1-0.2-0.2-0.2C85,15,84.9,15,84.8,15c-0.2,0-0.3,0.1-0.5,0.2c-0.1,0.1-0.2,0.3-0.2,0.4c0,0.2,0.1,0.3,0.2,0.5
		c0.1,0.1,0.3,0.2,0.5,0.2c0.2,0,0.3,0,0.5-0.1c0,0,0.1,0,0.1-0.1c0.1-0.1,0.1-0.1,0.2-0.1c0.1,0,0.1,0,0.1,0.1c0,0,0,0,0,0
		c0,0.1-0.1,0.2-0.3,0.3c-0.2,0.1-0.4,0.2-0.6,0.2c-0.3,0-0.5-0.1-0.7-0.3c-0.4-0.4-0.4-0.9,0-1.3c0,0,0,0,0,0
		c0.2-0.2,0.4-0.3,0.7-0.3c0.1,0,0.2,0,0.3,0C85.1,14.8,85.2,14.8,85.3,14.9z"/>
	<path id="Trazado_400" class="st0" d="M86.4,15.8c0,0.1,0,0.2,0.1,0.3c0.1,0.1,0.2,0.1,0.3,0.1c0.1,0,0.3,0,0.3-0.1
		c0.1-0.1,0.1-0.2,0.1-0.3V15H87c0,0-0.1,0-0.1,0c0,0,0-0.1,0-0.1c0,0,0-0.1,0-0.1c0,0,0.1,0,0.1,0h0.4c0,0,0.1,0,0.1,0
		c0,0,0,0.1,0,0.2v1.3h0.1c0,0,0.1,0,0.1,0c0,0,0,0.1,0,0.1c0,0,0,0.1,0,0.1c0,0-0.1,0-0.1,0h-0.3c0,0-0.1,0-0.1,0c0,0,0,0,0-0.1
		v-0.1c-0.1,0.1-0.2,0.1-0.3,0.2c-0.1,0-0.2,0.1-0.3,0.1c-0.2,0-0.3,0-0.5-0.2c-0.1-0.1-0.2-0.3-0.2-0.5V15h0c-0.1,0-0.1,0-0.2,0
		c0,0,0-0.1,0-0.1c0,0,0-0.1,0-0.1c0,0,0.1,0,0.1,0h0.3c0,0,0.1,0,0.1,0c0,0,0,0.1,0,0.1V15.8z"/>
	<path id="Trazado_401" class="st0" d="M89.4,16.2c-0.1,0.1-0.2,0.2-0.3,0.2c-0.1,0-0.2,0.1-0.4,0.1c-0.2,0-0.3,0-0.4-0.2
		c-0.1-0.1-0.2-0.2-0.2-0.4c0-0.2,0.1-0.4,0.2-0.5c0.2-0.1,0.4-0.2,0.6-0.2c0.1,0,0.1,0,0.2,0c0.1,0,0.2,0,0.2,0v0
		c0-0.1,0-0.2-0.1-0.3C89.2,15,89.1,15,88.9,15c-0.1,0-0.2,0-0.3,0.1c-0.1,0-0.2,0.1-0.2,0.1c0,0-0.1,0-0.1,0c0,0,0-0.1,0-0.1
		c0-0.1,0.1-0.1,0.2-0.2c0.2-0.1,0.3-0.1,0.5-0.1c0.2,0,0.4,0,0.5,0.2c0.1,0.1,0.2,0.3,0.2,0.5v0.8h0.1c0.1,0,0.1,0,0.2,0
		c0,0,0,0.1,0,0.1c0,0,0,0.1,0,0.1c0,0-0.1,0-0.1,0h-0.3c0,0-0.1,0-0.1,0c0,0,0-0.1,0-0.1L89.4,16.2z M89.4,15.6c-0.1,0-0.1,0-0.2,0
		c-0.1,0-0.1,0-0.2,0c-0.2,0-0.3,0-0.5,0.1c-0.1,0-0.2,0.1-0.2,0.3c0,0.1,0,0.2,0.1,0.2c0.1,0.1,0.2,0.1,0.3,0.1
		c0.2,0,0.3,0,0.4-0.1c0.1-0.1,0.2-0.2,0.2-0.3L89.4,15.6z"/>
	<path id="Trazado_402" class="st0" d="M90.9,16.2h0.6c0,0,0.1,0,0.1,0c0,0,0,0.1,0,0.1c0,0,0,0.1,0,0.1c0,0-0.1,0-0.1,0h-1.2
		c0,0-0.1,0-0.1,0c0,0,0-0.1,0-0.1c0,0,0-0.1,0-0.1c0,0,0.1,0,0.1,0h0.3V15h-0.1c-0.1,0-0.2,0-0.2,0c0,0,0-0.1,0-0.1
		c0,0,0-0.1,0-0.1c0,0,0.1,0,0.1,0h0.4c0,0,0.1,0,0.1,0c0,0,0,0,0,0.1v0.3c0.1-0.1,0.2-0.2,0.4-0.3c0.1-0.1,0.3-0.1,0.4-0.1
		c0.1,0,0.2,0,0.3,0.1c0.1,0,0.1,0.1,0.1,0.2c0,0,0,0.1-0.1,0.1c0,0-0.1,0.1-0.1,0.1c-0.1,0-0.1,0-0.1-0.1c-0.1,0-0.1-0.1-0.2-0.1
		c-0.1,0-0.2,0-0.3,0.1c-0.1,0.1-0.3,0.2-0.4,0.3L90.9,16.2z"/>
	<path id="Trazado_403" class="st0" d="M93.3,16.2h0.6c0,0,0.1,0,0.1,0c0,0,0,0.1,0,0.1c0,0,0,0.1,0,0.1c0,0-0.1,0-0.1,0h-1.4
		c0,0-0.1,0-0.1,0c0,0,0-0.1,0-0.1c0,0,0-0.1,0-0.1c0,0,0.1,0,0.1,0H93V15h-0.4c0,0-0.1,0-0.1,0c0,0,0-0.1,0-0.1c0,0,0-0.1,0-0.1
		c0,0,0.1,0,0.1,0h0.5c0,0,0.1,0,0.1,0c0,0,0,0,0,0.1L93.3,16.2z M93,14.2c0-0.1,0-0.2,0-0.3c0,0,0.1-0.1,0.2-0.1c0.1,0,0.1,0,0.2,0
		c0,0.1,0,0.1,0,0.2c0,0.1,0,0.1,0,0.2c0,0-0.1,0-0.2,0c-0.1,0-0.1,0-0.2,0C93,14.3,92.9,14.3,93,14.2L93,14.2z"/>
	<path id="Trazado_404" class="st0" d="M95.6,16.2c-0.1,0.1-0.2,0.2-0.3,0.2c-0.1,0-0.2,0.1-0.4,0.1c-0.2,0-0.3,0-0.4-0.2
		c-0.1-0.1-0.2-0.2-0.2-0.4c0-0.2,0.1-0.4,0.2-0.5c0.2-0.1,0.4-0.2,0.6-0.2c0.1,0,0.1,0,0.2,0c0.1,0,0.2,0,0.2,0v0
		c0-0.2-0.1-0.4-0.3-0.4c0,0-0.1,0-0.1,0c-0.1,0-0.2,0-0.3,0.1c-0.1,0-0.2,0.1-0.2,0.1c0,0-0.1,0-0.1,0c0,0,0-0.1,0-0.1
		c0-0.1,0.1-0.1,0.2-0.2c0.2-0.1,0.3-0.1,0.5-0.1c0.2,0,0.4,0,0.5,0.2c0.1,0.1,0.2,0.3,0.2,0.5v0.8H96c0.1,0,0.1,0,0.2,0
		c0,0,0,0.1,0,0.1c0,0,0,0.1,0,0.1c0,0-0.1,0-0.1,0h-0.3c0,0-0.1,0-0.1,0c0,0,0-0.1,0-0.1L95.6,16.2z M95.6,15.6c-0.1,0-0.1,0-0.2,0
		c-0.1,0-0.1,0-0.2,0c-0.2,0-0.3,0-0.5,0.1c-0.1,0-0.2,0.1-0.2,0.3c0,0.1,0,0.2,0.1,0.2c0.1,0.1,0.2,0.1,0.3,0.1
		c0.2,0,0.3,0,0.4-0.1c0.1-0.1,0.2-0.2,0.2-0.3L95.6,15.6z"/>
</g>
</svg>
