<?xml version="1.0" encoding="utf-8"?>
<!-- Generator: Adobe Illustrator 24.2.3, SVG Export Plug-In . SVG Version: 6.00 Build 0)  -->
<svg version="1.1" id="Capa_1" xmlns="http://www.w3.org/2000/svg" xmlns:xlink="http://www.w3.org/1999/xlink" x="0px" y="0px"
	 viewBox="0 0 179 40" style="enable-background:new 0 0 179 40;" xml:space="preserve">
<style type="text/css">
	.st0{fill:#D13F87;}
	.st1{fill:#039DE1;}
	.st2{fill:#FCD901;}
	.st3{fill:#D44A02;}
	.st4{fill:#8E298A;}
	.st5{fill:#2E368C;}
	.st6{fill:#0FA499;}
	.st7{fill:#BAD231;}
	.st8{fill:#FDC908;}
</style>
<g>
	<g>
		<path class="st0" d="M14.39,13.64l0.19-0.48l0.79,0.91c0.05,0.05,0.06,0.1,0.04,0.15c-0.01,0.03-0.03,0.05-0.06,0.07
			c-0.03,0.01-0.06,0.01-0.08,0.01c-0.02-0.01-0.04-0.02-0.07-0.04L14.39,13.64z"/>
	</g>
	<g>
		<path class="st1" d="M13.63,15.24l-0.35,0.88l0.19,0.17l0.04-0.09c0.04-0.09,0.08-0.14,0.13-0.17c0.05-0.02,0.11-0.03,0.16-0.01
			c0.05,0.02,0.09,0.06,0.11,0.11c0.02,0.05,0.01,0.12-0.02,0.21l-0.19,0.49c-0.04,0.09-0.08,0.14-0.13,0.16
			c-0.05,0.02-0.1,0.02-0.16,0.01c-0.06-0.02-0.09-0.06-0.12-0.11c-0.01-0.05-0.01-0.12,0.03-0.21l-0.58-0.54l0.02-0.51l0.21,0.2
			l0.24-0.58l-0.43,0l0.02-0.39l1.25-0.01c0.03-0.08,0.07-0.14,0.09-0.15c0.06-0.04,0.13-0.05,0.19-0.02
			c0.05,0.02,0.09,0.05,0.11,0.11c0.02,0.05,0.02,0.12-0.02,0.2l-0.2,0.49c-0.03,0.08-0.07,0.14-0.12,0.17
			c-0.05,0.02-0.1,0.03-0.16,0c-0.05-0.02-0.09-0.06-0.11-0.11c-0.02-0.05-0.01-0.12,0.02-0.21l0.04-0.09H13.63z M12.73,16.14
			l-0.64-0.59l-0.1,0.24c-0.03,0.09-0.08,0.14-0.13,0.16c-0.05,0.02-0.1,0.03-0.16,0c-0.06-0.02-0.09-0.06-0.12-0.11
			c-0.02-0.05-0.01-0.12,0.03-0.2l0.31-0.78l0.86,0l-0.02,0.39l-0.43,0l0.41,0.38L12.73,16.14z"/>
	</g>
	<g>
		<path class="st0" d="M12.62,18.37l0.15-0.38c0.06-0.14,0.08-0.26,0.07-0.35c-0.02-0.12-0.06-0.22-0.12-0.3
			c-0.07-0.08-0.17-0.14-0.31-0.2l-0.18-0.07c-0.07-0.03-0.13-0.04-0.19-0.05l0.02-0.39c0.1,0.01,0.21,0.04,0.33,0.09l0.17,0.07
			c0.16,0.06,0.29,0.14,0.39,0.24c0.1,0.1,0.17,0.21,0.21,0.32c0.04,0.12,0.07,0.22,0.08,0.3c0.01,0.14-0.03,0.3-0.1,0.49
			l-0.29,0.72c-0.03,0.09-0.08,0.14-0.13,0.17c-0.05,0.02-0.1,0.02-0.16,0c-0.06-0.02-0.09-0.06-0.11-0.11
			c-0.02-0.05-0.02-0.11,0.02-0.19l-0.51-0.2l0.02-0.41L12.62,18.37z M12.05,17.03c-0.04-0.01-0.09-0.01-0.14,0
			c-0.17,0.02-0.29,0.06-0.38,0.12c-0.08,0.06-0.15,0.16-0.2,0.29l-0.15,0.38l0.82,0.32l-0.02,0.41l-0.94-0.36
			c-0.04,0.07-0.07,0.12-0.12,0.15c-0.05,0.02-0.1,0.02-0.15,0c-0.05-0.02-0.1-0.06-0.11-0.11c-0.02-0.05-0.01-0.12,0.02-0.21
			l0.3-0.75c0.05-0.12,0.12-0.23,0.21-0.32c0.09-0.09,0.18-0.16,0.28-0.2c0.07-0.03,0.16-0.06,0.28-0.08
			c0.11-0.02,0.22-0.03,0.32-0.02h0.01L12.05,17.03z"/>
	</g>
	<g>
		<path class="st1" d="M10.55,19.35L12,19.91l0.15-0.36c0.03-0.09,0.08-0.14,0.12-0.16c0.05-0.02,0.1-0.02,0.16-0.01
			c0.06,0.02,0.09,0.06,0.11,0.11c0.02,0.05,0.01,0.12-0.03,0.21l-0.44,1.09c-0.03,0.09-0.08,0.14-0.13,0.16
			c-0.05,0.02-0.11,0.03-0.16,0c-0.05-0.02-0.09-0.05-0.11-0.11c-0.02-0.05-0.02-0.12,0.02-0.21l0.15-0.36l-1.45-0.56l-0.15,0.36
			c-0.03,0.09-0.08,0.14-0.13,0.17c-0.05,0.02-0.1,0.02-0.16,0c-0.06-0.02-0.09-0.06-0.11-0.11c-0.02-0.05-0.02-0.12,0.02-0.2
			l0.44-1.09c0.04-0.09,0.08-0.14,0.13-0.17c0.05-0.02,0.1-0.03,0.16,0c0.06,0.02,0.09,0.06,0.11,0.11c0.02,0.05,0.02,0.12-0.02,0.2
			L10.55,19.35z"/>
	</g>
	<g>
		<path class="st0" d="M9.75,22.28l1.12,0.43l0.06-0.13c0.03-0.09,0.08-0.14,0.12-0.17c0.05-0.02,0.1-0.02,0.16,0
			c0.05,0.02,0.09,0.06,0.11,0.11c0.02,0.05,0.01,0.12-0.02,0.21l-0.19,0.47c-0.03,0.08-0.08,0.14-0.13,0.17
			c-0.05,0.02-0.1,0.03-0.16,0c-0.05-0.02-0.09-0.06-0.11-0.11c-0.02-0.05-0.02-0.11,0.02-0.19l-1.45-0.56l-0.02,0.06
			c-0.03,0.09-0.08,0.15-0.12,0.17c-0.05,0.02-0.1,0.02-0.16,0.01c-0.05-0.03-0.09-0.06-0.11-0.11c-0.02-0.05-0.01-0.12,0.02-0.21
			L9.05,22l1.86-0.35l-1.11-0.43l-0.05,0.13c-0.04,0.08-0.08,0.14-0.13,0.16c-0.05,0.03-0.1,0.03-0.16,0
			c-0.06-0.02-0.09-0.05-0.11-0.11c-0.02-0.05-0.01-0.12,0.03-0.21l0.19-0.47c0.03-0.09,0.08-0.14,0.13-0.17
			c0.05-0.03,0.1-0.03,0.16,0c0.05,0.02,0.09,0.06,0.11,0.1c0.02,0.05,0.01,0.11-0.02,0.19l1.82,0.7l-0.15,0.36L9.75,22.28z"/>
	</g>
	<path class="st1" d="M9.06,23.4l1.05,0.4c0.23,0.09,0.39,0.25,0.49,0.47c0.09,0.22,0.09,0.45,0,0.67
		c-0.05,0.11-0.11,0.21-0.19,0.29c-0.08,0.08-0.18,0.15-0.28,0.2c-0.11,0.05-0.22,0.08-0.32,0.08c-0.1,0.01-0.22-0.01-0.37-0.07
		l-1.05-0.41c-0.03,0.08-0.07,0.12-0.12,0.15c-0.05,0.02-0.11,0.03-0.16,0.01c-0.05-0.02-0.09-0.06-0.11-0.11
		C7.99,25.04,8,24.97,8.03,24.88l0.19-0.47c0.03-0.09,0.08-0.14,0.12-0.17c0.05-0.02,0.1-0.02,0.16,0c0.06,0.02,0.1,0.06,0.11,0.11
		c0.02,0.05,0.01,0.12-0.02,0.21l-0.06,0.13l1.08,0.42c0.11,0.04,0.23,0.04,0.35-0.02c0.12-0.05,0.21-0.15,0.26-0.27
		c0.04-0.09,0.05-0.17,0.04-0.26c-0.01-0.09-0.05-0.17-0.11-0.25c-0.04-0.05-0.09-0.09-0.17-0.12l-1.08-0.42l-0.05,0.13
		c-0.04,0.09-0.08,0.14-0.12,0.17c-0.05,0.02-0.1,0.02-0.16,0c-0.05-0.02-0.09-0.06-0.11-0.11c-0.02-0.05-0.02-0.12,0.02-0.21
		l0.19-0.47c0.04-0.09,0.08-0.14,0.12-0.17c0.05-0.02,0.1-0.02,0.15,0c0.06,0.02,0.09,0.06,0.12,0.11
		C9.1,23.26,9.09,23.32,9.06,23.4"/>
</g>
<g>
	<g>
		<path class="st0" d="M7.63,38.34l0.22,1.19L8,39.5c0.1-0.02,0.17-0.01,0.22,0.02c0.04,0.03,0.08,0.07,0.09,0.13
			c0.01,0.06,0,0.11-0.04,0.15c-0.03,0.04-0.1,0.08-0.2,0.09l-0.54,0.1C7.42,40.01,7.35,40,7.3,39.97
			c-0.05-0.03-0.08-0.08-0.09-0.13c-0.01-0.06,0-0.11,0.04-0.15c0.04-0.04,0.1-0.08,0.2-0.09l-0.29-1.54L7.1,38.06
			c-0.1,0.02-0.17,0.01-0.22-0.02c-0.05-0.03-0.07-0.07-0.09-0.13c-0.01-0.06,0-0.11,0.03-0.15c0.03-0.04,0.1-0.07,0.21-0.09
			l0.46-0.08l1.34,1.4L8.6,37.81l-0.15,0.02c-0.1,0.02-0.17,0.01-0.22-0.02c-0.05-0.03-0.08-0.07-0.08-0.13
			c-0.01-0.06,0-0.11,0.03-0.15c0.04-0.05,0.1-0.08,0.2-0.09l0.55-0.1c0.1-0.01,0.17-0.01,0.22,0.02c0.05,0.03,0.08,0.07,0.09,0.13
			c0.01,0.06,0,0.11-0.03,0.15C9.17,37.69,9.1,37.72,9,37.73l0.36,1.93l-0.39,0.07L7.63,38.34z"/>
	</g>
	<g>
		<path class="st1" d="M10.69,37.44l0.29,1.55l0.4-0.07c0.1-0.02,0.18-0.01,0.22,0.02c0.05,0.02,0.08,0.07,0.09,0.12
			c0.01,0.06,0,0.11-0.04,0.16c-0.03,0.05-0.1,0.08-0.2,0.09l-1.21,0.21c-0.1,0.02-0.17,0.01-0.22-0.02
			c-0.05-0.03-0.08-0.08-0.09-0.13c-0.01-0.06,0-0.11,0.04-0.15c0.04-0.04,0.1-0.07,0.2-0.09l0.41-0.07l-0.29-1.54l-0.41,0.07
			c-0.1,0.01-0.17,0.01-0.22-0.02c-0.04-0.03-0.08-0.07-0.09-0.13c-0.01-0.06,0-0.11,0.04-0.16c0.03-0.05,0.1-0.07,0.2-0.09
			l1.21-0.21c0.1-0.02,0.17-0.01,0.22,0.02c0.05,0.03,0.08,0.07,0.09,0.13c0.01,0.06,0,0.11-0.03,0.15c-0.04,0.04-0.1,0.07-0.2,0.09
			L10.69,37.44z"/>
	</g>
	<path class="st0" d="M13.14,36.72c0.02-0.04,0.04-0.07,0.07-0.09c0.03-0.02,0.06-0.03,0.09-0.04c0.06-0.01,0.11,0,0.15,0.04
		c0.04,0.03,0.08,0.1,0.09,0.19l0.06,0.33c0.02,0.1,0.02,0.17-0.02,0.21c-0.03,0.05-0.07,0.07-0.13,0.08c-0.05,0.01-0.1,0-0.14-0.02
		c-0.04-0.02-0.07-0.07-0.1-0.15c-0.02-0.06-0.04-0.09-0.08-0.12c-0.07-0.05-0.15-0.08-0.25-0.1c-0.11-0.02-0.2-0.02-0.3,0
		c-0.12,0.02-0.22,0.06-0.31,0.13c-0.09,0.07-0.17,0.17-0.22,0.3c-0.06,0.13-0.07,0.27-0.04,0.43l0.05,0.25
		c0.03,0.19,0.14,0.34,0.3,0.44c0.16,0.1,0.37,0.13,0.62,0.09c0.15-0.03,0.27-0.07,0.37-0.13c0.06-0.03,0.11-0.09,0.17-0.17
		c0.04-0.05,0.06-0.08,0.08-0.1c0.03-0.02,0.05-0.03,0.08-0.04c0.05-0.01,0.11,0.01,0.16,0.04c0.04,0.03,0.08,0.07,0.08,0.12
		c0.01,0.06,0,0.12-0.05,0.19c-0.06,0.1-0.15,0.19-0.27,0.26c-0.15,0.1-0.33,0.16-0.54,0.2c-0.23,0.04-0.46,0.03-0.67-0.03
		c-0.17-0.05-0.32-0.14-0.47-0.29c-0.14-0.15-0.23-0.32-0.26-0.51l-0.05-0.27c-0.04-0.21-0.02-0.4,0.04-0.6
		c0.07-0.19,0.18-0.35,0.33-0.48c0.16-0.13,0.33-0.21,0.53-0.24c0.12-0.02,0.23-0.02,0.33-0.01C12.94,36.65,13.04,36.68,13.14,36.72
		"/>
	<g>
		<path class="st1" d="M15.98,37.86l-0.58,0.1l0.02-0.4l0.33-0.06l-0.3-0.46l0.04-0.68l1.08,1.65c0.1-0.02,0.17-0.02,0.2,0
			c0.06,0.04,0.1,0.09,0.12,0.14c0.01,0.06,0,0.11-0.04,0.15c-0.03,0.05-0.11,0.08-0.21,0.09l-0.53,0.09
			c-0.1,0.02-0.17,0.01-0.23-0.02c-0.04-0.03-0.08-0.07-0.08-0.13c-0.02-0.06,0-0.11,0.04-0.15c0.03-0.04,0.1-0.08,0.2-0.09
			l0.1-0.02L15.98,37.86z M15.4,37.96L15,38.03l-0.06,0.26l0.1-0.02c0.1-0.01,0.17-0.01,0.22,0.02c0.05,0.03,0.08,0.07,0.09,0.13
			c0.01,0.06-0.01,0.11-0.04,0.16c-0.03,0.04-0.1,0.07-0.2,0.09l-0.53,0.09c-0.1,0.02-0.18,0.01-0.22-0.02
			c-0.05-0.03-0.08-0.07-0.09-0.13c-0.01-0.06,0-0.11,0.04-0.15c0.03-0.04,0.1-0.07,0.2-0.09l0.35-1.66l-0.27,0.04
			c-0.1,0.02-0.17,0.01-0.22-0.01c-0.04-0.03-0.07-0.08-0.08-0.13c-0.01-0.06,0-0.11,0.04-0.15c0.03-0.04,0.1-0.07,0.2-0.09
			l0.86-0.15l0.09,0.14l-0.04,0.68l-0.17-0.27l-0.18,0.84l0.33-0.06L15.4,37.96z"/>
	</g>
	<path class="st0" d="M17.88,37.78L17.88,37.78c0.11-0.02,0.18-0.01,0.23,0.02c0.05,0.03,0.08,0.07,0.08,0.13
		c0.01,0.06,0,0.11-0.03,0.15c-0.04,0.04-0.1,0.07-0.21,0.09l-0.1,0.02L17.88,37.78z M17.98,35.77l-0.02,0.4
		c0.13-0.02,0.24,0,0.32,0.04c0.09,0.05,0.15,0.11,0.16,0.19c0.01,0.05,0,0.1-0.04,0.16c-0.03,0.06-0.1,0.12-0.22,0.19
		c-0.07,0.04-0.16,0.08-0.26,0.1l-0.02,0.41l0.14-0.02c0.23,0.06,0.55,0.31,0.97,0.75l0.21-0.04c0.1-0.02,0.17-0.04,0.2-0.09
		c0.03-0.04,0.04-0.09,0.04-0.15c-0.01-0.06-0.05-0.11-0.11-0.15c-0.04-0.02-0.1-0.02-0.2,0c-0.13-0.14-0.24-0.24-0.31-0.3
		c-0.12-0.1-0.23-0.18-0.33-0.23c0.14-0.1,0.23-0.21,0.28-0.33c0.06-0.11,0.07-0.23,0.05-0.35c-0.03-0.2-0.15-0.35-0.33-0.46
		C18.38,35.79,18.2,35.76,17.98,35.77 M17.65,37.31l0.09,0.5l0.14-0.02l-0.02,0.41l-0.51,0.09c-0.1,0.02-0.17,0.01-0.22-0.02
		c-0.05-0.03-0.08-0.07-0.09-0.13c-0.01-0.06,0-0.11,0.04-0.15c0.04-0.04,0.1-0.07,0.2-0.09l0.06-0.01l-0.29-1.55l-0.06,0.02
		c-0.1,0.02-0.17,0.01-0.22-0.02c-0.05-0.03-0.08-0.08-0.09-0.13c-0.01-0.06,0-0.11,0.03-0.15c0.03-0.04,0.1-0.07,0.2-0.09
		l0.91-0.16c0.06-0.01,0.11-0.01,0.16-0.02l-0.02,0.4c-0.01,0-0.03,0.01-0.05,0.01l-0.46,0.08l0.12,0.65l0.32-0.05l0.04-0.01
		l-0.02,0.41L17.65,37.31z"/>
	<g>
		<path class="st1" d="M22.25,37.22c-0.01-0.06-0.05-0.1-0.11-0.14c-0.03-0.02-0.1-0.02-0.2,0l-1.08-1.66l-0.09-0.14l-0.86,0.15
			c-0.1,0.02-0.17,0.05-0.2,0.09c-0.04,0.04-0.05,0.09-0.04,0.15c0.01,0.06,0.04,0.1,0.09,0.13c0.05,0.02,0.12,0.03,0.22,0.01
			l0.27-0.04l-0.35,1.66c-0.11,0.02-0.17,0.05-0.21,0.09c-0.03,0.04-0.04,0.09-0.03,0.15c0.01,0.06,0.04,0.1,0.09,0.13
			c0.05,0.03,0.12,0.03,0.23,0.02l0.53-0.1c0.1-0.02,0.16-0.04,0.2-0.08c0.04-0.05,0.05-0.09,0.04-0.15
			c-0.01-0.06-0.04-0.11-0.09-0.13c-0.05-0.03-0.12-0.04-0.22-0.02l-0.1,0.02l0.06-0.26l0.39-0.07l0.59-0.1l0.15,0.22l-0.1,0.02
			c-0.1,0.02-0.17,0.05-0.2,0.09c-0.04,0.04-0.05,0.09-0.04,0.15c0.01,0.06,0.04,0.1,0.09,0.13c0.05,0.02,0.12,0.03,0.23,0.01
			l0.53-0.09c0.1-0.02,0.17-0.04,0.2-0.09C22.25,37.33,22.26,37.28,22.25,37.22z M20.79,36.62l-0.32,0.06l0.18-0.84l0.17,0.27
			l0.3,0.46L20.79,36.62z"/>
	</g>
	<path class="st0" d="M24.28,36.33l0.1,0.53c-0.17,0.13-0.31,0.22-0.43,0.28c-0.12,0.06-0.25,0.1-0.4,0.13
		c-0.2,0.03-0.4,0.04-0.59,0.01c-0.14-0.02-0.27-0.06-0.36-0.12c-0.09-0.06-0.18-0.15-0.28-0.27c-0.09-0.13-0.15-0.27-0.18-0.45
		l-0.05-0.28c-0.05-0.26-0.01-0.51,0.12-0.74c0.17-0.32,0.44-0.51,0.82-0.58c0.11-0.02,0.22-0.03,0.32-0.02
		c0.1,0.01,0.2,0.02,0.29,0.05c0.05-0.06,0.1-0.09,0.15-0.1c0.06-0.01,0.11,0,0.16,0.03c0.05,0.03,0.07,0.1,0.09,0.19l0.05,0.25
		c0.01,0.09,0.01,0.16-0.02,0.21c-0.03,0.05-0.07,0.08-0.13,0.08c-0.05,0.01-0.09,0.01-0.13-0.02c-0.03-0.02-0.06-0.05-0.09-0.12
		c-0.03-0.06-0.06-0.1-0.08-0.13c-0.04-0.03-0.11-0.06-0.21-0.06c-0.1-0.01-0.2-0.01-0.31,0.01c-0.16,0.03-0.3,0.09-0.4,0.17
		c-0.08,0.06-0.14,0.16-0.19,0.29c-0.05,0.13-0.06,0.26-0.03,0.4l0.05,0.29c0.04,0.21,0.13,0.36,0.27,0.45
		c0.15,0.09,0.36,0.11,0.63,0.06c0.19-0.03,0.34-0.09,0.49-0.19l-0.05-0.28l-0.41,0.07c-0.1,0.02-0.18,0.01-0.22-0.01
		c-0.05-0.03-0.08-0.07-0.09-0.13c-0.01-0.06,0-0.11,0.04-0.15c0.03-0.04,0.1-0.08,0.2-0.09l0.82-0.14c0.05-0.01,0.1,0,0.14,0.03
		c0.05,0.03,0.08,0.08,0.09,0.13c0.01,0.06,0,0.11-0.04,0.15C24.38,36.3,24.34,36.32,24.28,36.33"/>
	<path class="st1" d="M26.38,34.71l0.21,1.12c0.04,0.25-0.01,0.47-0.16,0.67c-0.15,0.2-0.34,0.33-0.6,0.37
		c-0.13,0.02-0.24,0.02-0.36,0c-0.12-0.03-0.23-0.07-0.33-0.14c-0.1-0.06-0.19-0.14-0.25-0.22c-0.07-0.08-0.12-0.2-0.14-0.35
		l-0.21-1.12c-0.1,0.02-0.17,0.01-0.22-0.01c-0.05-0.03-0.08-0.08-0.09-0.13c-0.02-0.06,0-0.11,0.03-0.15
		c0.03-0.05,0.1-0.08,0.2-0.09l0.55-0.1c0.09-0.01,0.16-0.01,0.21,0.02c0.05,0.03,0.07,0.07,0.09,0.13c0.01,0.05,0,0.11-0.03,0.15
		c-0.04,0.04-0.1,0.07-0.19,0.09l-0.15,0.03l0.22,1.16c0.02,0.12,0.09,0.21,0.21,0.29c0.12,0.07,0.25,0.1,0.39,0.07
		c0.1-0.02,0.18-0.05,0.25-0.11c0.08-0.06,0.13-0.13,0.17-0.23c0.02-0.06,0.03-0.13,0.01-0.2l-0.21-1.16l-0.15,0.02
		c-0.09,0.02-0.16,0.01-0.2-0.02c-0.05-0.03-0.08-0.07-0.09-0.13c-0.02-0.06,0-0.11,0.04-0.15c0.03-0.04,0.09-0.07,0.18-0.09
		l0.54-0.09c0.1-0.02,0.17-0.01,0.22,0.02c0.04,0.03,0.08,0.07,0.09,0.13c0.01,0.06,0,0.11-0.03,0.15
		C26.55,34.65,26.48,34.69,26.38,34.71"/>
	<g>
		<path class="st0" d="M28.6,35.66l-0.58,0.1l0.03-0.41l0.32-0.06l-0.3-0.46l0.03-0.68l1.08,1.66c0.1-0.02,0.17-0.02,0.2,0
			c0.06,0.04,0.1,0.08,0.11,0.14c0.02,0.06,0,0.11-0.03,0.15c-0.04,0.04-0.11,0.07-0.21,0.09l-0.53,0.1
			c-0.1,0.02-0.18,0.01-0.23-0.02c-0.05-0.03-0.08-0.08-0.09-0.13c-0.01-0.06,0-0.11,0.04-0.15c0.03-0.04,0.1-0.08,0.2-0.09
			l0.1-0.02L28.6,35.66z M28.02,35.76l-0.39,0.07l-0.05,0.26l0.09-0.02c0.1-0.02,0.17-0.01,0.22,0.02c0.05,0.03,0.07,0.07,0.09,0.13
			c0.01,0.06,0,0.11-0.04,0.15c-0.03,0.04-0.1,0.07-0.2,0.09l-0.53,0.09c-0.1,0.02-0.18,0.01-0.22-0.01
			c-0.05-0.03-0.08-0.07-0.09-0.13c-0.01-0.06,0-0.11,0.04-0.15c0.03-0.04,0.1-0.08,0.2-0.09l0.35-1.66l-0.26,0.05
			c-0.1,0.02-0.17,0.01-0.22-0.02c-0.05-0.03-0.08-0.07-0.09-0.13c-0.01-0.06,0-0.11,0.04-0.15c0.04-0.04,0.11-0.07,0.2-0.09
			l0.86-0.15l0.09,0.14l-0.03,0.68l-0.17-0.27l-0.18,0.84l0.33-0.06L28.02,35.76z"/>
	</g>
	<g>
		<path class="st1" d="M31.93,33.74l0.28,1.54l0.27-0.05c0.1-0.02,0.18-0.01,0.22,0.02c0.05,0.03,0.08,0.07,0.09,0.13
			c0.01,0.06,0,0.11-0.03,0.15c-0.03,0.05-0.1,0.07-0.2,0.09l-0.94,0.16c-0.1,0.02-0.18,0.02-0.22-0.01
			c-0.05-0.03-0.08-0.08-0.09-0.13c-0.01-0.06,0-0.11,0.03-0.15c0.03-0.04,0.1-0.08,0.2-0.09l0.27-0.04l-0.29-1.54l-0.44,0.08
			l0.07,0.37c0.02,0.1,0.01,0.17-0.02,0.21c-0.03,0.05-0.07,0.08-0.13,0.09c-0.06,0.01-0.11,0-0.16-0.04
			c-0.04-0.03-0.07-0.1-0.1-0.19l-0.14-0.76l2.09-0.37l0.14,0.76c0.02,0.1,0.02,0.17-0.02,0.21c-0.03,0.05-0.07,0.08-0.13,0.09
			c-0.06,0.01-0.11,0-0.16-0.04c-0.04-0.03-0.08-0.1-0.09-0.19l-0.07-0.37L31.93,33.74z"/>
	</g>
	<path class="st0" d="M34.16,34.94L34.16,34.94c0.11-0.02,0.17-0.01,0.23,0.02c0.05,0.02,0.08,0.07,0.09,0.12
		c0.01,0.06,0,0.11-0.04,0.16c-0.03,0.04-0.1,0.07-0.2,0.09l-0.1,0.02L34.16,34.94z M34.27,32.93l-0.03,0.4
		c0.14-0.02,0.25-0.01,0.33,0.04c0.09,0.05,0.15,0.11,0.16,0.19c0.01,0.05,0,0.11-0.04,0.17c-0.03,0.06-0.11,0.12-0.22,0.19
		c-0.08,0.05-0.17,0.08-0.27,0.1l-0.02,0.41l0.14-0.02c0.23,0.06,0.56,0.31,0.98,0.75l0.2-0.04c0.1-0.02,0.17-0.05,0.2-0.09
		c0.04-0.05,0.05-0.09,0.04-0.15c-0.01-0.06-0.05-0.11-0.11-0.14c-0.03-0.02-0.1-0.02-0.2-0.01c-0.13-0.14-0.23-0.24-0.31-0.3
		c-0.12-0.1-0.22-0.17-0.32-0.23c0.13-0.11,0.23-0.21,0.28-0.33c0.06-0.11,0.07-0.23,0.05-0.35c-0.04-0.2-0.14-0.35-0.33-0.46
		C34.66,32.95,34.48,32.91,34.27,32.93 M33.93,34.47l0.09,0.5l0.14-0.03l-0.02,0.41l-0.51,0.09c-0.1,0.02-0.17,0.01-0.22-0.02
		c-0.05-0.03-0.08-0.07-0.09-0.13c-0.01-0.06,0-0.11,0.03-0.15c0.03-0.04,0.1-0.08,0.2-0.09l0.06-0.01l-0.29-1.55l-0.07,0.01
		c-0.1,0.02-0.18,0.01-0.22-0.02c-0.05-0.03-0.08-0.08-0.09-0.13c-0.01-0.06,0-0.11,0.04-0.16c0.03-0.04,0.1-0.07,0.19-0.09
		l0.92-0.16c0.06-0.01,0.11-0.02,0.16-0.02l-0.03,0.4c-0.01,0-0.03,0.01-0.05,0.01l-0.46,0.08l0.13,0.65l0.32-0.06l0.03,0
		l-0.02,0.41L33.93,34.47z"/>
	<g>
		<path class="st1" d="M36.7,32.9l0.29,1.55l0.4-0.07c0.1-0.02,0.17-0.01,0.22,0.02c0.05,0.03,0.08,0.07,0.09,0.13
			c0.01,0.06,0,0.11-0.03,0.15c-0.04,0.05-0.1,0.08-0.2,0.09l-1.21,0.21c-0.1,0.02-0.17,0.01-0.22-0.02
			c-0.05-0.03-0.08-0.08-0.08-0.13c-0.01-0.06,0-0.11,0.03-0.15c0.03-0.04,0.1-0.07,0.2-0.09l0.41-0.07l-0.29-1.54l-0.41,0.07
			c-0.1,0.02-0.17,0.01-0.22-0.02c-0.05-0.03-0.08-0.07-0.09-0.13c-0.01-0.06,0-0.11,0.04-0.15c0.03-0.05,0.1-0.07,0.2-0.09
			l1.21-0.21c0.1-0.02,0.18-0.01,0.22,0.01c0.05,0.03,0.07,0.08,0.09,0.13c0.01,0.06,0,0.11-0.04,0.16c-0.04,0.04-0.1,0.07-0.2,0.09
			L36.7,32.9z"/>
	</g>
	<path class="st0" d="M39.7,32.38l0.21,1.12c0.04,0.24-0.01,0.47-0.15,0.67c-0.15,0.2-0.35,0.33-0.6,0.37
		c-0.12,0.02-0.24,0.02-0.36-0.01c-0.12-0.02-0.23-0.07-0.33-0.14c-0.1-0.07-0.19-0.14-0.25-0.22c-0.07-0.08-0.11-0.2-0.14-0.35
		l-0.21-1.12c-0.1,0.02-0.17,0.01-0.22-0.02c-0.05-0.03-0.08-0.07-0.09-0.13c-0.02-0.06,0-0.11,0.04-0.15
		c0.03-0.04,0.1-0.07,0.2-0.09l0.55-0.1c0.09-0.02,0.16-0.01,0.2,0.02c0.05,0.03,0.08,0.08,0.09,0.13c0.01,0.06,0,0.11-0.03,0.15
		c-0.04,0.04-0.1,0.07-0.19,0.09l-0.15,0.03l0.22,1.16c0.02,0.12,0.09,0.22,0.21,0.29c0.12,0.07,0.25,0.1,0.39,0.07
		c0.1-0.02,0.18-0.05,0.26-0.11c0.07-0.06,0.13-0.13,0.17-0.23c0.02-0.06,0.03-0.12,0.01-0.2l-0.21-1.16l-0.15,0.03
		c-0.09,0.01-0.16,0.01-0.2-0.02c-0.05-0.03-0.08-0.07-0.09-0.13c-0.01-0.06,0-0.11,0.03-0.15c0.03-0.04,0.1-0.07,0.19-0.09
		l0.55-0.09c0.1-0.02,0.17-0.01,0.22,0.02c0.04,0.03,0.08,0.07,0.09,0.13c0.01,0.06-0.01,0.11-0.04,0.15
		C39.87,32.33,39.8,32.36,39.7,32.38"/>
	<g>
		<path class="st1" d="M41.02,32.51l0.22,1.2l0.15-0.03c0.1-0.02,0.17-0.01,0.22,0.02c0.05,0.03,0.08,0.08,0.09,0.13
			c0.01,0.06,0,0.11-0.04,0.15c-0.03,0.04-0.1,0.08-0.2,0.09l-0.54,0.1c-0.1,0.02-0.18,0.01-0.22-0.02
			c-0.05-0.03-0.07-0.07-0.08-0.13c-0.01-0.06,0-0.11,0.03-0.15c0.03-0.04,0.1-0.08,0.2-0.09l-0.29-1.54l-0.06,0.01
			c-0.1,0.02-0.17,0.01-0.22-0.02c-0.05-0.03-0.08-0.08-0.09-0.13c-0.01-0.06,0-0.11,0.03-0.15c0.04-0.05,0.1-0.08,0.2-0.09
			l0.46-0.08l1.34,1.4L42,31.98l-0.15,0.02c-0.1,0.02-0.17,0.01-0.22-0.02c-0.05-0.03-0.08-0.07-0.09-0.13
			c-0.01-0.06,0-0.11,0.03-0.15c0.03-0.04,0.1-0.07,0.2-0.09l0.54-0.09c0.1-0.02,0.18-0.01,0.22,0.01c0.05,0.03,0.07,0.07,0.09,0.13
			c0.01,0.06,0,0.11-0.03,0.16c-0.04,0.04-0.1,0.07-0.21,0.09l0.36,1.93l-0.4,0.07L41.02,32.51z"/>
	</g>
	<g>
		<path class="st0" d="M43.85,32.66l0.11,0.58l0.41-0.07c0.1-0.02,0.17-0.01,0.22,0.02c0.05,0.03,0.08,0.07,0.09,0.13
			c0.01,0.06,0,0.11-0.03,0.15c-0.04,0.04-0.1,0.07-0.2,0.09l-0.88,0.16c-0.1,0.02-0.17,0.01-0.22-0.02
			c-0.05-0.03-0.08-0.08-0.09-0.13c-0.01-0.06,0-0.11,0.03-0.15c0.03-0.05,0.1-0.07,0.2-0.09l0.07-0.01l-0.29-1.54l-0.07,0.01
			c-0.1,0.02-0.17,0.01-0.22-0.02c-0.05-0.03-0.08-0.07-0.09-0.13c-0.01-0.06,0-0.11,0.04-0.15c0.03-0.05,0.1-0.08,0.2-0.09
			l1.9-0.33l0.11,0.6c0.02,0.1,0.01,0.17-0.02,0.22c-0.03,0.05-0.07,0.08-0.13,0.09c-0.06,0.01-0.11,0-0.16-0.03
			c-0.04-0.03-0.07-0.1-0.09-0.2l-0.04-0.21l-1.04,0.18l0.11,0.57l0.36-0.07c-0.02-0.09-0.02-0.16,0-0.19
			c0.04-0.06,0.09-0.1,0.15-0.11c0.07-0.01,0.12,0,0.16,0.03c0.05,0.03,0.08,0.1,0.09,0.2l0.08,0.39c0.01,0.1,0.01,0.17-0.02,0.21
			c-0.03,0.05-0.07,0.08-0.13,0.09c-0.06,0.01-0.12-0.01-0.18-0.05c-0.03-0.02-0.06-0.08-0.08-0.18L43.85,32.66z"/>
	</g>
	<g>
		<path class="st1" d="M47.1,32.44l-0.58,0.1l0.02-0.41l0.32-0.06l-0.3-0.46l0.04-0.68l1.08,1.65c0.1-0.01,0.17-0.01,0.2,0
			c0.06,0.04,0.1,0.09,0.11,0.15c0.01,0.06,0,0.11-0.04,0.15c-0.03,0.05-0.1,0.08-0.21,0.09l-0.53,0.1
			c-0.1,0.02-0.17,0.01-0.23-0.02c-0.04-0.03-0.07-0.08-0.08-0.13c-0.01-0.06,0-0.11,0.03-0.15c0.04-0.05,0.1-0.08,0.21-0.09
			l0.1-0.02L47.1,32.44z M46.52,32.54l-0.4,0.07l-0.05,0.26l0.1-0.02c0.1-0.02,0.17-0.01,0.22,0.02c0.05,0.03,0.08,0.07,0.09,0.13
			c0.01,0.06,0,0.11-0.04,0.15c-0.03,0.04-0.1,0.07-0.2,0.09l-0.53,0.09c-0.1,0.02-0.18,0.01-0.23-0.02
			c-0.05-0.03-0.08-0.07-0.09-0.13c-0.01-0.06,0-0.11,0.04-0.15c0.03-0.04,0.1-0.07,0.2-0.09l0.36-1.65l-0.27,0.04
			c-0.1,0.02-0.17,0.02-0.22-0.02c-0.04-0.03-0.08-0.08-0.09-0.13c-0.01-0.06,0-0.11,0.03-0.16c0.03-0.04,0.1-0.07,0.2-0.09
			l0.86-0.15l0.09,0.14l-0.04,0.68l-0.17-0.27l-0.18,0.84l0.33-0.06L46.52,32.54z"/>
	</g>
	<path class="st0" d="M49.39,30.53l0.11,1.2c0.01,0.06-0.01,0.12-0.04,0.16c-0.03,0.04-0.07,0.07-0.13,0.07
		c-0.06,0.01-0.1,0-0.15-0.03c-0.04-0.03-0.08-0.07-0.09-0.13l-0.34-1.17c-0.02-0.06-0.03-0.1-0.03-0.12c-0.01-0.1,0-0.19,0.05-0.26
		c0.05-0.08,0.12-0.11,0.21-0.13c0.09-0.02,0.17,0,0.24,0.05c0.08,0.05,0.12,0.12,0.14,0.22C49.38,30.42,49.39,30.46,49.39,30.53
		 M49.69,32.49L49.69,32.49c0.01,0.06,0,0.11-0.04,0.15c-0.03,0.05-0.09,0.08-0.17,0.09c-0.08,0.01-0.14,0-0.19-0.03
		c-0.05-0.03-0.08-0.07-0.09-0.13c-0.01-0.06,0-0.11,0.04-0.15c0.04-0.05,0.09-0.08,0.17-0.09c0.07-0.01,0.14,0,0.19,0.03
		C49.65,32.4,49.68,32.44,49.69,32.49"/>
</g>
<g>
	<g>
		<path class="st2" d="M23.34,16.5c0,0-2.9,0.46-3.03,0.48c-0.3,0.05-0.43-0.25-0.02-0.31c0.4-0.07,2.87-0.3,3.02-0.3
			C23.45,16.37,23.9,16.41,23.34,16.5"/>
		<path class="st2" d="M23.19,17.53c0,0-2.64,1.51-2.76,1.57c-0.29,0.13-0.5-0.13-0.15-0.33c0.36-0.21,2.65-1.31,2.8-1.37
			C23.26,17.31,24.08,16.98,23.19,17.53"/>
		<path class="st2" d="M25.3,17.94c0,0,0.17,2.52,0.17,2.63c-0.01,0.26-0.31,0.33-0.34-0.02c-0.02-0.34,0.01-2.45,0.01-2.58
			C25.15,17.8,25.26,17.32,25.3,17.94"/>
		<path class="st2" d="M23.95,18.01c0,0-1.26,1.99-1.32,2.08c-0.1,0.15-0.42,0.09-0.25-0.19c0.17-0.27,1.35-1.86,1.43-1.95
			C23.9,17.83,24.34,17.31,23.95,18.01"/>
		<path class="st2" d="M24.81,18.01c0,0-0.13,1.95-0.13,2.04c-0.02,0.15-0.33,0.24-0.32-0.02c0.01-0.27,0.28-1.9,0.3-2
			C24.69,17.88,24.83,17.34,24.81,18.01"/>
		<path class="st2" d="M23.59,17.74c0,0-1.42,1.38-1.48,1.44c-0.12,0.11-0.41-0.03-0.22-0.22c0.19-0.19,1.5-1.24,1.58-1.3
			C23.58,17.56,24.05,17.24,23.59,17.74"/>
		<path class="st2" d="M23.35,17c0,0-2.01,0.6-2.09,0.63c-0.29,0.08-0.41-0.25-0.13-0.35c0.27-0.09,1.9-0.42,2.13-0.44
			C23.37,16.83,24.02,16.75,23.35,17"/>
		<path class="st2" d="M24.48,18.01c0,0-0.66,1.94-0.69,2.03c-0.1,0.27-0.45,0.16-0.36-0.1c0.08-0.27,0.76-1.74,0.87-1.94
			C24.34,17.89,24.65,17.33,24.48,18.01"/>
		<path class="st2" d="M25.81,17.93c0,0,0.44,2.01,0.46,2.1c0.05,0.29-0.33,0.39-0.41,0.12c-0.07-0.27-0.24-1.9-0.25-2.13
			C25.62,17.91,25.61,17.26,25.81,17.93"/>
		<path class="st2" d="M23.57,15.52c0,0-2.18-0.47-2.28-0.48c-0.23-0.03-0.32,0.2-0.02,0.27c0.29,0.07,2.15,0.32,2.26,0.34
			C23.67,15.66,24.31,15.71,23.57,15.52"/>
		<path class="st2" d="M24.66,13.84c0,0-0.43-1.88-0.46-1.95c-0.07-0.19-0.37-0.16-0.32,0.09c0.06,0.26,0.58,1.78,0.62,1.88
			C24.54,13.98,24.77,14.49,24.66,13.84"/>
		<path class="st2" d="M23.58,14.65c0,0-1.86-1.55-1.94-1.62c-0.14-0.12-0.43,0.04-0.18,0.26c0.25,0.21,1.9,1.4,2.01,1.46
			C23.6,14.84,24.19,15.21,23.58,14.65"/>
		<path class="st2" d="M24.33,14.08c0,0-0.71-1.61-0.74-1.68c-0.13-0.27-0.42-0.12-0.33,0.1c0.09,0.22,0.85,1.53,0.9,1.61
			C24.23,14.22,24.53,14.65,24.33,14.08"/>
		<path class="st2" d="M25.18,13.77c0,0-0.09-1.82-0.1-1.89c-0.04-0.31-0.36-0.24-0.34,0c0.02,0.24,0.26,1.78,0.28,1.87
			C25.05,13.88,25.2,14.37,25.18,13.77"/>
		<path class="st2" d="M23.62,15.14c0,0-2.03-1.01-2.12-1.05c-0.16-0.07-0.42,0.16-0.14,0.31c0.27,0.14,2.05,0.83,2.16,0.87
			C23.68,15.33,24.3,15.52,23.62,15.14"/>
		<path class="st2" d="M23.42,15.86c0,0-2.33-0.15-2.43-0.15c-0.33-0.02-0.33,0.39-0.01,0.43c0.32,0.03,2.15-0.04,2.4-0.07
			C23.5,16.05,24.22,15.97,23.42,15.86"/>
		<path class="st2" d="M23.91,14.38c0,0-1.18-1.61-1.23-1.68c-0.17-0.23-0.47-0.05-0.32,0.18c0.15,0.22,1.22,1.4,1.38,1.56
			C23.82,14.51,24.28,14.96,23.91,14.38"/>
		<path class="st2" d="M27.67,15.92c0,0,2.93-0.33,3.05-0.34c0.31-0.04,0.34-0.36-0.06-0.31c-0.41,0.04-2.85,0.47-2.99,0.51
			C27.52,15.82,26.65,16.01,27.67,15.92"/>
		<path class="st2" d="M27.84,16.85c0,0,3.23,0.77,3.37,0.79c0.31,0.05,0.44-0.26,0.04-0.36c-0.41-0.1-3.19-0.56-3.34-0.59
			C27.71,16.65,26.83,16.56,27.84,16.85"/>
		<path class="st2" d="M26.19,17.82c0,0,0.56,2.47,0.59,2.57c0.08,0.25,0.39,0.23,0.32-0.1c-0.07-0.34-0.71-2.36-0.75-2.48
			C26.3,17.64,26.05,17.24,26.19,17.82"/>
		<path class="st2" d="M27.52,17.52c0,0,1.78,1.58,1.86,1.65c0.14,0.12,0.43-0.02,0.18-0.24c-0.24-0.22-1.83-1.43-1.92-1.5
			C27.51,17.34,26.93,16.96,27.52,17.52"/>
		<path class="st2" d="M26.68,17.76c0,0,0.68,1.84,0.71,1.92c0.06,0.14,0.38,0.14,0.29-0.11c-0.08-0.25-0.81-1.75-0.85-1.84
			C26.76,17.6,26.48,17.12,26.68,17.76"/>
		<path class="st2" d="M27.68,17.19c1.71,0.92,1.8,0.9,1.94,0.97c0.13,0.07,0.38-0.14,0.14-0.27c-0.24-0.13-1.91-0.79-2.01-0.83
			C27.62,17,27.1,16.83,27.68,17.19"/>
		<path class="st2" d="M27.65,16.39c0,0,2.25,0.05,2.34,0.06c0.3,0,0.31-0.35,0.02-0.37c-0.28-0.02-2.25,0.09-2.48,0.13
			C27.43,16.22,26.93,16.32,27.65,16.39"/>
		<path class="st2" d="M27.01,17.66c0,0,1.19,1.69,1.24,1.76c0.18,0.24,0.48,0.04,0.32-0.19c-0.15-0.24-1.23-1.47-1.39-1.64
			C27.1,17.52,26.76,17.29,27.01,17.66"/>
		<path class="st2" d="M27.17,15.03c0,0,1.97-1.03,2.06-1.07c0.21-0.09,0.36,0.11,0.09,0.25c-0.26,0.15-1.97,0.88-2.07,0.93
			C27.11,15.19,26.5,15.41,27.17,15.03"/>
		<path class="st2" d="M25.59,13.79c0,0-0.06-1.99-0.05-2.08c0.01-0.2,0.31-0.25,0.33,0.01c0.02,0.26-0.11,1.95-0.12,2.04
			C25.74,13.88,25.66,14.44,25.59,13.79"/>
		<path class="st2" d="M26.75,14.27c0,0,1.5-2.06,1.57-2.14c0.1-0.15,0.42-0.08,0.25,0.2c-0.18,0.27-1.59,1.92-1.68,2.01
			C26.79,14.46,26.32,14.97,26.75,14.27"/>
		<path class="st2" d="M25.99,13.9c0,0,0.27-1.79,0.27-1.86c0.01-0.28,0.37-0.22,0.34,0.01c-0.02,0.24-0.41,1.74-0.44,1.83
			C26.13,14.01,25.96,14.5,25.99,13.9"/>
		<path class="st2" d="M27.01,14.68c0,0,1.67-1.51,1.74-1.57c0.12-0.11,0.45,0.05,0.23,0.26c-0.22,0.21-1.74,1.35-1.83,1.42
			C27.01,14.88,26.46,15.23,27.01,14.68"/>
		<path class="st2" d="M27.41,15.32c0,0,2.19-0.76,2.29-0.79c0.31-0.1,0.43,0.29,0.13,0.41c-0.29,0.11-2.07,0.53-2.32,0.57
			C27.39,15.52,26.68,15.64,27.41,15.32"/>
		<path class="st2" d="M26.34,14.08c0,0,0.85-1.92,0.88-2c0.1-0.27,0.44-0.16,0.35,0.09c-0.08,0.26-0.94,1.73-1.05,1.92
			C26.47,14.19,26.15,14.73,26.34,14.08"/>
	</g>
	<g>
		<path class="st3" d="M24.27,9.74c0.09-0.01,0.18-0.03,0.27-0.04c0.06-0.01,0.12-0.01,0.18-0.03h0.02c1.72-0.18,3.4,0.16,4.88,0.89
			c0.32,0.16,0.64,0.33,0.94,0.52c-0.31-0.38-0.65-0.77-1-1.18c-1.62-0.82-3.47-1.16-5.37-0.87c-1.47,0.23-2.8,0.81-3.92,1.65
			c-0.21,0.41-0.41,0.82-0.6,1.24C20.93,10.79,22.5,10.01,24.27,9.74"/>
		<path class="st4" d="M24.41,10.39c0.09-0.01,0.17-0.03,0.26-0.04c0.06-0.01,0.12-0.01,0.18-0.03h0.02
			c1.69-0.17,3.34,0.16,4.8,0.88c0.32,0.15,0.63,0.32,0.93,0.51c-0.31-0.37-0.63-0.76-0.98-1.16c-1.59-0.81-3.41-1.14-5.27-0.86
			c-1.45,0.22-2.75,0.79-3.85,1.62c-0.2,0.4-0.4,0.81-0.59,1.22C21.13,11.43,22.67,10.66,24.41,10.39"/>
		<path class="st2" d="M23.89,7.04c0.92-0.14,1.83-0.13,2.71,0.02c-0.23-0.27-0.45-0.52-0.64-0.74c-0.71-0.07-1.44-0.06-2.17,0.05
			c-0.26,0.04-0.52,0.09-0.76,0.16c-0.15,0.27-0.31,0.54-0.46,0.82C22.99,7.21,23.43,7.11,23.89,7.04"/>
		<path class="st1" d="M27.98,8.66c-0.24-0.28-0.48-0.56-0.71-0.83C26.23,7.59,25.12,7.54,24,7.71c-0.67,0.1-1.31,0.28-1.91,0.52
			c-0.17,0.31-0.34,0.62-0.5,0.94c0.78-0.39,1.62-0.67,2.52-0.8C25.45,8.16,26.76,8.28,27.98,8.66"/>
		<path class="st5" d="M24.22,9.04c1.06-0.16,2.11-0.12,3.1,0.09c0,0,0.02,0,0.02,0c0,0,0.01,0,0.01,0c0.48,0.11,0.95,0.25,1.4,0.43
			c-0.26-0.3-0.51-0.6-0.77-0.9c-1.23-0.37-2.54-0.49-3.88-0.28c-0.91,0.14-1.75,0.41-2.53,0.8c-0.18,0.33-0.35,0.67-0.53,1.01
			c0.11-0.06,0.22-0.13,0.33-0.19C22.24,9.53,23.19,9.19,24.22,9.04"/>
		<path class="st6" d="M29.66,11.21c-1.53-0.74-3.11-1.04-4.8-0.87h-0.02c-0.06,0.01-0.12,0.02-0.18,0.02
			c-0.08,0.01-0.15,0.02-0.22,0.03c-1.79,0.27-3.32,1.04-4.55,2.14c-0.25,0.51-0.54,1.14-0.78,1.65c1.35-1.6,3.23-2.72,5.41-3.05
			c2.69-0.41,5.31,0.45,7.31,2.15c-0.32-0.42-0.77-0.98-1.25-1.55C30.28,11.52,29.98,11.36,29.66,11.21"/>
		<path class="st7" d="M27.27,7.83c-0.23-0.27-0.46-0.53-0.67-0.77c-0.88-0.15-1.79-0.17-2.7-0.03C23.44,7.11,23,7.22,22.56,7.36
			c-0.16,0.28-0.32,0.58-0.48,0.87C22.69,7.99,23.33,7.8,24,7.7C25.12,7.53,26.23,7.59,27.27,7.83"/>
	</g>
	<g>
		<path class="st0" d="M24.59,15.72c-0.23-0.09-0.5-0.34-0.36-0.86c0.07-0.24,0.42-0.5,0.91-0.48c0.5,0.01,1,0.32,1.39,0.84
			c0.38,0.51,0.67,1.36,0.2,1.73c-0.46,0.38-0.91,0.21-1.02,0.22c-0.11,0.01-0.39-0.03-0.69,0.07c-0.3,0.11-0.71,0.41-0.91,0.03
			c-0.21-0.38,0.04-0.76,0.36-1C24.66,16.12,24.91,15.84,24.59,15.72"/>
		<path class="st8" d="M15.49,27.63c0.3-1.39,4.34-5.59,6.06-6.46c1.16-0.59,2.03-0.11,2.66,0.37c0.64,0.48,1.18,0.76,1.69,0.69
			c0.51-0.08,1.19-0.6,1.75-0.9c0.55-0.29,1.22-0.19,1.7,0.08c0.36,0.2,1.1,0.53,1.41,0.62c0.46,0.13,0.87-0.22,1.18-0.36
			c0.43-0.2,0.94-0.1,1.34,0.11c0.4,0.21,0.76,0.53,1.31,0.57c0.55,0.05,1.08-0.21,1.72-0.07c0.63,0.14,1.49,0.3,1.53,0.74
			c0.05,0.43-0.13,0.89-0.78,0.92c-0.48,0.02-0.99-0.35-1.31-0.39c-0.32-0.04-0.64,0-0.77,0.16c-0.14,0.16-0.75,0.63-1.14,0.4
			c-0.45-0.27-0.76-0.51-1.03-0.66c-0.42-0.22-0.93,0.18-1.24,0.5c-0.31,0.32-0.92,0.41-1.52,0.21c-0.55-0.19-1.54-1.39-2.47-0.61
			c-0.39,0.33-1.07,1.12-1.54,1.61c-0.16,0.16-0.84,0.46-1.26,0.15c-0.42-0.32-1.21-0.63-1.51-0.92c-0.54-0.53-1.36-0.76-2.31,0.14
			c-0.36,0.34-2.24,2.82-3.45,3.73C16.67,28.9,15.29,28.58,15.49,27.63"/>
		<path class="st2" d="M12.53,33.54c1.53-1.01,4.66-1.71,6.54-2.14c2.28-0.5,4.72-0.96,9.21-1.39c4.82-0.46,13.91-0.84,14.79-0.87
			c1.61-0.05,0.88,0.38,0.69,0.39c-1.63,0.06-9.52,0.87-17.45,2.35c-3.08,0.58-9.87,2.29-12.84,3.28
			C12.28,35.55,11.49,34.23,12.53,33.54"/>
		<path class="st1" d="M11.12,30.1c-0.44,1.64-0.11,2.12,0.2,2.55c0.31,0.43,1.48,0.8,1.56-0.49c0.09-1.6,3.35-10.32,4.18-12.69
			c2.31-6.61,7.07-15.01,9.3-18.12c0.7-0.99,1.18-2.04-0.16-0.73c-1.16,1.13-5.7,7.95-7.06,10.59C16.6,16.13,13.13,22.65,11.12,30.1
			"/>
		<path class="st7" d="M25.6,4.92c-0.16-0.21-1.02-0.33-0.42,0.49c0.6,0.82,5.94,6.8,7.11,8.53c1.91,2.84,3.86,4.94,7.15,10.4
			c1.05,1.73,2.11,3.9,2.82,4.22c0.44,0.2,1.94,0.16,1.24-1.16c-0.91-1.71-4.2-6.19-5.6-8.05c-1.99-2.65-5.99-7.58-6.64-8.38
			C29.88,9.29,25.91,5.34,25.6,4.92"/>
	</g>
</g>
<g>
	<g>
		<path class="st1" d="M69.81,15.58c0.06,0.01,0.11,0.01,0.17,0.01c0.39,0,0.79-0.05,1.21-0.14l0.03,0c0.43-0.09,0.7-0.2,0.81-0.3
			c0.08-0.08,0.13-0.17,0.13-0.29c0-0.12-0.04-0.23-0.12-0.31c-0.08-0.08-0.18-0.12-0.28-0.12c-0.09,0-0.24,0.03-0.45,0.08
			l-0.06,0.02c-0.5,0.12-0.9,0.19-1.21,0.19c-0.06,0-0.12,0-0.18-0.01c-0.3-0.02-0.54-0.09-0.73-0.2c-0.22-0.14-0.38-0.32-0.47-0.55
			h1.24l1.38,0h0.88l-0.01-0.37c0-0.28-0.05-0.53-0.14-0.75c-0.13-0.31-0.29-0.57-0.49-0.78c-0.04-0.04-0.08-0.08-0.14-0.13
			c-0.13-0.1-0.3-0.19-0.5-0.28c-0.26-0.11-0.54-0.18-0.85-0.19c-0.03,0-0.07,0-0.11,0c-0.58,0-1.08,0.19-1.53,0.58
			c-0.44,0.38-0.66,0.88-0.66,1.49c0,0.58,0.21,1.06,0.62,1.46C68.72,15.36,69.21,15.56,69.81,15.58z M69.19,12.54
			c0.22-0.13,0.46-0.18,0.75-0.18h0.04c0.27,0,0.51,0.06,0.72,0.18c0.21,0.12,0.38,0.3,0.51,0.55h-1.27l-1.27,0
			C68.81,12.84,68.98,12.66,69.19,12.54z"/>
	</g>
	<g>
		<path class="st1" d="M78.34,12.48l0,2.11c-0.21,0-0.34,0.03-0.4,0.08c-0.12,0.11-0.18,0.23-0.18,0.36c0,0.13,0.04,0.24,0.13,0.32
			c0.08,0.08,0.23,0.12,0.44,0.12h0.01l0.84,0c0.22,0,0.37-0.04,0.46-0.12c0.09-0.08,0.13-0.19,0.13-0.32
			c0-0.13-0.06-0.25-0.18-0.35c-0.06-0.06-0.19-0.08-0.41-0.08v-1.62c0.22-0.25,0.41-0.41,0.56-0.49c0.15-0.08,0.32-0.12,0.51-0.12
			c0.26,0,0.45,0.06,0.58,0.17c0.1,0.09,0.15,0.22,0.15,0.41l0,1.64c-0.21,0-0.36,0.04-0.45,0.12c-0.09,0.08-0.13,0.19-0.13,0.32
			c0,0.13,0.04,0.24,0.13,0.32c0.08,0.08,0.21,0.12,0.39,0.12H81l0.85,0c0.22,0,0.37-0.04,0.46-0.13c0.09-0.08,0.13-0.18,0.13-0.31
			c0-0.13-0.05-0.23-0.13-0.32c-0.09-0.08-0.24-0.12-0.46-0.12l0-1.62c0-0.41-0.12-0.75-0.35-1c-0.1-0.12-0.22-0.21-0.35-0.28
			c-0.24-0.14-0.52-0.2-0.84-0.2c-0.22,0-0.43,0.04-0.61,0.1c-0.19,0.07-0.36,0.17-0.51,0.3v-0.28h-0.64l-0.21,0
			c-0.21,0-0.36,0.04-0.45,0.12c-0.08,0.08-0.13,0.19-0.13,0.32c0,0.13,0.05,0.24,0.13,0.32C77.98,12.44,78.13,12.48,78.34,12.48z"
			/>
	</g>
	<g>
		<path class="st1" d="M159.76,11.22c0.06,0,0.14-0.04,0.24-0.12l0.46-0.38l0.47-0.39c0.11-0.09,0.17-0.18,0.17-0.28
			c0-0.08-0.03-0.14-0.09-0.2c-0.05-0.05-0.12-0.08-0.2-0.08c-0.06,0-0.14,0.03-0.23,0.12l-0.08,0.07l-0.85,0.71
			c-0.11,0.09-0.16,0.18-0.16,0.27c0,0.08,0.03,0.15,0.08,0.2C159.62,11.19,159.68,11.22,159.76,11.22z"/>
	</g>
	<g>
		<path class="st1" d="M73.25,15.46h0.06h2.51c0.22,0.01,0.37-0.04,0.46-0.11c0.09-0.08,0.13-0.19,0.13-0.32
			c0-0.13-0.04-0.24-0.13-0.32c-0.09-0.08-0.24-0.12-0.46-0.12h-1.21l-0.01-1.31c0.35-0.31,0.65-0.53,0.88-0.69
			c0.24-0.15,0.42-0.23,0.53-0.23c0.09,0,0.2,0.05,0.31,0.17c0.12,0.11,0.23,0.16,0.33,0.16c0.11,0,0.22-0.04,0.3-0.13
			c0.09-0.09,0.13-0.19,0.13-0.32c0-0.15-0.09-0.29-0.26-0.43c-0.26-0.21-0.54-0.32-0.81-0.32c-0.18,0-0.37,0.04-0.58,0.13
			c-0.21,0.09-0.48,0.27-0.84,0.53V11.6h-1.09l-0.07,0c-0.21,0-0.35,0.04-0.44,0.12c-0.09,0.08-0.13,0.18-0.13,0.31
			c0.01,0.13,0.04,0.23,0.13,0.32c0.09,0.08,0.24,0.12,0.44,0.12h0.03h0.28l0,2.11h-0.4h-0.12c-0.21,0-0.36,0.04-0.44,0.12
			c-0.09,0.08-0.13,0.19-0.13,0.32c0,0.13,0.04,0.24,0.13,0.31C72.89,15.41,73.03,15.46,73.25,15.46z"/>
	</g>
	<g>
		
			<rect x="141.03" y="9.99" transform="matrix(3.979738e-03 -1 1 3.979738e-03 130.4256 151.9394)" class="st1" width="0.92" height="1.02"/>
	</g>
	<g>
		<polygon class="st1" points="68.08,18.46 69.1,18.46 69.1,17.54 68.08,17.54 		"/>
	</g>
	<g>
		<path class="st1" d="M58.61,10.69c0.09,0.08,0.23,0.12,0.45,0.12h0.14l0.01,3.76h-0.15c-0.21,0-0.36,0.04-0.45,0.12
			c-0.09,0.08-0.13,0.19-0.13,0.32c0,0.13,0.04,0.24,0.13,0.32c0.09,0.08,0.24,0.12,0.45,0.12h1v-0.22c0.2,0.12,0.4,0.21,0.61,0.27
			c0.18,0.05,0.36,0.08,0.55,0.09h0.1c0.64,0,1.15-0.18,1.54-0.57c0.39-0.37,0.58-0.84,0.58-1.41c0-0.59-0.2-1.09-0.61-1.51
			c-0.39-0.39-0.85-0.6-1.39-0.62h-0.1c-0.21,0-0.43,0.03-0.65,0.1c-0.21,0.07-0.42,0.18-0.63,0.31l-0.01-1.95l-0.99,0
			c-0.22,0-0.37,0.04-0.45,0.12c-0.02,0.01-0.03,0.03-0.05,0.04c-0.06,0.08-0.09,0.16-0.09,0.27c0,0.09,0.03,0.17,0.06,0.23
			C58.56,10.63,58.59,10.66,58.61,10.69z M60.43,12.71c0.25-0.25,0.55-0.37,0.9-0.37c0.03,0,0.05,0,0.07,0
			c0.32,0.02,0.6,0.14,0.83,0.37c0.25,0.25,0.37,0.56,0.37,0.91c0,0.31-0.11,0.57-0.33,0.77c-0.22,0.21-0.53,0.31-0.94,0.31h-0.05
			c-0.37-0.01-0.67-0.11-0.88-0.31c-0.22-0.2-0.33-0.47-0.33-0.79C60.07,13.26,60.19,12.96,60.43,12.71z"/>
	</g>
	<g>
		<rect x="64.76" y="9.94" class="st1" width="1.02" height="0.92"/>
	</g>
	<g>
		<path class="st1" d="M49.46,14.98c0.16,0.16,0.39,0.29,0.68,0.39c0.37,0.13,0.78,0.2,1.21,0.2c0.31,0,0.61-0.04,0.88-0.12
			c0.27-0.08,0.6-0.22,0.98-0.43v-1.18c0.11,0,0.2-0.04,0.29-0.12c0.09-0.08,0.13-0.19,0.13-0.32c0-0.13-0.04-0.23-0.13-0.31
			c-0.09-0.08-0.18-0.12-0.29-0.12l-1.72,0c-0.21,0-0.36,0.04-0.44,0.12c-0.09,0.08-0.13,0.19-0.13,0.31c0,0.13,0.05,0.24,0.13,0.32
			c0.09,0.08,0.24,0.12,0.45,0.12l0.86,0l0,0.63c-0.32,0.15-0.68,0.23-1.07,0.23c-0.58,0-1-0.13-1.27-0.37
			c-0.27-0.25-0.4-0.6-0.4-1.07l-0.01-0.63c0-0.31,0.07-0.59,0.23-0.85c0.15-0.26,0.31-0.44,0.49-0.55
			c0.25-0.14,0.55-0.21,0.88-0.21c0.24,0,0.45,0.03,0.64,0.1c0.19,0.07,0.32,0.14,0.39,0.22c0.05,0.05,0.09,0.15,0.13,0.3
			c0.04,0.14,0.08,0.24,0.14,0.28c0.07,0.06,0.16,0.09,0.26,0.09c0.13,0,0.22-0.05,0.3-0.14c0.08-0.08,0.12-0.24,0.12-0.45l0-0.57
			c0-0.21-0.04-0.36-0.12-0.44c-0.08-0.09-0.18-0.13-0.3-0.13c-0.11,0-0.22,0.05-0.34,0.16c-0.19-0.1-0.38-0.17-0.59-0.22
			c-0.21-0.05-0.44-0.08-0.67-0.08c-0.8,0-1.44,0.31-1.9,0.93c-0.35,0.45-0.52,0.97-0.52,1.55l0,0.63c0,0.38,0.07,0.72,0.21,1.02
			C49.13,14.59,49.29,14.82,49.46,14.98z"/>
	</g>
	<g>
		<path class="st1" d="M64.03,15.44l2.89,0c0.22,0,0.37-0.04,0.46-0.12c0.09-0.08,0.13-0.19,0.13-0.32c0-0.13-0.04-0.24-0.13-0.31
			c-0.09-0.08-0.24-0.12-0.46-0.12l-1.02,0l0-2.98l-1.54,0c-0.21,0-0.36,0.04-0.44,0.12c-0.09,0.08-0.13,0.19-0.13,0.32
			c0,0.13,0.04,0.24,0.13,0.32c0.09,0.08,0.23,0.12,0.45,0.12l0.68,0l0.01,2.1h-1.02c-0.21,0-0.36,0.04-0.44,0.12
			c-0.09,0.08-0.13,0.19-0.13,0.32c0,0.13,0.05,0.24,0.13,0.32C63.67,15.4,63.83,15.44,64.03,15.44z"/>
	</g>
	<g>
		<path class="st1" d="M152.95,14.32c-0.1,0-0.21,0.06-0.33,0.17c-0.12,0.11-0.25,0.19-0.38,0.23c-0.22,0.08-0.51,0.11-0.86,0.11
			c-0.54,0-0.92-0.1-1.16-0.29c-0.23-0.2-0.34-0.47-0.35-0.8c0-0.37,0.12-0.67,0.36-0.91c0.24-0.24,0.56-0.36,0.96-0.36
			c0.35,0,0.64,0.07,0.86,0.2c0.12,0.08,0.21,0.19,0.24,0.35c0.04,0.16,0.08,0.26,0.14,0.31c0.08,0.07,0.18,0.1,0.3,0.1
			c0.13,0,0.23-0.04,0.3-0.13c0.08-0.09,0.12-0.24,0.12-0.45v-0.56c-0.01-0.21-0.04-0.36-0.12-0.45c-0.08-0.09-0.18-0.13-0.3-0.13
			c-0.11,0-0.21,0.05-0.31,0.15c-0.17-0.09-0.36-0.16-0.56-0.2c-0.2-0.04-0.42-0.07-0.65-0.07c-0.65,0-1.18,0.2-1.57,0.6
			c-0.41,0.41-0.61,0.92-0.61,1.54c0,0.65,0.25,1.17,0.75,1.54c0.37,0.28,0.88,0.42,1.54,0.42c0.73,0,1.29-0.12,1.67-0.38
			c0.26-0.17,0.39-0.36,0.38-0.55c0-0.12-0.04-0.23-0.12-0.31C153.17,14.36,153.07,14.32,152.95,14.32z"/>
	</g>
	<g>
		<path class="st1" d="M157.36,14.69l-1.02-0.01l-0.01-2.98h-1.54c-0.21,0-0.35,0.04-0.44,0.12c-0.09,0.08-0.13,0.19-0.13,0.32
			c0,0.13,0.04,0.23,0.13,0.32c0.09,0.08,0.23,0.12,0.44,0.12h0.69l0,2.1h-1.02c-0.21,0-0.36,0.04-0.44,0.12
			c-0.09,0.08-0.13,0.19-0.13,0.32c0,0.13,0.04,0.24,0.13,0.32c0.09,0.08,0.23,0.12,0.44,0.12l2.89,0.01c0.22,0,0.37-0.04,0.45-0.12
			c0.09-0.08,0.13-0.19,0.13-0.31c0-0.13-0.04-0.24-0.14-0.32C157.73,14.73,157.57,14.69,157.36,14.69z"/>
	</g>
	<g>
		<path class="st1" d="M112.22,15.23c0.37,0.28,0.88,0.42,1.54,0.42c0.74,0,1.29-0.13,1.67-0.38c0.26-0.17,0.38-0.36,0.39-0.55
			c0-0.12-0.05-0.22-0.13-0.31c-0.08-0.09-0.18-0.13-0.3-0.13c-0.1,0-0.21,0.05-0.32,0.16c-0.12,0.11-0.25,0.19-0.38,0.23
			c-0.22,0.07-0.51,0.11-0.87,0.11c-0.54,0-0.92-0.1-1.16-0.29c-0.22-0.2-0.34-0.47-0.34-0.8c0-0.37,0.12-0.67,0.36-0.91
			c0.24-0.24,0.56-0.36,0.96-0.36c0.35,0.01,0.63,0.07,0.86,0.21c0.13,0.07,0.21,0.19,0.24,0.34c0.04,0.15,0.08,0.26,0.14,0.31
			c0.08,0.07,0.17,0.1,0.29,0.1c0.13,0,0.23-0.04,0.31-0.13c0.07-0.09,0.11-0.24,0.12-0.45v-0.56c0-0.21-0.04-0.35-0.12-0.44
			c-0.08-0.09-0.18-0.13-0.3-0.13c-0.11,0-0.21,0.05-0.31,0.15c-0.17-0.09-0.36-0.16-0.56-0.2c-0.21-0.05-0.42-0.07-0.66-0.07
			c-0.65,0-1.17,0.2-1.57,0.61c-0.41,0.41-0.6,0.92-0.6,1.54C111.48,14.34,111.72,14.85,112.22,15.23z"/>
	</g>
	<g>
		<path class="st1" d="M117.19,15.38c0.33,0.17,0.65,0.26,1.01,0.27c0.03,0,0.07,0,0.1,0c0.39,0,0.76-0.09,1.12-0.28
			c0.35-0.19,0.63-0.43,0.8-0.75c0.18-0.31,0.28-0.63,0.28-0.97c0-0.35-0.09-0.69-0.28-1.02c-0.18-0.33-0.45-0.6-0.81-0.79
			c-0.32-0.18-0.66-0.27-1-0.29c-0.04,0-0.07-0.01-0.11-0.01c-0.39,0-0.75,0.1-1.1,0.29c-0.35,0.19-0.62,0.46-0.81,0.79
			c-0.19,0.34-0.28,0.68-0.28,1.02c0,0.34,0.1,0.67,0.28,0.99C116.57,14.95,116.84,15.2,117.19,15.38z M117.34,12.79
			c0.25-0.25,0.57-0.38,0.96-0.38c0.02,0,0.05,0,0.07,0c0.4,0.02,0.73,0.18,0.99,0.47c0.19,0.24,0.29,0.49,0.29,0.77
			c0,0.27-0.12,0.53-0.38,0.77c-0.27,0.23-0.58,0.35-0.96,0.35c-0.02,0-0.03,0-0.06,0c-0.35-0.01-0.65-0.13-0.89-0.36
			c-0.26-0.24-0.39-0.49-0.39-0.76C116.96,13.33,117.08,13.05,117.34,12.79z"/>
	</g>
	<g>
		<path class="st1" d="M53.26,19.17l-0.96-0.01c-0.21,0.01-0.37,0.04-0.45,0.12c-0.09,0.08-0.13,0.19-0.13,0.32
			c0,0.13,0.04,0.23,0.14,0.31c0.08,0.08,0.23,0.12,0.44,0.12l-0.99,1.99l-1-2c0.21,0,0.36-0.04,0.45-0.12
			c0.09-0.08,0.13-0.18,0.13-0.31c0-0.13-0.04-0.23-0.13-0.32c-0.09-0.08-0.24-0.12-0.45-0.12h-0.95c-0.21,0-0.36,0.04-0.45,0.12
			c-0.09,0.08-0.13,0.19-0.13,0.32c0,0.13,0.04,0.24,0.13,0.31c0.08,0.08,0.23,0.12,0.45,0.12L50.85,23l-0.48,0.96h-0.85
			c-0.22,0-0.37,0.04-0.46,0.12c-0.09,0.08-0.13,0.18-0.13,0.32c0,0.13,0.04,0.23,0.13,0.31c0.09,0.08,0.24,0.12,0.46,0.12h2.13
			c0.22,0,0.37-0.04,0.46-0.12c0.09-0.08,0.13-0.19,0.13-0.32c0-0.13-0.09-0.28-0.27-0.44c-0.21,0-0.42,0-0.64,0l1.94-3.91
			c0.21,0,0.36-0.04,0.45-0.12c0.09-0.08,0.13-0.19,0.13-0.32c0-0.13-0.04-0.23-0.13-0.32C53.62,19.21,53.47,19.17,53.26,19.17z"/>
	</g>
	<g>
		<rect x="131.85" y="10.03" class="st1" width="1.02" height="0.92"/>
	</g>
	<g>
		<path class="st1" d="M167.46,14.82c-0.09-0.08-0.24-0.12-0.46-0.12v-1.62c0-0.41-0.12-0.75-0.35-1c-0.29-0.32-0.69-0.48-1.19-0.48
			c-0.21,0-0.42,0.03-0.61,0.1c-0.19,0.07-0.36,0.17-0.51,0.3l0-0.28l-0.85,0c-0.21,0-0.36,0.04-0.45,0.12
			c-0.08,0.08-0.12,0.19-0.12,0.32c0,0.13,0.04,0.24,0.13,0.32c0.08,0.08,0.23,0.12,0.45,0.12l0,2.11c-0.21,0-0.34,0.02-0.4,0.08
			c-0.12,0.11-0.17,0.23-0.18,0.36c0,0.13,0.05,0.24,0.13,0.32c0.09,0.08,0.24,0.12,0.45,0.12h0.86c0.21,0,0.36-0.04,0.45-0.12
			c0.09-0.08,0.13-0.19,0.13-0.32c0-0.13-0.06-0.25-0.17-0.36c-0.06-0.06-0.19-0.08-0.41-0.08l-0.01-1.62
			c0.23-0.25,0.42-0.41,0.56-0.49c0.15-0.08,0.32-0.12,0.52-0.12c0.26,0,0.45,0.06,0.58,0.17c0.1,0.08,0.15,0.22,0.15,0.41v1.64
			c-0.21,0-0.36,0.04-0.44,0.12c-0.09,0.08-0.13,0.19-0.13,0.32c0,0.13,0.04,0.24,0.13,0.32c0.09,0.08,0.24,0.12,0.45,0.12l0.85,0
			c0.21,0,0.37-0.04,0.45-0.12c0.09-0.08,0.13-0.19,0.13-0.32C167.6,15.01,167.55,14.91,167.46,14.82z"/>
	</g>
	<g>
		<path class="st1" d="M161.41,11.89c-0.32-0.18-0.66-0.27-1.01-0.29c-0.04,0-0.08,0-0.11,0c-0.39,0-0.76,0.1-1.11,0.29
			c-0.35,0.19-0.63,0.46-0.81,0.79c-0.18,0.34-0.28,0.68-0.28,1.03c0,0.35,0.09,0.67,0.28,0.99c0.19,0.31,0.46,0.56,0.81,0.74
			c0.32,0.17,0.66,0.26,1.01,0.27c0.04,0,0.07,0,0.11,0c0.39,0,0.76-0.09,1.12-0.28c0.36-0.18,0.63-0.43,0.81-0.75
			c0.18-0.31,0.27-0.64,0.27-0.97c0-0.35-0.09-0.69-0.28-1.02C162.04,12.35,161.77,12.09,161.41,11.89z M161.26,14.48
			c-0.26,0.24-0.58,0.35-0.96,0.35h-0.06c-0.35-0.01-0.65-0.13-0.9-0.36c-0.26-0.24-0.39-0.49-0.39-0.76c0-0.33,0.13-0.62,0.39-0.87
			c0.26-0.25,0.57-0.38,0.96-0.37c0.02,0,0.04,0,0.07,0c0.4,0.02,0.73,0.17,0.98,0.47c0.2,0.24,0.29,0.49,0.29,0.77
			C161.64,13.99,161.51,14.25,161.26,14.48z"/>
	</g>
	<g>
		<rect x="155.19" y="10.06" class="st1" width="1.02" height="0.92"/>
	</g>
	<g>
		<path class="st1" d="M107.6,15.34c0.3,0.18,0.66,0.27,1.07,0.29c0.06,0,0.11,0,0.17,0c0.39,0,0.81-0.05,1.24-0.14
			c0.43-0.09,0.7-0.19,0.81-0.3c0.08-0.08,0.12-0.18,0.12-0.29c0-0.12-0.04-0.23-0.12-0.31c-0.08-0.08-0.17-0.12-0.29-0.12
			c-0.08,0-0.23,0.03-0.45,0.08c-0.52,0.14-0.94,0.21-1.26,0.2c-0.06,0-0.13,0-0.19,0c-0.3-0.02-0.54-0.09-0.73-0.2
			c-0.13-0.08-0.24-0.18-0.33-0.29c-0.06-0.08-0.11-0.16-0.14-0.26h0.16h1.08l2.26,0l-0.01-0.37c0-0.28-0.05-0.53-0.13-0.75
			c-0.13-0.31-0.3-0.57-0.49-0.78c-0.14-0.15-0.35-0.28-0.65-0.4c-0.26-0.11-0.54-0.17-0.84-0.19c-0.04,0-0.07,0-0.11,0
			c-0.35,0-0.68,0.07-0.99,0.22c-0.19,0.09-0.37,0.21-0.54,0.35c-0.44,0.38-0.66,0.88-0.66,1.49c0,0.58,0.21,1.06,0.62,1.46
			C107.33,15.17,107.46,15.26,107.6,15.34z M107.74,12.85c0.09-0.1,0.2-0.19,0.32-0.26c0.21-0.12,0.46-0.18,0.75-0.18h0.04
			c0.27,0.01,0.51,0.07,0.72,0.18c0.21,0.12,0.38,0.31,0.51,0.55l-1.26,0h-1.08l-0.19,0C107.6,13.03,107.66,12.94,107.74,12.85z"/>
	</g>
	<g>
		<path class="st1" d="M96.68,15.62c0.05,0,0.11,0,0.17,0.01c0.39,0,0.8-0.05,1.23-0.14c0.43-0.1,0.7-0.19,0.81-0.3
			c0.08-0.08,0.12-0.18,0.12-0.29c0-0.12-0.04-0.23-0.12-0.31c-0.08-0.08-0.17-0.12-0.28-0.12c-0.09,0-0.23,0.02-0.45,0.08
			c-0.52,0.14-0.94,0.21-1.26,0.21c-0.07,0-0.13-0.01-0.19-0.01c-0.29-0.02-0.54-0.08-0.73-0.2c-0.23-0.14-0.38-0.32-0.47-0.55h1.24
			h2.26l0-0.37c0-0.28-0.05-0.53-0.13-0.75c-0.13-0.31-0.3-0.57-0.5-0.78c-0.14-0.15-0.36-0.28-0.65-0.4
			c-0.26-0.11-0.54-0.18-0.85-0.19c-0.04,0-0.07,0-0.11,0c-0.57,0-1.08,0.19-1.52,0.57c-0.44,0.38-0.66,0.88-0.66,1.49
			c0,0.58,0.2,1.06,0.62,1.45C95.59,15.39,96.08,15.59,96.68,15.62z M96.05,12.57c0.22-0.12,0.47-0.18,0.76-0.18h0.04
			c0.28,0.01,0.51,0.07,0.71,0.18c0.21,0.12,0.39,0.31,0.52,0.55l-1.27,0h-1.27C95.67,12.87,95.84,12.69,96.05,12.57z"/>
	</g>
	<g>
		<path class="st1" d="M91.38,15.62c0.04,0,0.08,0,0.11,0c0.23,0,0.45-0.03,0.66-0.09c0.21-0.06,0.41-0.15,0.61-0.27v0.22h1
			c0.22,0,0.37-0.04,0.46-0.12c0.09-0.08,0.13-0.19,0.13-0.32c0-0.13-0.04-0.24-0.13-0.32c-0.09-0.08-0.24-0.12-0.46-0.12h-0.15
			l0-4.63l-1,0c-0.2,0-0.36,0.04-0.44,0.12c-0.09,0.08-0.13,0.19-0.13,0.32c0,0.13,0.04,0.23,0.13,0.32
			c0.08,0.08,0.24,0.12,0.44,0.12h0.14l0,1.08c-0.21-0.14-0.42-0.24-0.63-0.31c-0.17-0.06-0.35-0.09-0.52-0.1c-0.05,0-0.09,0-0.13,0
			c-0.59,0-1.09,0.2-1.5,0.62c-0.41,0.42-0.61,0.92-0.61,1.51c0,0.56,0.2,1.04,0.59,1.41C90.31,15.41,90.79,15.6,91.38,15.62z
			 M90.58,12.75c0.25-0.25,0.55-0.37,0.9-0.37c0.02,0,0.04,0,0.07,0c0.33,0.02,0.61,0.14,0.84,0.37c0.24,0.25,0.37,0.55,0.37,0.91
			c0,0.31-0.11,0.57-0.34,0.78c-0.22,0.2-0.53,0.3-0.94,0.3h-0.06c-0.37-0.01-0.67-0.11-0.88-0.31c-0.22-0.2-0.33-0.47-0.33-0.79
			C90.21,13.3,90.33,13,90.58,12.75z"/>
	</g>
	<g>
		<path class="st1" d="M134.01,14.66H133l-0.01-2.98h-1.54c-0.21,0-0.36,0.04-0.44,0.12c-0.09,0.08-0.13,0.18-0.13,0.32
			c0,0.13,0.04,0.23,0.13,0.32c0.09,0.08,0.24,0.13,0.44,0.13h0.69v2.1l-1.02,0c-0.21,0-0.36,0.04-0.44,0.12
			c-0.09,0.08-0.13,0.19-0.13,0.32c0,0.13,0.04,0.24,0.13,0.32c0.09,0.08,0.23,0.12,0.44,0.12l2.89,0c0.22,0,0.37-0.04,0.45-0.12
			c0.09-0.08,0.13-0.18,0.13-0.31c0-0.13-0.04-0.24-0.13-0.32C134.38,14.7,134.23,14.66,134.01,14.66z"/>
	</g>
	<g>
		<path class="st1" d="M148.2,14.68h-0.14v-1.79c0-0.4-0.15-0.72-0.44-0.96c-0.29-0.23-0.7-0.35-1.23-0.35l-0.06,0
			c-0.16,0-0.34,0.02-0.53,0.05c-0.22,0.03-0.44,0.08-0.64,0.14c-0.16,0.05-0.26,0.08-0.31,0.12c-0.04,0.03-0.09,0.08-0.11,0.13
			c-0.03,0.05-0.04,0.12-0.05,0.19c0,0.13,0.05,0.24,0.12,0.32c0.08,0.08,0.17,0.12,0.29,0.12c0.08,0,0.2-0.02,0.35-0.06
			c0.33-0.08,0.61-0.13,0.84-0.14c0.05,0,0.1-0.01,0.14-0.01c0.31,0,0.52,0.04,0.62,0.13c0.11,0.08,0.17,0.19,0.17,0.32v0.21
			c-0.34-0.05-0.63-0.08-0.9-0.09l-0.06,0c-0.61,0.01-1.09,0.17-1.45,0.46c-0.37,0.31-0.55,0.65-0.55,1.02
			c0,0.3,0.14,0.58,0.43,0.82c0.28,0.25,0.66,0.38,1.12,0.38c0.09,0,0.2-0.01,0.31-0.02c0.13-0.02,0.26-0.04,0.39-0.07
			c0.26-0.06,0.49-0.14,0.71-0.25v0.2h0.99c0.22,0,0.37-0.04,0.46-0.12c0.08-0.08,0.13-0.18,0.13-0.32c0-0.13-0.05-0.23-0.13-0.31
			C148.56,14.72,148.41,14.68,148.2,14.68z M147.2,14.36c-0.2,0.14-0.43,0.25-0.69,0.33c-0.13,0.04-0.25,0.07-0.36,0.09
			c-0.12,0.02-0.23,0.03-0.34,0.03c-0.24,0-0.43-0.04-0.57-0.13c-0.07-0.06-0.11-0.12-0.11-0.2c0-0.11,0.08-0.22,0.23-0.33
			c0.23-0.16,0.51-0.25,0.83-0.26l0.06,0c0.29,0,0.61,0.04,0.95,0.1L147.2,14.36z"/>
	</g>
	<g>
		<path class="st1" d="M125.19,22.25l-1.02,0l-0.01-4.63h-1.53c-0.22,0-0.36,0.04-0.44,0.12c-0.09,0.08-0.13,0.19-0.13,0.32
			c0,0.13,0.04,0.23,0.13,0.32c0.09,0.08,0.23,0.12,0.44,0.12h0.69l0,3.75h-1.02c-0.21,0-0.36,0.04-0.44,0.12
			c-0.09,0.08-0.13,0.19-0.13,0.32c0,0.13,0.04,0.23,0.13,0.32c0.09,0.08,0.23,0.12,0.44,0.12l2.89,0.01c0.21,0,0.37-0.04,0.46-0.12
			c0.09-0.08,0.13-0.19,0.13-0.32c0-0.13-0.04-0.23-0.13-0.31C125.55,22.29,125.4,22.25,125.19,22.25z"/>
	</g>
	<g>
		<path class="st1" d="M102.49,21.85c-0.1,0-0.2,0.05-0.33,0.16c-0.12,0.11-0.24,0.19-0.38,0.23c-0.22,0.07-0.51,0.11-0.86,0.11
			c-0.54,0-0.92-0.1-1.15-0.29c-0.23-0.2-0.35-0.47-0.35-0.81c0-0.36,0.12-0.67,0.36-0.91c0.24-0.24,0.56-0.36,0.96-0.36
			c0.35,0,0.63,0.07,0.86,0.21c0.13,0.08,0.21,0.19,0.24,0.34c0.03,0.16,0.07,0.26,0.14,0.31c0.08,0.07,0.18,0.1,0.29,0.1
			c0.13,0,0.23-0.04,0.31-0.13c0.08-0.09,0.12-0.24,0.12-0.45l0-0.56c0-0.21-0.04-0.36-0.12-0.44c-0.08-0.09-0.18-0.13-0.3-0.14
			c-0.11,0-0.21,0.05-0.31,0.15c-0.18-0.09-0.36-0.16-0.56-0.2c-0.2-0.05-0.42-0.07-0.66-0.07c-0.65,0-1.17,0.21-1.58,0.61
			c-0.4,0.41-0.6,0.92-0.6,1.54c0,0.66,0.25,1.17,0.75,1.55c0.37,0.28,0.89,0.42,1.55,0.42c0.73,0,1.29-0.13,1.67-0.38
			c0.26-0.18,0.38-0.36,0.39-0.55c0-0.12-0.05-0.22-0.13-0.31C102.71,21.89,102.61,21.85,102.49,21.85z"/>
	</g>
	<g>
		<path class="st1" d="M129.67,14.29c-0.1,0-0.21,0.05-0.32,0.16c-0.12,0.11-0.24,0.19-0.38,0.23c-0.22,0.07-0.51,0.11-0.86,0.11
			c-0.54,0-0.92-0.1-1.16-0.29c-0.23-0.2-0.34-0.47-0.34-0.8c0-0.37,0.12-0.67,0.36-0.91c0.24-0.24,0.56-0.36,0.96-0.36
			c0.35,0,0.63,0.07,0.86,0.21c0.13,0.08,0.21,0.19,0.24,0.35c0.03,0.15,0.08,0.26,0.14,0.31c0.08,0.07,0.18,0.1,0.29,0.1
			c0.13,0,0.23-0.05,0.31-0.13c0.08-0.09,0.12-0.24,0.12-0.45l0-0.56c0-0.21-0.04-0.36-0.12-0.45c-0.08-0.09-0.18-0.13-0.3-0.13
			c-0.11,0-0.21,0.05-0.32,0.15c-0.17-0.09-0.35-0.16-0.56-0.2c-0.2-0.05-0.42-0.07-0.66-0.07c-0.65,0-1.18,0.2-1.58,0.61
			c-0.4,0.41-0.61,0.92-0.61,1.54c0,0.65,0.25,1.17,0.75,1.55c0.37,0.28,0.88,0.42,1.54,0.42c0.73,0,1.29-0.13,1.68-0.38
			c0.25-0.18,0.38-0.36,0.38-0.55c0-0.12-0.05-0.22-0.13-0.31C129.89,14.33,129.79,14.29,129.67,14.29z"/>
	</g>
	<g>
		<path class="st1" d="M97.8,22.21h-0.14l0-1.79c0-0.4-0.14-0.72-0.44-0.96c-0.19-0.15-0.43-0.26-0.72-0.31
			c-0.16-0.03-0.33-0.04-0.51-0.04c-0.18,0-0.38,0.02-0.6,0.05c-0.22,0.04-0.43,0.08-0.64,0.14c-0.16,0.05-0.26,0.08-0.31,0.12
			c-0.05,0.03-0.09,0.08-0.12,0.13c-0.03,0.05-0.04,0.12-0.04,0.19c0,0.13,0.04,0.24,0.12,0.32c0.08,0.08,0.17,0.12,0.29,0.12
			c0.08,0,0.2-0.02,0.35-0.06c0.4-0.1,0.73-0.15,0.98-0.15c0.18,0,0.33,0.02,0.44,0.05c0.08,0.02,0.14,0.04,0.19,0.08
			c0.11,0.08,0.16,0.19,0.16,0.32v0.21c-0.13-0.02-0.26-0.04-0.38-0.05c-0.19-0.02-0.36-0.03-0.51-0.03c-0.64,0-1.15,0.16-1.51,0.46
			c-0.37,0.31-0.55,0.66-0.55,1.02c0,0.3,0.14,0.57,0.43,0.82c0.29,0.25,0.66,0.37,1.11,0.37c0.21,0,0.44-0.03,0.7-0.09
			c0.07-0.01,0.13-0.03,0.19-0.05c0.18-0.05,0.36-0.12,0.52-0.21l0,0.2h0.99c0.22,0,0.37-0.04,0.46-0.12
			c0.08-0.08,0.13-0.18,0.13-0.32c0-0.13-0.04-0.24-0.13-0.32C98.16,22.25,98.02,22.21,97.8,22.21z M96.33,22.15
			c-0.07,0.03-0.15,0.06-0.22,0.08c-0.26,0.08-0.49,0.12-0.69,0.12c-0.24,0-0.43-0.04-0.57-0.14c-0.08-0.05-0.11-0.12-0.11-0.2
			c0-0.12,0.08-0.22,0.23-0.34c0.25-0.17,0.55-0.25,0.9-0.25c0.16,0,0.33,0.01,0.51,0.03c0.14,0.02,0.28,0.04,0.43,0.07l0,0.37
			C96.66,21.99,96.5,22.08,96.33,22.15z"/>
	</g>
	<g>
		<path class="st1" d="M103.68,15.36c0.08-0.08,0.11-0.18,0.11-0.3c0-0.1-0.03-0.19-0.08-0.26c-0.02-0.02-0.03-0.04-0.05-0.06
			c-0.09-0.08-0.24-0.12-0.46-0.12h-0.31v-1.09h0.84c0.02,0.01,0.03,0.01,0.05,0.02c0.44,0.24,1,0.89,1.66,1.94h0.43
			c0.21,0,0.36-0.04,0.45-0.12c0.08-0.08,0.13-0.19,0.13-0.32c0-0.13-0.06-0.25-0.17-0.36c-0.06-0.05-0.2-0.08-0.41-0.08
			c-0.21-0.34-0.38-0.59-0.51-0.75c-0.2-0.26-0.4-0.46-0.58-0.62c0.31-0.18,0.55-0.37,0.71-0.59c0.15-0.22,0.23-0.47,0.23-0.74
			c0-0.44-0.17-0.8-0.5-1.11c-0.31-0.28-0.74-0.44-1.28-0.46c-0.04,0-0.08,0-0.12,0h-1.92c-0.21,0-0.36,0.04-0.45,0.12
			c-0.09,0.08-0.13,0.19-0.13,0.32c0,0.13,0.04,0.23,0.13,0.32c0.08,0.08,0.24,0.12,0.45,0.12h0.13v3.39l-0.13,0
			c-0.21,0-0.36,0.04-0.45,0.12c-0.08,0.08-0.13,0.18-0.13,0.31c0,0.13,0.04,0.24,0.13,0.32c0.09,0.08,0.23,0.12,0.44,0.12l1.29,0
			c0.22,0,0.37-0.04,0.46-0.12C103.66,15.37,103.67,15.36,103.68,15.36z M103.86,11.22h0.03c0.31,0.01,0.55,0.08,0.72,0.21
			c0.17,0.14,0.25,0.29,0.25,0.45c0,0.11-0.04,0.22-0.13,0.34c-0.09,0.11-0.27,0.22-0.53,0.32c-0.12,0.05-0.25,0.08-0.39,0.1
			c-0.09,0.01-0.17,0.02-0.27,0.02h-0.67l0-1.44H103.86z"/>
	</g>
	<g>
		<path class="st1" d="M115.82,22.23v-1.61c0-0.41-0.12-0.75-0.35-1.01c-0.3-0.32-0.69-0.48-1.19-0.48c-0.22,0-0.42,0.03-0.61,0.1
			c-0.19,0.07-0.36,0.17-0.51,0.3v-0.28l-0.85,0c-0.21,0-0.36,0.04-0.44,0.12c-0.09,0.08-0.13,0.18-0.13,0.32
			c0,0.13,0.04,0.23,0.13,0.31c0.08,0.08,0.23,0.12,0.44,0.12l0,2.1c-0.21,0-0.35,0.03-0.4,0.08c-0.11,0.11-0.17,0.23-0.17,0.36
			c0,0.13,0.04,0.23,0.13,0.32c0.09,0.08,0.23,0.12,0.45,0.12l0.85,0c0.21,0,0.37-0.04,0.45-0.12c0.09-0.08,0.13-0.19,0.13-0.32
			c0-0.13-0.06-0.25-0.18-0.35c-0.06-0.06-0.19-0.08-0.41-0.09l0-1.61c0.22-0.25,0.41-0.42,0.56-0.49c0.15-0.08,0.32-0.12,0.52-0.12
			c0.26,0,0.45,0.06,0.58,0.17c0.1,0.09,0.15,0.22,0.15,0.41l0,1.64c-0.21,0-0.36,0.04-0.45,0.12c-0.08,0.08-0.13,0.18-0.13,0.32
			c0,0.13,0.04,0.24,0.13,0.32c0.08,0.08,0.23,0.12,0.44,0.12l0.85,0c0.22,0,0.37-0.04,0.46-0.12c0.08-0.08,0.13-0.19,0.13-0.32
			s-0.04-0.24-0.13-0.32C116.19,22.28,116.04,22.23,115.82,22.23z"/>
	</g>
	<g>
		<path class="st1" d="M110.53,19.43c-0.36-0.2-0.73-0.3-1.12-0.3c-0.33,0-0.63,0.07-0.93,0.2c-0.06,0.03-0.12,0.06-0.17,0.09
			c-0.35,0.19-0.62,0.45-0.81,0.79c-0.07,0.13-0.13,0.25-0.16,0.37c-0.08,0.22-0.12,0.43-0.11,0.65c0,0.15,0.02,0.29,0.06,0.44
			c0.04,0.19,0.11,0.37,0.22,0.54c0.18,0.31,0.45,0.55,0.8,0.74l0.02,0.01c0.35,0.18,0.72,0.27,1.11,0.28
			c0.39,0,0.77-0.09,1.12-0.28c0.36-0.18,0.63-0.43,0.81-0.74c0.18-0.31,0.27-0.64,0.27-0.97c0-0.35-0.09-0.69-0.27-1.03
			C111.16,19.89,110.88,19.62,110.53,19.43z M110.37,22.02c-0.26,0.23-0.58,0.35-0.96,0.35c-0.38,0-0.69-0.12-0.96-0.36
			c-0.04-0.04-0.08-0.08-0.11-0.11c-0.18-0.2-0.28-0.42-0.28-0.65c0-0.32,0.12-0.6,0.35-0.84l0.03-0.03
			c0.25-0.25,0.57-0.37,0.96-0.37c0.44,0,0.79,0.16,1.06,0.48c0.19,0.23,0.29,0.49,0.29,0.77
			C110.76,21.52,110.63,21.78,110.37,22.02z"/>
	</g>
	<g>
		<path class="st1" d="M122.69,15.4c0.08-0.08,0.13-0.19,0.12-0.32c0-0.13-0.05-0.25-0.17-0.36c-0.06-0.06-0.19-0.08-0.41-0.08
			l0-1.62c0.22-0.25,0.41-0.41,0.56-0.49c0.15-0.08,0.32-0.12,0.51-0.12c0.26,0,0.45,0.05,0.58,0.17c0.1,0.09,0.15,0.23,0.15,0.42
			v1.64c-0.2,0-0.36,0.04-0.44,0.12c-0.09,0.08-0.13,0.18-0.13,0.31c0,0.13,0.04,0.24,0.13,0.32c0.08,0.08,0.24,0.12,0.44,0.12h0.86
			c0.21,0,0.37-0.04,0.45-0.12c0.09-0.08,0.13-0.18,0.13-0.32c0-0.13-0.04-0.23-0.13-0.31c-0.09-0.08-0.24-0.12-0.45-0.13
			l-0.01-1.62c0-0.41-0.11-0.75-0.35-1c-0.29-0.32-0.69-0.48-1.19-0.48c-0.22,0-0.42,0.03-0.6,0.1c-0.19,0.07-0.36,0.17-0.51,0.3
			v-0.28h-0.86c-0.21,0-0.36,0.04-0.44,0.12c-0.08,0.08-0.13,0.18-0.13,0.31c0,0.13,0.05,0.24,0.13,0.32
			c0.09,0.08,0.24,0.12,0.45,0.12l0.01,2.11c-0.21,0-0.35,0.03-0.4,0.08c-0.12,0.11-0.17,0.22-0.17,0.36c0,0.13,0.04,0.24,0.13,0.31
			c0.09,0.08,0.23,0.12,0.45,0.12h0.85C122.45,15.52,122.6,15.48,122.69,15.4z"/>
	</g>
	<g>
		<path class="st1" d="M107.17,22.34c-0.09-0.08-0.24-0.12-0.45-0.12h-1.02l-0.01-2.98l-1.54,0c-0.21,0-0.36,0.04-0.44,0.12
			c-0.09,0.08-0.13,0.19-0.13,0.32c0,0.13,0.05,0.24,0.13,0.32c0.09,0.08,0.24,0.12,0.45,0.12l0.68,0v2.1l-1.02,0
			c-0.21,0-0.36,0.04-0.44,0.12c-0.03,0.03-0.06,0.06-0.07,0.09c-0.04,0.06-0.06,0.14-0.06,0.22c0,0.07,0.01,0.13,0.03,0.18
			c0.03,0.05,0.06,0.09,0.1,0.13c0.09,0.08,0.24,0.12,0.44,0.12l2.89,0c0.22,0,0.37-0.04,0.45-0.12c0.01-0.01,0.03-0.02,0.04-0.04
			c0.06-0.08,0.09-0.17,0.09-0.28c0-0.09-0.03-0.17-0.07-0.24C107.22,22.39,107.2,22.37,107.17,22.34z"/>
	</g>
	<g>
		
			<rect x="104.6" y="17.54" transform="matrix(2.822737e-03 -1 1 2.822737e-03 86.7138 123.0586)" class="st1" width="0.92" height="1.02"/>
	</g>
	<g>
		<path class="st1" d="M93.96,18.37c0-0.13-0.04-0.23-0.13-0.32c-0.09-0.08-0.24-0.12-0.46-0.12h-1.16c-0.21,0-0.36,0.04-0.44,0.12
			c-0.09,0.08-0.13,0.19-0.13,0.32c0,0.13,0.04,0.24,0.13,0.32c0.09,0.08,0.24,0.12,0.44,0.12h0.31l0,2.62l-1.34-2.13l-0.85-1.36
			h-0.98c-0.22,0-0.37,0.04-0.46,0.12c-0.08,0.08-0.13,0.18-0.13,0.32c0,0.13,0.05,0.23,0.13,0.31c0.09,0.08,0.24,0.13,0.46,0.13
			h0.13l0,3.4c-0.21,0-0.36,0.04-0.44,0.12c-0.09,0.08-0.13,0.19-0.13,0.32c0,0.13,0.05,0.24,0.13,0.32
			c0.08,0.08,0.23,0.12,0.44,0.12h1.16c0.14,0,0.25-0.01,0.34-0.04c0.05-0.02,0.09-0.04,0.12-0.07c0.09-0.08,0.13-0.19,0.13-0.32
			c0-0.13-0.04-0.24-0.13-0.32c-0.02-0.02-0.05-0.03-0.08-0.05c-0.09-0.04-0.22-0.07-0.38-0.07l-0.31,0l0-2.63l0.77,1.23l1.43,2.28
			h0.84l-0.01-4.28c0.22,0,0.37-0.03,0.46-0.12C93.92,18.61,93.96,18.5,93.96,18.37z"/>
	</g>
	<g>
		<path class="st1" d="M75.28,22.18h-0.14l-0.01-4.63h-1c-0.21,0-0.36,0.04-0.44,0.12c-0.09,0.08-0.13,0.18-0.13,0.31
			c0,0.13,0.04,0.24,0.13,0.32c0.09,0.08,0.23,0.12,0.45,0.12h0.14l0.01,1.08c-0.21-0.14-0.42-0.24-0.63-0.31
			c-0.18-0.06-0.34-0.09-0.53-0.1c-0.04,0-0.08-0.01-0.13-0.01c-0.59,0-1.09,0.21-1.5,0.63c-0.31,0.32-0.51,0.69-0.58,1.11
			c-0.03,0.13-0.03,0.26-0.03,0.4c0,0.05,0,0.09,0,0.14c0.03,0.51,0.22,0.93,0.58,1.28c0.37,0.36,0.84,0.54,1.43,0.56
			c0.04,0,0.07,0.01,0.11,0.01c0.22,0,0.44-0.03,0.66-0.09c0.21-0.06,0.41-0.14,0.61-0.27v0.22h0.99c0.22,0,0.37-0.04,0.45-0.12
			c0.09-0.08,0.13-0.18,0.13-0.32c0-0.13-0.04-0.23-0.13-0.32C75.65,22.22,75.49,22.18,75.28,22.18z M73.94,22.01
			c-0.22,0.2-0.54,0.31-0.94,0.31l-0.06,0c-0.38-0.01-0.67-0.11-0.89-0.31c-0.22-0.21-0.33-0.47-0.33-0.79
			c0-0.35,0.12-0.65,0.37-0.9c0.24-0.25,0.54-0.37,0.9-0.37h0.08c0.33,0.02,0.6,0.14,0.83,0.37c0.24,0.25,0.37,0.55,0.37,0.91
			C74.28,21.55,74.17,21.81,73.94,22.01z"/>
	</g>
	<g>
		<path class="st1" d="M70.7,22.29c-0.09-0.08-0.24-0.12-0.45-0.12l-0.78,0h-0.24l0-2.98l-1.54-0.01c-0.21,0.01-0.36,0.04-0.45,0.12
			c-0.08,0.08-0.13,0.19-0.13,0.32s0.05,0.24,0.13,0.32c0.09,0.08,0.23,0.12,0.45,0.13l0.69,0l0.01,2.1h-1.02
			c-0.21,0-0.36,0.04-0.44,0.12c-0.09,0.08-0.13,0.18-0.13,0.32c0,0.13,0.05,0.24,0.13,0.32c0.09,0.08,0.24,0.12,0.44,0.12h2.06
			h0.83c0.22,0,0.37-0.04,0.46-0.12c0.05-0.05,0.09-0.11,0.11-0.17c0.01-0.04,0.02-0.1,0.02-0.15c0-0.04,0-0.07-0.01-0.1
			C70.81,22.43,70.77,22.36,70.7,22.29z"/>
	</g>
	<g>
		<path class="st1" d="M65.74,22.17l0-1.62c0-0.41-0.12-0.75-0.35-1.01c-0.29-0.32-0.69-0.48-1.19-0.48c-0.22,0-0.42,0.03-0.6,0.1
			c-0.19,0.07-0.36,0.17-0.51,0.3v-0.28l-0.85,0c-0.21,0-0.36,0.04-0.44,0.12c-0.09,0.08-0.13,0.18-0.13,0.32
			c0,0.13,0.04,0.23,0.13,0.32c0.08,0.08,0.23,0.12,0.44,0.12l0,2.11c-0.21,0-0.34,0.03-0.4,0.08c-0.12,0.11-0.17,0.23-0.17,0.36
			c0,0.13,0.04,0.24,0.13,0.32c0.09,0.08,0.23,0.12,0.44,0.12h0.85c0.21,0,0.36-0.04,0.46-0.12c0.09-0.08,0.13-0.19,0.13-0.32
			c0-0.13-0.06-0.25-0.18-0.36c-0.05-0.06-0.19-0.08-0.41-0.08l-0.01-1.62c0.23-0.25,0.41-0.41,0.56-0.49
			c0.15-0.08,0.32-0.11,0.51-0.11c0.26,0,0.46,0.06,0.58,0.17c0.1,0.09,0.15,0.23,0.15,0.42l0,1.64c-0.21,0-0.36,0.04-0.44,0.12
			c-0.09,0.08-0.13,0.19-0.13,0.31c0,0.13,0.04,0.24,0.13,0.32c0.08,0.08,0.24,0.12,0.44,0.12h0.85c0.22,0,0.37-0.04,0.46-0.12
			c0.09-0.08,0.13-0.18,0.13-0.32c0-0.13-0.05-0.24-0.13-0.32C66.11,22.21,65.96,22.17,65.74,22.17z"/>
	</g>
	<g>
		<path class="st1" d="M58.19,14.55c0.07-0.12,0.13-0.24,0.17-0.36c0.07-0.2,0.11-0.4,0.1-0.61c0-0.15-0.02-0.3-0.05-0.44
			c-0.04-0.2-0.12-0.39-0.22-0.59c-0.18-0.33-0.45-0.6-0.81-0.8c-0.32-0.18-0.65-0.27-1-0.29c-0.03,0-0.07,0-0.11,0
			c-0.39,0-0.75,0.1-1.1,0.29c-0.35,0.19-0.62,0.45-0.81,0.79c-0.19,0.34-0.28,0.68-0.28,1.03c0,0.34,0.09,0.67,0.28,0.99
			c0.19,0.31,0.46,0.56,0.81,0.74c0.32,0.17,0.66,0.26,1,0.27c0.04,0,0.07,0,0.11,0c0.39,0,0.76-0.09,1.13-0.28
			C57.74,15.11,58.01,14.86,58.19,14.55z M56.26,14.7l-0.06,0c-0.35-0.01-0.65-0.13-0.9-0.36c-0.26-0.24-0.39-0.49-0.39-0.76
			c0-0.33,0.13-0.62,0.38-0.87c0.25-0.25,0.57-0.38,0.96-0.38c0.02,0,0.04,0,0.06,0c0.41,0.02,0.74,0.17,0.99,0.47
			c0.19,0.23,0.29,0.49,0.29,0.77c0,0.27-0.13,0.53-0.38,0.76C56.96,14.58,56.64,14.7,56.26,14.7z"/>
	</g>
	<g>
		<path class="st1" d="M61.11,17.89c-0.03,0-0.05,0-0.08,0l-1.16,0c-0.19,0-0.32,0.04-0.41,0.12c-0.09,0.08-0.13,0.18-0.13,0.31
			c0,0.13,0.04,0.24,0.13,0.32c0.09,0.08,0.22,0.12,0.41,0.12h0.31l0,2.55c0,0.17-0.04,0.31-0.1,0.42
			c-0.11,0.18-0.25,0.33-0.43,0.42c-0.17,0.09-0.36,0.14-0.56,0.14c-0.3,0-0.56-0.1-0.77-0.3C58.11,21.8,58,21.57,58,21.31v-0.37
			l0-2.18h0.12h0.19c0.19,0,0.32-0.04,0.41-0.12c0.09-0.08,0.13-0.19,0.13-0.32c0-0.13-0.04-0.24-0.13-0.32
			c-0.09-0.08-0.22-0.12-0.41-0.12h-0.15h-1.02c-0.21,0-0.36,0.04-0.44,0.12c-0.09,0.08-0.13,0.18-0.13,0.32
			c0,0.13,0.05,0.24,0.14,0.32c0.09,0.08,0.24,0.12,0.44,0.12l0.01,2.48c0,0.33,0.05,0.6,0.15,0.8c0.11,0.2,0.25,0.39,0.43,0.57
			c0.05,0.05,0.11,0.11,0.17,0.16c0.14,0.11,0.29,0.2,0.45,0.27c0.23,0.1,0.48,0.14,0.74,0.14c0.53,0,0.99-0.18,1.36-0.56
			c0.2-0.19,0.34-0.4,0.43-0.64c0.09-0.23,0.14-0.48,0.14-0.74l0-1.81l0-0.66l0.04,0c0.19,0,0.34-0.04,0.42-0.12
			c0.09-0.08,0.13-0.19,0.13-0.31c0-0.13-0.04-0.24-0.13-0.32C61.41,17.94,61.29,17.9,61.11,17.89z"/>
	</g>
	<g>
		<path class="st1" d="M84.99,22.19h-0.14l-0.01-4.63h-0.19h-0.8c-0.21,0-0.36,0.04-0.44,0.12c-0.09,0.08-0.13,0.19-0.13,0.32
			c0,0.13,0.04,0.24,0.13,0.32c0.09,0.08,0.24,0.12,0.45,0.12l0.14,0v1.07c-0.21-0.14-0.42-0.24-0.63-0.32
			c-0.17-0.06-0.35-0.09-0.52-0.1c-0.04,0-0.08,0-0.13,0c-0.59,0-1.09,0.21-1.5,0.62c-0.26,0.26-0.43,0.56-0.53,0.88
			c-0.06,0.2-0.08,0.4-0.08,0.62c0,0.13,0.01,0.26,0.03,0.38c0.07,0.4,0.25,0.74,0.56,1.04c0.37,0.36,0.84,0.54,1.43,0.56
			c0.03,0.01,0.07,0.01,0.11,0c0.23,0.01,0.45-0.02,0.66-0.09c0.21-0.06,0.41-0.14,0.61-0.27v0.22l0.36,0H85
			c0.21,0,0.36-0.04,0.46-0.12c0.08-0.08,0.13-0.19,0.13-0.32c0-0.13-0.05-0.24-0.13-0.32C85.36,22.23,85.21,22.19,84.99,22.19z
			 M83.67,22.02c-0.23,0.2-0.54,0.31-0.94,0.31h-0.06c-0.38-0.01-0.67-0.11-0.88-0.31c-0.22-0.2-0.33-0.47-0.33-0.79
			c0-0.35,0.12-0.65,0.37-0.9c0.25-0.25,0.55-0.37,0.9-0.37c0.02,0,0.05,0,0.07,0c0.33,0.02,0.61,0.14,0.84,0.37
			C83.87,20.59,84,20.9,84,21.25C84,21.57,83.89,21.82,83.67,22.02z"/>
	</g>
	<g>
		<path class="st1" d="M120.65,22.24h-0.14l-0.01-1.79c0-0.4-0.14-0.72-0.44-0.96c-0.29-0.23-0.71-0.35-1.23-0.35
			c-0.17,0-0.37,0.02-0.59,0.06c-0.08,0.01-0.15,0.02-0.23,0.04c-0.14,0.03-0.28,0.06-0.41,0.1c-0.16,0.05-0.27,0.09-0.31,0.12
			c-0.05,0.03-0.09,0.08-0.12,0.13c-0.03,0.06-0.04,0.12-0.04,0.19c0,0.13,0.04,0.24,0.12,0.32c0.08,0.09,0.18,0.13,0.29,0.13
			c0.08,0,0.2-0.02,0.35-0.05l0.08-0.02c0.36-0.09,0.66-0.13,0.9-0.13c0.31,0,0.52,0.04,0.63,0.12c0.11,0.08,0.17,0.19,0.17,0.32
			v0.21c-0.34-0.06-0.64-0.08-0.9-0.08c-0.31,0-0.58,0.03-0.82,0.1c-0.27,0.08-0.5,0.2-0.69,0.36c-0.37,0.31-0.55,0.65-0.55,1.01
			c0,0.3,0.15,0.57,0.43,0.82c0.19,0.16,0.41,0.27,0.67,0.33c0.13,0.03,0.28,0.04,0.44,0.04c0.21,0,0.45-0.03,0.7-0.09
			c0.26-0.06,0.5-0.14,0.71-0.26v0.2h0.99c0.22,0,0.37-0.04,0.45-0.12c0.09-0.08,0.13-0.19,0.13-0.32c0-0.13-0.05-0.24-0.13-0.32
			C121.02,22.28,120.87,22.24,120.65,22.24z M119.66,21.93c-0.2,0.14-0.44,0.25-0.69,0.33c-0.26,0.08-0.49,0.12-0.7,0.12
			c-0.16,0-0.3-0.02-0.42-0.06c-0.05-0.02-0.11-0.04-0.15-0.08c-0.08-0.05-0.11-0.11-0.11-0.2c0-0.12,0.08-0.22,0.23-0.33
			c0.02-0.02,0.04-0.03,0.06-0.04c0.24-0.15,0.51-0.22,0.83-0.22c0.29,0,0.61,0.03,0.95,0.1V21.93z"/>
	</g>
	<g>
		<path class="st1" d="M85.97,11.8c-0.32-0.18-0.66-0.27-1-0.29c-0.04,0-0.08,0-0.12,0c-0.38,0-0.75,0.09-1.1,0.29
			c-0.21,0.12-0.39,0.26-0.55,0.43c-0.1,0.11-0.18,0.23-0.26,0.36c-0.19,0.33-0.28,0.68-0.28,1.02c0,0.34,0.1,0.67,0.28,0.99
			c0.04,0.06,0.08,0.13,0.13,0.19c0.17,0.23,0.4,0.42,0.68,0.56c0.32,0.17,0.66,0.26,1.01,0.27c0.03,0,0.07,0.01,0.1,0.01
			c0.39,0,0.76-0.09,1.12-0.28c0.36-0.18,0.62-0.43,0.8-0.74c0.18-0.31,0.27-0.64,0.27-0.97c0-0.35-0.09-0.69-0.27-1.03
			C86.6,12.26,86.32,11.99,85.97,11.8z M85.82,14.38c-0.26,0.24-0.58,0.35-0.96,0.35c-0.02,0-0.03,0-0.05,0
			c-0.36-0.01-0.65-0.13-0.9-0.35c-0.26-0.23-0.39-0.49-0.39-0.76c0-0.33,0.13-0.62,0.38-0.87c0.26-0.25,0.58-0.38,0.96-0.38
			c0.03,0.01,0.05,0.01,0.07,0.01c0.4,0.01,0.73,0.17,0.99,0.47c0.2,0.24,0.3,0.49,0.3,0.77C86.2,13.89,86.07,14.15,85.82,14.38z"/>
	</g>
	<g>
		<path class="st1" d="M138.58,14.66h-1.01l-0.01-4.63l-1.54,0c-0.21,0-0.36,0.04-0.44,0.12c-0.09,0.08-0.13,0.19-0.13,0.31
			c0,0.13,0.05,0.24,0.13,0.32c0.09,0.08,0.24,0.12,0.44,0.12h0.69l0.01,3.76h-1.02c-0.21,0-0.36,0.04-0.45,0.12
			c-0.09,0.08-0.13,0.18-0.13,0.31c0,0.13,0.04,0.23,0.13,0.31c0.09,0.08,0.23,0.12,0.45,0.12l2.89,0c0.22,0,0.37-0.04,0.46-0.12
			c0.09-0.08,0.13-0.18,0.13-0.32c0-0.13-0.04-0.23-0.13-0.32C138.95,14.71,138.8,14.66,138.58,14.66z"/>
	</g>
	<g>
		<path class="st1" d="M80.5,22.31c-0.09-0.08-0.24-0.12-0.46-0.12H79.9V20.4c-0.01-0.41-0.15-0.72-0.44-0.96
			c-0.29-0.23-0.71-0.35-1.24-0.35l-0.06,0c-0.16,0-0.34,0.02-0.53,0.05c-0.22,0.04-0.43,0.08-0.65,0.14
			c-0.15,0.04-0.26,0.08-0.31,0.11c-0.05,0.03-0.09,0.08-0.12,0.13c-0.03,0.05-0.04,0.11-0.04,0.19c0,0.13,0.04,0.24,0.12,0.32
			c0.08,0.09,0.18,0.13,0.29,0.13c0.09,0,0.2-0.02,0.35-0.05c0.33-0.08,0.61-0.13,0.84-0.14c0.05-0.01,0.09-0.01,0.14-0.01
			c0.31,0,0.52,0.04,0.63,0.12c0.11,0.08,0.16,0.19,0.16,0.31v0.21c-0.34-0.06-0.64-0.09-0.89-0.09h-0.06
			c-0.62,0.01-1.1,0.17-1.45,0.46C76.28,21.3,76.1,21.64,76.1,22c0,0.3,0.14,0.58,0.43,0.82c0.29,0.25,0.66,0.37,1.12,0.37
			c0.1,0,0.2,0,0.31-0.01c0.12-0.02,0.26-0.04,0.39-0.07c0.26-0.06,0.49-0.14,0.71-0.26v0.21h1c0.21,0,0.36-0.04,0.46-0.12
			c0.02-0.02,0.04-0.04,0.06-0.07c0.04-0.07,0.07-0.15,0.07-0.24c0-0.07-0.02-0.14-0.04-0.2C80.57,22.38,80.54,22.34,80.5,22.31z
			 M79.05,21.87c-0.21,0.14-0.44,0.25-0.69,0.34c-0.13,0.04-0.25,0.07-0.36,0.09c-0.12,0.02-0.24,0.03-0.34,0.03
			c-0.24,0-0.43-0.04-0.57-0.14c-0.07-0.05-0.11-0.12-0.11-0.2c0-0.11,0.08-0.22,0.23-0.33c0.24-0.16,0.51-0.25,0.83-0.26h0.06
			c0.29,0,0.61,0.03,0.95,0.1V21.87z"/>
	</g>
	<g>
		<path class="st1" d="M143.14,14.67l-1.02,0l0-2.98l-1.54,0c-0.21,0-0.36,0.04-0.44,0.12c-0.09,0.08-0.13,0.19-0.13,0.32
			c0,0.13,0.04,0.23,0.13,0.31c0.09,0.08,0.23,0.12,0.44,0.12l0.69,0v2.1h-1.02c-0.21,0-0.36,0.04-0.44,0.12
			c-0.09,0.08-0.13,0.19-0.13,0.32c0,0.13,0.04,0.24,0.13,0.32c0.09,0.08,0.24,0.12,0.44,0.12l2.89,0.01c0.22,0,0.37-0.04,0.45-0.12
			c0.09-0.08,0.13-0.19,0.13-0.32c0-0.13-0.04-0.24-0.13-0.32C143.51,14.71,143.35,14.67,143.14,14.67z"/>
	</g>
</g>
<g>
	<g>
		<path class="st0" d="M85.59,35.39c-0.03,0-0.21-0.04-0.31-0.09c-0.06-0.03-0.1-0.06-0.06-0.1l0.06-0.05
			c0.15-0.12,0.4-0.33,0.01-0.19l-0.06,0.02c-0.54,0.2-1.97,0.44-2.12,0.19c0.49-0.42,1.15-1.78,1.14-2.16
			c-0.01-0.37-0.2-0.28-0.33-0.5c-0.13-0.22-0.28-0.46-0.47-0.4c-0.19,0.06-0.76,0.81-0.95,1.13c-0.19,0.32-0.48,0.54-0.58,1.43
			c-0.86,0.87-1.42,0.92-1.64,0.98c-0.22,0.06-0.44-0.07-0.23-0.7c0.44-1.32,1.3-1.73,1.49-1.92c0.2-0.19,0.06-0.28,0.01-0.36
			c-0.06-0.06-0.23-0.13-0.3-0.3c-0.06-0.17-0.54-0.23-0.59-0.22c-0.21,0.09-0.63,0.51-1.02,1.2c-0.2,0.35-0.38,0.77-0.53,1.24
			l-0.03,0.07c-0.12,0.43-0.13,0.88-0.04,1.25c0.07,0.33,0.21,0.6,0.42,0.78c0.14,0.13,0.31,0.21,0.51,0.22
			c0.93,0.06,1.98-0.66,2.22-0.87c0.27,0.42,1.74,0.34,2.4,0.16c0.23-0.07,0.45-0.16,0.64-0.26c0.36-0.19,0.61-0.41,0.67-0.52
			C86,35.27,85.63,35.4,85.59,35.39z"/>
	</g>
	<g>
		<path class="st0" d="M168.23,32.33c-0.08,0.15-0.18,0.73-0.12,0.99c0.06,0.25,0.32,0.45,0.66,0.41c0.33-0.04,0.48-0.18,0.46-0.45
			c-0.02-0.27-0.16-0.9-0.3-1C168.78,32.18,168.43,31.93,168.23,32.33z"/>
	</g>
	<g>
		<path class="st0" d="M138.86,32.65c-0.12,0.01-0.75,0.06-0.99,0.08c-0.23,0.03-1.09-0.03-1.3-0.37c0.57-0.63,1.16-1.83,1.24-2.4
			c0.08-0.57-0.1-0.46-0.12-0.54c-0.01-0.08-0.07-0.81-0.43-0.54c-0.36,0.28-0.99,1.13-1.23,1.69c-0.25,0.55-0.28,1.06-0.28,1.06
			s-0.77,0.87-2.29,1.03c0.44-0.27,0.97-0.77,1-1.1c0.03-0.34,0.17-1.2,0.05-1.5c-0.12-0.29-0.35-1.12-0.94-0.9
			c-0.25,0.09-0.49,0.22-0.74,0.38c-0.94,0.62-1.82,1.65-2.59,2.37c-1.21,1.13-2.04,1.2-2.26,1.18c-0.22-0.02-0.38-0.11-0.33-0.37
			c0.06-0.26,0.03-0.49,0.3-0.64c0.28-0.15,1.04-0.37,1.3-0.53c0.27-0.16,0.29-0.38,0.21-0.62c-0.08-0.25-0.17-0.53-0.41-0.52
			c-0.23,0.02-1.29,0.7-1.52,0.74c-0.24,0.04-0.5,0.06-0.44-0.13c0.05-0.19,0.13-0.58,0.96-1.02c0.43-0.23,0.95-0.27,1.08-0.27
			c0.14,0,0.35-0.1,0.3-0.23c-0.05-0.14-0.03-0.8-0.78-0.75c-0.31,0.02-1.19,0.31-1.78,0.74c-0.59,0.43-0.96,1.08-0.75,1.79
			c0.21,0.71,0.42,0.79,0.63,0.83c-0.04,0.18-0.22,1.24,0.42,1.81c0.68,0.59,1.8,0.29,2.21,0.04c0.4-0.26,1.7-1.47,1.7-1.47
			s-0.03,0.93,1.35,1.18c0.06,0.01,0.12,0.03,0.18,0.04c0.8,0.16,1.64,0.2,3.17-0.81c0.05,0.67,1.21,0.99,1.97,0.84
			c0.77-0.15,1.01-0.06,1.08-0.2c0.07-0.14,0.11-0.24,0.12-0.39C138.97,33.02,138.97,32.63,138.86,32.65z M132.71,31.88
			c-0.22,0.24-0.42,0.42-0.5,0.42c-0.21,0.01-0.44-0.05-0.43-0.4c0-0.03,0.52-0.53,0.98-0.93c0.21-0.18,0.41-0.34,0.54-0.42
			c0.43-0.25,0.45-0.26,0.37,0.05C133.64,30.8,133.13,31.44,132.71,31.88z"/>
	</g>
	<g>
		<path class="st0" d="M172.11,22.68c-0.09-0.29-0.37-0.35-0.54-0.18c-0.17,0.17-0.03,0.39-0.33,0.85c-0.3,0.47-2.53,5.18-2.55,5.82
			c-0.01,0.2,0.08,0.56,0.12,0.68c0.04,0.12,0.19,0.09,0.23,0.03c0.11-0.15,0.44-0.81,0.54-1.08c0.1-0.27,1.61-3.22,1.72-3.44
			c0.12-0.22,0.66-1.1,0.82-1.34C172.29,23.78,172.2,22.97,172.11,22.68z"/>
	</g>
	<g>
		<path class="st0" d="M67.44,37.32c-0.13-0.01-0.31-0.17-0.27-0.23c0.03-0.07,0.12-0.36-0.39-0.13c-0.4,0.18-1.94,0.64-3.01,0.14
			c-0.29-0.14-0.54-0.34-0.72-0.63c0.26-0.15,0.53-0.35,0.79-0.58c1.06-0.93,2.05-2.4,2.27-3.51c0.26-1.38-0.11-2.18-0.41-2.42
			c-0.29-0.24-0.89-0.65-1.13-0.68c-0.23-0.03-0.01,0.19-0.3,0.26c-0.03,0.01-0.06,0.02-0.09,0.04c-0.32,0.17-0.92,0.81-1.9,2.47
			c-0.97,1.65-0.55,3.85-0.55,3.85s-1.88,1.09-3.18,1.39c-0.23,0.05-0.7,0.18-0.61-0.27c0.09-0.46,0.73-1.35,0.87-1.49
			c0.15-0.14,0.74-0.33,0.93-0.4c0.18-0.07,0.5-0.49,0.58-0.69C60.4,34.24,60.08,34,59.94,34c-0.14,0-0.17-0.24-0.37-0.34
			c-0.2-0.1-0.39-0.14-0.42-0.09c-0.03,0.05-0.49,0.35-0.9,0.74c-0.41,0.39-1.68,0.68-2.12,0.68c-0.44,0-1.06,0.06-1.07-0.23
			c-0.02-0.29,0.36-1.03,1.52-2.16c1.16-1.13,2.79-1.58,3.29-1.62c0.5-0.04,0.48,0.07,0.45,0.2c-0.03,0.12-0.43,0.58-0.5,0.62
			c-0.07,0.03-0.12,0.01-0.18,0.07c-0.07,0.06,0.15,0.21,0.26,0.27c0.1,0.06,0.07,0.31,0.04,0.43c-0.03,0.12,0.14,0.31,0.21,0.39
			c0.15,0.14,0.26,0.11,0.58-0.16c0.32-0.27,0.79-1.11,0.83-1.46c0.04-0.35-0.14-0.5-0.31-0.59c-0.18-0.09-0.67-0.67-1.04-0.86
			c-0.38-0.2-0.66,0.01-1.3,0.13c-0.64,0.13-3.04,1.31-4.39,3.13c-0.6,0.8-0.37,1.54-0.23,2.08c0.14,0.53,0.29,0.62,0.76,0.86
			c0.47,0.24,2.09,0.02,2.09,0.02s-0.21,0.67-0.25,0.74c-0.05,0.06-0.02,0.23,0.07,0.31c0.1,0.08-0.01,0.41,0.19,0.77
			c0.21,0.36,0.19,0.87,1.63,0.6c1.22-0.23,3.45-1.58,3.45-1.58s0.52,0.78,1.48,1.26c0.18,0.09,0.37,0.17,0.58,0.23
			c1.32,0.4,3.23-0.71,3.34-0.85C67.74,37.46,67.57,37.33,67.44,37.32z M62.52,35.46c-0.09-0.9-0.04-1.6,0.41-2.59
			c0.34-0.75,0.78-1.31,1.14-1.71c0.3-0.32,0.56-0.52,0.7-0.61c0.31-0.19,0.5,0.07,0.64,0.27c0.14,0.2,0.04,0.46-0.17,1.18
			c-0.2,0.72-0.66,1.45-1.13,2.07c-0.06,0.08-0.13,0.17-0.22,0.25C63.38,34.88,62.53,35.45,62.52,35.46z"/>
	</g>
	<g>
		<path class="st0" d="M165.39,26.77c-0.24,0.03-2.41,0.23-2.41,0.23l-2.88-0.1c0,0,0.49-0.96,1.47-2.17
			c0.09-0.11-0.01-0.26-0.06-0.47c-0.05-0.22-0.05-0.46-0.11-0.54c-0.06-0.08-0.2-0.44-0.37-0.31c-0.17,0.13-2.13,3.52-2.13,3.52
			s-1.66-0.07-1.93-0.12c-0.27-0.04-0.81-0.29-0.83-0.04c-0.03,0.26-0.13,1.13,0.58,1.25c0.71,0.12,1.62,0.02,1.62,0.02
			s-0.42,0.96-0.84,1.43c-0.41,0.46-1.01,1.4-1.7,1.49c-0.16,0.02-0.34,0-0.34-0.21c-0.01-0.21,0.15-1.81,0-2.16
			c-0.15-0.34-0.41-1.08-0.92-1.1c-0.85-0.04-1.41,0.7-1.47,0.76c-0.05,0.06-0.33-0.78-0.95-0.77c-0.21,0-0.35,0.01-0.56,0.19
			c-0.05,0.05,0.11,0.09,0.19,0.29c0.08,0.19-0.13,0.47,0.05,0.59c0.19,0.12,0.5-0.09,0.59,0.18c0.08,0.27,0.13,0.35-0.09,0.72
			c-0.22,0.38-0.84,1.64-0.8,2c0.04,0.36,0,0.66,0.28,0.62c0.27-0.04,0.49,0.23,0.65-0.29c0.17-0.52,1.07-2.25,1.1-2.34
			c0.02-0.11,0.39-0.72,0.67-0.8c0.29-0.08,0.57,0.23,0.47,0.77c-0.1,0.54-0.1,2.2,0.43,2.53c0.69,0.43,1.31,0.15,2.23-0.82
			c-0.06,0.55-0.07,1.22,0.12,1.29c0.19,0.07,0.57,0.05,0.59-0.23c0.08-2.1,1.54-4.23,1.54-4.23l2.12-0.01c0,0-0.09,0.44-0.13,0.68
			c-0.04,0.24,0.48,0.66,0.61,0.67c0.13,0.02-0.07,0.15-0.38,0.51c-0.31,0.35-0.93,1.85-0.2,2.14c0.73,0.29,2.33,0.12,2.85-0.02
			c0.52-0.13,0.63-0.26,0.55-0.31c-0.09-0.04-0.22,0.03-0.15-0.11c0.07-0.14,0.11-0.21,0.02-0.22c-0.09-0.01-0.21-0.03-0.17-0.07
			c0.05-0.04,0.4-0.18,0.27-0.27c-0.12-0.09-0.2-0.08-0.29-0.07c-0.08,0.01-1.87,0.16-2.01,0.12c-0.14-0.04-0.36-0.16-0.05-0.41
			c0.31-0.24,1.26-0.78,1.31-0.98c0.05-0.21-0.07-0.44-0.15-0.56c-0.08-0.12-0.43-0.54-0.46-0.62c-0.03-0.07,0.25-0.26,0.38-0.3
			c0.14-0.04,1.42-0.2,1.59-0.2c0.17,0,0.39,0.03,0.37-0.14c-0.01-0.18-0.15-0.25-0.06-0.35c0.08-0.1,0.36-0.17,0.3-0.34
			C165.85,26.9,165.63,26.74,165.39,26.77z"/>
	</g>
	<g>
		<path class="st0" d="M79.7,32.54c0.13-0.15,0.23-0.3,0.3-0.43c0.44-0.82,0.39-1.91,0.23-2.37c-0.06-0.17-0.19-0.33-0.35-0.47
			c-0.14-0.12-0.3-0.23-0.45-0.34c-0.14-0.09-0.26-0.19-0.34-0.27c-0.3-0.29-1.45-0.27-2.39,0.58c-0.94,0.85-2.05,2.51-2.35,3.37
			c-0.29,0.85-1.38,3.69-1.49,3.93c-0.11,0.24,0.08,0.28,0.12,0.33c0.04,0.06,0.06,0.17,0.05,0.27c-0.01,0.1-0.04,0.35,0.14,0.62
			c0.18,0.27,0.22,0.07,0.37,0.05c0.16-0.02,0.43-0.27,0.42-0.35c0-0.08-0.08-0.37,0.24-0.9c0.38-0.63,1.04-1.97,1.04-1.97
			c0.33,0.19,0.22,0.54,1.32,0.24c0.75-0.2,1.87-1.02,2.65-1.78C79.39,32.88,79.56,32.7,79.7,32.54z M78.29,32.38
			c-0.56,0.61-1.21,0.94-1.3,1c-0.34,0.19-0.98,0.23-1.04,0.24c0.33-0.46,0.84-1.28,0.82-1.33c-0.01-0.06-0.54-0.71-0.6-0.73
			c0,0,0.6-1.1,1.23-1.54c0.63-0.44,1.33-0.56,1.59-0.37c0.14,0.1,0.3,0.21,0.39,0.38c0.06,0.14,0.09,0.31,0.02,0.57
			c-0.02,0.08-0.04,0.16-0.07,0.24C79.14,31.35,78.78,31.85,78.29,32.38z"/>
	</g>
	<g>
		<path class="st0" d="M146.4,32.44c-0.03-0.08-0.1-0.1-0.18-0.09c-0.05,0.01-0.13,0.04-0.2,0.04c-0.04,0-0.08-0.01-0.1-0.04
			c-0.03-0.04,0.03-0.06,0.1-0.09c0.1-0.03,0.25-0.06,0.3-0.09c0.09-0.06,0.13-0.28,0.07-0.31c-0.02-0.01-0.16,0.04-0.35,0.08
			c-0.33,0.06-0.84,0.11-1.19-0.18c-0.54-0.45-0.41-1.3-0.35-1.73c0.06-0.43,0.7-2.1,1.4-2.9c0.7-0.8,0.35-1.04,0.27-1.21
			c-0.08-0.17-0.3-0.7-0.5-0.57c-0.36,0.22-1.69,2.21-1.97,3.69c0,0-0.44-0.77-1.03-0.7c-0.14,0.02-0.32,0.08-0.51,0.19
			c-0.61,0.34-1.39,1.05-1.75,1.71c-0.12,0.22-0.22,0.42-0.3,0.63c-0.22,0.56-0.25,1.08-0.08,1.61c0.04,0.14,0.1,0.27,0.17,0.41
			c0.24,0.49,1.08,0.46,1.5,0.28c0.08-0.03,0.15-0.07,0.23-0.11c0.83-0.48,1.78-1.62,1.78-1.62s0.33,1.28,1.34,1.42
			c0.48,0.07,0.77,0.07,0.94,0.04c0.22-0.04,0.28-0.11,0.33-0.13c0.09-0.05,0.24-0.14,0.1-0.15
			C146.29,32.61,146.43,32.52,146.4,32.44z M143.18,30.47c-0.1,0.09-0.65,0.75-1.17,1.17c-0.19,0.15-0.37,0.28-0.53,0.33
			c-0.6,0.23-0.85,0.29-0.57-0.42c0.18-0.46,0.63-1.22,1.18-1.67c0.29-0.24,0.62-0.4,0.94-0.37c0,0-0.03,0.1,0.02,0.22
			c0.06,0.12,0.16,0.19,0.18,0.27C143.26,30.09,143.31,30.35,143.18,30.47z"/>
	</g>
	<g>
		<path class="st0" d="M125.41,33.69c0.06-0.25-0.21-0.11-0.78-0.07c-1.17,0.09-2.11-0.59-2.11-0.59c0.59-0.04,2.25-0.96,1.92-2.53
			c-0.24-1.18-1.31-1.48-1.53-1.51c-0.22-0.03-0.26,0.02-0.34,0.13c-0.01,0.02-0.05,0.03-0.12,0.05c-0.21,0.06-0.66,0.19-1.46,1.03
			c-0.76,0.79-1.36,1.69-1.79,2.43c-0.39,0.68-0.63,1.21-0.69,1.37c-0.13,0.34,0.13,0.35,0.24,0.5c0.11,0.16,0.15,0.32,0.2,0.45
			c0.03,0.08,0.08,0.09,0.13,0.08c0.03-0.01,0.06-0.03,0.09-0.05c0.08-0.05,0.14,0.01,0.28-0.08c0.13-0.09,0.56-1.4,1.15-2.23
			c0.04,0.05,0.75,0.67,1.6,1.21c0.58,0.36,1.22,0.69,1.76,0.78c0.82,0.13,1.18-0.07,1.4-0.22c0.22-0.15,0.21-0.18,0.15-0.33
			C125.45,33.98,125.34,33.94,125.41,33.69z M121.33,32.16c-0.23-0.04-0.41-0.13-0.19-0.32c0.16-0.13,0.63-0.75,1.23-1.24
			c0.22-0.18,0.44-0.34,0.69-0.46c0.61-0.31,0.59,0.22,0.58,0.41c0,0.19-0.29,0.82-1.07,1.3c-0.09,0.06-0.18,0.11-0.26,0.15
			C121.7,32.28,121.33,32.16,121.33,32.16z"/>
	</g>
	<g>
		<path class="st0" d="M140.31,27.16c0.2-0.43,0.2-0.9,0.18-1.3c0-0.2-0.03-0.37-0.09-0.5c-0.14-0.35-0.44-0.5-0.76-0.64
			c-0.45-0.2-1.43,0.28-1.56,0.32c-0.13,0.03,0.22,0.1,0.21,0.13c-0.01,0.04-0.91,0.42-1.1,0.57c-0.19,0.17-0.03,0.22,0,0.21
			c0.04-0.01,0.49-0.23,0.4-0.16c-0.09,0.07-0.35,0.33-0.29,0.35c0.06,0.01,0.05,0.1,0.03,0.13c-0.03,0.04-0.18,0.28,0.02,0.22
			c0.19-0.06,1.03-0.55,1.62-0.6c0.59-0.05,0.8,0.25,0.54,0.61c-0.36,0.52-1.5,0.79-2.06,0.81c-0.56,0.01-0.62-0.43-0.75-0.74
			c-0.12-0.3-0.17-0.28-0.4-0.05c-0.23,0.23-0.26,1.46,0.3,1.84c0.27,0.19,1.35,0.4,2.64-0.21
			C139.83,27.86,140.14,27.52,140.31,27.16z"/>
	</g>
	<g>
		<path class="st0" d="M107.73,34.35c-0.08-0.06-0.31-0.42-0.45-0.47c-0.14-0.04-0.12-0.13-0.35,0.03
			c-0.04,0.03-0.34,0.34-0.59,0.76c-0.24,0.42-0.36,1.07-0.36,1.19c0,0.13-0.01,0.92,0.21,1.2c0.22,0.28,0.58,0.44,0.59-0.09
			c0.01-0.53,0.7-1.92,1.09-2.25C108.27,34.4,107.82,34.41,107.73,34.35z"/>
	</g>
	<g>
		<path class="st0" d="M119.34,30.08c0.11-0.19,0.23-0.39,0.34-0.58c0.58-1.01,0.41-1.81,0.33-2.41c-0.03-0.3-0.22-0.63-0.46-0.91
			c-0.25-0.28-0.55-0.5-0.82-0.6c-0.55-0.2-0.82-0.04-1.57,0.7c-0.75,0.75-2.06,2.99-2.06,2.99s-0.02,0.14-0.02,0.19
			c0,0.04,0.09,0.02,0.13-0.07c0.05-0.09,0.14-0.02,0.24,0.01c0.01,0,0.03,0.02,0.05,0.04c-0.08,0.03-0.1,0.17-0.15,0.25
			c-0.08,0.11-0.2-0.12-0.29-0.04c-0.09,0.08-2.35,4.25-2.39,4.51c-0.04,0.26,0.19,0.31,0.22,0.43c0.02,0.12,0,0.47,0.11,0.52
			c0.32,0.14,0.53,0.16,0.73-0.21c0.2-0.36,1.89-3.75,1.95-3.7c0.06,0.04,0.01,0.63,1.38,0.61
			C118.17,31.8,118.83,30.94,119.34,30.08z M117.27,30.59c-0.58,0.28-1.31,0.11-1.31,0.11s0.34-0.6,0.3-0.67
			c-0.02-0.04-0.14-0.17-0.28-0.29c0.12-0.2,0.29-0.63,0.73-1.3c0.59-0.91,1.49-1.93,1.97-1.84c0.31,0.05,0.62,0.36,0.4,1.45
			C118.85,29.21,118.01,30.23,117.27,30.59z"/>
	</g>
	<g>
		<path class="st0" d="M103.88,30.66c-0.29-0.07-0.13,0.05-0.31,0.06c-0.18,0.01-0.37,0.2-0.5,0.35c-0.14,0.15,0.33-0.12,0.46-0.11
			c0.13,0.01-0.2,0.14-0.41,0.23c-0.22,0.09-0.48,0.27-0.6,0.37c-0.12,0.1,0.15,0.16,0.28,0.15c0.13,0,0.27-0.09,0.44-0.06
			c0.17,0.03,0,0.07-0.29,0.28c-0.29,0.21,0.16,0.1,0.32,0c0.17-0.09,0.39-0.1,0.73-0.04c0.33,0.05,0.6,0.51,0.44,1.13
			c-0.25,0.94-1.37,1.55-2.24,1.63c-0.63,0.06-1.24-0.27-0.77-0.66c0.47-0.39,1.15-1.63,1.2-1.88c0.06-0.25-0.28-0.49-0.28-0.49
			s0.02-0.5-0.42-0.42c-0.55,0.1-1.44,1.49-1.5,1.97c-0.37,0.59-1.96,1.11-2.74,1.09c-0.19-0.01-0.33-0.05-0.39-0.13
			c0.17-0.22,0.31-0.39,0.43-0.55c0.57-0.72,0.75-0.92,1.13-1.64c0.47-0.87,1.12-2.17,1.05-3.28c-0.02-0.38-0.26-0.04-0.26-0.28
			c-0.01-0.24-0.03-0.73-0.42-0.63c-0.33,0.08-0.78,0.46-1.25,0.97c-0.68,0.77-1.39,1.82-1.71,2.56c-0.53,1.23-0.35,2.06-0.25,2.36
			c-0.54,0.53-1.07,0.84-1.55,0.94c0.06-0.14,0.42-1.6,0.08-2.23c-0.34-0.63-0.77-1.12-1.15-1.08c-0.26,0.02-0.56,0.26-0.68,0.39
			l-0.02,0.02l0.02-0.02c0.31-0.38,1.59-1.99,1.83-2.18c0.28-0.21-0.01-0.47-0.1-0.55c-0.09-0.08-0.19-0.18-0.09-0.3
			c0.1-0.12-0.1-0.55-0.38-0.32c-0.28,0.23-0.7,0.75-1.16,1.39c-1.2,1.65-2.69,4.1-2.86,4.46c-0.12,0.26-0.13,0.5-0.1,0.71
			c-0.31,0.08-1.05,0.33-1.53,0.39c-0.33,0.04-1.03-0.02-1.1-0.26c-0.02-0.08,0.37-0.4,0.43-0.42c0.07-0.01,0.33-0.18,0.38-0.19
			c0.04,0,0.46-0.05,0.8-0.23c0.34-0.17,0.22-0.37-0.03-0.61c-0.23-0.23-0.48-0.62-0.82-0.54c-0.15,0.03-1,0.46-1.73,0.42
			c-0.53-0.02-0.33-0.17,0.16-0.53c0.49-0.36,1.77-0.98,2.01-1.03c0.24-0.05,0.53,0,0.65,0c0.15,0,0.21-0.08,0.17-0.17
			c-0.04-0.09-0.35-0.36-0.44-0.47c-0.09-0.11,0.14-0.06,0.11-0.13c-0.04-0.07-0.18-0.35-0.73-0.41c-0.43-0.04-1.94,0.9-2.76,1.46
			c-0.22,0.16-0.39,0.28-0.47,0.35c-0.4,0.34-0.11,0.41-0.15,0.66c-0.04,0.25-0.21,0.97,0.45,1.22l0.05,0.02
			c0.46,0.17,0.81,0.19,1.13,0.17c-0.22,0.3-0.02,1.12,0.35,1.43c0.37,0.31,0.87,0.38,1.55,0.35c0.74-0.04,1.55-0.54,1.74-0.71
			c0.04-0.02,0.06-0.06,0.08-0.12c0.1,0.04,0.2,0.05,0.23,0.05c0.04,0,0.36-0.1,0.47-0.19c-0.11,0.32-0.1,0.52,0.54,0.86
			c0.31,0.17,0.67,0.18,1.07,0.11c0.41-0.08,0.85-0.26,1.26-0.48c0.38,0.31,2.42-0.76,2.73-1.07c0.17,0.31,0.62,0.46,1.19,0.48
			c0.89,0.03,2.05-0.27,2.79-0.77c-0.03,1.46,1.6,1.6,3.12,1.06c1.52-0.55,1.89-1.67,1.9-2.53c0.01-0.86-0.24-0.88-0.5-1.65
			C104.71,30.63,104.18,30.73,103.88,30.66z M93.77,33c-0.05,0.43-0.75,1.89-1.06,1.95c-0.05,0.01-0.1,0.02-0.16,0.03
			c-0.36,0.05-0.92,0.08-1.11-0.12c0,0,0.6-0.71,1.18-1.36c0.26-0.29,0.52-0.56,0.72-0.77C93.66,32.43,93.82,32.57,93.77,33z
			 M97.9,30.48c0.23-0.38,0.44-0.68,0.57-0.83c0.43-0.46,0.58-0.44,0.32,0.26c-0.25,0.69-0.62,1.31-0.96,1.8
			c-0.53,0.78-1.03,1.27-1.03,1.27C96.84,32.48,97.41,31.31,97.9,30.48z"/>
	</g>
	<g>
		<path class="st0" d="M150.02,31.81c-0.09-0.03-0.58,0.02-0.8,0.01c-0.22-0.01-0.66-0.06-0.59-0.32c0.07-0.26,1.01-0.47,1.17-0.54
			c0.06-0.02,0.23-0.11,0.23-0.24c0.02-0.21-0.16-0.52-0.21-0.61c-0.08-0.15-0.4-0.47-0.76-0.38c-0.35,0.09-0.83,0.46-0.96,0.52
			c-0.12,0.05-0.74,0.01-1.02-0.08c-0.29-0.09-0.77-0.19-0.28-0.65c0.32-0.29,1.49-1.19,2.96-1.38c0.24-0.03,0.12-0.41,0.06-0.54
			c-0.07-0.13-0.2-0.49-0.24-0.51c-0.05-0.01-0.06-0.1-0.38-0.05c-0.12,0.02-1.69,0.31-2.62,1.19c-0.14,0.13-0.26,0.26-0.36,0.38
			c-0.59,0.68-0.64,1.19-0.42,1.88c0.06,0.19,0.17,0.34,0.29,0.46c0.43,0.38,1.14,0.43,1.6,0.41c-0.18,0.4-0.25,1.33,0.94,1.49
			c1.18,0.15,1.3-0.2,1.38-0.34c0.08-0.14,0.08-0.26,0.07-0.35C150.08,32.07,150.12,31.85,150.02,31.81z"/>
	</g>
</g>
</svg>
