<?xml version="1.0" encoding="utf-8"?>
<!-- Generator: Adobe Illustrator 24.2.3, SVG Export Plug-In . SVG Version: 6.00 Build 0)  -->
<svg version="1.1" id="Capa_1" xmlns="http://www.w3.org/2000/svg" xmlns:xlink="http://www.w3.org/1999/xlink" x="0px" y="0px"
	 viewBox="0 0 57.6 17.2" style="enable-background:new 0 0 57.6 17.2;" xml:space="preserve">
<style type="text/css">
	.st0{fill:#A0A0A0;}
</style>
<g id="Marena">
	<path id="Trazado_703" class="st0" d="M2.8,3.2l0.8-2.7c0-0.2,0.1-0.3,0.2-0.4C3.9,0,4,0,4.2,0h0.7C5,0,5.2,0,5.3,0.1
		c0.1,0.1,0.1,0.3,0.1,0.4c0,0.1,0,0.3-0.1,0.4C5.2,1,5.1,1.1,4.9,1.1H4.9L5,4.7h0.1c0.1,0,0.3,0,0.4,0.1c0.2,0.2,0.2,0.5,0,0.8
		C5.3,5.7,5.2,5.7,5,5.7H4c-0.2,0-0.3,0-0.4-0.1C3.5,5.5,3.4,5.3,3.5,5.2c0-0.1,0-0.3,0.1-0.4c0.1-0.1,0.2-0.1,0.4-0.1H4l-0.1-3
		L3.3,3.9c0,0.1-0.1,0.3-0.2,0.4C3,4.3,2.9,4.4,2.7,4.4c-0.1,0-0.3,0-0.4-0.1C2.3,4.2,2.2,4,2.2,3.9L1.6,1.7l-0.1,3h0.1
		c0.1,0,0.3,0,0.4,0.1c0.2,0.2,0.2,0.6,0,0.8C1.8,5.7,1.6,5.7,1.5,5.7h-1c-0.2,0-0.3,0-0.4-0.1C0,5.5,0,5.3,0,5.2C0,5,0,4.9,0.1,4.8
		c0.1-0.1,0.2-0.1,0.4-0.1h0.1l0.1-3.6H0.6c-0.1,0-0.3,0-0.4-0.1C0.1,0.8,0.1,0.7,0.1,0.5c0-0.1,0-0.3,0.1-0.4C0.3,0,0.5,0,0.6,0
		h0.7c0.1,0,0.3,0,0.4,0.1c0.1,0.1,0.2,0.2,0.2,0.4L2.8,3.2z"/>
	<path id="Trazado_704" class="st0" d="M9.9,4.7L9.9,4.7c0.2,0,0.3,0,0.4,0.1c0.1,0.1,0.1,0.2,0.1,0.4c0,0.1,0,0.3-0.1,0.4
		C10.2,5.7,10,5.7,9.9,5.7H8.6c-0.2,0-0.3,0-0.4-0.1C8.1,5.5,8,5.3,8,5.2c0-0.1,0-0.3,0.1-0.4c0.1-0.1,0.3-0.1,0.4-0.1h0.2L8.6,4.1
		H6.7L6.5,4.7h0.2c0.2,0,0.3,0,0.4,0.1C7.2,4.9,7.2,5,7.2,5.2c0,0.1,0,0.3-0.1,0.4C6.9,5.7,6.8,5.7,6.6,5.7H5.5
		c-0.2,0-0.3,0-0.4-0.1C5,5.5,5,5.3,5,5.2C5,5,5,4.9,5.1,4.8c0.1-0.1,0.2-0.1,0.4-0.1h0.1l1.2-3.6H6.3C6.2,1.1,6,1,5.9,0.9
		c-0.2-0.2-0.2-0.6,0-0.8C6,0,6.2,0,6.3,0H8c0.3,0,0.4,0.2,0.5,0.5v0L9.9,4.7z M7.6,1.1L7,3.1h1.3L7.6,1.1z"/>
	<path id="Trazado_705" class="st0" d="M13.7,3.1c0.1,0.1,0.2,0.2,0.2,0.3c0,0,0,0,0,0l0.7,1.2h0.1c0.1,0,0.3,0,0.4,0.1
		c0.1,0.1,0.1,0.2,0.1,0.4c0,0.1,0,0.3-0.1,0.4c-0.1,0.1-0.3,0.1-0.4,0.1h-0.5c-0.2,0-0.4-0.1-0.5-0.3l0,0l-1.1-1.8
		c0-0.1-0.1-0.1-0.1-0.2c0,0-0.1-0.1-0.2-0.1H12v1.3h0.1c0.1,0,0.3,0,0.4,0.1c0.2,0.2,0.2,0.6,0,0.8c-0.1,0.1-0.3,0.1-0.4,0.1h-1.1
		c-0.2,0-0.3,0-0.4-0.1c-0.2-0.2-0.2-0.6,0-0.8c0.1-0.1,0.2-0.1,0.4-0.1h0.1V1.1h-0.1c-0.1,0-0.3,0-0.3-0.1
		c-0.1-0.1-0.1-0.3-0.1-0.4c0-0.3,0.1-0.5,0.4-0.5c0.1,0,0.1,0,0.2,0h2c0.5,0,1,0.1,1.4,0.4c0.3,0.3,0.5,0.7,0.5,1.2
		c0,0.3-0.1,0.7-0.3,0.9C14.3,2.8,14,3,13.7,3.1z M11.9,1v1.4h0.6c0.3,0,0.5,0,0.8-0.2c0.2-0.1,0.2-0.3,0.2-0.5
		c0-0.2-0.1-0.4-0.2-0.5C13.1,1.1,12.9,1,12.7,1L11.9,1z"/>
	<path id="Trazado_706" class="st0" d="M18.8,1h-2v1.2h0.8V2.2c0-0.1,0-0.3,0.1-0.4c0.1-0.1,0.2-0.1,0.3-0.1c0.1,0,0.2,0,0.3,0.1
		c0.1,0.1,0.1,0.2,0.1,0.3v1.2c0,0.2,0,0.3-0.1,0.5c-0.1,0.1-0.2,0.2-0.3,0.1c-0.1,0-0.2,0-0.3-0.1c-0.1-0.1-0.1-0.2-0.1-0.4V3.2
		h-0.8v1.4h2V4.1c0-0.2,0-0.3,0.1-0.5c0.1-0.1,0.2-0.2,0.4-0.1c0.1,0,0.3,0,0.4,0.1c0.1,0.1,0.1,0.3,0.1,0.5v1.2
		c0,0.1,0,0.2-0.1,0.3c-0.1,0.1-0.2,0.1-0.4,0.1h-3.6c-0.1,0-0.3,0-0.4-0.1c-0.1-0.1-0.1-0.3-0.1-0.4c0-0.1,0-0.3,0.1-0.4
		c0.1-0.1,0.2-0.1,0.3-0.1h0.1V1.1h-0.1c-0.1,0-0.3,0-0.3-0.1c-0.1-0.1-0.1-0.3-0.1-0.4c0-0.1,0-0.3,0.1-0.4C15.4,0,15.6,0,15.7,0
		h3.6c0.1,0,0.3,0,0.4,0.1c0.1,0.1,0.1,0.2,0.1,0.4v1.1c0,0.2,0,0.3-0.1,0.5c-0.1,0.1-0.2,0.2-0.4,0.1c-0.1,0-0.3,0-0.4-0.1
		c-0.1-0.1-0.1-0.3-0.1-0.5L18.8,1z"/>
	<path id="Trazado_707" class="st0" d="M23.5,3.7V1.1h-0.2c-0.2,0-0.5-0.1-0.5-0.4c0-0.1,0-0.1,0-0.2c0-0.1,0-0.3,0.1-0.4
		C23,0,23.2,0,23.3,0h1.2c0.1,0,0.3,0,0.4,0.1c0.1,0.1,0.1,0.3,0.1,0.4c0,0.1,0,0.3-0.1,0.4c-0.1,0.1-0.2,0.1-0.3,0.1h-0.1v4.4
		c0,0.1,0,0.2,0,0.3c0,0-0.1,0.1-0.2,0.1h-0.4c-0.1,0-0.2,0-0.3,0c-0.1,0-0.1-0.1-0.1-0.2L21.6,2v2.6h0.3c0.1,0,0.3,0,0.4,0.1
		c0.1,0.1,0.1,0.3,0.1,0.4c0,0.1,0,0.3-0.1,0.4c-0.1,0.1-0.3,0.1-0.4,0.1h-1.3c-0.1,0-0.3,0-0.4-0.1c-0.1-0.1-0.1-0.3-0.1-0.4
		c0-0.1,0-0.3,0.1-0.4c0.1-0.1,0.2-0.1,0.3-0.1h0.1V1.1h-0.1c-0.1,0-0.3,0-0.3-0.1c-0.1-0.1-0.1-0.3-0.1-0.4C20,0.3,20.2,0,20.4,0
		c0.1,0,0.1,0,0.2,0h0.7c0.1,0,0.2,0,0.3,0.1c0.1,0.1,0.2,0.2,0.2,0.3L23.5,3.7z"/>
	<path id="Trazado_708" class="st0" d="M29.7,4.7L29.7,4.7c0.2,0,0.3,0,0.4,0.1c0.2,0.2,0.2,0.6,0,0.8c-0.1,0.1-0.3,0.1-0.4,0.1
		h-1.3c-0.2,0-0.3,0-0.4-0.1c-0.1-0.1-0.1-0.3-0.1-0.4c0-0.1,0-0.3,0.1-0.4c0.1-0.1,0.3-0.1,0.4-0.1h0.2l-0.2-0.6h-1.9l-0.2,0.6h0.2
		c0.2,0,0.3,0,0.4,0.1C26.9,4.9,27,5,27,5.2c0,0.1,0,0.3-0.1,0.4c-0.1,0.1-0.3,0.1-0.4,0.1h-1.1c-0.2,0-0.3,0-0.4-0.1
		c-0.1-0.1-0.1-0.3-0.1-0.4c0-0.1,0-0.3,0.1-0.4c0.1-0.1,0.2-0.1,0.4-0.1h0.1l1.2-3.6h-0.3c-0.2,0-0.3,0-0.4-0.1
		c-0.2-0.2-0.2-0.6,0-0.8C25.8,0,26,0,26.1,0h1.6c0.3,0,0.4,0.2,0.5,0.5v0L29.7,4.7z M27.4,1.1l-0.6,2H28L27.4,1.1z"/>
	<path id="Trazado_709" class="st0" d="M1.3,9.9l0.4-1.3c0-0.1,0-0.1,0.1-0.2c0.1,0,0.1-0.1,0.2-0.1h0.3c0.1,0,0.1,0,0.2,0.1
		c0,0.1,0.1,0.1,0.1,0.2c0,0.1,0,0.1-0.1,0.2c0,0-0.1,0.1-0.2,0.1h0l0.1,1.7h0c0.1,0,0.1,0,0.2,0.1c0,0.1,0.1,0.1,0.1,0.2
		c0,0.1,0,0.1-0.1,0.2c-0.1,0-0.1,0.1-0.2,0.1H1.9c-0.1,0-0.1,0-0.2-0.1c0-0.1-0.1-0.1-0.1-0.2c0-0.1,0-0.1,0.1-0.2
		c0,0,0.1-0.1,0.2-0.1h0l0-1.4l-0.3,1.1c0,0.1-0.1,0.1-0.1,0.2c0,0-0.1,0.1-0.2,0.1c-0.1,0-0.1,0-0.2-0.1c-0.1,0-0.1-0.1-0.1-0.2
		L0.7,9.2l0,1.4h0c0.1,0,0.1,0,0.2,0.1C1,10.8,1,10.9,0.9,11c-0.1,0-0.1,0.1-0.2,0.1H0.2c-0.1,0-0.1,0-0.2-0.1
		c-0.1-0.1-0.1-0.3,0-0.4c0,0,0.1-0.1,0.2-0.1h0l0.1-1.7h0c-0.1,0-0.1,0-0.2-0.1C0,8.7,0,8.7,0,8.6c0-0.1,0-0.1,0.1-0.2
		c0.1,0,0.1-0.1,0.2-0.1h0.3c0.1,0,0.1,0,0.2,0.1c0.1,0.1,0.1,0.1,0.1,0.2L1.3,9.9z"/>
	<path id="Trazado_710" class="st0" d="M4,10.6h0.5c0.1,0,0.1,0,0.2,0.1c0,0.1,0.1,0.1,0.1,0.2c0,0.1,0,0.1-0.1,0.2
		c-0.1,0-0.1,0.1-0.2,0.1H3c-0.1,0-0.1,0-0.2-0.1c0-0.1-0.1-0.1-0.1-0.2c0-0.1,0-0.1,0.1-0.2c0.1,0,0.1-0.1,0.2-0.1h0.5V9.4H3.3
		c-0.1,0-0.1,0-0.2-0.1C3,9.3,3,9.3,3,9.2C3,9.1,3,9,3.1,9c0.1,0,0.1-0.1,0.2-0.1h0.6c0,0,0.1,0,0.1,0C4,9,4,9,4,9L4,10.6z M3.7,7.9
		c0.1,0,0.2,0,0.2,0.1C4,8,4,8.1,4,8.3c0,0.1,0,0.2,0,0.3c0,0-0.1,0.1-0.2,0.1c-0.1,0-0.2,0-0.2-0.1c0-0.1-0.1-0.1,0-0.2
		c0-0.1,0-0.3,0-0.4C3.5,7.9,3.6,7.9,3.7,7.9L3.7,7.9z"/>
	<path id="Trazado_711" class="st0" d="M7,10.6L7,10.6c0.1,0,0.2,0,0.2,0.1c0,0.1,0.1,0.1,0.1,0.2c0,0.1,0,0.1-0.1,0.2
		c-0.1,0-0.1,0.1-0.2,0.1H6.5c-0.1,0-0.1,0-0.2-0.1c0-0.1-0.1-0.1-0.1-0.2c0-0.1,0-0.1,0.1-0.2c0,0,0.1-0.1,0.2-0.1h0V9.9
		c0-0.1,0-0.3-0.1-0.4C6.4,9.4,6.3,9.4,6.2,9.4C6.1,9.4,6,9.4,5.9,9.5C5.8,9.6,5.8,9.8,5.8,9.9v0.7h0c0.1,0,0.1,0,0.2,0.1
		c0,0.1,0.1,0.1,0.1,0.2c0,0.1,0,0.1-0.1,0.2c-0.1,0-0.1,0.1-0.2,0.1H5.3c-0.1,0-0.1,0-0.2-0.1C5,11,5,10.9,5,10.8
		c0-0.1,0-0.1,0.1-0.2c0,0,0.1-0.1,0.2-0.1h0V9.4h0c-0.1,0-0.1,0-0.2-0.1C5,9.3,5,9.3,5,9.2C5,9.1,5,9,5.1,9c0.1,0,0.1-0.1,0.2-0.1
		h0.4c0,0,0.1,0,0.1,0c0,0,0,0,0,0.1v0.2C5.8,9.1,5.9,9,6,9c0.1-0.1,0.2-0.1,0.4-0.1c0.2,0,0.4,0.1,0.5,0.2C7,9.3,7,9.5,7,9.8
		L7,10.6z"/>
	<path id="Trazado_712" class="st0" d="M8.8,10.6h0.5c0.1,0,0.1,0,0.2,0.1c0,0.1,0.1,0.1,0.1,0.2c0,0.1,0,0.1-0.1,0.2
		c-0.1,0-0.1,0.1-0.2,0.1H7.9c-0.1,0-0.1,0-0.2-0.1c0-0.1-0.1-0.1-0.1-0.2c0-0.1,0-0.1,0.1-0.2c0.1,0,0.1-0.1,0.2-0.1h0.5V9.4H8.1
		c-0.1,0-0.1,0-0.2-0.1C7.8,9.3,7.8,9.1,7.9,9c0.1,0,0.1-0.1,0.2-0.1h0.6c0,0,0.1,0,0.1,0c0,0,0,0,0,0.1L8.8,10.6z M8.5,7.9
		c0.1,0,0.1,0,0.2,0.1c0,0.1,0.1,0.2,0.1,0.3c0,0.1,0,0.2,0,0.3c0,0-0.1,0.1-0.2,0.1c-0.1,0-0.2,0-0.2-0.1c0-0.1-0.1-0.1,0-0.2
		c0-0.1,0-0.3,0-0.4C8.3,7.9,8.4,7.9,8.5,7.9L8.5,7.9z"/>
	<path id="Trazado_713" class="st0" d="M10.4,11.1c0,0-0.1,0.1-0.1,0.1c0,0-0.1,0-0.1,0c0,0-0.1,0-0.1-0.1c0-0.1,0-0.1,0-0.2v-0.3
		c0-0.1,0-0.2,0-0.2c0,0,0.1-0.1,0.2-0.1c0.1,0,0.2,0.1,0.2,0.1c0,0,0,0.1,0.1,0.1c0.1,0.1,0.2,0.1,0.2,0.2c0.1,0,0.2,0.1,0.3,0.1
		c0.1,0,0.2,0,0.2-0.1c0.1,0,0.1-0.1,0.1-0.2c0-0.1-0.2-0.2-0.5-0.3c-0.1,0-0.1,0-0.2,0c-0.2,0-0.4-0.1-0.5-0.2
		C10,9.9,10,9.7,10,9.6c0-0.2,0.1-0.4,0.2-0.5c0.2-0.1,0.4-0.2,0.6-0.2c0.1,0,0.2,0,0.3,0c0.1,0,0.2,0,0.3,0.1c0,0,0.1-0.1,0.1-0.1
		c0,0,0.1,0,0.1,0c0.1,0,0.1,0,0.1,0.1c0,0.1,0.1,0.1,0,0.2v0.3c0,0.1,0,0.1,0,0.2c0,0-0.1,0.1-0.1,0.1c-0.1,0-0.2-0.1-0.3-0.2
		c-0.1-0.1-0.3-0.2-0.4-0.2c-0.1,0-0.2,0-0.3,0.1c-0.1,0-0.1,0.1-0.1,0.2c0,0.1,0.1,0.2,0.4,0.2l0.2,0c0.2,0,0.5,0.1,0.7,0.2
		c0.1,0.1,0.2,0.3,0.2,0.5c0,0.2-0.1,0.4-0.2,0.5c-0.2,0.1-0.4,0.2-0.7,0.2c-0.1,0-0.2,0-0.3,0C10.6,11.1,10.5,11.1,10.4,11.1z"/>
	<path id="Trazado_714" class="st0" d="M13.2,9.1h0.6c0.1,0,0.1,0,0.2,0.1c0,0.1,0.1,0.1,0.1,0.2c0,0.1,0,0.1-0.1,0.2
		c-0.1,0-0.1,0.1-0.2,0.1h-0.6v0.6c0,0.1,0,0.2,0.1,0.3c0.1,0.1,0.2,0.1,0.2,0.1c0.1,0,0.3,0,0.4-0.1c0.1-0.1,0.2-0.1,0.3-0.1
		c0.1,0,0.1,0,0.1,0.1c0,0.1,0.1,0.1,0.1,0.2c0,0.1-0.1,0.2-0.3,0.3c-0.2,0.1-0.4,0.2-0.7,0.1c-0.1,0-0.3,0-0.4-0.1
		c-0.1,0-0.2-0.1-0.3-0.2c0-0.1-0.1-0.1-0.1-0.2c0-0.1,0-0.3,0-0.4V9.6h-0.2c-0.1,0-0.1,0-0.2-0.1c0-0.1-0.1-0.1-0.1-0.2
		c0-0.1,0-0.1,0.1-0.2c0.1,0,0.1-0.1,0.2-0.1h0.2V8.5c0-0.1,0-0.2,0.1-0.2c0.1,0,0.1-0.1,0.2-0.1c0.1,0,0.1,0,0.2,0.1
		c0,0.1,0.1,0.1,0.1,0.2L13.2,9.1z"/>
	<path id="Trazado_715" class="st0" d="M15.2,10.1c0,0.3,0.3,0.5,0.6,0.5c0.2,0,0.4-0.1,0.5-0.1c0.1-0.1,0.2-0.1,0.3-0.1
		c0.1,0,0.1,0,0.1,0.1c0,0,0.1,0.1,0.1,0.2c0,0.1-0.1,0.3-0.3,0.4c-0.2,0.1-0.5,0.2-0.7,0.2c-0.3,0-0.6-0.1-0.8-0.3
		c-0.4-0.5-0.4-1.2,0-1.6c0.2-0.2,0.5-0.3,0.8-0.3c0.3,0,0.6,0.1,0.8,0.3c0.2,0.2,0.3,0.5,0.3,0.7c0,0.1,0,0.1-0.1,0.2
		c-0.1,0-0.2,0.1-0.2,0.1L15.2,10.1z M16.3,9.8c0-0.1-0.1-0.3-0.2-0.3c-0.1-0.1-0.2-0.1-0.4-0.1c-0.1,0-0.3,0-0.4,0.1
		c-0.1,0.1-0.2,0.2-0.2,0.3L16.3,9.8z"/>
	<path id="Trazado_716" class="st0" d="M18.1,9.8v0.8h0.5c0.1,0,0.1,0,0.2,0.1c0,0.1,0.1,0.1,0.1,0.2c0,0.1,0,0.1-0.1,0.2
		c-0.1,0-0.1,0.1-0.2,0.1h-1.2c-0.1,0-0.1,0-0.2-0.1c0-0.1-0.1-0.1-0.1-0.2c0-0.1,0-0.1,0.1-0.2c0.1,0,0.1-0.1,0.2-0.1h0.2V9.4h-0.1
		c-0.1,0-0.1,0-0.2-0.1c-0.1-0.1-0.1-0.3,0-0.4c0.1,0,0.1-0.1,0.2-0.1h0.5c0,0,0.1,0,0.1,0c0,0,0,0,0,0.1v0.3
		c0.1-0.2,0.3-0.3,0.4-0.4c0.1-0.1,0.3-0.1,0.4-0.1c0.1,0,0.2,0,0.3,0.1c0.1,0.1,0.1,0.2,0.1,0.3c0,0.1,0,0.2-0.1,0.2
		c-0.1,0.1-0.1,0.1-0.2,0.1c-0.1,0-0.2,0-0.2-0.1c-0.1,0-0.1-0.1-0.2-0.1c-0.1,0-0.2,0-0.2,0.1C18.3,9.6,18.2,9.7,18.1,9.8z"/>
	<path id="Trazado_717" class="st0" d="M20.9,10.6h0.5c0.1,0,0.1,0,0.2,0.1c0,0.1,0.1,0.1,0.1,0.2c0,0.1,0,0.1-0.1,0.2
		c-0.1,0-0.1,0.1-0.2,0.1h-1.4c-0.1,0-0.1,0-0.2-0.1c0-0.1-0.1-0.1-0.1-0.2c0-0.1,0-0.1,0.1-0.2c0.1,0,0.1-0.1,0.2-0.1h0.5V9.4h-0.2
		c-0.1,0-0.1,0-0.2-0.1c-0.1-0.1-0.1-0.3,0-0.4c0.1,0,0.1-0.1,0.2-0.1h0.6c0,0,0.1,0,0.1,0c0,0,0,0,0,0.1L20.9,10.6z M20.5,7.9
		c0.1,0,0.2,0,0.2,0.1c0.1,0.2,0.1,0.4,0,0.6c0,0-0.1,0.1-0.2,0.1c-0.1,0-0.2,0-0.2-0.1c0-0.1-0.1-0.1,0-0.2c0-0.1,0-0.3,0-0.4
		C20.4,7.9,20.4,7.9,20.5,7.9L20.5,7.9z"/>
	<path id="Trazado_718" class="st0" d="M23,8.9c0.3,0,0.6,0.1,0.8,0.3c0.4,0.5,0.4,1.2,0,1.6c-0.5,0.4-1.2,0.4-1.7,0
		c-0.2-0.2-0.3-0.5-0.3-0.8c0-0.3,0.1-0.6,0.3-0.8C22.4,9,22.7,8.9,23,8.9z M23,9.4c-0.2,0-0.3,0.1-0.4,0.2
		c-0.1,0.1-0.2,0.3-0.2,0.5c0,0.2,0.1,0.3,0.2,0.5c0.2,0.2,0.5,0.2,0.8,0c0,0,0,0,0,0c0.1-0.1,0.2-0.3,0.2-0.5
		c0-0.2-0.1-0.3-0.2-0.5C23.3,9.4,23.1,9.4,23,9.4L23,9.4z"/>
	<path id="Trazado_719" class="st0" d="M28.7,10.6L28.7,10.6c0.1,0,0.2,0,0.2,0.1c0,0.1,0.1,0.1,0.1,0.2c0,0.1,0,0.1-0.1,0.2
		c-0.1,0-0.1,0.1-0.2,0.1h-0.3c0,0-0.1,0-0.1,0c0,0,0,0,0-0.1v-0.2c-0.1,0.1-0.2,0.2-0.3,0.2c-0.1,0.1-0.2,0.1-0.4,0.1
		c-0.3,0-0.5-0.1-0.7-0.3c-0.2-0.2-0.3-0.5-0.3-0.8c0-0.3,0.1-0.6,0.3-0.8c0.2-0.2,0.4-0.3,0.7-0.3c0.1,0,0.2,0,0.3,0.1
		c0.1,0,0.2,0.1,0.3,0.2V8.6h-0.3c-0.1,0-0.1,0-0.2-0.1c-0.1-0.1-0.1-0.3,0-0.4C27.7,8,27.8,8,27.9,8h0.7c0,0,0.1,0,0.1,0
		c0,0,0,0.1,0,0.1L28.7,10.6z M27.7,9.4c-0.1,0-0.3,0.1-0.3,0.2c-0.1,0.1-0.1,0.3-0.1,0.4c0,0.2,0,0.3,0.1,0.4
		c0.1,0.2,0.4,0.2,0.6,0.1c0,0,0.1-0.1,0.1-0.1c0.1-0.1,0.1-0.3,0.1-0.4c0-0.2,0-0.3-0.1-0.4C27.9,9.5,27.8,9.4,27.7,9.4L27.7,9.4z"
		/>
	<path id="Trazado_720" class="st0" d="M29.6,10.1c0,0.3,0.3,0.5,0.6,0.5c0.2,0,0.4-0.1,0.5-0.1c0.1-0.1,0.2-0.1,0.3-0.1
		c0.1,0,0.1,0,0.1,0.1c0,0,0.1,0.1,0.1,0.2c0,0.1-0.1,0.3-0.3,0.4c-0.2,0.1-0.5,0.2-0.7,0.2c-0.3,0-0.6-0.1-0.8-0.3
		c-0.4-0.5-0.4-1.2,0-1.6c0.2-0.2,0.5-0.3,0.8-0.3c0.3,0,0.6,0.1,0.8,0.3c0.2,0.2,0.3,0.5,0.3,0.7c0,0.1,0,0.1-0.1,0.2
		c-0.1,0-0.2,0.1-0.2,0.1L29.6,10.1z M30.7,9.8c0-0.1-0.1-0.3-0.2-0.3c-0.1-0.1-0.2-0.1-0.4-0.1c-0.1,0-0.3,0-0.4,0.1
		c-0.1,0.1-0.2,0.2-0.2,0.3L30.7,9.8z"/>
	<path id="Trazado_721" class="st0" d="M32.8,10.6h0.5c0.1,0,0.1,0,0.2,0.1c0,0.1,0.1,0.1,0.1,0.2c0,0.1,0,0.1-0.1,0.2
		c-0.1,0-0.1,0.1-0.2,0.1h-1.4c-0.1,0-0.1,0-0.2-0.1c0-0.1-0.1-0.1-0.1-0.2c0-0.1,0-0.1,0.1-0.2c0.1,0,0.1-0.1,0.2-0.1h0.5v-2h-0.2
		c-0.1,0-0.1,0-0.2-0.1c0-0.1-0.1-0.1-0.1-0.2c0-0.1,0-0.1,0.1-0.2C31.9,8,32,8,32.1,8h0.6c0,0,0.1,0,0.1,0c0,0,0,0,0,0.1L32.8,10.6
		z"/>
	<path id="Trazado_722" class="st0" d="M38.5,10.6L38.5,10.6c0.1,0,0.2,0,0.2,0.1c0.1,0.1,0.1,0.3,0,0.4c-0.1,0-0.1,0.1-0.2,0.1
		h-0.6c-0.1,0-0.1,0-0.2-0.1c0-0.1-0.1-0.1-0.1-0.2c0-0.1,0-0.1,0.1-0.2c0.1,0,0.1-0.1,0.2-0.1h0.1l-0.1-0.3h-0.9l-0.1,0.3h0.1
		c0.1,0,0.1,0,0.2,0.1c0,0.1,0.1,0.1,0.1,0.2c0,0.1,0,0.1-0.1,0.2c-0.1,0-0.1,0.1-0.2,0.1h-0.5c-0.1,0-0.1,0-0.2-0.1
		c0-0.1-0.1-0.1-0.1-0.2c0-0.1,0-0.1,0.1-0.2c0,0,0.1-0.1,0.2-0.1h0l0.6-1.7h-0.2c-0.1,0-0.1,0-0.2-0.1c0-0.1-0.1-0.1-0.1-0.2
		c0-0.1,0-0.1,0.1-0.2c0.1,0,0.1-0.1,0.2-0.1h0.8c0.1,0,0.2,0.1,0.3,0.2v0L38.5,10.6z M37.3,8.8l-0.3,1h0.6L37.3,8.8z"/>
	<path id="Trazado_723" class="st0" d="M39.9,9.1C40,9,40.1,9,40.1,8.9c0.1,0,0.2-0.1,0.3-0.1c0.2,0,0.3,0.1,0.4,0.2
		c0.1,0.2,0.1,0.4,0.1,0.6v0.9h0c0.1,0,0.1,0,0.1,0.1c0.1,0.1,0.1,0.3,0,0.4c0,0-0.1,0.1-0.2,0.1h-0.4c0,0-0.1,0-0.1,0
		c0,0,0,0,0-0.1V9.7c0-0.1,0-0.2,0-0.2c0,0-0.1-0.1-0.1-0.1c-0.1,0-0.1,0-0.2,0.1c0,0.1-0.1,0.2-0.1,0.3v0.8h0c0.1,0,0.1,0,0.1,0.1
		c0.1,0.1,0.1,0.3,0,0.4c0,0-0.1,0.1-0.2,0.1h-0.4c0,0-0.1,0-0.1,0c0,0,0,0,0-0.1V9.7c0-0.1,0-0.2,0-0.2c0,0-0.1-0.1-0.1-0.1
		c-0.1,0-0.1,0-0.2,0.1c0,0.1-0.1,0.2-0.1,0.3v0.8h0c0.1,0,0.1,0,0.1,0.1c0.1,0.1,0.1,0.3,0,0.4c0,0-0.1,0.1-0.2,0.1h-0.5
		c-0.1,0-0.1,0-0.2-0.1c-0.1-0.1-0.1-0.3,0-0.4c0,0,0.1-0.1,0.2-0.1h0V9.4h0c-0.1,0-0.1,0-0.2-0.1c0-0.1-0.1-0.1-0.1-0.2
		c0-0.1,0-0.1,0.1-0.2c0,0,0.1-0.1,0.2-0.1H39c0,0,0.1,0,0.1,0c0,0,0,0.1,0,0.1c0-0.1,0.1-0.1,0.2-0.2c0.1,0,0.2-0.1,0.2-0.1
		c0.1,0,0.1,0,0.2,0.1C39.8,9,39.9,9,39.9,9.1z"/>
	<path id="Trazado_724" class="st0" d="M41.8,9.1C41.9,9.1,42,9,42.1,9c0.1,0,0.2-0.1,0.3-0.1c0.3,0,0.5,0.1,0.7,0.3
		c0.2,0.2,0.3,0.5,0.3,0.8c0,0.3-0.1,0.6-0.3,0.8c-0.2,0.2-0.4,0.3-0.7,0.3c-0.1,0-0.2,0-0.4-0.1c-0.1-0.1-0.2-0.1-0.2-0.2V11
		c0,0,0,0.1,0,0.1c0,0-0.1,0-0.1,0h-0.3c-0.1,0-0.1,0-0.2-0.1c-0.1-0.1-0.1-0.3,0-0.4c0,0,0.1-0.1,0.2-0.1h0v-2h0
		c-0.1,0-0.1,0-0.2-0.1c0-0.1-0.1-0.1-0.1-0.2c0-0.1,0-0.1,0.1-0.2C41.2,8,41.2,8,41.3,8h0.4c0,0,0.1,0,0.1,0c0,0,0,0.1,0,0.1
		L41.8,9.1z M42.3,9.4c-0.1,0-0.3,0.1-0.3,0.2c-0.1,0.1-0.1,0.3-0.1,0.4c0,0.2,0,0.3,0.1,0.4c0.1,0.2,0.4,0.2,0.6,0.1
		c0,0,0.1-0.1,0.1-0.1c0.1-0.1,0.1-0.3,0.1-0.4c0-0.2,0-0.3-0.1-0.4C42.6,9.5,42.4,9.4,42.3,9.4L42.3,9.4z"/>
	<path id="Trazado_725" class="st0" d="M44.9,10.6h0.5c0.1,0,0.1,0,0.2,0.1c0,0.1,0.1,0.1,0.1,0.2c0,0.1,0,0.1-0.1,0.2
		c-0.1,0-0.1,0.1-0.2,0.1h-1.4c-0.1,0-0.1,0-0.2-0.1c0-0.1-0.1-0.1-0.1-0.2c0-0.1,0-0.1,0.1-0.2c0.1,0,0.1-0.1,0.2-0.1h0.5V9.4h-0.2
		c-0.1,0-0.1,0-0.2-0.1c0-0.1-0.1-0.1-0.1-0.2c0-0.1,0-0.1,0.1-0.2c0.1,0,0.1-0.1,0.2-0.1h0.6c0,0,0.1,0,0.1,0c0,0,0,0,0,0.1
		L44.9,10.6z M44.6,7.9c0.1,0,0.2,0,0.2,0.1c0,0.1,0.1,0.2,0.1,0.3c0,0.1,0,0.2,0,0.3c0,0-0.1,0.1-0.2,0.1c-0.1,0-0.2,0-0.2-0.1
		c0-0.1-0.1-0.1,0-0.2c0-0.1,0-0.3,0-0.4C44.4,7.9,44.5,7.9,44.6,7.9L44.6,7.9z"/>
	<path id="Trazado_726" class="st0" d="M46.4,10.1c0,0.3,0.3,0.5,0.6,0.5c0.2,0,0.4-0.1,0.5-0.1c0.1-0.1,0.2-0.1,0.3-0.1
		c0.1,0,0.1,0,0.1,0.1c0,0,0.1,0.1,0.1,0.2c0,0.1-0.1,0.3-0.3,0.4c-0.2,0.1-0.5,0.2-0.7,0.2c-0.3,0-0.6-0.1-0.8-0.3
		c-0.4-0.5-0.4-1.2,0-1.6c0.2-0.2,0.5-0.3,0.8-0.3c0.3,0,0.6,0.1,0.8,0.3c0.2,0.2,0.3,0.5,0.3,0.7c0,0.1,0,0.1-0.1,0.2
		c-0.1,0-0.2,0.1-0.2,0.1L46.4,10.1z M47.6,9.8c0-0.1-0.1-0.3-0.2-0.3c-0.1-0.1-0.2-0.1-0.4-0.1c-0.1,0-0.3,0-0.4,0.1
		c-0.1,0.1-0.2,0.2-0.2,0.3L47.6,9.8z"/>
	<path id="Trazado_727" class="st0" d="M50.3,10.6L50.3,10.6c0.1,0,0.2,0,0.2,0.1c0,0.1,0.1,0.1,0.1,0.2c0,0.1,0,0.1-0.1,0.2
		c-0.1,0-0.1,0.1-0.2,0.1h-0.5c-0.1,0-0.1,0-0.2-0.1c0-0.1-0.1-0.1-0.1-0.2c0-0.1,0-0.1,0.1-0.2c0,0,0.1-0.1,0.2-0.1h0V9.9
		c0-0.1,0-0.3-0.1-0.4c-0.1-0.1-0.1-0.1-0.2-0.1c-0.1,0-0.2,0.1-0.3,0.1c-0.1,0.1-0.1,0.2-0.1,0.4v0.7h0c0.1,0,0.1,0,0.2,0.1
		c0,0.1,0.1,0.1,0.1,0.2c0,0.1,0,0.1-0.1,0.2c-0.1,0-0.1,0.1-0.2,0.1h-0.5c-0.1,0-0.1,0-0.2-0.1c0-0.1-0.1-0.1-0.1-0.2
		c0-0.1,0-0.1,0.1-0.2c0,0,0.1-0.1,0.2-0.1h0V9.4h0c-0.1,0-0.1,0-0.2-0.1c0-0.1-0.1-0.1-0.1-0.2c0-0.1,0-0.1,0.1-0.2
		c0.1,0,0.1-0.1,0.2-0.1h0.4c0,0,0.1,0,0.1,0c0,0,0,0,0,0.1v0.2C49.1,9.1,49.2,9,49.3,9c0.1-0.1,0.2-0.1,0.3-0.1
		c0.2,0,0.4,0.1,0.5,0.2c0.1,0.2,0.2,0.4,0.2,0.7L50.3,10.6z"/>
	<path id="Trazado_728" class="st0" d="M51.7,9.1h0.6c0.1,0,0.1,0,0.2,0.1c0,0.1,0.1,0.1,0.1,0.2c0,0.1,0,0.1-0.1,0.2
		c-0.1,0-0.1,0.1-0.2,0.1h-0.6v0.6c0,0.1,0,0.2,0.1,0.3c0.1,0.1,0.2,0.1,0.2,0.1c0.1,0,0.3,0,0.4-0.1c0.1-0.1,0.2-0.1,0.3-0.1
		c0.1,0,0.1,0,0.1,0.1c0,0.1,0.1,0.1,0.1,0.2c0,0.1-0.1,0.2-0.3,0.3c-0.2,0.1-0.4,0.2-0.7,0.1c-0.1,0-0.3,0-0.4-0.1
		c-0.2-0.1-0.3-0.2-0.4-0.4c0-0.1,0-0.3,0-0.4V9.6h-0.2c-0.1,0-0.1,0-0.2-0.1c0-0.1-0.1-0.1-0.1-0.2c0-0.1,0-0.1,0.1-0.2
		c0.1,0,0.1-0.1,0.2-0.1h0.2V8.5c0-0.1,0-0.2,0.1-0.2c0.1,0,0.1-0.1,0.2-0.1c0.1,0,0.1,0,0.2,0.1c0,0.1,0.1,0.1,0.1,0.2L51.7,9.1z"
		/>
	<path id="Trazado_729" class="st0" d="M53.6,10.1c0,0.3,0.3,0.5,0.6,0.5c0.2,0,0.4-0.1,0.5-0.1c0.1-0.1,0.2-0.1,0.3-0.1
		c0.1,0,0.1,0,0.1,0.1c0,0,0.1,0.1,0.1,0.2c0,0.1-0.1,0.3-0.3,0.4c-0.2,0.1-0.5,0.2-0.7,0.2c-0.3,0-0.6-0.1-0.8-0.3
		c-0.4-0.5-0.4-1.2,0-1.6C53.7,9,54,8.9,54.3,8.9c0.3,0,0.6,0.1,0.8,0.3c0.2,0.2,0.3,0.5,0.3,0.7c0,0.1,0,0.1-0.1,0.2
		c-0.1,0-0.2,0.1-0.2,0.1L53.6,10.1z M54.8,9.8c0-0.1-0.1-0.3-0.2-0.3c-0.1-0.1-0.2-0.1-0.4-0.1c-0.1,0-0.3,0-0.4,0.1
		c-0.1,0.1-0.2,0.2-0.2,0.3L54.8,9.8z"/>
	<path id="Trazado_730" class="st0" d="M0.9,14.6l0.4,1l0.4-1h0c-0.1,0-0.1,0-0.2-0.1c0-0.1-0.1-0.1-0.1-0.2c0-0.1,0-0.1,0.1-0.2
		c0.1,0,0.1-0.1,0.2-0.1h0.5c0.1,0,0.1,0,0.2,0.1c0,0.1,0.1,0.1,0.1,0.2c0,0.1,0,0.1-0.1,0.2c0,0-0.1,0.1-0.2,0.1h0l-0.9,2.1h0.1
		c0.1,0,0.1,0,0.2,0.1c0.1,0.1,0.1,0.3,0,0.4c-0.1,0-0.1,0.1-0.2,0.1H0.5c-0.1,0-0.1,0-0.2-0.1c0-0.1-0.1-0.1-0.1-0.2
		c0-0.1,0-0.1,0.1-0.2c0.1,0,0.1-0.1,0.2-0.1h0.3l0.2-0.5l-0.6-1.6h0c-0.1,0-0.1,0-0.2-0.1c0-0.1-0.1-0.1-0.1-0.2
		c0-0.1,0-0.1,0.1-0.2c0.1,0,0.1-0.1,0.2-0.1H1c0.1,0,0.1,0,0.2,0.1c0,0.1,0.1,0.1,0.1,0.2c0,0.1,0,0.1-0.1,0.2
		C1.1,14.6,1.1,14.6,0.9,14.6L0.9,14.6z"/>
	<path id="Trazado_731" class="st0" d="M6.4,15.7h0.5c0.1,0,0.1,0,0.2,0.1c0,0.1,0.1,0.1,0.1,0.2c0,0.1,0,0.1-0.1,0.2
		c-0.1,0-0.1,0.1-0.2,0.1H5.4c-0.1,0-0.1,0-0.2-0.1c0-0.1-0.1-0.1-0.1-0.2c0-0.1,0-0.1,0.1-0.2c0.1,0,0.1-0.1,0.2-0.1h0.5v-2H5.6
		c-0.1,0-0.1,0-0.2-0.1c0-0.1-0.1-0.1-0.1-0.2c0-0.1,0-0.1,0.1-0.2c0.1,0,0.1-0.1,0.2-0.1h0.6c0,0,0.1,0,0.1,0c0,0,0,0,0,0.1
		L6.4,15.7z"/>
	<path id="Trazado_732" class="st0" d="M8.5,14c0.3,0,0.6,0.1,0.8,0.3c0.4,0.5,0.4,1.2,0,1.6c-0.5,0.4-1.2,0.4-1.7,0
		c-0.4-0.5-0.4-1.2,0-1.6C7.9,14.2,8.2,14,8.5,14z M8.5,14.5c-0.2,0-0.3,0.1-0.4,0.2C8,14.8,8,15,8,15.2c0,0.2,0.1,0.3,0.2,0.5
		c0.2,0.2,0.5,0.2,0.8,0c0,0,0,0,0,0c0.1-0.1,0.2-0.3,0.2-0.5c0-0.2-0.1-0.3-0.2-0.5C8.8,14.6,8.7,14.5,8.5,14.5z"/>
	<path id="Trazado_733" class="st0" d="M10.4,16.2c0,0-0.1,0.1-0.1,0.1c0,0-0.1,0-0.1,0c0,0-0.1,0-0.1-0.1c0-0.1,0-0.1,0-0.2v-0.3
		c0-0.1,0-0.2,0-0.2c0,0,0.1-0.1,0.2-0.1c0.1,0,0.2,0.1,0.2,0.1c0,0,0,0.1,0.1,0.1c0.1,0.1,0.2,0.1,0.2,0.2c0.1,0,0.2,0.1,0.3,0.1
		c0.1,0,0.2,0,0.2-0.1c0.1,0,0.1-0.1,0.1-0.2c0-0.1-0.2-0.2-0.5-0.3c-0.1,0-0.1,0-0.2,0c-0.2,0-0.4-0.1-0.5-0.2
		C10,15.1,10,14.9,10,14.7c0-0.2,0.1-0.4,0.2-0.5c0.2-0.1,0.4-0.2,0.6-0.2c0.1,0,0.2,0,0.3,0c0.1,0,0.2,0,0.3,0.1
		c0,0,0.1-0.1,0.1-0.1c0,0,0.1,0,0.1,0c0.1,0,0.1,0,0.1,0.1c0,0.1,0.1,0.1,0,0.2v0.3c0,0.1,0,0.1,0,0.2c0,0-0.1,0.1-0.1,0.1
		c-0.1,0-0.2-0.1-0.3-0.2c-0.1-0.1-0.3-0.2-0.4-0.2c-0.1,0-0.2,0-0.3,0.1c-0.1,0-0.1,0.1-0.1,0.2c0,0.1,0.1,0.2,0.4,0.2l0.2,0
		c0.2,0,0.5,0.1,0.7,0.2c0.1,0.1,0.2,0.3,0.2,0.5c0,0.2-0.1,0.4-0.2,0.5c-0.2,0.1-0.4,0.2-0.7,0.2c-0.1,0-0.2,0-0.3,0
		C10.6,16.3,10.5,16.3,10.4,16.2z"/>
	<path id="Trazado_734" class="st0" d="M16.3,15c0,0,0.1,0.1,0.1,0.1l0,0l0.3,0.6h0.1c0.1,0,0.2,0.1,0.2,0.2c0,0,0,0,0,0.1
		c0,0.1,0,0.1-0.1,0.2c-0.1,0-0.1,0.1-0.2,0.1h-0.3c-0.1,0-0.2-0.1-0.2-0.1h0l-0.5-0.9c0,0,0-0.1-0.1-0.1c0,0-0.1,0-0.1,0h-0.2v0.6
		h0c0.1,0,0.1,0,0.2,0.1c0,0.1,0.1,0.1,0.1,0.2c0,0.1,0,0.1-0.1,0.2c-0.1,0-0.1,0.1-0.2,0.1h-0.5c-0.1,0-0.1,0-0.2-0.1
		c0-0.1-0.1-0.1-0.1-0.2c0-0.1,0-0.1,0.1-0.2c0,0,0.1-0.1,0.2-0.1h0V14h0c-0.1,0-0.1,0-0.2-0.1c0-0.1-0.1-0.1-0.1-0.2
		c0-0.1,0-0.1,0.1-0.2c0.1,0,0.1-0.1,0.2-0.1h1c0.2,0,0.5,0.1,0.7,0.2c0.2,0.1,0.2,0.4,0.2,0.6c0,0.2,0,0.3-0.1,0.5
		C16.6,14.8,16.4,14.9,16.3,15z M15.4,14v0.7h0.3c0.1,0,0.3,0,0.4-0.1c0.1-0.1,0.1-0.2,0.1-0.3c0-0.1,0-0.2-0.1-0.3
		C16,14,15.9,14,15.8,14L15.4,14z"/>
	<path id="Trazado_735" class="st0" d="M17.6,15.3c0,0.3,0.3,0.5,0.6,0.5c0.2,0,0.4-0.1,0.5-0.1c0.1-0.1,0.2-0.1,0.3-0.1
		c0.1,0,0.1,0,0.1,0.1c0,0,0.1,0.1,0.1,0.2c0,0.1-0.1,0.3-0.3,0.4c-0.2,0.1-0.5,0.2-0.7,0.2c-0.3,0-0.6-0.1-0.8-0.3
		c-0.4-0.5-0.4-1.2,0-1.6c0.2-0.2,0.5-0.3,0.8-0.3c0.3,0,0.6,0.1,0.8,0.3c0.2,0.2,0.3,0.5,0.3,0.7c0,0.1,0,0.1-0.1,0.2
		c-0.1,0-0.2,0.1-0.2,0.1L17.6,15.3z M18.7,15c0-0.1-0.1-0.3-0.2-0.3c-0.1-0.1-0.2-0.1-0.4-0.1c-0.1,0-0.3,0-0.4,0.1
		c-0.1,0.1-0.2,0.2-0.2,0.3L18.7,15z"/>
	<path id="Trazado_736" class="st0" d="M21.2,14.2c0-0.1,0-0.1,0.1-0.1c0,0,0.1,0,0.1,0c0.1,0,0.1,0,0.2,0.1c0,0.1,0.1,0.2,0,0.3
		v0.4c0,0.1,0,0.1-0.1,0.2c0,0-0.1,0.1-0.2,0.1c0,0-0.1,0-0.1,0c0,0-0.1-0.1-0.1-0.2c0-0.1-0.1-0.2-0.2-0.2
		c-0.1-0.1-0.2-0.1-0.3-0.1c-0.2,0-0.3,0.1-0.4,0.2c-0.2,0.3-0.2,0.7,0,0.9c0.1,0.1,0.3,0.2,0.4,0.2c0.2,0,0.4-0.1,0.5-0.2
		c0.1-0.1,0.2-0.1,0.3-0.2c0.1,0,0.1,0,0.1,0.1c0,0,0.1,0.1,0.1,0.2c0,0.1-0.1,0.3-0.3,0.4c-0.2,0.1-0.5,0.2-0.7,0.2
		c-0.3,0-0.6-0.1-0.8-0.3c-0.4-0.5-0.4-1.2,0-1.6c0.2-0.2,0.5-0.3,0.8-0.3c0.1,0,0.2,0,0.3,0C21,14.1,21.1,14.2,21.2,14.2z"/>
	<path id="Trazado_737" class="st0" d="M23.3,14.6L23.3,14.6c-0.1,0-0.2,0-0.2-0.1c0-0.1-0.1-0.1-0.1-0.2c0-0.1,0-0.1,0.1-0.2
		c0.1,0,0.1-0.1,0.2-0.1h0.4c0,0,0.1,0,0.1,0c0,0,0,0,0,0.1v1.5h0c0.1,0,0.1,0,0.2,0.1c0,0.1,0.1,0.1,0.1,0.2c0,0.1,0,0.1-0.1,0.2
		c-0.1,0-0.1,0.1-0.2,0.1h-0.4c0,0-0.1,0-0.1,0c0,0,0,0,0-0.1V16c-0.1,0.1-0.1,0.2-0.2,0.3c-0.1,0.1-0.2,0.1-0.3,0.1
		c-0.2,0-0.4-0.1-0.5-0.2c-0.1-0.2-0.2-0.4-0.2-0.7v-0.8h0c-0.1,0-0.1,0-0.2-0.1c0-0.1-0.1-0.1-0.1-0.2c0-0.1,0-0.1,0.1-0.2
		c0.1,0,0.1-0.1,0.2-0.1h0.4c0,0,0.1,0,0.1,0c0,0,0,0,0,0.1v1.1c0,0.1,0,0.3,0.1,0.4c0.1,0.1,0.1,0.1,0.2,0.1c0.1,0,0.2-0.1,0.3-0.1
		c0.1-0.1,0.1-0.2,0.1-0.4L23.3,14.6z"/>
	<path id="Trazado_738" class="st0" d="M25.3,15v0.8h0.5c0.1,0,0.1,0,0.2,0.1c0,0.1,0.1,0.1,0.1,0.2c0,0.1,0,0.1-0.1,0.2
		c-0.1,0-0.1,0.1-0.2,0.1h-1.2c-0.1,0-0.1,0-0.2-0.1c0-0.1-0.1-0.1-0.1-0.2c0-0.1,0-0.1,0.1-0.2c0.1,0,0.1-0.1,0.2-0.1h0.2v-1.1
		h-0.1c-0.1,0-0.1,0-0.2-0.1c-0.1-0.1-0.1-0.3,0-0.4c0.1,0,0.1-0.1,0.2-0.1h0.5c0,0,0.1,0,0.1,0c0,0,0,0,0,0.1v0.3
		c0.1-0.2,0.3-0.3,0.4-0.4c0.1-0.1,0.3-0.1,0.4-0.1c0.1,0,0.2,0,0.3,0.1c0.1,0.1,0.1,0.2,0.1,0.3c0,0.1,0,0.2-0.1,0.2
		c-0.1,0.1-0.1,0.1-0.2,0.1c-0.1,0-0.2,0-0.2-0.1c-0.1,0-0.1-0.1-0.2-0.1c-0.1,0-0.2,0-0.2,0.1C25.5,14.8,25.4,14.9,25.3,15z"/>
	<path id="Trazado_739" class="st0" d="M27.2,16.2c0,0-0.1,0.1-0.1,0.1c0,0-0.1,0-0.1,0c0,0-0.1,0-0.1-0.1c0-0.1,0-0.1,0-0.2v-0.3
		c0-0.1,0-0.2,0-0.2c0,0,0.1-0.1,0.2-0.1c0.1,0,0.2,0.1,0.2,0.1c0,0,0,0.1,0.1,0.1c0.1,0.1,0.2,0.1,0.2,0.2c0.1,0,0.2,0.1,0.3,0.1
		c0.1,0,0.2,0,0.2-0.1c0.1,0,0.1-0.1,0.1-0.2c0-0.1-0.2-0.2-0.5-0.3c-0.1,0-0.1,0-0.2,0c-0.2,0-0.4-0.1-0.5-0.2
		c-0.1-0.1-0.2-0.3-0.2-0.4c0-0.2,0.1-0.4,0.2-0.5c0.2-0.1,0.4-0.2,0.6-0.2c0.1,0,0.2,0,0.3,0c0.1,0,0.2,0,0.3,0.1
		c0,0,0.1-0.1,0.1-0.1c0,0,0.1,0,0.1,0c0.1,0,0.1,0,0.1,0.1c0,0.1,0,0.1,0,0.2v0.3c0,0.1,0,0.1,0,0.2c0,0-0.1,0.1-0.1,0.1
		c-0.1,0-0.2-0.1-0.3-0.2c-0.1-0.1-0.3-0.2-0.4-0.2c-0.1,0-0.2,0-0.3,0.1c-0.1,0-0.1,0.1-0.1,0.2c0,0.1,0.1,0.2,0.4,0.2l0.2,0
		c0.2,0,0.5,0.1,0.7,0.2c0.1,0.1,0.2,0.3,0.2,0.5c0,0.2-0.1,0.4-0.2,0.5c-0.2,0.1-0.4,0.2-0.7,0.2c-0.1,0-0.2,0-0.3,0
		C27.4,16.3,27.3,16.3,27.2,16.2z"/>
	<path id="Trazado_740" class="st0" d="M30.2,14c0.3,0,0.6,0.1,0.8,0.3c0.4,0.5,0.4,1.2,0,1.6c-0.5,0.4-1.2,0.4-1.7,0
		c-0.2-0.2-0.3-0.5-0.3-0.8c0-0.3,0.1-0.6,0.3-0.8C29.6,14.2,29.9,14,30.2,14z M30.2,14.5c-0.2,0-0.3,0.1-0.4,0.2
		c-0.1,0.1-0.2,0.3-0.2,0.5c0,0.2,0.1,0.3,0.2,0.5c0.2,0.2,0.5,0.2,0.8,0c0,0,0,0,0,0c0.1-0.1,0.2-0.3,0.2-0.5
		c0-0.2-0.1-0.3-0.2-0.5C30.5,14.6,30.3,14.5,30.2,14.5z"/>
	<path id="Trazado_741" class="st0" d="M32,16.2c0,0-0.1,0.1-0.1,0.1c0,0-0.1,0-0.1,0c0,0-0.1,0-0.1-0.1c0-0.1,0-0.1,0-0.2v-0.3
		c0-0.1,0-0.2,0-0.2c0,0,0.1-0.1,0.2-0.1c0.1,0,0.2,0.1,0.2,0.1c0,0,0,0.1,0.1,0.1c0.1,0.1,0.2,0.1,0.2,0.2c0.1,0,0.2,0.1,0.3,0.1
		c0.1,0,0.2,0,0.2-0.1c0.1,0,0.1-0.1,0.1-0.2c0-0.1-0.2-0.2-0.5-0.3c-0.1,0-0.1,0-0.2,0c-0.2,0-0.4-0.1-0.5-0.2
		c-0.1-0.1-0.2-0.3-0.2-0.4c0-0.2,0.1-0.4,0.2-0.5c0.2-0.1,0.4-0.2,0.6-0.2c0.1,0,0.2,0,0.3,0c0.1,0,0.2,0,0.3,0.1
		c0,0,0.1-0.1,0.1-0.1c0,0,0.1,0,0.1,0c0.1,0,0.1,0,0.1,0.1c0,0.1,0.1,0.1,0,0.2v0.3c0,0.1,0,0.1,0,0.2c0,0-0.1,0.1-0.1,0.1
		c-0.1,0-0.2-0.1-0.3-0.2c-0.1-0.1-0.3-0.2-0.4-0.2c-0.1,0-0.2,0-0.3,0.1c-0.1,0-0.1,0.1-0.1,0.2c0,0.1,0.1,0.2,0.4,0.2l0.2,0
		c0.2,0,0.5,0.1,0.7,0.2c0.1,0.1,0.2,0.3,0.2,0.5c0,0.2-0.1,0.4-0.2,0.5c-0.2,0.1-0.4,0.2-0.7,0.2c-0.1,0-0.2,0-0.3,0
		C32.2,16.3,32.1,16.3,32,16.2z"/>
	<path id="Trazado_742" class="st0" d="M37.9,15.3V14h-0.1c-0.2,0-0.3-0.2-0.3-0.3c0-0.1,0-0.1,0.1-0.2c0.1,0,0.1-0.1,0.2-0.1h0.6
		c0.1,0,0.2,0.1,0.3,0.2c0,0,0,0.1,0,0.1c0,0.1,0,0.1-0.1,0.2c0,0-0.1,0.1-0.2,0.1h0v2.1c0,0,0,0.1,0,0.1c0,0-0.1,0-0.1,0H38
		c0,0-0.1,0-0.1,0c0,0-0.1,0-0.1-0.1l-0.9-1.7v1.3h0.1c0.1,0,0.1,0,0.2,0.1c0,0.1,0.1,0.1,0.1,0.2c0,0.1-0.1,0.2-0.2,0.3
		c0,0-0.1,0-0.1,0h-0.6c-0.1,0-0.1,0-0.2-0.1c0-0.1-0.1-0.1-0.1-0.2c0-0.1,0-0.1,0.1-0.2c0,0,0.1-0.1,0.2-0.1h0V14h0
		c-0.1,0-0.1,0-0.2-0.1c0-0.1-0.1-0.1-0.1-0.2c0-0.1,0.1-0.2,0.2-0.3c0,0,0.1,0,0.1,0h0.3c0.1,0,0.1,0,0.2,0c0,0,0.1,0.1,0.1,0.1
		L37.9,15.3z"/>
	<path id="Trazado_743" class="st0" d="M40.7,15.7L40.7,15.7c0.1,0,0.2,0,0.2,0.1c0,0.1,0.1,0.1,0.1,0.2c0,0.1,0,0.1-0.1,0.2
		c-0.1,0-0.1,0.1-0.2,0.1h-0.2c-0.1,0-0.1,0-0.2,0c0,0-0.1-0.1-0.1-0.2c-0.1,0.1-0.2,0.2-0.4,0.2c-0.1,0-0.3,0.1-0.4,0.1
		c-0.2,0-0.4-0.1-0.5-0.2c-0.1-0.1-0.2-0.3-0.2-0.5c0-0.2,0.1-0.4,0.3-0.5c0.2-0.1,0.5-0.2,0.7-0.2c0.1,0,0.1,0,0.2,0
		c0.1,0,0.2,0,0.3,0v0c0-0.1,0-0.2-0.1-0.3c-0.1-0.1-0.2-0.1-0.3-0.1c-0.1,0-0.2,0-0.4,0.1c-0.1,0.1-0.2,0.1-0.3,0.1
		c-0.1,0-0.1,0-0.2-0.1c0,0-0.1-0.1-0.1-0.2c0-0.1,0.1-0.2,0.3-0.3c0.2-0.1,0.5-0.1,0.7-0.1c0.2,0,0.5,0,0.6,0.2
		c0.1,0.2,0.2,0.4,0.2,0.6L40.7,15.7z M40.1,15.3c-0.1,0-0.1,0-0.2,0c-0.1,0-0.1,0-0.2,0c-0.1,0-0.3,0-0.4,0.1
		c-0.1,0-0.1,0.1-0.1,0.2c0,0.1,0,0.2,0.1,0.2c0.1,0.1,0.2,0.1,0.2,0.1c0.1,0,0.2,0,0.3,0c0.1,0,0.2-0.1,0.3-0.1L40.1,15.3z"/>
	<path id="Trazado_744" class="st0" d="M42.1,14.2h0.6c0.1,0,0.1,0,0.2,0.1c0,0.1,0.1,0.1,0.1,0.2c0,0.1,0,0.1-0.1,0.2
		c-0.1,0-0.1,0.1-0.2,0.1h-0.6v0.6c0,0.1,0,0.2,0.1,0.3c0.1,0.1,0.2,0.1,0.2,0.1c0.1,0,0.3,0,0.4-0.1c0.1,0,0.2-0.1,0.3-0.1
		c0.1,0,0.1,0,0.1,0.1c0,0.1,0.1,0.1,0.1,0.2c0,0.1-0.1,0.2-0.3,0.3c-0.2,0.1-0.4,0.2-0.7,0.1c-0.1,0-0.3,0-0.4-0.1
		c-0.1,0-0.2-0.1-0.3-0.2c0-0.1-0.1-0.1-0.1-0.2c0-0.1,0-0.3,0-0.4v-0.6h-0.2c-0.1,0-0.1,0-0.2-0.1c0-0.1-0.1-0.1-0.1-0.2
		c0-0.1,0-0.1,0.1-0.2c0.1,0,0.1-0.1,0.2-0.1h0.2v-0.5c0-0.1,0-0.2,0.1-0.2c0.1,0,0.1-0.1,0.2-0.1c0.1,0,0.1,0,0.2,0.1
		c0,0.1,0.1,0.1,0.1,0.2L42.1,14.2z"/>
	<path id="Trazado_745" class="st0" d="M44.9,14.6L44.9,14.6c-0.1,0-0.2,0-0.2-0.1c0-0.1-0.1-0.1-0.1-0.2c0-0.1,0-0.1,0.1-0.2
		c0.1,0,0.1-0.1,0.2-0.1h0.4c0,0,0.1,0,0.1,0c0,0,0,0,0,0.1v1.5h0c0.1,0,0.1,0,0.2,0.1c0,0.1,0.1,0.1,0.1,0.2c0,0.1,0,0.1-0.1,0.2
		c-0.1,0-0.1,0.1-0.2,0.1h-0.4c0,0-0.1,0-0.1,0c0,0,0,0,0-0.1V16c-0.1,0.1-0.1,0.2-0.2,0.3c-0.1,0.1-0.2,0.1-0.3,0.1
		c-0.2,0-0.4-0.1-0.5-0.2c-0.1-0.2-0.2-0.4-0.2-0.7v-0.8h0c-0.1,0-0.1,0-0.2-0.1c0-0.1-0.1-0.1-0.1-0.2c0-0.1,0-0.1,0.1-0.2
		c0.1,0,0.1-0.1,0.2-0.1h0.4c0,0,0.1,0,0.1,0c0,0,0,0,0,0.1v1.1c0,0.1,0,0.3,0.1,0.4c0.1,0.1,0.1,0.1,0.2,0.1c0.1,0,0.2-0.1,0.3-0.1
		c0.1-0.1,0.1-0.2,0.1-0.4L44.9,14.6z"/>
	<path id="Trazado_746" class="st0" d="M46.9,15v0.8h0.5c0.1,0,0.1,0,0.2,0.1c0,0.1,0.1,0.1,0.1,0.2c0,0.1,0,0.1-0.1,0.2
		c-0.1,0-0.1,0.1-0.2,0.1h-1.2c-0.1,0-0.1,0-0.2-0.1c0-0.1-0.1-0.1-0.1-0.2c0-0.1,0-0.1,0.1-0.2c0.1,0,0.1-0.1,0.2-0.1h0.2v-1.1
		h-0.1c-0.1,0-0.1,0-0.2-0.1c-0.1-0.1-0.1-0.3,0-0.4c0.1,0,0.1-0.1,0.2-0.1h0.5c0,0,0.1,0,0.1,0c0,0,0,0,0,0.1v0.3
		c0.1-0.2,0.3-0.3,0.4-0.4c0.1-0.1,0.3-0.1,0.4-0.1c0.1,0,0.2,0,0.3,0.1c0.1,0.1,0.1,0.2,0.1,0.3c0,0.1,0,0.2-0.1,0.2
		c-0.1,0.1-0.1,0.1-0.2,0.1c-0.1,0-0.2,0-0.2-0.1c-0.1,0-0.1-0.1-0.2-0.1c-0.1,0-0.2,0-0.2,0.1C47.1,14.8,47,14.9,46.9,15z"/>
	<path id="Trazado_747" class="st0" d="M50.3,15.7L50.3,15.7c0.1,0,0.2,0,0.2,0.1c0,0.1,0.1,0.1,0.1,0.2c0,0.1,0,0.1-0.1,0.2
		c-0.1,0-0.1,0.1-0.2,0.1h-0.2c-0.1,0-0.1,0-0.2,0c0,0-0.1-0.1-0.1-0.2c-0.1,0.1-0.2,0.2-0.4,0.2c-0.1,0-0.3,0.1-0.4,0.1
		c-0.2,0-0.4-0.1-0.5-0.2c-0.1-0.1-0.2-0.3-0.2-0.5c0-0.2,0.1-0.4,0.3-0.5c0.2-0.1,0.5-0.2,0.7-0.2c0.1,0,0.1,0,0.2,0
		c0.1,0,0.2,0,0.3,0v0c0-0.1,0-0.2-0.1-0.3c-0.1-0.1-0.2-0.1-0.3-0.1c-0.1,0-0.2,0-0.4,0.1c-0.1,0.1-0.2,0.1-0.3,0.1
		c-0.1,0-0.1,0-0.2-0.1c0,0-0.1-0.1-0.1-0.2c0-0.1,0.1-0.2,0.3-0.3c0.2-0.1,0.5-0.1,0.7-0.1c0.2,0,0.5,0,0.6,0.2
		c0.2,0.2,0.2,0.4,0.2,0.6L50.3,15.7z M49.8,15.3c-0.1,0-0.1,0-0.2,0c-0.1,0-0.1,0-0.2,0c-0.1,0-0.3,0-0.4,0.1
		c-0.1,0-0.1,0.1-0.1,0.2c0,0.1,0,0.2,0.1,0.2c0.1,0.1,0.2,0.1,0.2,0.1c0.1,0,0.2,0,0.3,0c0.1,0,0.2-0.1,0.3-0.1L49.8,15.3z"/>
	<path id="Trazado_748" class="st0" d="M52.1,15.7h0.5c0.1,0,0.1,0,0.2,0.1c0,0.1,0.1,0.1,0.1,0.2c0,0.1,0,0.1-0.1,0.2
		c-0.1,0-0.1,0.1-0.2,0.1h-1.4c-0.1,0-0.1,0-0.2-0.1c0-0.1-0.1-0.1-0.1-0.2c0-0.1,0-0.1,0.1-0.2c0.1,0,0.1-0.1,0.2-0.1h0.5v-2h-0.2
		c-0.1,0-0.1,0-0.2-0.1c0-0.1-0.1-0.1-0.1-0.2c0-0.1,0-0.1,0.1-0.2c0.1,0,0.1-0.1,0.2-0.1H52c0,0,0.1,0,0.1,0c0,0,0,0,0,0.1
		L52.1,15.7z"/>
	<path id="Trazado_749" class="st0" d="M53.6,15.3c0,0.3,0.3,0.5,0.6,0.5c0.2,0,0.4-0.1,0.5-0.1c0.1-0.1,0.2-0.1,0.3-0.1
		c0.1,0,0.1,0,0.1,0.1c0,0,0.1,0.1,0.1,0.2c0,0.1-0.1,0.3-0.3,0.4c-0.2,0.1-0.5,0.2-0.7,0.2c-0.3,0-0.6-0.1-0.8-0.3
		c-0.4-0.5-0.4-1.2,0-1.6c0.2-0.2,0.5-0.3,0.8-0.3c0.3,0,0.6,0.1,0.8,0.3c0.2,0.2,0.3,0.5,0.3,0.7c0,0.1,0,0.1-0.1,0.2
		c-0.1,0-0.2,0.1-0.2,0.1L53.6,15.3z M54.8,15c0-0.1-0.1-0.3-0.2-0.3c-0.1-0.1-0.2-0.1-0.4-0.1c-0.1,0-0.3,0-0.4,0.1
		c-0.1,0.1-0.2,0.2-0.2,0.3L54.8,15z"/>
	<path id="Trazado_750" class="st0" d="M56.1,16.2c0,0-0.1,0.1-0.1,0.1c0,0-0.1,0-0.1,0c0,0-0.1,0-0.1-0.1c0-0.1,0-0.1,0-0.2v-0.3
		c0-0.1,0-0.2,0-0.2c0,0,0.1-0.1,0.2-0.1c0.1,0,0.2,0.1,0.2,0.1c0,0,0.1,0.1,0.1,0.1c0.1,0.1,0.2,0.1,0.2,0.2c0.1,0,0.2,0.1,0.3,0.1
		c0.1,0,0.2,0,0.2-0.1c0.1,0,0.1-0.1,0.1-0.2c0-0.1-0.2-0.2-0.5-0.3c-0.1,0-0.1,0-0.2,0c-0.2,0-0.4-0.1-0.5-0.2
		c-0.1-0.1-0.2-0.3-0.2-0.4c0-0.2,0.1-0.4,0.2-0.5c0.2-0.1,0.4-0.2,0.6-0.2c0.1,0,0.2,0,0.3,0c0.1,0,0.2,0,0.3,0.1
		c0,0,0.1-0.1,0.1-0.1c0,0,0.1,0,0.1,0c0.1,0,0.1,0,0.1,0.1c0,0.1,0.1,0.1,0,0.2v0.3c0,0.1,0,0.1,0,0.2c0,0-0.1,0.1-0.1,0.1
		c-0.1,0-0.2-0.1-0.3-0.2c-0.1-0.1-0.3-0.2-0.4-0.2c-0.1,0-0.2,0-0.3,0.1c-0.1,0-0.1,0.1-0.1,0.2c0,0.1,0.1,0.2,0.4,0.2l0.2,0
		c0.2,0,0.5,0.1,0.7,0.2c0.1,0.1,0.2,0.3,0.2,0.5c0,0.2-0.1,0.4-0.2,0.5c-0.2,0.1-0.4,0.2-0.7,0.2c-0.1,0-0.2,0-0.3,0
		C56.3,16.3,56.2,16.3,56.1,16.2z"/>
</g>
</svg>
