<?xml version="1.0" encoding="utf-8"?>
<!-- Generator: Adobe Illustrator 24.2.3, SVG Export Plug-In . SVG Version: 6.00 Build 0)  -->
<svg version="1.1" id="Capa_1" xmlns="http://www.w3.org/2000/svg" xmlns:xlink="http://www.w3.org/1999/xlink" x="0px" y="0px"
	 viewBox="0 0 47.5 14.4" style="enable-background:new 0 0 47.5 14.4;" xml:space="preserve">
<style type="text/css">
	.st0{fill:#A0A0A0;}
</style>
<g id="MIFIC" transform="translate(-947.997 -516.812)">
	<path id="Trazado_792" class="st0" d="M948.6,527.2c0.4,0.1,0.8-0.1,1.1-0.3c0.2-0.3,0.3-0.6,0.3-0.9v-7.2c0-0.3-0.1-0.6-0.3-0.8
		c-0.3-0.2-0.7-0.3-1.1-0.3v-0.4h3.8l3,7h0.1l3-7h3.8v0.4c-0.4,0-0.7,0.1-1.1,0.3c-0.2,0.1-0.3,0.5-0.3,1.1v6.7
		c-0.1,0.4,0,0.8,0.3,1.1c0.3,0.2,0.7,0.3,1.1,0.3v0.4h-5v-0.4c0.4,0,0.7-0.1,1-0.2c0.2-0.1,0.3-0.4,0.3-0.9v-7.4h-0.1l-3.7,8.9
		h-0.4l-3.8-8.7h-0.1v6.9c0,0.4,0.1,0.8,0.3,1.1c0.3,0.3,0.8,0.4,1.2,0.4v0.4h-3.5L948.6,527.2z"/>
	<path id="Trazado_793" class="st0" d="M963,527.2c0.3,0,0.6,0,0.9-0.2c0.3-0.2,0.5-0.5,0.5-0.9v-7.4c0-0.4-0.1-0.7-0.4-0.9
		c-0.3-0.1-0.6-0.2-0.9-0.2v-0.4h5.3v0.4c-0.3,0-0.7,0-1,0.2c-0.3,0.2-0.5,0.5-0.4,0.9v7.4c0,0.3,0.1,0.7,0.4,0.9
		c0.3,0.2,0.7,0.2,1.1,0.2v0.4H963L963,527.2z"/>
	<path id="Trazado_794" class="st0" d="M969,527.2c0.3,0,0.6-0.1,0.9-0.2c0.3-0.2,0.5-0.5,0.4-0.9v-7.3c0-0.4-0.1-0.7-0.4-0.9
		c-0.3-0.1-0.6-0.2-0.9-0.2v-0.4h8.6v3.1h-0.4c-0.1-0.7-0.4-1.4-0.9-2c-0.7-0.5-1.6-0.7-2.5-0.6c-0.3,0-0.6,0-0.8,0.2
		c-0.1,0.2-0.2,0.4-0.2,0.6v3.5c0.6,0.1,1.2-0.1,1.7-0.5c0.4-0.5,0.6-1.1,0.7-1.7h0.4v5.1h-0.4c0-0.6-0.3-1.3-0.6-1.8
		c-0.5-0.4-1.1-0.6-1.7-0.6v3.5c0,0.5,0.1,0.8,0.4,0.9c0.4,0.1,0.8,0.2,1.3,0.2v0.4H969V527.2z"/>
	<path id="Trazado_795" class="st0" d="M978.4,527.2c0.3,0,0.6,0,0.9-0.2c0.3-0.2,0.5-0.5,0.5-0.9v-7.4c0-0.4-0.1-0.7-0.4-0.9
		c-0.3-0.1-0.6-0.2-0.9-0.2v-0.4h5.3v0.4c-0.3,0-0.7,0-1,0.2c-0.3,0.2-0.5,0.5-0.4,0.9v7.4c0,0.3,0.1,0.7,0.4,0.9
		c0.3,0.2,0.7,0.2,1.1,0.2v0.4h-5.3L978.4,527.2z"/>
	<path id="Trazado_796" class="st0" d="M991.9,517.5c0.4,0.1,0.7,0.3,1.1,0.4c0.2,0,0.4-0.1,0.5-0.2c0.1-0.1,0.2-0.3,0.2-0.5h0.4
		v3.6h-0.4c-0.3-0.7-0.7-1.3-1.1-1.8c-0.6-0.8-1.5-1.2-2.4-1.2c-0.9-0.1-1.8,0.5-2.2,1.3c-0.5,1.1-0.7,2.3-0.6,3.5
		c0,0.9,0.1,1.8,0.4,2.7c0.3,1.2,1.4,2,2.6,2c0.8,0,1.5-0.2,2.2-0.7c0.5-0.4,1-0.8,1.4-1.2l0.5,0.4c-0.5,0.5-1,1-1.6,1.4
		c-0.8,0.5-1.7,0.8-2.7,0.8c-1.4,0-2.7-0.4-3.8-1.3c-1.1-1-1.7-2.5-1.7-4c-0.1-1.5,0.5-3,1.6-4c1-1,2.3-1.5,3.7-1.4
		C990.6,517.1,991.3,517.3,991.9,517.5z"/>
	<path id="Trazado_797" class="st0" d="M948.5,530.5c0,0,0.1,0,0.1,0c0,0,0-0.1,0-0.1v-0.8c0,0,0-0.1,0-0.1c0,0-0.1,0-0.1,0v0h0.4
		l0.3,0.8h0l0.3-0.8h0.4v0c0,0-0.1,0-0.1,0c0,0,0,0.1,0,0.1v0.8c0,0,0,0.1,0,0.1c0,0,0.1,0,0.1,0v0h-0.6v0c0,0,0.1,0,0.1,0
		c0,0,0-0.1,0-0.1v-0.9h0l-0.4,1h0l-0.4-1h0v0.8c0,0,0,0.1,0,0.1c0,0,0.1,0,0.1,0v0L948.5,530.5L948.5,530.5z"/>
	<path id="Trazado_798" class="st0" d="M950.2,530.5c0,0,0.1,0,0.1,0c0,0,0.1-0.1,0.1-0.1v-0.9c0,0,0-0.1-0.1-0.1c0,0-0.1,0-0.1,0v0
		h0.6v0c0,0-0.1,0-0.1,0c0,0-0.1,0.1-0.1,0.1v0.9c0,0,0,0.1,0,0.1c0,0,0.1,0,0.1,0v0L950.2,530.5L950.2,530.5z"/>
	<path id="Trazado_799" class="st0" d="M950.9,530.5c0,0,0.1,0,0.1,0c0,0,0-0.1,0-0.1v-0.8c0,0-0.1-0.1-0.1-0.1c0,0,0,0-0.1,0v0h0.4
		l0.6,0.7h0v-0.5c0,0,0-0.1,0-0.1c0,0-0.1,0-0.1,0v0h0.4v0c0,0-0.1,0-0.1,0c0,0,0,0.1,0,0.1v1h0l-0.8-0.9h0v0.7c0,0,0,0.1,0,0.1
		c0,0,0.1,0.1,0.1,0.1v0L950.9,530.5L950.9,530.5z"/>
	<path id="Trazado_800" class="st0" d="M952.2,530.5c0,0,0.1,0,0.1,0c0,0,0.1-0.1,0.1-0.1v-0.9c0,0,0-0.1-0.1-0.1c0,0-0.1,0-0.1,0v0
		h0.6v0c0,0-0.1,0-0.1,0c0,0-0.1,0.1-0.1,0.1v0.9c0,0,0,0.1,0,0.1c0,0,0.1,0,0.1,0v0L952.2,530.5L952.2,530.5z"/>
	<path id="Trazado_801" class="st0" d="M952.9,530.2L952.9,530.2c0.1,0.1,0.1,0.2,0.2,0.3c0.1,0.1,0.1,0.1,0.2,0.1
		c0.1,0,0.2-0.1,0.2-0.2c0,0,0,0,0,0c0,0,0-0.1-0.1-0.1c0,0-0.1-0.1-0.1-0.1l-0.1-0.1c-0.1,0-0.2-0.1-0.2-0.2c0-0.1-0.1-0.1-0.1-0.2
		c0-0.1,0-0.2,0.1-0.2c0.1-0.1,0.2-0.1,0.3-0.1c0.1,0,0.1,0,0.2,0c0,0,0.1,0,0.1,0c0,0,0,0,0,0c0,0,0,0,0,0h0.1v0.4h-0.1
		c0-0.1-0.1-0.2-0.1-0.2c-0.1-0.1-0.1-0.1-0.2-0.1c-0.1,0-0.1,0-0.1,0c0,0-0.1,0.1-0.1,0.1c0,0,0,0.1,0,0.1c0.1,0,0.1,0.1,0.2,0.1
		l0.1,0.1c0.1,0,0.1,0.1,0.1,0.1c0.1,0.1,0.1,0.2,0.1,0.2c0,0.1,0,0.2-0.1,0.3c-0.1,0.1-0.2,0.1-0.3,0.1c0,0-0.1,0-0.1,0
		c0,0-0.1,0-0.1,0l0,0l0,0h0c0,0,0,0,0,0c0,0,0,0,0,0h-0.1L952.9,530.2z"/>
	<path id="Trazado_802" class="st0" d="M953.9,529.4h1.1v0.4h-0.1c0-0.1-0.1-0.2-0.1-0.3c-0.1,0-0.1,0-0.2,0v0.9c0,0,0,0.1,0,0.1
		c0,0,0.1,0,0.1,0v0h-0.6v0c0,0,0.1,0,0.1,0c0,0,0-0.1,0-0.1v-0.9c-0.1,0-0.1,0-0.2,0c-0.1,0.1-0.1,0.2-0.1,0.3h-0.1L953.9,529.4z"
		/>
	<path id="Trazado_803" class="st0" d="M955,530.6L955,530.6c0,0,0.1-0.1,0.1-0.1c0,0,0.1-0.1,0-0.1v-0.9c0,0,0-0.1-0.1-0.1
		c0,0-0.1,0-0.1,0v0h1v0.4h0c0-0.1,0-0.2-0.1-0.2c-0.1-0.1-0.2-0.1-0.3-0.1c0,0-0.1,0-0.1,0c0,0,0,0,0,0.1v0.4c0.1,0,0.1,0,0.2-0.1
		c0-0.1,0.1-0.1,0.1-0.2h0v0.6h0c0-0.1,0-0.2-0.1-0.2c-0.1,0-0.1-0.1-0.2-0.1v0.4c0,0,0,0.1,0,0.1c0,0,0.1,0,0.1,0
		c0.1,0,0.2,0,0.3-0.1c0.1-0.1,0.2-0.1,0.2-0.2h0l-0.1,0.4L955,530.6z"/>
	<path id="Trazado_804" class="st0" d="M956.2,530.5c0,0,0.1,0,0.1,0c0,0,0-0.1,0-0.1v-0.8c0,0,0-0.1,0-0.1c0,0-0.1,0-0.1,0v0h0.6
		c0.1,0,0.2,0,0.3,0c0.1,0,0.2,0.1,0.2,0.3c0,0.1,0,0.2-0.1,0.2c-0.1,0-0.1,0.1-0.2,0.1l0.4,0.5c0,0,0,0,0,0c0,0,0,0,0,0v0h-0.4
		l-0.4-0.6l0,0v0.3c0,0.1,0,0.1,0.1,0.2c0,0,0,0,0.1,0v0L956.2,530.5L956.2,530.5z M956.9,529.9c0,0,0.1-0.1,0.1-0.2
		c0-0.1,0-0.1,0-0.2c0-0.1-0.1-0.1-0.2-0.1c0,0-0.1,0-0.1,0c0,0,0,0,0,0.1v0.4C956.7,530,956.8,530,956.9,529.9z"/>
	<path id="Trazado_805" class="st0" d="M957.5,530.5c0,0,0.1,0,0.1,0c0,0,0.1-0.1,0.1-0.1v-0.9c0,0,0-0.1-0.1-0.1c0,0-0.1,0-0.1,0v0
		h0.6v0c0,0-0.1,0-0.1,0c0,0-0.1,0.1-0.1,0.1v0.9c0,0,0,0.1,0,0.1c0,0,0.1,0,0.1,0v0L957.5,530.5L957.5,530.5z"/>
	<path id="Trazado_806" class="st0" d="M959.3,529.5c0.1,0.1,0.2,0.3,0.2,0.5c0,0.3-0.3,0.6-0.6,0.7c-0.3,0-0.6-0.3-0.7-0.6
		c0,0,0,0,0,0c0-0.2,0.1-0.3,0.2-0.5c0.1-0.1,0.3-0.2,0.5-0.2C959,529.4,959.2,529.4,959.3,529.5z M959.1,530.3c0-0.1,0-0.2,0-0.3
		c0-0.1,0-0.3-0.1-0.4c0-0.1-0.1-0.1-0.2-0.1c-0.1,0-0.2,0.1-0.3,0.2c0,0.1,0,0.2,0,0.3c0,0.1,0,0.2,0,0.3c0,0.1,0.1,0.2,0.3,0.2
		C959,530.6,959.1,530.5,959.1,530.3L959.1,530.3z"/>
	<path id="Trazado_807" class="st0" d="M960,530.5C960.1,530.5,960.1,530.5,960,530.5c0.1,0,0.2-0.1,0.2-0.1v-0.9c0,0,0-0.1,0-0.1
		c0,0-0.1,0-0.1,0v0h0.5c0.2,0,0.4,0,0.5,0.2c0.1,0.1,0.2,0.3,0.2,0.4c0,0.2-0.1,0.3-0.2,0.4c-0.1,0.1-0.3,0.2-0.5,0.2L960,530.5
		L960,530.5z M960.5,530.5C960.5,530.5,960.5,530.5,960.5,530.5c0.2,0,0.3,0,0.3-0.1c0.1-0.1,0.1-0.3,0.1-0.4c0-0.1,0-0.2-0.1-0.3
		c0-0.1-0.2-0.2-0.3-0.2c0,0-0.1,0-0.1,0c0,0,0,0,0,0.1L960.5,530.5C960.5,530.4,960.5,530.5,960.5,530.5z"/>
	<path id="Trazado_808" class="st0" d="M961.3,530.6L961.3,530.6c0,0,0.1-0.1,0.1-0.1c0,0,0.1-0.1,0-0.1v-0.9c0,0,0-0.1-0.1-0.1
		c0,0-0.1,0-0.1,0v0h1v0.4h0c0-0.1,0-0.2-0.1-0.2c-0.1-0.1-0.2-0.1-0.3-0.1c0,0-0.1,0-0.1,0c0,0,0,0,0,0.1v0.4c0.1,0,0.1,0,0.2-0.1
		c0-0.1,0.1-0.1,0.1-0.2h0v0.6h0c0-0.1,0-0.2-0.1-0.2c-0.1,0-0.1-0.1-0.2-0.1v0.4c0,0,0,0.1,0,0.1c0,0,0.1,0,0.1,0
		c0.1,0,0.2,0,0.3-0.1c0.1-0.1,0.2-0.1,0.2-0.2h0l-0.1,0.4L961.3,530.6z"/>
	<path id="Trazado_809" class="st0" d="M962.9,530.5c0,0,0.1,0,0.1,0c0,0,0.1-0.1,0-0.1v-0.9c0,0,0-0.1,0-0.1c0,0-0.1,0-0.1,0v0h1
		v0.4h0c0-0.1,0-0.2-0.1-0.2c-0.1-0.1-0.2-0.1-0.3-0.1c0,0-0.1,0-0.1,0c0,0,0,0,0,0.1v0.4c0.1,0,0.1,0,0.2-0.1
		c0-0.1,0.1-0.1,0.1-0.2h0v0.6h0c0-0.1,0-0.1-0.1-0.2c-0.1-0.1-0.1-0.1-0.2-0.1v0.4c0,0.1,0,0.1,0,0.1c0,0,0.1,0,0.1,0v0
		L962.9,530.5L962.9,530.5z"/>
	<path id="Trazado_810" class="st0" d="M965.1,529.5c0.3,0.2,0.3,0.6,0,0.9c-0.2,0.3-0.6,0.3-0.9,0c-0.1-0.1-0.2-0.3-0.2-0.5
		c0-0.2,0.1-0.3,0.2-0.5c0.1-0.1,0.3-0.2,0.5-0.2C964.9,529.4,965,529.4,965.1,529.5z M965,530.3c0-0.1,0-0.2,0-0.3
		c0-0.1,0-0.3-0.1-0.4c0-0.1-0.1-0.1-0.2-0.1c-0.1,0-0.2,0.1-0.3,0.2c0,0.1,0,0.2,0,0.3c0,0.1,0,0.2,0,0.3c0,0.2,0.2,0.3,0.3,0.2
		C964.8,530.5,964.9,530.4,965,530.3L965,530.3z"/>
	<path id="Trazado_811" class="st0" d="M965.4,530.5c0,0,0.1,0,0.1,0c0,0,0-0.1,0-0.1v-0.8c0,0,0-0.1,0-0.1c0,0-0.1,0-0.1,0v0h0.4
		l0.3,0.8h0l0.3-0.8h0.4v0c0,0-0.1,0-0.1,0c0,0,0,0.1,0,0.1v0.8c0,0,0,0.1,0,0.1c0,0,0.1,0,0.1,0v0h-0.6v0c0,0,0.1,0,0.1,0
		c0,0,0-0.1,0-0.1v-0.9h0l-0.4,1h0l-0.4-1h0v0.8c0,0,0,0.1,0,0.1c0,0,0.1,0.1,0.1,0v0L965.4,530.5L965.4,530.5z"/>
	<path id="Trazado_812" class="st0" d="M967.1,530.6L967.1,530.6c0,0,0.1-0.1,0.1-0.1c0,0,0.1-0.1,0-0.1v-0.9c0,0,0-0.1,0-0.1
		c0,0-0.1,0-0.1,0v0h1v0.4h0c0-0.1,0-0.2-0.1-0.2c-0.1-0.1-0.2-0.1-0.3-0.1c0,0-0.1,0-0.1,0c0,0,0,0,0,0.1v0.4c0.1,0,0.1,0,0.2-0.1
		c0-0.1,0.1-0.1,0.1-0.2h0v0.6h0c0-0.1,0-0.2-0.1-0.2c-0.1,0-0.1-0.1-0.2-0.1v0.4c0,0,0,0.1,0,0.1c0,0,0.1,0,0.1,0
		c0.1,0,0.2,0,0.3-0.1c0.1-0.1,0.2-0.1,0.2-0.2h0l-0.1,0.4L967.1,530.6z"/>
	<path id="Trazado_813" class="st0" d="M968.3,530.5c0,0,0.1,0,0.1,0c0,0,0-0.1,0-0.1v-0.8c0,0-0.1-0.1-0.1-0.1c0,0,0,0-0.1,0v0h0.4
		l0.6,0.7h0v-0.5c0,0,0-0.1,0-0.1c0,0-0.1,0-0.1,0v0h0.4v0c0,0-0.1,0-0.1,0c0,0,0,0.1,0,0.1v1h0l-0.8-0.9h0v0.7c0,0,0,0.1,0,0.1
		c0,0,0.1,0.1,0.1,0.1v0L968.3,530.5L968.3,530.5z"/>
	<path id="Trazado_814" class="st0" d="M969.6,529.4h1.1v0.4h0c0-0.1-0.1-0.2-0.1-0.3c-0.1,0-0.1,0-0.2,0v0.9c0,0,0,0.1,0,0.1
		c0,0,0.1,0,0.1,0v0h-0.6v0c0,0,0.1,0,0.1,0c0,0,0-0.1,0-0.1v-0.9c-0.1,0-0.1,0-0.2,0c-0.1,0.1-0.1,0.2-0.1,0.3h-0.1V529.4z"/>
	<path id="Trazado_815" class="st0" d="M971.8,529.5c0.1,0.1,0.2,0.3,0.2,0.5c0,0.4-0.3,0.6-0.6,0.6c-0.2,0-0.3-0.1-0.4-0.2
		c-0.1-0.1-0.2-0.3-0.2-0.4c0-0.2,0.1-0.3,0.2-0.5C971.2,529.3,971.6,529.3,971.8,529.5L971.8,529.5z M971.6,530.3
		c0-0.1,0-0.2,0-0.3c0-0.1,0-0.3-0.1-0.4c0-0.1-0.1-0.1-0.2-0.1c-0.1,0-0.2,0.1-0.3,0.2c0,0.1,0,0.2,0,0.3c0,0.1,0,0.2,0,0.3
		c0,0.1,0.1,0.2,0.3,0.2C971.5,530.6,971.6,530.5,971.6,530.3L971.6,530.3z"/>
	<path id="Trazado_816" class="st0" d="M972.2,530.9c0,0,0.1-0.1,0.1-0.1c0,0,0.1-0.1,0.1-0.1c0,0,0,0,0,0c0,0,0,0,0,0h0
		c0,0-0.1,0-0.1,0c0,0,0-0.1,0-0.1c0,0,0-0.1,0-0.1c0,0,0.1,0,0.1,0c0,0,0.1,0,0.1,0.1c0,0,0.1,0.1,0.1,0.1c0,0.1,0,0.2-0.1,0.3
		C972.4,530.8,972.3,530.9,972.2,530.9L972.2,530.9z"/>
	<path id="Trazado_817" class="st0" d="M973,530.5c0,0,0.1,0,0.1,0c0,0,0.1-0.1,0.1-0.1v-0.9c0,0,0-0.1-0.1-0.1c0,0-0.1,0-0.1,0v0
		h0.6v0c0,0-0.1,0-0.1,0c0,0-0.1,0.1-0.1,0.1v0.9c0,0,0,0.1,0,0.1c0,0,0.1,0,0.1,0v0L973,530.5L973,530.5z"/>
	<path id="Trazado_818" class="st0" d="M973.7,530.5c0,0,0.1,0,0.1,0c0,0,0-0.1,0-0.1v-0.8c0,0-0.1-0.1-0.1-0.1c0,0,0,0-0.1,0v0h0.4
		l0.6,0.7h0v-0.5c0,0,0-0.1,0-0.1c0,0-0.1,0-0.1,0v0h0.4v0c0,0-0.1,0-0.1,0c0,0,0,0.1,0,0.1v1h0l-0.8-0.9h0v0.7c0,0,0,0.1,0,0.1
		c0,0,0.1,0.1,0.1,0.1v0L973.7,530.5L973.7,530.5z"/>
	<path id="Trazado_819" class="st0" d="M975,530.5C975,530.5,975,530.5,975,530.5c0.1,0,0.2-0.1,0.2-0.1v-0.9c0,0,0-0.1,0-0.1
		c0,0-0.1,0-0.1,0v0h0.5c0.2,0,0.4,0,0.5,0.2c0.1,0.1,0.2,0.3,0.2,0.4c0,0.2-0.1,0.3-0.2,0.4c-0.1,0.1-0.3,0.2-0.5,0.2L975,530.5
		L975,530.5z M975.4,530.5C975.4,530.5,975.4,530.5,975.4,530.5c0.2,0,0.3,0,0.3-0.1c0.1-0.1,0.1-0.3,0.1-0.4c0-0.1,0-0.2-0.1-0.3
		c0-0.1-0.2-0.2-0.3-0.2c0,0-0.1,0-0.1,0c0,0,0,0,0,0.1L975.4,530.5C975.4,530.4,975.4,530.5,975.4,530.5z"/>
	<path id="Trazado_820" class="st0" d="M976.8,529.4L976.8,529.4c0,0-0.1,0.1-0.1,0.1c0,0,0,0.1,0,0.1v0.6c0,0.1,0,0.1,0,0.2
		c0,0.1,0.1,0.1,0.2,0.1c0.1,0,0.2,0,0.3-0.2c0-0.1,0-0.2,0-0.2v-0.5c0,0,0-0.1,0-0.1c0,0-0.1,0-0.1,0v0h0.4v0c0,0-0.1,0-0.1,0
		c0,0,0,0.1,0,0.1v0.6c0,0.1,0,0.2-0.1,0.3c-0.1,0.1-0.2,0.1-0.3,0.1c-0.2,0-0.3-0.1-0.4-0.2c0-0.1-0.1-0.2-0.1-0.2v-0.6
		c0,0,0-0.1,0-0.1c0,0-0.1,0-0.1,0v0L976.8,529.4z"/>
	<path id="Trazado_821" class="st0" d="M977.6,530.2L977.6,530.2c0.1,0.1,0.1,0.2,0.2,0.3c0.1,0.1,0.1,0.1,0.2,0.1
		c0.1,0,0.2-0.1,0.2-0.2c0,0,0,0,0,0c0,0,0-0.1-0.1-0.1c0,0-0.1-0.1-0.1-0.1l-0.1-0.1c-0.1,0-0.2-0.1-0.2-0.2c0-0.1-0.1-0.1-0.1-0.2
		c0-0.1,0-0.2,0.1-0.2c0.1-0.1,0.2-0.1,0.3-0.1c0.1,0,0.1,0,0.2,0c0,0,0.1,0,0.1,0c0,0,0,0,0,0c0,0,0,0,0,0h0.1v0.4h0
		c0-0.1-0.1-0.2-0.1-0.2c-0.1-0.1-0.1-0.1-0.2-0.1c-0.1,0-0.1,0-0.1,0c0,0-0.1,0.1-0.1,0.1c0,0,0,0.1,0,0.1c0.1,0,0.1,0.1,0.2,0.1
		l0.1,0.1c0.1,0,0.1,0.1,0.1,0.1c0.1,0.1,0.1,0.2,0.1,0.2c0,0.1,0,0.2-0.1,0.3c-0.1,0.1-0.2,0.1-0.3,0.1c0,0-0.1,0-0.1,0
		c0,0-0.1,0-0.1,0l0,0l0,0h0c0,0,0,0,0,0c0,0,0,0,0,0h0L977.6,530.2z"/>
	<path id="Trazado_822" class="st0" d="M978.5,529.4h1.1v0.4h-0.1c0-0.1-0.1-0.2-0.1-0.3c-0.1,0-0.1,0-0.2,0v0.9c0,0,0,0.1,0,0.1
		c0,0,0.1,0,0.1,0v0h-0.6v0c0,0,0.1,0,0.1,0c0,0,0-0.1,0-0.1v-0.9c-0.1,0-0.1,0-0.2,0c-0.1,0.1-0.1,0.2-0.1,0.3h0L978.5,529.4z"/>
	<path id="Trazado_823" class="st0" d="M979.7,530.5c0,0,0.1,0,0.1,0c0,0,0-0.1,0-0.1v-0.8c0,0,0-0.1,0-0.1c0,0-0.1,0-0.1,0v0h0.6
		c0.1,0,0.2,0,0.3,0c0.1,0,0.2,0.1,0.2,0.3c0,0.1,0,0.2-0.1,0.2c-0.1,0-0.1,0.1-0.2,0.1l0.4,0.5c0,0,0,0,0,0c0,0,0,0,0,0v0h-0.4
		l-0.4-0.6l0,0v0.3c0,0.1,0,0.1,0.1,0.2c0,0,0,0,0.1,0v0L979.7,530.5L979.7,530.5z M980.4,529.9c0,0,0.1-0.1,0.1-0.2
		c0-0.1,0-0.1,0-0.2c0-0.1-0.1-0.1-0.2-0.1c0,0-0.1,0-0.1,0c0,0,0,0,0,0.1v0.4C980.2,530,980.3,530,980.4,529.9L980.4,529.9z"/>
	<path id="Trazado_824" class="st0" d="M981,530.5c0,0,0.1,0,0.1,0c0,0,0.1-0.1,0.1-0.1v-0.9c0,0,0-0.1-0.1-0.1c0,0-0.1,0-0.1,0v0
		h0.6v0c0,0-0.1,0-0.1,0c0,0-0.1,0.1-0.1,0.1v0.9c0,0,0,0.1,0,0.1c0,0,0.1,0,0.1,0v0L981,530.5L981,530.5z"/>
	<path id="Trazado_825" class="st0" d="M981.7,530.5C981.7,530.5,981.8,530.5,981.7,530.5c0.1-0.1,0.2-0.2,0.2-0.2l0.4-1h0l0.4,0.9
		c0,0.1,0.1,0.1,0.1,0.2c0,0,0.1,0,0.1,0v0h-0.6v0c0,0,0.1,0,0.1,0c0,0,0,0,0-0.1c0,0,0,0,0-0.1c0,0,0,0,0-0.1l0-0.1H982
		c0,0.1,0,0.1,0,0.1c0,0,0,0.1,0,0.1c0,0,0,0,0.1,0.1c0,0,0.1,0,0.1,0v0L981.7,530.5L981.7,530.5z M982.3,530.2l-0.2-0.4h0l-0.2,0.4
		H982.3z"/>
	<path id="Trazado_826" class="st0" d="M983.8,529.4L983.8,529.4c0,0-0.1,0.1-0.1,0.1c0,0,0,0,0,0c0,0,0,0,0,0c0,0,0,0,0,0.1
		l0.2,0.4l0,0l0.2-0.3c0,0,0,0,0-0.1c0,0,0-0.1,0-0.1c0,0,0-0.1,0-0.1c0,0-0.1,0-0.1,0v0h0.4v0c0,0,0,0-0.1,0c0,0,0,0-0.1,0L984,530
		v0.3c0,0.1,0,0.1,0,0.1c0,0,0.1,0,0.1,0v0h-0.6v0c0,0,0.1,0,0.1,0c0,0,0-0.1,0-0.1v-0.3l-0.3-0.6c0,0,0-0.1-0.1-0.1c0,0,0,0-0.1,0
		v0L983.8,529.4z"/>
	<path id="Trazado_827" class="st0" d="M985.8,529.4c0,0,0.1,0,0.1,0c0,0,0,0,0.1,0c0,0,0,0,0-0.1h0v0.4h0c0-0.1-0.1-0.1-0.1-0.2
		c-0.1-0.1-0.2-0.1-0.3-0.1c-0.1,0-0.2,0.1-0.3,0.2c-0.1,0.2-0.1,0.5,0,0.7c0,0.1,0.2,0.2,0.3,0.2c0.1,0,0.2,0,0.3-0.1
		c0.1,0,0.1-0.1,0.2-0.1l0.1,0c-0.1,0.1-0.1,0.1-0.2,0.2c-0.1,0.1-0.2,0.1-0.3,0.1c-0.2,0-0.3-0.1-0.4-0.2c-0.1-0.1-0.2-0.3-0.2-0.5
		c0-0.2,0.1-0.3,0.2-0.5c0.1-0.1,0.3-0.2,0.4-0.2C985.6,529.4,985.7,529.4,985.8,529.4z"/>
	<path id="Trazado_828" class="st0" d="M987.3,529.5c0.1,0.1,0.2,0.3,0.2,0.5c0,0.4-0.3,0.6-0.6,0.6c-0.2,0-0.3-0.1-0.4-0.2
		c-0.1-0.1-0.2-0.3-0.2-0.4c0-0.2,0.1-0.3,0.2-0.5C986.6,529.3,987,529.3,987.3,529.5L987.3,529.5z M987.1,530.3c0-0.1,0-0.2,0-0.3
		c0-0.1,0-0.3-0.1-0.4c0-0.1-0.1-0.1-0.2-0.1c-0.1,0-0.2,0.1-0.3,0.2c0,0.1,0,0.2,0,0.3c0,0.1,0,0.2,0,0.3c0,0.1,0.1,0.2,0.3,0.2
		C987,530.6,987.1,530.5,987.1,530.3L987.1,530.3z"/>
	<path id="Trazado_829" class="st0" d="M987.6,530.5c0,0,0.1,0,0.1,0c0,0,0-0.1,0-0.1v-0.8c0,0,0-0.1,0-0.1c0,0-0.1,0-0.1,0v0h0.4
		l0.3,0.8h0l0.3-0.8h0.4v0c0,0-0.1,0-0.1,0c0,0,0,0.1,0,0.1v0.8c0,0,0,0.1,0,0.1c0,0,0.1,0,0.1,0v0h-0.6v0c0,0,0.1,0,0.1,0
		c0,0,0-0.1,0-0.1v-0.9h0l-0.4,1h0l-0.4-1h0v0.8c0,0,0,0.1,0,0.1c0,0,0.1,0.1,0.1,0v0L987.6,530.5L987.6,530.5z"/>
	<path id="Trazado_830" class="st0" d="M989.3,530.6L989.3,530.6c0,0,0.1-0.1,0.1-0.1c0,0,0.1-0.1,0-0.1v-0.9c0,0,0-0.1-0.1-0.1
		c0,0-0.1,0-0.1,0v0h1v0.4h0c0-0.1,0-0.2-0.1-0.2c-0.1-0.1-0.2-0.1-0.3-0.1c0,0-0.1,0-0.1,0c0,0,0,0,0,0.1v0.4c0.1,0,0.1,0,0.2-0.1
		c0-0.1,0.1-0.1,0.1-0.2h0v0.6h0c0-0.1,0-0.2-0.1-0.2c-0.1,0-0.1-0.1-0.2-0.1v0.4c0,0,0,0.1,0,0.1c0,0,0.1,0,0.1,0
		c0.1,0,0.2,0,0.3-0.1c0.1-0.1,0.2-0.1,0.2-0.2h0l-0.1,0.4L989.3,530.6z"/>
	<path id="Trazado_831" class="st0" d="M990.4,530.5c0,0,0.1,0,0.1,0c0,0,0-0.1,0-0.1v-0.8c0,0,0-0.1,0-0.1c0,0-0.1,0-0.1,0v0h0.6
		c0.1,0,0.2,0,0.3,0c0.1,0,0.2,0.1,0.2,0.3c0,0.1,0,0.2-0.1,0.2c-0.1,0-0.1,0.1-0.2,0.1l0.4,0.5c0,0,0,0,0,0c0,0,0,0,0,0v0h-0.4
		l-0.4-0.6l0,0v0.3c0,0,0,0.1,0,0.1c0,0,0.1,0,0.1,0v0L990.4,530.5L990.4,530.5z M991.1,529.9c0,0,0.1-0.1,0.1-0.2
		c0-0.1,0-0.1,0-0.2c0-0.1-0.1-0.1-0.2-0.1c0,0-0.1,0-0.1,0c0,0,0,0,0,0.1v0.4C991,530,991,530,991.1,529.9L991.1,529.9z"/>
	<path id="Trazado_832" class="st0" d="M992.6,529.4c0,0,0.1,0,0.1,0c0,0,0,0,0.1,0c0,0,0,0,0-0.1h0v0.4h0c0-0.1-0.1-0.1-0.1-0.2
		c-0.1-0.1-0.2-0.1-0.3-0.1c-0.1,0-0.2,0.1-0.3,0.2c-0.1,0.1-0.1,0.3-0.1,0.4c0,0.1,0,0.2,0,0.3c0,0.1,0.2,0.2,0.3,0.2
		c0.1,0,0.2,0,0.3-0.1c0.1,0,0.1-0.1,0.2-0.1l0.1,0c-0.1,0.1-0.1,0.1-0.2,0.2c-0.1,0.1-0.2,0.1-0.3,0.1c-0.2,0-0.3-0.1-0.4-0.2
		c-0.1-0.1-0.2-0.3-0.2-0.5c0-0.2,0.1-0.3,0.2-0.5c0.1-0.1,0.3-0.2,0.4-0.2C992.4,529.4,992.5,529.4,992.6,529.4z"/>
	<path id="Trazado_833" class="st0" d="M993,530.5c0,0,0.1,0,0.1,0c0,0,0.1-0.1,0.1-0.1v-0.9c0,0,0-0.1-0.1-0.1c0,0-0.1,0-0.1,0v0
		h0.6v0c0,0-0.1,0-0.1,0c0,0-0.1,0.1-0.1,0.1v0.9c0,0,0,0.1,0,0.1c0,0,0.1,0,0.1,0v0L993,530.5L993,530.5z"/>
	<path id="Trazado_834" class="st0" d="M994.8,529.5c0.1,0.1,0.2,0.3,0.2,0.5c0,0.3-0.3,0.6-0.6,0.6c-0.3,0-0.6-0.3-0.6-0.6l0,0
		c0-0.2,0.1-0.3,0.2-0.5C994.1,529.3,994.5,529.3,994.8,529.5L994.8,529.5z M994.6,530.3c0-0.1,0-0.2,0-0.3c0-0.1,0-0.3-0.1-0.4
		c0-0.1-0.1-0.1-0.2-0.1c-0.1,0-0.2,0.1-0.3,0.2c0,0.1,0,0.2,0,0.3c0,0.1,0,0.2,0,0.3c0,0.1,0.1,0.2,0.3,0.2
		C994.5,530.6,994.6,530.5,994.6,530.3L994.6,530.3z"/>
</g>
</svg>
